<svg xmlns="http://www.w3.org/2000/svg" width="65.921" height="70.757" viewBox="0 0 65.921 70.757"><g transform="translate(-23.958 -6.497)"><g transform="translate(35.786 7.5)"><path d="M219.83,134.555l-3.227-1.863a1.8,1.8,0,0,1-.891-1.675q.032-.5.033-1t-.033-1a1.8,1.8,0,0,1,.891-1.675l3.228-1.863a1.793,1.793,0,0,0,.656-2.449l-4.39-7.6a1.793,1.793,0,0,0-2.45-.656l-3.228,1.863a1.785,1.785,0,0,1-1.883-.057,16.13,16.13,0,0,0-1.77-1.025,1.785,1.785,0,0,1-.987-1.6v-3.724a1.791,1.791,0,0,0-.054-.43h-2.458l-5.741,3.883-5.432,6.632-1.554,5.642v9.264l3.527,7.374,7.378,6.5,2.236.968,2.043.187a1.792,1.792,0,0,0,.054-.43v-3.724a1.785,1.785,0,0,1,.987-1.6,16.141,16.141,0,0,0,1.77-1.025,1.786,1.786,0,0,1,1.883-.057l3.228,1.864a1.793,1.793,0,0,0,2.45-.656l4.39-7.6A1.794,1.794,0,0,0,219.83,134.555Z" transform="translate(-178.463 -95.637)" fill="#dbedff"/><path d="M116.47,121.523A21.6,21.6,0,0,1,130.5,101.3a1.792,1.792,0,0,0-1.739-1.363h-8.781a1.793,1.793,0,0,0-1.793,1.793v3.724a1.785,1.785,0,0,1-.987,1.6,16.143,16.143,0,0,0-1.77,1.025,1.786,1.786,0,0,1-1.883.057l-3.228-1.863a1.793,1.793,0,0,0-2.45.656l-4.39,7.6a1.793,1.793,0,0,0,.656,2.449l3.228,1.863a1.8,1.8,0,0,1,.891,1.675q-.032.5-.033,1t.033,1a1.8,1.8,0,0,1-.891,1.675l-3.228,1.863a1.793,1.793,0,0,0-.656,2.45l4.39,7.6a1.793,1.793,0,0,0,2.45.656l3.228-1.863a1.786,1.786,0,0,1,1.883.057,16.143,16.143,0,0,0,1.77,1.025,1.785,1.785,0,0,1,.987,1.6v3.724a1.793,1.793,0,0,0,1.793,1.793h8.781a1.792,1.792,0,0,0,1.739-1.363A21.6,21.6,0,0,1,116.47,121.523Z" transform="translate(-103.235 -87.147)" fill="#b5dcff"/><path d="M194.041,257.339H188.77a1.023,1.023,0,0,0-1.023,1.023v7.3h6.294l.386-.551v-7.2Z" transform="translate(-176.056 -222.778)" fill="#60b9fe"/><path d="M239.541,226.585H234.27a1.023,1.023,0,0,0-1.023,1.023v11.555h6.294l.525-.667V227.152Z" transform="translate(-215.262 -196.278)" fill="#1ca8ff"/><path d="M284.019,195.831H279.77a1.023,1.023,0,0,0-1.023,1.023v15.809h6.294V196.854A1.022,1.022,0,0,0,284.019,195.831Z" transform="translate(-254.468 -169.778)" fill="#0094fd"/><path d="M324.821,7.508l-3.952.4-.163.4,2.721,5.026.708.256,2.078-4.045A1.4,1.4,0,0,0,324.821,7.508Z" transform="translate(-290.622 -7.5)" fill="#98d829"/><path d="M298.254,16.052l-3.206-5.595L292,10.766a1.405,1.405,0,0,0-1.077,2.1l3.5,6.1a1.405,1.405,0,0,0,2.469-.057l1.421-2.767C298.293,16.111,298.272,16.083,298.254,16.052Z" transform="translate(-264.801 -10.048)" fill="#8cc825"/><path d="M158.85,440.53l.268.484,6.813-.865.268-.316h0l-2.4-4.187a1.405,1.405,0,0,0-2.469.056l-2.48,4.828Z" transform="translate(-151.157 -375.81)" fill="#98d829"/><path d="M158.868,470.317l-6.976.709a1.43,1.43,0,0,1-.373-.012L150.5,473a1.4,1.4,0,0,0,1.392,2.04l7-.711a1.405,1.405,0,0,0,1.077-2.1Z" transform="translate(-143.826 -406.294)" fill="#8cc825"/></g><g transform="translate(24.958 7.5)"><g transform="translate(0 0)"><path d="M298.387,106.244a31.968,31.968,0,0,0,7.4-60.508" transform="translate(-260.563 -40.447)" fill="none" stroke="#000" stroke-linecap="round" stroke-linejoin="round" stroke-miterlimit="10" stroke-width="2"/><path d="M299,7.508l-7,.711a1.405,1.405,0,0,0-1.077,2.1l3.5,6.1a1.4,1.4,0,0,0,2.469-.057l3.5-6.812A1.405,1.405,0,0,0,299,7.508Z" transform="translate(-253.973 -7.5)" fill="none" stroke="#000" stroke-linecap="round" stroke-linejoin="round" stroke-miterlimit="10" stroke-width="2"/><path d="M51.055,28.853a31.967,31.967,0,0,0-7.4,60.508" transform="translate(-24.958 -25.899)" fill="none" stroke="#000" stroke-linecap="round" stroke-linejoin="round" stroke-miterlimit="10" stroke-width="2"/><path d="M151.892,444.552l7-.711a1.405,1.405,0,0,0,1.077-2.1l-3.5-6.1A1.4,1.4,0,0,0,154,435.7l-3.5,6.812A1.405,1.405,0,0,0,151.892,444.552Z" transform="translate(-132.998 -375.809)" fill="none" stroke="#000" stroke-linecap="round" stroke-linejoin="round" stroke-miterlimit="10" stroke-width="2"/></g><path d="M188.77,257.339a1.023,1.023,0,0,0-1.023,1.023v7.3h6.294v-8.323Z" transform="translate(-165.228 -222.778)" fill="none" stroke="#000" stroke-linecap="round" stroke-linejoin="round" stroke-miterlimit="10" stroke-width="2"/><path d="M234.27,226.585a1.023,1.023,0,0,0-1.023,1.023v11.555h6.294V226.585Z" transform="translate(-204.434 -196.278)" fill="none" stroke="#000" stroke-linecap="round" stroke-linejoin="round" stroke-miterlimit="10" stroke-width="2"/><line x2="20.934" transform="translate(21.493 42.884)" fill="none" stroke="#000" stroke-linecap="round" stroke-linejoin="round" stroke-miterlimit="10" stroke-width="2"/><path d="M121.947,99.934h-1.97a1.793,1.793,0,0,0-1.793,1.793v3.724a1.785,1.785,0,0,1-.987,1.6,16.143,16.143,0,0,0-1.77,1.025,1.786,1.786,0,0,1-1.883.057l-3.228-1.863a1.793,1.793,0,0,0-2.45.656l-4.39,7.6a1.793,1.793,0,0,0,.656,2.449l3.228,1.863a1.8,1.8,0,0,1,.891,1.675q-.032.5-.033,1t.033,1a1.8,1.8,0,0,1-.891,1.675l-3.228,1.863a1.793,1.793,0,0,0-.656,2.45l4.39,7.6a1.793,1.793,0,0,0,2.45.656l3.228-1.863a1.786,1.786,0,0,1,1.883.057,16.143,16.143,0,0,0,1.77,1.025,1.785,1.785,0,0,1,.987,1.6v3.724a1.793,1.793,0,0,0,1.793,1.793h8.781a1.793,1.793,0,0,0,1.793-1.793v-3.724a1.785,1.785,0,0,1,.987-1.6,16.141,16.141,0,0,0,1.77-1.025,1.786,1.786,0,0,1,1.883-.057l3.228,1.863a1.793,1.793,0,0,0,2.45-.656l4.39-7.6a1.793,1.793,0,0,0-.656-2.45l-3.227-1.863a1.8,1.8,0,0,1-.891-1.675q.032-.5.033-1t-.033-1a1.8,1.8,0,0,1,.891-1.675l3.228-1.863a1.793,1.793,0,0,0,.656-2.449l-4.39-7.6a1.793,1.793,0,0,0-2.45-.656l-3.228,1.863a1.785,1.785,0,0,1-1.883-.057,16.13,16.13,0,0,0-1.77-1.025,1.785,1.785,0,0,1-.987-1.6v-3.724a1.793,1.793,0,0,0-1.793-1.793h-1.97" transform="translate(-92.407 -87.147)" fill="none" stroke="#000" stroke-linecap="round" stroke-linejoin="round" stroke-miterlimit="10" stroke-width="2"/><path d="M285.042,201.918v-5.065a1.023,1.023,0,0,0-1.023-1.023h-4.249a1.023,1.023,0,0,0-1.023,1.023v15.809h6.294v-5.9" transform="translate(-243.64 -169.778)" fill="none" stroke="#000" stroke-linecap="round" stroke-linejoin="round" stroke-miterlimit="10" stroke-width="2"/></g></g></svg>