<svg xmlns="http://www.w3.org/2000/svg" width="65.921" height="70.757" viewBox="0 0 65.921 70.757"><g transform="translate(-23.958 -6.497)"><g transform="translate(35.786 7.5)"><path fill="#dbedff" d="m41.367 38.918-3.227-1.863a1.8 1.8 0 0 1-.891-1.675q.032-.5.033-1t-.033-1a1.8 1.8 0 0 1 .891-1.675l3.228-1.863a1.793 1.793 0 0 0 .656-2.449l-4.39-7.6a1.793 1.793 0 0 0-2.45-.656L31.956 21a1.79 1.79 0 0 1-1.883-.057 16 16 0 0 0-1.77-1.025 1.79 1.79 0 0 1-.987-1.6v-3.724a1.8 1.8 0 0 0-.054-.43h-2.458l-5.741 3.883-5.432 6.632-1.554 5.642v9.264l3.527 7.374 7.378 6.5 2.236.968 2.043.187a1.8 1.8 0 0 0 .054-.43V50.46a1.79 1.79 0 0 1 .987-1.6 16 16 0 0 0 1.77-1.025 1.79 1.79 0 0 1 1.883-.057l3.228 1.864a1.793 1.793 0 0 0 2.45-.656l4.39-7.6a1.794 1.794 0 0 0-.656-2.468"/><path fill="#b5dcff" d="M13.235 34.376a21.6 21.6 0 0 1 14.03-20.223 1.79 1.79 0 0 0-1.739-1.363h-8.781a1.793 1.793 0 0 0-1.793 1.793v3.724a1.79 1.79 0 0 1-.987 1.6 16 16 0 0 0-1.77 1.025 1.79 1.79 0 0 1-1.883.057l-3.228-1.863a1.793 1.793 0 0 0-2.45.656l-4.39 7.6A1.793 1.793 0 0 0 .9 29.831l3.228 1.863a1.8 1.8 0 0 1 .891 1.675q-.032.5-.033 1t.033 1a1.8 1.8 0 0 1-.891 1.675L.9 38.907a1.793 1.793 0 0 0-.656 2.45l4.39 7.6a1.793 1.793 0 0 0 2.45.656l3.228-1.863a1.79 1.79 0 0 1 1.883.057 16 16 0 0 0 1.77 1.025 1.79 1.79 0 0 1 .987 1.6v3.724a1.793 1.793 0 0 0 1.793 1.793h8.781a1.79 1.79 0 0 0 1.739-1.363 21.6 21.6 0 0 1-14.03-20.21"/><path fill="#60b9fe" d="M17.985 34.561h-5.271a1.023 1.023 0 0 0-1.023 1.023v7.3h6.294l.386-.551v-7.2Z"/><path fill="#1ca8ff" d="M24.279 30.307h-5.271a1.023 1.023 0 0 0-1.023 1.023v11.555h6.294l.525-.667V30.874Z"/><path fill="#0094fd" d="M29.551 26.053h-4.249a1.023 1.023 0 0 0-1.023 1.023v15.809h6.294V27.076a1.02 1.02 0 0 0-1.022-1.023"/><path fill="#98d829" d="m34.199.008-3.952.4-.163.4 2.721 5.026.708.256 2.078-4.045A1.4 1.4 0 0 0 34.199.008"/><path fill="#8cc825" d="M33.453 6.004 30.247.409l-3.048.309a1.405 1.405 0 0 0-1.077 2.1l3.5 6.1a1.405 1.405 0 0 0 2.469-.057l1.421-2.767q-.031-.045-.059-.09"/><path fill="#98d829" d="m7.693 64.72.268.484 6.813-.865.268-.316-2.4-4.187a1.405 1.405 0 0 0-2.469.056z"/><path fill="#8cc825" d="m15.042 64.023-6.976.709a1.4 1.4 0 0 1-.373-.012l-1.019 1.986a1.4 1.4 0 0 0 1.392 2.04l7-.711a1.405 1.405 0 0 0 1.077-2.1Z"/></g><g fill="none" stroke="#000" stroke-linecap="round" stroke-linejoin="round" stroke-miterlimit="10" stroke-width="2" transform="translate(24.958 7.5)"><path d="M37.824 65.797a31.968 31.968 0 0 0 7.4-60.508M45.027.008l-7 .711a1.405 1.405 0 0 0-1.077 2.1l3.5 6.1a1.4 1.4 0 0 0 2.469-.057l3.5-6.812A1.405 1.405 0 0 0 45.027.008m-18.93 2.946a31.967 31.967 0 0 0-7.4 60.508m.197 5.281 7-.711a1.405 1.405 0 0 0 1.077-2.1l-3.5-6.1a1.4 1.4 0 0 0-2.469.059l-3.5 6.812a1.405 1.405 0 0 0 1.392 2.04m4.648-34.182a1.023 1.023 0 0 0-1.023 1.023v7.3h6.294v-8.323Z"/><path d="M29.836 30.307a1.023 1.023 0 0 0-1.023 1.023v11.555h6.294V30.307Zm-8.343 12.577h20.934"/><path d="M29.54 12.787h-1.97a1.793 1.793 0 0 0-1.793 1.793v3.724a1.79 1.79 0 0 1-.987 1.6 16 16 0 0 0-1.77 1.025 1.79 1.79 0 0 1-1.883.057l-3.228-1.863a1.793 1.793 0 0 0-2.45.656l-4.39 7.6a1.793 1.793 0 0 0 .656 2.449l3.228 1.863a1.8 1.8 0 0 1 .891 1.675q-.032.5-.033 1t.033 1a1.8 1.8 0 0 1-.891 1.675l-3.228 1.863a1.793 1.793 0 0 0-.656 2.45l4.39 7.6a1.793 1.793 0 0 0 2.45.656l3.228-1.863a1.79 1.79 0 0 1 1.883.057 16 16 0 0 0 1.77 1.025 1.79 1.79 0 0 1 .987 1.6v3.724a1.793 1.793 0 0 0 1.793 1.793h8.781a1.793 1.793 0 0 0 1.793-1.793v-3.724a1.79 1.79 0 0 1 .987-1.6 16 16 0 0 0 1.77-1.025 1.79 1.79 0 0 1 1.883-.057l3.228 1.863a1.793 1.793 0 0 0 2.45-.656l4.39-7.6a1.793 1.793 0 0 0-.656-2.45l-3.227-1.863a1.8 1.8 0 0 1-.891-1.675q.032-.5.033-1t-.033-1a1.8 1.8 0 0 1 .891-1.675l3.228-1.863a1.793 1.793 0 0 0 .656-2.449l-4.39-7.6a1.793 1.793 0 0 0-2.45-.656l-3.228 1.863a1.79 1.79 0 0 1-1.883-.057 16 16 0 0 0-1.77-1.025 1.79 1.79 0 0 1-.987-1.6V14.58a1.793 1.793 0 0 0-1.793-1.793h-1.97"/><path d="M41.402 32.14v-5.065a1.023 1.023 0 0 0-1.023-1.023H36.13a1.023 1.023 0 0 0-1.023 1.023v15.809h6.294v-5.9"/></g></g></svg>