<svg xmlns="http://www.w3.org/2000/svg" xmlns:xlink="http://www.w3.org/1999/xlink" width="820" height="704.667" viewBox="0 0 820 704.667"><defs><clipPath id="a"><path d="M11.8,0H808.2C814.716,0,820,11.823,820,26.408V678.259c0,14.585-5.284,26.408-11.8,26.408H11.8c-6.519,0-11.8-11.823-11.8-26.408V26.408C0,11.823,5.284,0,11.8,0Z" transform="translate(-6445.976 -9744.023)" fill="#f2fbe4"/></clipPath><clipPath id="b"><path d="M22.119,75.413l521.963-101.5L507.562,223-14.4,324.5Z" fill="#cfd9d6"/></clipPath></defs><g transform="translate(6445.976 9744.023)" opacity="0.17" clip-path="url(#a)"><path d="M15.126,0H1035.748c8.354,0,15.126,9.474,15.126,21.16V543.474c0,11.686-6.772,21.16-15.126,21.16H15.126C6.772,564.633,0,555.16,0,543.474V21.16C0,9.474,6.772,0,15.126,0Z" transform="translate(-6442.812 -9766.326)" fill="#e6ebe9" opacity="0.51"/><g transform="translate(-6543.429 -9591.343) rotate(-25)" opacity="0.56"><g clip-path="url(#b)"><path d="M411.484-19.028,397.57,14.153c-9.307,22.193-24.2,42.462-40.869,55.609s-35.165,19.227-50.771,16.687c-14.133-2.3-27.235-11.533-41.11-21.3C251.459,55.735,237.647,46,220.7,40.381,187.486,29.371,147.922,36.5,109.3,60.475S35.2,123.88,9.406,171.517L-9.131,205.745,8.037,225.816c3.527,4.122,6.836,9.41,10.34,15.014,4.111,6.581,8.777,14.036,14.609,20.859l25.584,29.9,27.144-51.306c7.41-14.006,20.886-27.738,36.055-36.743,13.164-7.825,26.947-9.6,37.819-4.886,6.8,2.943,13.507,8.776,20.617,14.945,4.436,3.85,9.025,7.836,14.1,11.567,44.941,33.076,108.268,30.258,169.4-7.546S479.758,109.532,510.6,29.6l21.259-55.1Z" transform="translate(9.671 16.845)" fill="#cfd9d6"/></g></g><path d="M283.417,0C439.945,0,566.835,197.737,566.835,441.657S439.945,883.315,283.417,883.315,0,685.578,0,441.657,126.89,0,283.417,0Z" transform="translate(-6487.812 -10161.172)" fill="#134336" opacity="0.16"/><path d="M283.417,0C439.945,0,566.835,197.737,566.835,441.657S439.945,883.315,283.417,883.315,0,685.578,0,441.657,126.89,0,283.417,0Z" transform="translate(-5834.993 -9709.696)" fill="#134336" opacity="0.16"/><path d="M0,247.1c15.79,38.376,42.055,67.254,71.144,72.084s60.186-16.873,74.44-56.682c5.091-14.22,7.983-30.055,12.118-45.008,14.364-51.946,44.7-92.489,79.832-106.7,20.572-8.321,42.931-8.324,61.537-24.333C318.7,69.58,331.46,34.927,330.915,0" transform="translate(-6486.704 -9798.36)" fill="none" stroke="#fff" stroke-miterlimit="10" stroke-width="3"/><path d="M8.411,149.713c25.374,37.818,61.625,70.094,97.149,82.05s68.921,1.195,79.142-29.9c3.651-11.108,4.4-24.215,6.787-36.219,8.285-41.7,37.564-69.172,77.053-72.3,23.123-1.829,49.793,4.1,69.262-4.983,20.535-9.586,29.855-36.561,23.254-67.309" transform="matrix(-0.809, -0.588, 0.588, -0.809, -6178.492, -8892.348)" fill="none" stroke="#fff" stroke-miterlimit="10" stroke-width="3"/><path d="M72.16,26.541c2.728-13.322-2.8-23.922-11.412-27.611-22.771-9.752-79.832,25.331-57.924,58.7C15.566,77.038,64,66.355,72.16,26.541Z" transform="translate(-6376.707 -9238.068) rotate(150)" fill="none" stroke="#fff" stroke-miterlimit="10" stroke-width="3"/><path d="M6.6,230.861c22.279,44.583,55.816,80.388,90.226,90.253s68.49-9.069,81.1-50.51c4.505-14.8,6.283-31.723,9.6-47.48,11.521-54.739,42.816-94.462,82.356-104.54,23.154-5.9,49.227-2.4,69.315-17.042,21.188-15.449,32.582-51.466,28.429-89.873" transform="matrix(-0.966, -0.259, 0.259, -0.966, -5357.254, -9050.426)" fill="none" stroke="#fff" stroke-miterlimit="10" stroke-width="3"/><path d="M98.388,22.006C101.781,9.483,94,0,82.19-2.891,50.961-10.521-25.863,25.553,4.761,55.138,22.572,72.344,88.246,59.432,98.388,22.006Z" transform="matrix(-0.574, 0.819, -0.819, -0.574, -5407.48, -9361.359)" fill="none" stroke="#fff" stroke-miterlimit="10" stroke-width="3"/></g></svg>