<svg xmlns="http://www.w3.org/2000/svg" width="135" height="129" viewBox="0 0 135 129"><g transform="translate(-1125.051 -5035)"><g transform="translate(1070.031 5043.283)"><path d="M150.636,116.852h-45.1A13.531,13.531,0,0,1,92,103.321V21.031A13.531,13.531,0,0,1,105.532,7.5h45.1a13.531,13.531,0,0,1,13.532,13.531v82.289A13.531,13.531,0,0,1,150.636,116.852Z" transform="translate(-5.85 -5.85)" fill="#a2b9e2"/><path d="M122,124.96V46.191a8.691,8.691,0,0,1,8.691-8.691h41.585a8.691,8.691,0,0,1,8.691,8.691V124.96a8.691,8.691,0,0,1-8.691,8.691H130.691A8.691,8.691,0,0,1,122,124.96Z" transform="translate(-29.249 -29.249)" fill="#ecf4ff"/><path d="M327.1,37.5h-6.6a8.691,8.691,0,0,1,8.691,8.691V124.96a8.691,8.691,0,0,1-8.691,8.691h6.6a8.691,8.691,0,0,0,8.691-8.691V46.191A8.691,8.691,0,0,0,327.1,37.5Z" transform="translate(-184.074 -29.249)" fill="#ddeafb"/><path d="M150.636,434.3h-45.1A13.531,13.531,0,0,1,92,420.771V414.5h72.168v6.271A13.531,13.531,0,0,1,150.636,434.3Z" transform="translate(-5.85 -323.3)" fill="#5c90b9"/><path d="M342.031,414.5v6.271A13.531,13.531,0,0,1,328.5,434.3h6.6a13.531,13.531,0,0,0,13.531-13.531V414.5Z" transform="translate(-190.314 -323.3)" fill="#4a80aa"/><path d="M186,447.8a3.3,3.3,0,0,1,3.3-3.3h24.2a3.3,3.3,0,1,1,0,6.6H189.3A3.3,3.3,0,0,1,186,447.8Z" transform="translate(-79.168 -346.699)" fill="#dd4fb1"/><path d="M234.893,99.789h-7.921a2.648,2.648,0,0,1-2.64-2.64V71.186a2.648,2.648,0,0,1,2.64-2.64h7.921a2.648,2.648,0,0,1,2.64,2.64V97.149A2.648,2.648,0,0,1,234.893,99.789Z" transform="translate(-109.066 -53.464)" fill="#a2b9e2"/><path d="M248.933,68.546h-6.6a2.648,2.648,0,0,1,2.64,2.64V97.149a2.648,2.648,0,0,1-2.64,2.64h6.6a2.648,2.648,0,0,0,2.64-2.64V71.186A2.648,2.648,0,0,0,248.933,68.546Z" transform="translate(-123.105 -53.464)" fill="#89aada"/><path d="M224.332,124.848v16.3a2.564,2.564,0,0,0,2.561,2.552h8.079a2.564,2.564,0,0,0,2.561-2.552v-16.3Z" transform="translate(-109.066 -97.378)" fill="#ffd064"/><path d="M245.254,124.848v16.3a2.564,2.564,0,0,1-2.561,2.552h6.6a2.564,2.564,0,0,0,2.561-2.552v-16.3Z" transform="translate(-123.387 -97.378)" fill="#ffc250"/><circle cx="6.821" cy="6.821" r="6.821" transform="translate(115.046 61.942)" fill="#ffd064"/><path d="M242.632,281.523a6.788,6.788,0,0,0-3.3.852,6.821,6.821,0,0,1,0,11.938,6.821,6.821,0,1,0,3.3-12.79Z" transform="translate(-120.765 -219.581)" fill="#ffc250"/><g transform="translate(84.5)"><path d="M158.318,20.646a1.65,1.65,0,0,0,1.65-1.65V15.182A15.2,15.2,0,0,0,144.787,0h-45.1A15.2,15.2,0,0,0,84.5,15.182V97.471a15.2,15.2,0,0,0,15.182,15.182h5.831a1.65,1.65,0,1,0,0-3.3H99.682A11.9,11.9,0,0,1,87.8,97.471V92.85h68.868v4.621a11.9,11.9,0,0,1-11.881,11.881h-30.95a1.65,1.65,0,0,0,0,3.3h30.95a15.2,15.2,0,0,0,15.182-15.182V26.843a1.65,1.65,0,0,0-3.3,0V89.55h-3.3V16.942A10.353,10.353,0,0,0,143.026,6.6H101.442A10.353,10.353,0,0,0,91.1,16.942V89.55H87.8V15.182A11.9,11.9,0,0,1,99.682,3.3h45.1a11.9,11.9,0,0,1,11.881,11.881V19A1.65,1.65,0,0,0,158.318,20.646ZM94.4,16.942A7.049,7.049,0,0,1,101.442,9.9h41.585a7.049,7.049,0,0,1,7.041,7.041V89.55H94.4Z" transform="translate(-84.5)"/><path d="M212.6,441.951A4.956,4.956,0,0,0,207.653,437h-24.2a4.951,4.951,0,0,0,0,9.9h24.2A4.956,4.956,0,0,0,212.6,441.951Zm-30.8,0a1.652,1.652,0,0,1,1.65-1.65h24.2a1.65,1.65,0,1,1,0,3.3h-24.2A1.652,1.652,0,0,1,181.8,441.951Z" transform="translate(-157.818 -340.849)"/><path d="M221.122,95.59h7.921a4.3,4.3,0,0,0,4.29-4.29V65.336a4.3,4.3,0,0,0-4.29-4.29h-7.921a4.3,4.3,0,0,0-4.29,4.29V91.3A4.3,4.3,0,0,0,221.122,95.59Zm7.921-3.3h-7.921a1,1,0,0,1-.99-.99V76.734h9.9V91.3A1,1,0,0,1,229.043,92.289Zm-7.921-27.943h7.921a1,1,0,0,1,.99.99v8.1h-9.9v-8.1A1,1,0,0,1,221.122,64.346Z" transform="translate(-187.716 -47.614)"/><path d="M215.832,282.494a8.471,8.471,0,1,0,8.471-8.471A8.481,8.481,0,0,0,215.832,282.494Zm8.471-5.171a5.171,5.171,0,1,1-5.171,5.171A5.176,5.176,0,0,1,224.3,277.323Z" transform="translate(-186.936 -213.731)"/><path d="M250.132,236.313v-2.64a1.65,1.65,0,0,0-3.3,0v2.64a1.65,1.65,0,0,0,3.3,0Z" transform="translate(-211.115 -180.972)"/><path d="M248.482,366.023a1.65,1.65,0,0,0-1.65,1.65v2.64a1.65,1.65,0,0,0,3.3,0v-2.64A1.65,1.65,0,0,0,248.482,366.023Z" transform="translate(-211.115 -285.489)"/><path d="M211.872,246.564a1.713,1.713,0,0,0,2.254.6,1.65,1.65,0,0,0,.6-2.254l-1.32-2.286a1.65,1.65,0,0,0-2.858,1.65Z" transform="translate(-182.645 -188.6)"/><path d="M280.41,358.675a1.65,1.65,0,1,0-2.858,1.65l1.32,2.286a1.668,1.668,0,0,0,2.254.6,1.65,1.65,0,0,0,.6-2.254Z" transform="translate(-234.903 -279.114)"/><path d="M188.373,270.063l-2.286-1.32a1.65,1.65,0,0,0-1.65,2.858l2.286,1.32a1.676,1.676,0,0,0,2.254-.6A1.65,1.65,0,0,0,188.373,270.063Z" transform="translate(-161.804 -209.44)"/><path d="M304.42,337.063l-2.287-1.32a1.65,1.65,0,0,0-1.65,2.858l2.287,1.32a1.68,1.68,0,0,0,2.254-.6A1.65,1.65,0,0,0,304.42,337.063Z" transform="translate(-252.318 -261.699)"/><path d="M179.773,306.673a1.65,1.65,0,0,0-1.65-1.65h-2.64a1.65,1.65,0,1,0,0,3.3h2.64A1.65,1.65,0,0,0,179.773,306.673Z" transform="translate(-154.177 -237.911)"/><path d="M312.122,305.023h-2.64a1.65,1.65,0,1,0,0,3.3h2.64a1.65,1.65,0,1,0,0-3.3Z" transform="translate(-258.694 -237.911)"/><path d="M186.723,335.744l-2.286,1.32a1.65,1.65,0,0,0-.6,2.254,1.7,1.7,0,0,0,2.254.6l2.286-1.32a1.65,1.65,0,0,0-1.65-2.858Z" transform="translate(-161.804 -261.699)"/><path d="M301.31,273.143a1.642,1.642,0,0,0,.824-.221l2.287-1.32a1.65,1.65,0,0,0-1.65-2.858l-2.287,1.32a1.65,1.65,0,0,0,.827,3.079Z" transform="translate(-252.318 -209.44)"/><path d="M214.127,358.07a1.65,1.65,0,0,0-2.254.6l-1.32,2.286a1.65,1.65,0,0,0,.6,2.254,1.672,1.672,0,0,0,2.254-.6l1.32-2.286A1.65,1.65,0,0,0,214.127,358.07Z" transform="translate(-182.645 -279.113)"/><path d="M281.127,242.023a1.65,1.65,0,0,0-2.254.6l-1.32,2.286a1.65,1.65,0,1,0,2.858,1.65l1.32-2.287A1.65,1.65,0,0,0,281.127,242.023Z" transform="translate(-234.903 -188.599)"/></g></g><rect width="135" height="129" transform="translate(1125.051 5035)" fill="none"/></g></svg>