<svg xmlns="http://www.w3.org/2000/svg" xmlns:xlink="http://www.w3.org/1999/xlink" width="98.665" height="98.665" viewBox="0 0 98.665 98.665"><defs><clipPath id="a"><path d="M0-682.665H98.665V-584H0Z" transform="translate(0 682.665)"/></clipPath></defs><g transform="translate(0 682.665)"><g transform="translate(0 -682.665)"><g clip-path="url(#a)"><g transform="translate(4.115 39.551)"><path d="M-509.711-57.9l-13.142,14.828,5.2,1.063a36.73,36.73,0,0,1-32.955,20.687A36.619,36.619,0,0,1-587.185-57.9a37.106,37.106,0,0,1,.38-5.3l-4.7,5.3-3.265-9.782a45.61,45.61,0,0,0-1.057,9.782,44.922,44.922,0,0,0,13.244,31.974,44.922,44.922,0,0,0,31.974,13.244A44.92,44.92,0,0,0-524.42-21.03a45.1,45.1,0,0,0,15.447-19.2l5.534,1.131Z" transform="translate(595.825 67.679)" fill="#57a4ff"/></g><g transform="translate(2.163 4.115)"><path d="M-114.917-179.877l-5.2-1.063a36.729,36.729,0,0,1,32.955-20.687,36.619,36.619,0,0,1,36.577,36.577,37.074,37.074,0,0,1-.38,5.3l4.7-5.3L-43-155.267a45.594,45.594,0,0,0,1.057-9.782,44.922,44.922,0,0,0-13.244-31.974,44.922,44.922,0,0,0-31.974-13.244,44.919,44.919,0,0,0-26.187,8.351,45.1,45.1,0,0,0-15.447,19.2l-5.534-1.131,6.273,18.8Z" transform="translate(134.332 210.266)" fill="#57a4ff"/></g><g transform="translate(40.452 23.309)"><path d="M-68.061-194.456l-2.618,2.619-2.618-2.619a21.379,21.379,0,0,1,0-30.234l2.618-2.618,2.618,2.618a21.379,21.379,0,0,1,0,30.234" transform="translate(79.559 227.309)" fill="#b6e892"/></g><g transform="translate(22.416 42.635)"><path d="M-135.122-115.173v3.37h-3.37a19.458,19.458,0,0,1-19.458-19.458v-3.371h3.37a19.458,19.458,0,0,1,19.458,19.458" transform="translate(157.95 134.632)" fill="#b6e892"/></g><g transform="translate(53.42 42.635)"><path d="M0-115.173v3.37H3.37a19.458,19.458,0,0,0,19.458-19.458v-3.371h-3.37A19.458,19.458,0,0,0,0-115.173" transform="translate(0 134.632)" fill="#b6e892"/></g><g transform="translate(45.244 54.537)"><path d="M-39.695-9.622-42.313-7l-2.618-2.618A21.629,21.629,0,0,1-46.4-11.248v22.16h8.174V-11.246a21.548,21.548,0,0,1-1.468,1.624" transform="translate(46.401 11.248)" fill="#ffb655"/></g><g transform="translate(4.115 39.551)"><path d="M-112.61-247.151a44.922,44.922,0,0,1-13.244-31.974c0-.564.014-1.126.035-1.686l-1.495,1.687-3.265-9.782a45.611,45.611,0,0,0-1.057,9.782,44.922,44.922,0,0,0,13.244,31.974,44.922,44.922,0,0,0,31.974,13.244q1.458,0,2.9-.093a44.883,44.883,0,0,1-29.094-13.151" transform="translate(131.636 288.906)" fill="#006df0"/></g><g transform="translate(2.163 30.537)"><path d="M-34.852-1.9q-.18.4-.354.811L-40.74-2.216l6.273,18.8,4.2-4.739Z" transform="translate(40.74 2.216)" fill="#006df0"/></g><g transform="translate(8.175 4.115)"><path d="M-31.39-163.087a45.1,45.1,0,0,1,15.447-19.2,44.865,44.865,0,0,1,23.286-8.258c-.955-.06-1.914-.093-2.879-.093a44.921,44.921,0,0,0-26.187,8.351,45.1,45.1,0,0,0-14.97,18.118Z" transform="translate(36.693 190.64)" fill="#006df0"/></g><g transform="translate(40.452 23.309)"><path d="M-69.671-17.15c-.09-.093-.18-.187-.272-.279l-2.618-2.618-2.618,2.618a21.379,21.379,0,0,0,0,30.234l2.618,2.618,2.618-2.618c.092-.092.182-.186.272-.279a21.377,21.377,0,0,1,0-29.676" transform="translate(81.442 20.048)" fill="#7ccc92"/></g><g transform="translate(22.416 42.636)"><path d="M-34.219-19.948V-23.17a19.63,19.63,0,0,0-2.411-.148H-40v3.37A19.458,19.458,0,0,0-20.542-.49h3.37V-.639A19.461,19.461,0,0,1-34.219-19.948" transform="translate(40 23.319)" fill="#7ccc92"/></g><g transform="translate(53.42 42.636)"><path d="M-34.219-115.172a19.461,19.461,0,0,1,17.047-19.309v-.149h-3.37A19.458,19.458,0,0,0-40-115.172v3.37h3.37a19.63,19.63,0,0,0,2.411-.149Z" transform="translate(40 134.63)" fill="#7ccc92"/></g><g transform="translate(51.259 54.538)"><path d="M-11.406-25.112l.232-.232v-4.01a21.552,21.552,0,0,1-1.468,1.624l-.691.692Z" transform="translate(13.333 29.355)" fill="#ff7956"/></g><g transform="translate(45.244 54.537)"><path d="M-8.7-9.622a21.67,21.67,0,0,1-1.469-1.626v22.16h3.854V-7.237Z" transform="translate(10.167 11.248)" fill="#ff7956"/></g><g transform="translate(49.332 68.114)"><path d="M-215.6,0a40.7,40.7,0,0,1-17.6,17.619,40.787,40.787,0,0,1-18.821,4.6" transform="translate(252.026)" fill="none" stroke="#fff" stroke-miterlimit="10" stroke-width="1" stroke-dasharray="15 10 15 10 350"/></g><g transform="translate(70.124 14.001)"><path d="M0,0A41.235,41.235,0,0,1,8.185,6.356a40.671,40.671,0,0,1,11.569,22.98" fill="none" stroke="#fff" stroke-miterlimit="10" stroke-width="1" stroke-dasharray="15 10 15 10 350"/></g><g transform="translate(40.452 23.309)"><path d="M-68.061-194.456l-2.618,2.619-2.618-2.619a21.379,21.379,0,0,1,0-30.234l2.618-2.618,2.618,2.618A21.379,21.379,0,0,1-68.061-194.456Z" transform="translate(79.559 227.309)" fill="none" stroke="#000" stroke-miterlimit="10" stroke-width="1"/></g><g transform="translate(22.416 42.635)"><path d="M-135.122-115.173v3.37h-3.37a19.458,19.458,0,0,1-19.458-19.458v-3.371h3.37A19.458,19.458,0,0,1-135.122-115.173Z" transform="translate(157.95 134.632)" fill="none" stroke="#000" stroke-miterlimit="10" stroke-width="1"/></g><g transform="translate(53.42 42.635)"><path d="M0-115.173v3.37H3.37a19.458,19.458,0,0,0,19.458-19.458v-3.371h-3.37A19.458,19.458,0,0,0,0-115.173Z" transform="translate(0 134.632)" fill="none" stroke="#000" stroke-miterlimit="10" stroke-width="1"/></g><g transform="translate(49.332 36.276)"><path d="M0,0V36.567" transform="translate(0)" fill="none" stroke="#000" stroke-miterlimit="10" stroke-width="1"/></g><g transform="translate(31.722 51.942)"><path d="M-80.038-80.039-93.56-93.561" transform="translate(93.56 93.561)" fill="none" stroke="#000" stroke-miterlimit="10" stroke-width="1"/></g><g transform="translate(53.42 51.942)"><path d="M0-80.039,13.522-93.561" transform="translate(0 93.561)" fill="none" stroke="#000" stroke-miterlimit="10" stroke-width="1"/></g><g transform="translate(45.244 54.537)"><path d="M-39.695-9.622-42.313-7l-2.618-2.618A21.629,21.629,0,0,1-46.4-11.248v22.16h8.174V-11.246A21.548,21.548,0,0,1-39.695-9.622Z" transform="translate(46.401 11.248)" fill="none" stroke="#000" stroke-miterlimit="10" stroke-width="1"/></g><g transform="translate(4.115 49.332)"><path d="M0,0A44.922,44.922,0,0,0,13.244,31.972a45.226,45.226,0,0,0,58.161,4.893,45.1,45.1,0,0,0,15.447-19.2l5.534,1.131L86.114,0,72.972,14.827l5.2,1.063A36.729,36.729,0,0,1,45.217,36.576,36.621,36.621,0,0,1,8.652.923" transform="translate(0 0.001)" fill="none" stroke="#000" stroke-miterlimit="10" stroke-width="1"/></g><g transform="translate(2.163 4.115)"><path d="M-546.838-267.643a44.921,44.921,0,0,0-13.244-31.974,44.921,44.921,0,0,0-31.973-13.244,44.921,44.921,0,0,0-26.188,8.351,45.1,45.1,0,0,0-15.447,19.2l-5.534-1.131,6.273,18.8,13.142-14.828-5.2-1.063a36.729,36.729,0,0,1,32.955-20.687,36.621,36.621,0,0,1,36.566,35.653" transform="translate(639.225 312.861)" fill="none" stroke="#000" stroke-miterlimit="10" stroke-width="1"/></g></g></g></g></svg>