<svg xmlns="http://www.w3.org/2000/svg" width="98.665" height="98.665" viewBox="0 0 98.665 98.665"><defs><clipPath id="a"><path d="M0 0h98.665v98.665H0Z"/></clipPath></defs><g clip-path="url(#a)"><path fill="#57a4ff" d="M90.229 49.33 77.087 64.158l5.2 1.063a36.73 36.73 0 0 1-32.955 20.687A36.62 36.62 0 0 1 12.755 49.33a37 37 0 0 1 .38-5.3l-4.7 5.3-3.265-9.782a45.6 45.6 0 0 0-1.057 9.782 44.92 44.92 0 0 0 13.244 31.974 44.92 44.92 0 0 0 31.974 13.244A44.92 44.92 0 0 0 75.52 86.2 45.1 45.1 0 0 0 90.967 67l5.534 1.131Z"/><path fill="#57a4ff" d="m21.578 34.504-5.2-1.063a36.73 36.73 0 0 1 32.955-20.687A36.62 36.62 0 0 1 85.91 49.331a37 37 0 0 1-.38 5.3l4.7-5.3 3.265 9.783a45.6 45.6 0 0 0 1.057-9.782 44.92 44.92 0 0 0-13.244-31.974A44.92 44.92 0 0 0 49.334 4.114a44.9 44.9 0 0 0-26.187 8.351A45.1 45.1 0 0 0 7.7 31.665l-5.534-1.131 6.273 18.8Z"/><path fill="#b6e892" d="m51.95 56.162-2.618 2.619-2.618-2.619a21.38 21.38 0 0 1 0-30.234l2.618-2.618 2.618 2.618a21.38 21.38 0 0 1 0 30.234"/><path fill="#b6e892" d="M45.244 62.094v3.37h-3.37a19.46 19.46 0 0 1-19.458-19.458v-3.371h3.37a19.46 19.46 0 0 1 19.458 19.458m8.176.001v3.37h3.37a19.46 19.46 0 0 0 19.458-19.458v-3.371h-3.37A19.46 19.46 0 0 0 53.42 62.094"/><path fill="#ffb655" d="m51.95 56.163-2.618 2.622-2.618-2.618a22 22 0 0 1-1.469-1.63v22.16h8.174V54.539a22 22 0 0 1-1.468 1.624"/><path fill="#006df0" d="M23.141 81.306A44.92 44.92 0 0 1 9.897 49.332q.002-.846.035-1.686l-1.495 1.687-3.265-9.782a45.6 45.6 0 0 0-1.057 9.782 44.92 44.92 0 0 0 13.244 31.974 44.92 44.92 0 0 0 31.974 13.244q1.458 0 2.9-.093a44.88 44.88 0 0 1-29.094-13.151"/><path fill="#006df0" d="M8.051 30.853q-.18.4-.354.811l-5.534-1.127 6.273 18.8 4.2-4.739Zm5.427.815a45.1 45.1 0 0 1 15.447-19.2A44.87 44.87 0 0 1 52.211 4.21a46 46 0 0 0-2.879-.093 44.92 44.92 0 0 0-26.187 8.351 45.1 45.1 0 0 0-14.97 18.118Z"/><path fill="#7ccc92" d="M52.223 26.207q-.135-.14-.272-.279l-2.618-2.618-2.618 2.618a21.38 21.38 0 0 0 0 30.234l2.618 2.618 2.618-2.618q.138-.139.272-.279a21.377 21.377 0 0 1 0-29.676m-24.026 19.8v-3.222a20 20 0 0 0-2.411-.148h-3.37v3.37a19.46 19.46 0 0 0 19.458 19.458h3.37v-.149a19.46 19.46 0 0 1-17.047-19.309m31.004 16.087a19.46 19.46 0 0 1 17.047-19.309v-.149h-3.37A19.46 19.46 0 0 0 53.42 62.094v3.37h3.37a20 20 0 0 0 2.411-.149Z"/><path fill="#ff7956" d="m53.186 58.781.232-.232v-4.01a22 22 0 0 1-1.468 1.624l-.691.692Zm-6.475-2.618a22 22 0 0 1-1.469-1.626v22.16h3.854V58.548Z"/><path fill="none" stroke="#fff" stroke-dasharray="15 10 15 10 350" stroke-miterlimit="10" d="M85.758 68.114a40.7 40.7 0 0 1-17.6 17.619 40.8 40.8 0 0 1-18.821 4.6m20.787-76.332a41.2 41.2 0 0 1 8.185 6.356 40.67 40.67 0 0 1 11.569 22.98"/><path fill="none" stroke="#000" stroke-miterlimit="10" d="m51.95 56.162-2.618 2.619-2.618-2.619a21.38 21.38 0 0 1 0-30.234l2.618-2.618 2.618 2.618a21.38 21.38 0 0 1 0 30.234Z"/><path fill="none" stroke="#000" stroke-miterlimit="10" d="M45.244 62.094v3.37h-3.37a19.46 19.46 0 0 1-19.458-19.458v-3.371h3.37a19.46 19.46 0 0 1 19.458 19.459Zm8.176 0v3.37h3.37a19.46 19.46 0 0 0 19.458-19.458v-3.371h-3.37A19.46 19.46 0 0 0 53.42 62.094Zm-4.088-25.818v36.567m-4.088-7.379L31.722 51.942M53.42 65.464l13.522-13.522M51.95 56.163l-2.618 2.622-2.618-2.618a22 22 0 0 1-1.469-1.63v22.16h8.174V54.539a22 22 0 0 1-1.469 1.624Z"/><path fill="none" stroke="#000" stroke-miterlimit="10" d="M4.115 49.333a44.92 44.92 0 0 0 13.244 31.972 45.226 45.226 0 0 0 58.161 4.893 45.1 45.1 0 0 0 15.447-19.2l5.534 1.131-6.272-18.796L77.087 64.16l5.2 1.063a36.73 36.73 0 0 1-32.955 20.686 36.62 36.62 0 0 1-36.565-35.653"/><path fill="none" stroke="#000" stroke-miterlimit="10" d="M94.55 49.333a44.92 44.92 0 0 0-13.244-31.974A44.92 44.92 0 0 0 49.333 4.115a44.92 44.92 0 0 0-26.188 8.351 45.1 45.1 0 0 0-15.447 19.2l-5.534-1.131 6.273 18.8 13.142-14.828-5.2-1.063a36.73 36.73 0 0 1 32.955-20.687A36.62 36.62 0 0 1 85.9 48.41"/></g></svg>