<svg xmlns="http://www.w3.org/2000/svg" width="76" height="76" viewBox="0 0 76 76"><g transform="translate(-189.051 -8097)"><g transform="translate(154.544 8084.934)"><g transform="translate(53.257 20.817)"><path fill="#fedfae" d="M39.433 11.94H0v40.141a5.457 5.457 0 0 0 5.457 5.457h28.518a5.457 5.457 0 0 0 5.457-5.457Z"/><g transform="translate(7.754 22.75)"><path fill="#3291bc" d="M23.928 11.963A11.963 11.963 0 1 1 11.965 0a11.963 11.963 0 0 1 11.963 11.963"/><g fill="#96d629" transform="translate(.278 .408)"><path d="M14.642 3.968c1.155.642 3.849 1.984 1.331 2.729-2.367.7-4.766-1.6-6.489 1.295-1.779 2.985 2.437 2.391 3.423 3.656.381.489 1.05 3.14.723 3.774-.457.887-.588 3.555.629 3.177s4.619-2.178 4.423-3.157c-.267-1.34-.5-3.192.966-3.843 1.277-.567 1.46-1.905.9-3.579-.5-1.5.653-2.057 1.716-2.04a12 12 0 0 0-7.217-5.9c-.619 1.014-1.413 3.335-.41 3.892Z"/><path d="M2.665 12.351c-.975 2.019.608 2.129 2.282 3.194 1.825 4.259 2.871 3.416 3.5 2.89 1.539-1.291 2.463-1.018-1.287-4.658-.659-.64-2.938-2-2.431-3.242a5.35 5.35 0 0 1 1.488-1.779c1.039-.854.375-1.623 1.13-2.683 2.865-3.035 3.006-4.7 1.241-6.073A11.98 11.98 0 0 0 .002 8.994c1.508 1.323 2.97 2.723 2.663 3.357"/></g></g><path fill="#07b128" d="M9.979 2.002 7.714 4.267v12.117h4.267V4.267h15.47v12.117h4.267V4.267l-2.265-2.265Z"/><path fill="#96d629" d="M31.719 4.267 27.452 0H11.981L7.714 4.267Z"/></g><path d="M92.69 32.006h-6.964v-6.922a.75.75 0 0 0-.22-.531l-4.267-4.267a.75.75 0 0 0-.531-.22h-15.47a.75.75 0 0 0-.531.22l-4.267 4.267a.75.75 0 0 0-.22.531v6.922h-6.963a.75.75 0 0 0-.75.75v42.6a3.756 3.756 0 0 0 3.752 3.744h33.43a3.756 3.756 0 0 0 3.752-3.752v-42.6a.75.75 0 0 0-.75-.75Zm-.75 43.346a2.254 2.254 0 0 1-2.252 2.248H56.259a2.254 2.254 0 0 1-2.251-2.251V33.507h6.213V37.2a.75.75 0 0 0 .75.75h4.267a.75.75 0 0 0 .75-.75v-3.693h13.97V37.2a.75.75 0 0 0 .75.75h4.267a.75.75 0 0 0 .75-.75v-3.693h6.215ZM80.4 21.567l2.766 2.766H62.783l2.766-2.766Zm-.44 10.439H65.989v-6.172h13.97Zm4.267 4.444h-2.768V25.834h2.766ZM64.488 25.834V36.45h-2.766V25.834Z"/><path d="M72.973 42.816a12.713 12.713 0 1 0 12.713 12.713 12.727 12.727 0 0 0-12.713-12.713m0 23.925a11.225 11.225 0 0 1-11.212-11.212q.001-.543.053-1.074a6.2 6.2 0 0 1 1.418 1.641c-.989 2.158.443 2.9 1.6 3.5.265.137.538.278.812.442.967 2.2 1.838 3.288 2.808 3.519a1.6 1.6 0 0 0 .38.045 2.2 2.2 0 0 0 1.386-.615c.184-.154.358-.284.526-.409.509-.38 1.036-.772 1.081-1.467.055-.84-.532-1.641-2.854-3.895-.167-.163-.393-.341-.654-.547-.49-.387-1.791-1.415-1.605-1.873a4.7 4.7 0 0 1 1.269-1.482 2.56 2.56 0 0 0 .957-1.881 1.86 1.86 0 0 1 .282-.908c2.017-2.146 2.79-3.727 2.506-5.122a2.8 2.8 0 0 0-.4-.961 11.2 11.2 0 0 1 3.922.111 5.4 5.4 0 0 0-.5 2.832 1.66 1.66 0 0 0 .819 1.217l.228.125a9.3 9.3 0 0 1 1.66 1.077 2.6 2.6 0 0 1-.4.151 5 5 0 0 1-2.271-.06c-1.471-.255-3.3-.572-4.65 1.69a2.58 2.58 0 0 0-.418 2.288c.382.98 1.5 1.311 2.478 1.6a3.65 3.65 0 0 1 1.41.6 7.5 7.5 0 0 1 .641 3c-.4.812-.68 2.895.091 3.814a1.27 1.27 0 0 0 .99.472 1.5 1.5 0 0 0 .448-.071 14.4 14.4 0 0 0 2.92-1.436c1.534-.972 2.174-1.793 2.016-2.584-.356-1.786-.2-2.686.534-3.011s2.335-1.419 1.312-4.5c-.208-.627.029-.783.142-.857a1.2 1.2 0 0 1 .414-.16 11.208 11.208 0 0 1-10.136 16Zm-2.72-21.042c.173.852-.535 2.106-2.166 3.833a1 1 0 0 0-.066.08 3.27 3.27 0 0 0-.575 1.629 1.1 1.1 0 0 1-.42.909 6 6 0 0 0-1.707 2.076c-.611 1.5 1 2.775 2.065 3.617.219.173.426.337.539.446a15 15 0 0 1 2.394 2.7 4 4 0 0 1-.473.386c-.177.132-.377.281-.594.463s-.36.282-.454.26c-.119-.029-.771-.3-1.873-2.871a.75.75 0 0 0-.287-.338c-.4-.251-.78-.451-1.119-.626-1.207-.624-1.333-.69-.889-1.609.493-1.02-.563-2.227-2.506-3.948a11.26 11.26 0 0 1 7.571-7.9 1.74 1.74 0 0 1 .56.893m10.875 6.531c.7 2.123-.2 2.525-.5 2.657-2.085.926-1.626 3.519-1.413 4.594-.282.575-2.531 1.912-3.791 2.341a3.6 3.6 0 0 1 .158-2.082c.517-1-.336-3.985-.8-4.579a4.13 4.13 0 0 0-2.17-1.126c-.588-.175-1.393-.414-1.508-.711-.025-.065-.078-.326.309-.974a1.88 1.88 0 0 1 1.779-1.137 8 8 0 0 1 1.327.158 6.3 6.3 0 0 0 2.953.02c.363-.108 1.469-.435 1.572-1.387.122-1.14-1.349-1.947-2.531-2.6l-.22-.121a.3.3 0 0 1-.072-.178 4.45 4.45 0 0 1 .486-2.15 11.27 11.27 0 0 1 5.65 4.446 2.4 2.4 0 0 0-.488.241 2.09 2.09 0 0 0-.74 2.588Z"/></g><path fill="none" d="M189.051 8097h76v76h-76z"/></g></svg>