<svg xmlns="http://www.w3.org/2000/svg" width="62" height="62" viewBox="0 0 62 62"><g transform="translate(-1 -1)"><path fill="#e6e9ed" d="M34 2a12 12 0 1 1-7.9 21.03h-.01a12 12 0 0 1-2.81-3.64h-.01a11.8 11.8 0 0 1-1.17-3.84A11 11 0 0 1 22 14 12 12 0 0 1 34 2"/><circle cx="8" cy="8" r="8" fill="#bceb79" transform="translate(26 6)"/><path fill="#ffc729" d="m48.39 51-6.54 6.51-3.11-1.91a22 22 0 0 1-6.89 2.86L31 62h-8l-.85-3.54a22 22 0 0 1-6.89-2.86l-3.11 1.91-5.66-5.66 1.91-3.11a22 22 0 0 1-2.86-6.89L2 41v-8l3.54-.85a22 22 0 0 1 2.86-6.89l-1.91-3.11 5.66-5.66 3.11 1.91a21.9 21.9 0 0 1 6.84-2.85 11.8 11.8 0 0 0 1.17 3.84A18 18 0 1 0 38.31 51z"/><path fill="#fcd770" d="M13.61 41a14.45 14.45 0 0 0 13.81 10h10.89a18 18 0 1 1-15.04-31.61h.01a12 12 0 0 0 2.81 3.64A13.99 13.99 0 0 0 13 37.08a13.4 13.4 0 0 0 .61 3.92"/><path fill="#d3a06c" d="M51 41H41a2 2 0 0 1-2-2v-8a2 2 0 0 1 2-2h10a2 2 0 0 1 2 2v8a2 2 0 0 1-2 2m-20 0H21a2 2 0 0 1-2-2v-8a2 2 0 0 1 2-2h10a2 2 0 0 1 2 2v8a2 2 0 0 1-2 2"/><path fill="#b27946" d="M43 29h6v4h-6Zm-20 0h6v4h-6Z"/><path fill="#ccd1d9" d="M60.54 42.46A5.02 5.02 0 0 0 57 41H13.61a14.45 14.45 0 0 0 13.81 10H57a5.006 5.006 0 0 0 3.54-8.54"/><circle cx="4" cy="4" r="4" fill="#969faa" transform="translate(26 42)"/><circle cx="4" cy="4" r="4" fill="#969faa" transform="translate(38 42)"/><circle cx="4" cy="4" r="4" fill="#969faa" transform="translate(50 42)"/><path d="M34 23a9 9 0 1 0-9-9 9.01 9.01 0 0 0 9 9m0-16a7 7 0 1 1-7 7 7.01 7.01 0 0 1 7-7"/><path d="M57 40h-3.184A3 3 0 0 0 54 39v-8a3 3 0 0 0-3-3H41a3 3 0 0 0-3 3v8a3 3 0 0 0 .184 1h-4.369A3 3 0 0 0 34 39v-8a3 3 0 0 0-3-3H21a3 3 0 0 0-3 3v8a3 3 0 0 0 .184 1h-3.823A12.6 12.6 0 0 1 14 37.076a13 13 0 0 1 11.79-13.008A12.992 12.992 0 1 0 21 14c0 .272.024.537.041.805a22.8 22.8 0 0 0-5.779 2.419L12 15.23 5.23 22l1.994 3.262a22.8 22.8 0 0 0-2.509 6.055L1 32.213v9.574l3.715.9a22.8 22.8 0 0 0 2.509 6.055L5.23 52 12 58.77l3.261-1.993a22.8 22.8 0 0 0 6.055 2.51l.9 3.713h9.575l.9-3.714a22.8 22.8 0 0 0 6.055-2.51L42 58.768 48.8 52H57a6 6 0 0 0 0-12m-3 9a3 3 0 1 1 3-3 3 3 0 0 1-3 3m-5-3a4.98 4.98 0 0 0 2.031 4h-6.062a4.954 4.954 0 0 0 0-8h6.062A4.98 4.98 0 0 0 49 46m-16.031 4a4.954 4.954 0 0 0 0-8h6.062a4.954 4.954 0 0 0 0 8ZM30 43a3 3 0 1 1-3 3 3 3 0 0 1 3-3m12 6a3 3 0 1 1 3-3 3 3 0 0 1-3 3m2-19h4v2h-4Zm-4 9v-8a1 1 0 0 1 1-1h1v4h8v-4h1a1 1 0 0 1 1 1v8a1 1 0 0 1-1 1H41a1 1 0 0 1-1-1m-16-9h4v2h-4Zm-4 9v-8a1 1 0 0 1 1-1h1v4h8v-4h1a1 1 0 0 1 1 1v8a1 1 0 0 1-1 1H21a1 1 0 0 1-1-1m1 3h6.031a4.953 4.953 0 0 0-.018 7.985A13.45 13.45 0 0 1 15.035 42Zm-9-4.912A15.247 15.247 0 0 0 27.415 52h7.56a16.99 16.99 0 1 1-12.19-31.457 13 13 0 0 0 1.232 1.771A15 15 0 0 0 12 37.088M34 3a11 11 0 1 1-11 11A11.013 11.013 0 0 1 34 3m7.7 53.243-2.972-1.817-.525.332a20.8 20.8 0 0 1-6.568 2.723l-.606.137L30.212 61h-6.425l-.816-3.383-.606-.137a20.8 20.8 0 0 1-6.565-2.723l-.525-.332-2.975 1.816L7.759 51.7l1.816-2.971-.333-.529a20.8 20.8 0 0 1-2.722-6.566l-.137-.606L3 40.213v-6.426l3.383-.815.137-.606A20.8 20.8 0 0 1 9.242 25.8l.333-.525L7.759 22.3l4.541-4.541 2.97 1.816.525-.332a20.9 20.9 0 0 1 5.518-2.443 13 13 0 0 0 .583 1.9A18.992 18.992 0 1 0 38.642 52h7.324ZM57 50h-.031a4.954 4.954 0 0 0 0-8H57a4 4 0 0 1 0 8"/><path d="m39.707 11.707-1.414-1.414L33 15.586l-2.293-2.293-1.414 1.414L33 18.414Z"/></g></svg>