<svg xmlns="http://www.w3.org/2000/svg" width="65.231" height="58.227" viewBox="0 0 65.231 58.227"><g transform="translate(449.05 -19.27)"><path d="M179.771,307.771l1.031-.508-.123-1.816-1.554-1.585-2.354-1.493-4.047-.861-2.277.146-2.287.715a7.962,7.962,0,0,0-2.759,2.519,2.078,2.078,0,0,0,1.753,3.2h11.968Z" transform="translate(-590.077 -246.208)" fill="#ffab56"/><path d="M211.8,300.008a9.663,9.663,0,0,0-8.136-3.882,10.916,10.916,0,0,0-5.378,1.363,11.532,11.532,0,0,1,2.784-.337,9.663,9.663,0,0,1,8.136,3.882,2.037,2.037,0,0,1,.042,2.176h.8A2.078,2.078,0,0,0,211.8,300.008Z" transform="translate(-618.943 -241.38)" fill="#ff982a"/><line y1="10.272" transform="translate(-416.049 41.334)" fill="none" stroke="#000" stroke-linecap="round" stroke-linejoin="round" stroke-miterlimit="10" stroke-width="1"/><path d="M52.155,74.7l.866-.5,1.59-1.07,3.353-2.646,5.06-6.012,3.188-5.305.412-5.785L68.246,45.2l-3.023-8.051-5.029-7.065L58,25.9l1.072-2.813-3.6-.6-5.634-.72-1.292,1.029h0l3.8,9.724a.508.508,0,0,0,.866.124l1.319-1.66a.513.513,0,0,1,.748-.051,22.874,22.874,0,0,1,7.088,13.739C64.069,57.427,54.756,69.151,41.6,70.8a24.432,24.432,0,0,1-17.77-4.657,23.039,23.039,0,0,1-9.17-15.483,23.3,23.3,0,0,1,12.353-23.5l.4-.213a2.887,2.887,0,0,0,1.209-3.976l-.439-.782a3.07,3.07,0,0,0-4.1-1.173l-.4.213A30.485,30.485,0,0,0,11,33.788,29.136,29.136,0,0,0,7.761,51.531,29.707,29.707,0,0,0,19.586,71.5a31.391,31.391,0,0,0,18.866,6.26A32.476,32.476,0,0,0,42.5,77.5a31.773,31.773,0,0,0,9.656-2.8Z" transform="translate(-456.038 -0.758)" fill="#6ce79a"/><g transform="translate(-399.816 19.827)"><path d="M348.626,43.358a37.02,37.02,0,0,0-3.05-11.647,30.19,30.19,0,0,0-4.263-6.892.61.61,0,0,1-.046-.666l1.344-2.295c.178-.3.034-.749-.256-.79l-8.726-1.235c-.538-.076-.947.621-.755,1.287l.279.966,6.609.935c.291.041.435.485.256.79l-1.344,2.295a.61.61,0,0,0,.046.666,30.192,30.192,0,0,1,4.263,6.892,37.018,37.018,0,0,1,3.05,11.647,37.532,37.532,0,0,1-4.622,22.509,27.313,27.313,0,0,1-5.561,6.825A25.744,25.744,0,0,0,344,65.867,37.531,37.531,0,0,0,348.626,43.358Z" transform="translate(-332.825 -19.827)" fill="#00d8a2"/></g><path d="M259.449,124.991c.046-.046,1.739-1.616,1.739-1.616V121.36l-.417-.762h-.68a4.09,4.09,0,0,0-4.09,4.09v.639l.941.541S259.4,125.037,259.449,124.991Z" transform="translate(-670.913 -88.192)" fill="#6ce79a"/><path d="M261.529,120.6h-.759v.639a4.09,4.09,0,0,1-4.09,4.09H256v.8a.554.554,0,0,0,.554.554h1.439a4.09,4.09,0,0,0,4.09-4.09v-1.439A.554.554,0,0,0,261.529,120.6Z" transform="translate(-670.687 -88.123)" fill="#00d8a2"/><path d="M202.067,176.514c-.046-.046-1.739-1.616-1.739-1.616v-2.016l.417-.762h.68a4.09,4.09,0,0,1,4.09,4.09v.639l-.941.541S202.113,176.56,202.067,176.514Z" transform="translate(-622.773 -133.284)" fill="#6ce79a"/><path d="M191.269,172.12h.759v.639a4.09,4.09,0,0,0,4.09,4.09h.68v.8a.554.554,0,0,1-.554.554H194.8a4.09,4.09,0,0,1-4.09-4.09v-1.439A.554.554,0,0,1,191.269,172.12Z" transform="translate(-614.295 -133.18)" fill="#00d8a2"/><path d="M194.8,178.2h1.439a.554.554,0,0,0,.554-.554V176.21a4.09,4.09,0,0,0-4.09-4.09h-1.439a.554.554,0,0,0-.554.554v1.439A4.09,4.09,0,0,0,194.8,178.2Z" transform="translate(-614.295 -133.18)" fill="none" stroke="#000" stroke-linecap="round" stroke-linejoin="round" stroke-miterlimit="10" stroke-width="1"/><g transform="translate(-402.979 40.852)"><line y2="3.601" transform="translate(1.8)" fill="none" stroke="#000" stroke-linecap="round" stroke-linejoin="round" stroke-miterlimit="10" stroke-width="1"/><line x1="3.601" transform="translate(0 1.8)" fill="none" stroke="#000" stroke-linecap="round" stroke-linejoin="round" stroke-miterlimit="10" stroke-width="1"/></g><g transform="translate(-423.735 24.945)"><line y2="3.601" transform="translate(1.8)" fill="none" stroke="#000" stroke-linecap="round" stroke-linejoin="round" stroke-miterlimit="10" stroke-width="1"/><line x1="3.601" transform="translate(0 1.8)" fill="none" stroke="#000" stroke-linecap="round" stroke-linejoin="round" stroke-miterlimit="10" stroke-width="1"/></g><g transform="translate(-432.075 48.518)"><line y2="3.601" transform="translate(1.8 0)" fill="none" stroke="#000" stroke-linecap="round" stroke-linejoin="round" stroke-miterlimit="10" stroke-width="1"/><line x1="3.601" transform="translate(0 1.8)" fill="none" stroke="#000" stroke-linecap="round" stroke-linejoin="round" stroke-miterlimit="10" stroke-width="1"/></g><path d="M66.636,58.952A29.5,29.5,0,0,0,64.88,31.558a30.064,30.064,0,0,0-5.68-6.8.478.478,0,0,1-.061-.657l1.791-2.265a.484.484,0,0,0-.342-.78L48.961,19.833a.948.948,0,0,0-1.007,1.27l4.154,10.674a.5.5,0,0,0,.861.124l1.312-1.66a.509.509,0,0,1,.744-.051,22.9,22.9,0,0,1,7.051,13.733C63.772,56.677,54.508,68.4,41.426,70.049a24.217,24.217,0,0,1-17.676-4.656,23.05,23.05,0,0,1-9.122-15.477A23.32,23.32,0,0,1,26.915,26.427l.4-.213a2.893,2.893,0,0,0,1.2-3.974l-.437-.782A3.046,3.046,0,0,0,24,20.286l-.4.213A30.4,30.4,0,0,0,10.98,33.047,29.246,29.246,0,0,0,7.76,50.783,29.722,29.722,0,0,0,19.522,70.74,31.126,31.126,0,0,0,38.289,77a32.152,32.152,0,0,0,4.026-.254A30.732,30.732,0,0,0,65,62.079" transform="translate(-456.038)" fill="none" stroke="#000" stroke-linecap="round" stroke-linejoin="round" stroke-miterlimit="10" stroke-width="1"/><path d="M172.295,303.21h7.626a2.078,2.078,0,0,0,1.753-3.2,10.467,10.467,0,0,0-16.273,0,2.078,2.078,0,0,0,1.753,3.2h2.438" transform="translate(-589.726 -241.38)" fill="none" stroke="#000" stroke-linecap="round" stroke-linejoin="round" stroke-miterlimit="10" stroke-width="1"/><path d="M256.83,122.217a4.071,4.071,0,0,0-.83,2.47v1.439a.554.554,0,0,0,.554.554h1.439a4.09,4.09,0,0,0,4.09-4.09v-1.439a.554.554,0,0,0-.554-.554H260.09a4.1,4.1,0,0,0-.956.114" transform="translate(-670.687 -88.123)" fill="none" stroke="#000" stroke-linecap="round" stroke-linejoin="round" stroke-miterlimit="10" stroke-width="1"/><g transform="translate(-420.538 57.109)"><line x2="0.277" y2="0.246" transform="translate(0 1.557)" fill="none" stroke="#000" stroke-linecap="round" stroke-linejoin="round" stroke-miterlimit="10" stroke-width="1"/><line x1="0.277" y2="0.508" transform="translate(8.509 1.116)" fill="none" stroke="#000" stroke-linecap="round" stroke-linejoin="round" stroke-miterlimit="10" stroke-width="1"/><line y2="0.254" transform="translate(4.414)" fill="none" stroke="#000" stroke-linecap="round" stroke-linejoin="round" stroke-miterlimit="10" stroke-width="1"/></g></g></svg>