<svg xmlns="http://www.w3.org/2000/svg" width="47.326" height="45.063" viewBox="0 0 47.326 45.063"><defs><path id="a" d="M1.8 0v3.601M3.601 1.8H0"/></defs><g transform="translate(-6.991 -19.277)"><path fill="#ffab56" d="m36.889 52.337 1.031-.508-.123-1.816-1.554-1.585-2.354-1.493-4.047-.861-2.277.146-2.287.715a7.96 7.96 0 0 0-2.759 2.519 2.078 2.078 0 0 0 1.753 3.2H36.24Z"/><path fill="#ff982a" d="M38.79 49.455a9.66 9.66 0 0 0-8.136-3.882 10.9 10.9 0 0 0-5.378 1.363 11.5 11.5 0 0 1 2.784-.337 9.66 9.66 0 0 1 8.136 3.882 2.04 2.04 0 0 1 .042 2.176h.8a2.078 2.078 0 0 0 1.752-3.202"/><path fill="none" stroke="#000" stroke-linecap="round" stroke-linejoin="round" stroke-miterlimit="10" d="M30.655 45.572V35.3"/><path fill="#6ce79a" d="m40.838 61.488.646-.383 1.187-.823 2.504-2.04 3.778-4.626 2.38-4.083.308-4.452 1.21-6.3-2.257-6.2-3.754-5.437-1.64-3.212.8-2.164-2.688-.462-4.212-.554-.964.792 2.839 7.483a.374.374 0 0 0 .646.1l.989-1.285a.375.375 0 0 1 .558-.04 17.8 17.8 0 0 1 5.292 10.576 17.955 17.955 0 1 1-26.389-13.47l.3-.164a2.256 2.256 0 0 0 .9-3.06l-.328-.6a2.256 2.256 0 0 0-3.06-.9l-.3.164a23.158 23.158 0 0 0 11.024 43.494 24 24 0 0 0 3.022-.2 23.2 23.2 0 0 0 7.209-2.156Z"/><path fill="#00d8a2" d="M53.615 37.71a23.07 23.07 0 0 0-7.313-14.09.375.375 0 0 1-.046-.506L47.6 21.37a.374.374 0 0 0-.256-.6l-8.726-.938a.725.725 0 0 0-.755.978l.279.734 6.609.711a.374.374 0 0 1 .256.6L43.662 24.6a.375.375 0 0 0 .046.506 23.18 23.18 0 0 1-2.87 36.383A23.19 23.19 0 0 0 53.615 37.71"/><path fill="#6ce79a" d="M34.104 33.61c.046-.046 1.739-1.616 1.739-1.616v-2.015l-.417-.762h-.68a4.09 4.09 0 0 0-4.09 4.09v.639l.941.541s2.458-.831 2.507-.877"/><path fill="#00d8a2" d="M36.184 29.22h-.759v.639a4.09 4.09 0 0 1-4.09 4.09h-.68v.8a.554.554 0 0 0 .554.554h1.439a4.09 4.09 0 0 0 4.09-4.09v-1.439a.554.554 0 0 0-.554-.554"/><path fill="#6ce79a" d="M27.207 38.411c-.046-.046-1.739-1.616-1.739-1.616v-2.016l.417-.762h.68a4.09 4.09 0 0 1 4.09 4.09v.639l-.941.541s-2.461-.83-2.507-.876"/><path fill="#00d8a2" d="M25.126 34.018h.759v.639a4.09 4.09 0 0 0 4.09 4.09h.68v.8a.554.554 0 0 1-.554.554h-1.444a4.09 4.09 0 0 1-4.09-4.09v-1.439a.554.554 0 0 1 .559-.554"/><path fill="none" stroke="#000" stroke-linecap="round" stroke-linejoin="round" stroke-miterlimit="10" d="M28.657 40.098h1.439a.554.554 0 0 0 .554-.554v-1.436a4.09 4.09 0 0 0-4.09-4.09h-1.439a.554.554 0 0 0-.554.554v1.439a4.09 4.09 0 0 0 4.09 4.087"/><use fill="none" stroke="#000" stroke-linecap="round" stroke-linejoin="round" stroke-miterlimit="10" href="#a" transform="translate(39.228 35.688)"/><use fill="none" stroke="#000" stroke-linecap="round" stroke-linejoin="round" stroke-miterlimit="10" href="#a" transform="translate(24.773 24.946)"/><use fill="none" stroke="#000" stroke-linecap="round" stroke-linejoin="round" stroke-miterlimit="10" href="#a" transform="translate(18.965 41.471)"/><path fill="none" stroke="#000" stroke-linecap="round" stroke-linejoin="round" stroke-miterlimit="10" d="M51.882 49.948A23.14 23.14 0 0 0 46.3 23.621a.375.375 0 0 1-.046-.506l1.346-1.744a.374.374 0 0 0-.256-.6l-8.726-.938a.725.725 0 0 0-.755.978l3.117 8.218a.374.374 0 0 0 .646.1l.985-1.278a.375.375 0 0 1 .558-.04 17.8 17.8 0 0 1 5.292 10.572 17.955 17.955 0 1 1-26.389-13.47l.3-.164a2.256 2.256 0 0 0 .9-3.06l-.328-.6a2.256 2.256 0 0 0-3.06-.9l-.3.164a23.158 23.158 0 0 0 11.021 43.5 24 24 0 0 0 3.022-.2 23 23 0 0 0 15.364-8.828 24 24 0 0 0 1.66-2.462"/><path fill="none" stroke="#000" stroke-linecap="round" stroke-linejoin="round" stroke-miterlimit="10" d="M29.413 52.657h7.626a2.078 2.078 0 0 0 1.753-3.2 10.467 10.467 0 0 0-16.273 0 2.078 2.078 0 0 0 1.753 3.2h2.438m4.775-21.82a4.07 4.07 0 0 0-.83 2.47v1.439a.554.554 0 0 0 .554.554h1.439a4.09 4.09 0 0 0 4.09-4.09v-1.439a.554.554 0 0 0-.554-.554h-1.439a4 4 0 0 0-.956.114m-7.548 20.476.277.246m8.509-.687-.277.508m-4.095-1.624v.254"/></g></svg>