<svg xmlns="http://www.w3.org/2000/svg" width="74" height="79" viewBox="0 0 74 79"><g transform="translate(-191.051 -8468)"><g transform="translate(116.494 8444.656)"><path fill="#92f5ff" d="M91.562 52.718h28.06v-7.554l-1.462-2.348-1.291-.854H94.734s-3.619 1.309-3.506 2.137.333 8.619.333 8.619Z"/><path fill="#c1ee2b" d="M91.228 52.719h28.393v13.453s-8.29 1.271-10.216 6.892-1.168 9-1.168 9H91.228Z"/><path fill="#8dae08" d="M108.238 82.061s-.758-3.376 1.168-9 10.216-6.892 10.216-6.892v-6.31c-3.779 4.734-14.588 15.893-28.394 9.42v12.779h17.01Z"/><path fill="#f85e3a" d="M104.355 59.368h5.059l-3.241 5.284h3.669l-6.567 7.556 1.079-5.284h-3.6Z"/><path fill="#c83e23" d="M109.843 64.65h-3.669l3.241-5.284h-2.7c-.54 2.475-1.986 6.311-5.814 7.256l-.143.3h3.6l-1.079 5.284Z"/><path fill="#6ad2ff" d="M116.869 41.962h-3.107c-.491 3.394-2.317 9.3-9.3 10.756h15.16v-7.554l-1.462-2.348Z"/><path fill="#92f5ff" d="M91.228 82.061h17.01s2.38 7.227 8.68 9.368l-1.427.55H94.242a10.9 10.9 0 0 1-2.842-3.108c-.738-1.55-.173-6.81-.173-6.81Z"/><path fill="#6ad2ff" d="M116.918 91.428c-6.3-2.141-8.68-9.368-8.68-9.368h-1.713c-.158 2.848-1.783 9.843-14.087 8.275a14 14 0 0 0 1.8 1.643h21.248Z"/><circle cx="12.589" cy="12.589" r="12.589" fill="#c9c9c9" transform="translate(107.623 66.301)"/><path fill="#a9aaaa" d="M110.605 87.023a12.59 12.59 0 0 0 20.505-14.432c-1.531 6.586-6.254 17.768-20.509 14.432Z"/><path fill="#c1ee2b" d="M128.099 73.628s2.078 12.809-10.123 12.248l-1.058-.6s-1.328-4.663.717-6.921a13.1 13.1 0 0 1 5.539-3.2Z"/><path fill="#8dae08" d="M128.038 78.169c-2.8 2.609-7.752 6.131-10.318 1.469a13 13 0 0 0-.462-.778c-1.49 2.38-.341 6.418-.341 6.418l1.058.6c7.279.333 9.479-4.086 10.063-7.709"/><path fill="#66ba00" d="m112.352 77.122 4.566 1.449s-.631 4.449.512 7c0-.003-7.166-.225-5.078-8.449"/><path fill="#48880c" d="M112.513 82.541c1.38 2.917 4.917 3.027 4.917 3.027-1.143-2.548-.512-7-.512-7l-2.163-.686c.092 1.679-.146 4.158-2.242 4.659"/><path fill="#f4dd00" d="M98.375 41.629h14.1v-4.23l-.979-1.927-.759-.458H99.496l-.936 1.46Z"/><path fill="#f99300" d="m112.474 37.399-.978-1.927-.759-.459h-1.476c.217 2.363-1.126 5.738-10.837 5.259l-.049 1.354h14.1Z"/><g fill="#05231c" transform="translate(90.556 34.344)"><path d="M37.834 39.103a.77.77 0 0 0-.358-.718.672.672 0 0 0-1.012.436 21 21 0 0 1-4.85 1.448 7.88 7.88 0 0 0-4.945 3.127 8 8 0 0 0-1.117-.343 17 17 0 0 1-3.5-1.026.672.672 0 0 0-.99-.354.74.74 0 0 0-.349.67c-.6 3.187-.244 5.677 1.045 7.4a7 7 0 0 0 5.093 2.555h.062a.7.7 0 0 0 .27-.059c.306.03.764.063 1.323.063 1.962 0 5.164-.4 7.375-2.7 2.179-2.265 2.836-5.798 1.953-10.499m-15 9.84c-.948-1.271-1.262-3.124-.937-5.518a25 25 0 0 0 3.358.937 7 7 0 0 1 .745.218v.006a8.56 8.56 0 0 0-.194 6.185 5.1 5.1 0 0 1-2.974-1.827Zm12.083-.272a8.4 8.4 0 0 1-5.533 2.256 18.85 18.85 0 0 0 5.355-5.868.672.672 0 0 0-1.145-.7 15.93 15.93 0 0 1-6.4 6.3 7.16 7.16 0 0 1 .03-5.52 6.38 6.38 0 0 1 4.687-3.554 33 33 0 0 0 4.556-1.282l.194-.081c.571 3.808-.014 6.649-1.745 8.456Zm-15.63-18.838h-2.692l2.864-4.5a.672.672 0 0 0-.567-1.032h-5.029a.67.67 0 0 0-.607.384l-3.664 7.724a.672.672 0 0 0 .607.96h2.984l-2.112 6.337a.672.672 0 0 0 1.16.634l7.58-9.412a.672.672 0 0 0-.523-1.093Zm-5.763 6.757 1.227-3.681a.672.672 0 0 0-.637-.884h-2.851l3.027-6.38h3.373l-2.864 4.5a.672.672 0 0 0 .567 1.032h2.513Z"/><path d="M29.744 31.609v-20.1a4.57 4.57 0 0 0-4.566-4.566h-2.581V3.056A3.06 3.06 0 0 0 19.542.001h-9.333a3.06 3.06 0 0 0-3.065 3.055v3.892H4.567a4.57 4.57 0 0 0-4.566 4.566v41.862a4.57 4.57 0 0 0 4.566 4.566h20.6a4.5 4.5 0 0 0 1.778-.359 1 1 0 0 0 .1-.056 13.15 13.15 0 0 0 7.307-.559.672.672 0 0 0-.474-1.257 11.77 11.77 0 1 1 3.236-1.854.672.672 0 0 0 .844 1.045 13.1 13.1 0 0 0-8.214-23.293M8.491 3.056a1.713 1.713 0 0 1 1.711-1.711h9.333a1.713 1.713 0 0 1 1.709 1.711v3.892H8.491zm15.763 53.543H4.567a3.227 3.227 0 0 1-3.215-3.006h9.115a.672.672 0 0 0 0-1.343H1.344v-4.109h15.757a13.16 13.16 0 0 0 7.154 8.458Zm-7.61-11.892a13 13 0 0 0 .168 2.09H1.344V19.046h6.007a.672.672 0 1 0 0-1.343H1.344v-6.19A3.227 3.227 0 0 1 4.567 8.29h20.6a3.227 3.227 0 0 1 3.223 3.223v.666h-8.213a.672.672 0 0 0 0 1.343h8.213v4.181H11.101a.672.672 0 1 0 0 1.343h17.293v12.632a13.117 13.117 0 0 0-11.75 13.029"/></g></g><path fill="none" d="M191.051 8468h74v79h-74z"/></g></svg>