<svg xmlns="http://www.w3.org/2000/svg" width="69.883" height="65.277" viewBox="0 0 69.883 65.277"><g transform="translate(0 -16.87)"><g transform="translate(1.026 17.894)"><path fill="#d77f4a" d="M65.099 63.23H16.788a2.735 2.735 0 0 1-2.735-2.735v-3.534l1.635-5.648-1.635-3.2V21.739a2.735 2.735 0 0 1 2.735-2.735h48.313a2.735 2.735 0 0 1 2.735 2.735v38.756a2.735 2.735 0 0 1-2.735 2.735Z"/><path fill="#c86d36" d="M65.099 19.004H53.933a2.735 2.735 0 0 1 2.735 2.735v38.756a2.735 2.735 0 0 1-2.735 2.735h11.166a2.735 2.735 0 0 0 2.735-2.735V21.739a2.735 2.735 0 0 0-2.735-2.735"/><path fill="#fee45a" d="m.318 20.837 11.84-19.764a2.207 2.207 0 0 1 3.787 0l11.838 19.764a2.207 2.207 0 0 1-1.893 3.341H2.211a2.207 2.207 0 0 1-1.893-3.341"/><path fill="#fed402" d="M27.784 20.837 15.944 1.073a2.207 2.207 0 0 0-3.787 0l-.847 1.414a2.18 2.18 0 0 1 1.569 1.044l10.36 17.3a2.207 2.207 0 0 1-1.893 3.341h4.545a2.207 2.207 0 0 0 1.893-3.335"/><path fill="#ffe5c2" d="m46.369 34.125-5.427-2.008-5.431 2.008a1.27 1.27 0 0 1-1.711-1.191v-13.93h14.276v13.93a1.27 1.27 0 0 1-1.707 1.191"/><path fill="#fed2a4" d="M43.535 19.004v13.93a1 1 0 0 1-.009.139l2.843 1.052a1.27 1.27 0 0 0 1.711-1.191v-13.93Z"/><path fill="#8ac9fe" d="M59.694 58.046h-7.295a2.211 2.211 0 1 1 0-4.421h7.295a2.211 2.211 0 1 1 0 4.421"/><path fill="#60b7ff" d="M59.695 53.625h-3.027v4.421h3.027a2.211 2.211 0 1 0 0-4.421"/><path fill="#d8ecfe" d="m14.051 48.115 6.667-4.047a1.93 1.93 0 0 1 2.508.445l2.384 2.986 4.663-3.321a1.93 1.93 0 0 1 2.543.27l2.331 2.551 5.825-3.032a.536.536 0 0 1 .655.825l-5.7 6.664a1.93 1.93 0 0 1-2.607.3l-2.631-1.931-3.427 3.029a1.93 1.93 0 0 1-2.528.024l-2.864-2.437-7.817 6.52 1.635-5.648Z"/><path fill="#c4e2ff" d="m40.972 43.968-3.052 1.589-4.039 4.715a1.93 1.93 0 0 1-1.689.66l1.124.825a1.93 1.93 0 0 0 2.607-.3l5.7-6.664a.536.536 0 0 0-.651-.825"/></g><g transform="translate(0 16.87)"><path d="M66.124 19.004H28.292L17.848 1.57a3.23 3.23 0 0 0-5.543 0L.465 21.33a3.231 3.231 0 0 0 2.772 4.9h23.68a3.231 3.231 0 0 0 2.771-4.9l-.17-.283h4.288v12.911a2.294 2.294 0 0 0 3.09 2.151l5.072-1.879 5.072 1.877a2.294 2.294 0 0 0 3.09-2.151V21.051h15.994a1.713 1.713 0 0 1 1.712 1.712v38.756a1.713 1.713 0 0 1-1.712 1.711H17.811a1.713 1.713 0 0 1-1.71-1.712v-3.054l6.786-5.66 2.207 1.878a2.97 2.97 0 0 0 3.869-.036l2.809-2.482 1.965 1.443a2.966 2.966 0 0 0 3.991-.46l5.7-6.664a1.56 1.56 0 0 0-1.905-2.4l-5.123 2.67-1.8-1.971a2.956 2.956 0 0 0-3.893-.414l-3.875 2.762-1.78-2.229a2.96 2.96 0 0 0-3.839-.682L16.1 47.32V29.984a1.024 1.024 0 0 0-2.047 0v19.138a1.06 1.06 0 0 0 .112.484l1.451 2.837-1.523 5.258a1.4 1.4 0 0 0-.04.285v3.534a3.76 3.76 0 0 0 3.757 3.759h48.314a3.763 3.763 0 0 0 3.759-3.759V22.763a3.763 3.763 0 0 0-3.759-3.759m-38.178 4.574a1.16 1.16 0 0 1-1.03.6H3.237a1.183 1.183 0 0 1-1.015-1.792l11.84-19.764a1.183 1.183 0 0 1 2.03 0l11.84 19.764a1.16 1.16 0 0 1 .014 1.192m20.136 10.38a.247.247 0 0 1-.332.231l-5.427-2.009c-.168.015.069-.137-.71 0l-5.427 2.008a.246.246 0 0 1-.332-.231V21.051h12.228zM22.275 45.967a.91.91 0 0 1 1.177.209l2.384 2.986a1.024 1.024 0 0 0 1.394.2l4.663-3.321a.906.906 0 0 1 1.194.127l2.331 2.551a1.02 1.02 0 0 0 1.228.218l3.595-1.871-4.069 4.754a.91.91 0 0 1-1.224.141l-2.63-1.931a1.024 1.024 0 0 0-1.284.058l-3.427 3.029a.91.91 0 0 1-1.186.011l-2.864-2.437a1.024 1.024 0 0 0-1.319-.007l-5.247 4.376.7-2.433a1.02 1.02 0 0 0-.072-.751l-1.2-2.351Z"/><path d="M15.077 17.158a1.023 1.023 0 0 0 1.024-1.024V8.703a1.024 1.024 0 1 0-2.047 0v7.431a1.023 1.023 0 0 0 1.023 1.024m-.001 2.147a1.079 1.079 0 1 0 1.079 1.079 1.08 1.08 0 0 0-1.079-1.079m38.35 40.788h7.295a3.234 3.234 0 1 0 0-6.468h-7.295a3.234 3.234 0 0 0 0 6.468m0-4.421h7.295a1.187 1.187 0 1 1 0 2.374h-7.295a1.187 1.187 0 0 1 0-2.374m9.505-5.019a1.024 1.024 0 1 0 0-2.047h-2.1a1.024 1.024 0 1 0 0 2.047Zm-6.909 0a1.024 1.024 0 1 0 0-2.047h-4.806a1.024 1.024 0 0 0 0 2.047ZM33.199 11.868a1.023 1.023 0 0 0 1.024 1.024h1.951a1.024 1.024 0 1 0 0-2.047h-1.951a1.024 1.024 0 0 0-1.024 1.023m-1.198-4.342a1.02 1.02 0 0 0 .724-.3l1.379-1.379a1.024 1.024 0 0 0-1.448-1.448l-1.379 1.379a1.024 1.024 0 0 0 .724 1.747Zm-5.364-2.222a1.023 1.023 0 0 0 1.024-1.024V2.33a1.024 1.024 0 0 0-2.047 0v1.951a1.024 1.024 0 0 0 1.023 1.023"/></g></g></svg>