<svg xmlns="http://www.w3.org/2000/svg" width="62" height="62.036" viewBox="0 0 62 62.036"><g transform="translate(-1 -.978)"><path fill="#004c9d" d="M36 25h12a4 4 0 0 1 3.2 1.6l7 9.333a4 4 0 0 1 .8 2.4V48H36Z"/><path fill="#0260b5" d="M51.2 26.6A4 4 0 0 0 48 25h-6v9.546A8.454 8.454 0 0 0 50.454 43H59v-4.667a4 4 0 0 0-.8-2.4Z"/><path fill="#d7e0ef" d="M43 29v6h3l1 2h7l-6-8Z"/><path fill="#fcb732" d="M54 41h5v5h-5Z"/><path fill="#0277ce" d="M5 21h34v27H5Z"/><path fill="#0a93e8" d="M9 25.913A17.087 17.087 0 0 0 26.087 43H39V21H9Z"/><path fill="#95afd1" d="M2 46h60v6H2Z"/><circle cx="5" cy="5" r="5" fill="#798499" transform="translate(10 52)"/><circle cx="5" cy="5" r="5" fill="#798499" transform="translate(44 52)"/><path fill="#f79b31" d="M15 30h14v12H15Z"/><path fill="#fcb732" d="M18 35.93A4.07 4.07 0 0 0 22.069 40H29V30H18Z"/><path fill="#e54545" d="M24 30v6l-2-2-2 2v-6Z"/><circle cx="12" cy="12" r="12" fill="#e54545" transform="translate(10 2)"/><path fill="#fff" d="m24.83 14 4.24 4.24-2.83 2.83L22 16.83l-4.24 4.24-2.83-2.83L19.17 14l-4.24-4.24 2.83-2.83L22 11.17l4.24-4.24 2.83 2.83Z"/><path d="M29 29H15a1 1 0 0 0-1 1v12a1 1 0 0 0 1 1h14a1 1 0 0 0 1-1V30a1 1 0 0 0-1-1m-8 2h2v2.586l-.293-.293a1 1 0 0 0-1.414 0l-.293.293Zm7 10H16V31h3v5a1 1 0 0 0 1.707.707L22 35.414l1.293 1.293A1 1 0 0 0 24 37a1 1 0 0 0 .383-.076A1 1 0 0 0 25 36v-5h3Z"/><path d="M62 45h-2v-6.667a5.03 5.03 0 0 0-1-3L52 26a5.03 5.03 0 0 0-4-2h-8v-3a1 1 0 0 0-1-1h-5.479a13 13 0 1 0-23.042 0H5a1 1 0 0 0-1 1v24H2a1 1 0 0 0-1 1v6a1 1 0 0 0 1 1h8.54a6 6 0 1 0 8.92 0h25.08a6 6 0 1 0 8.92 0H62a1 1 0 0 0 1-1v-6a1 1 0 0 0-1-1m-7 0v-3h3v3Zm-7-19a3.02 3.02 0 0 1 2.4 1.2l7 9.333a3.02 3.02 0 0 1 .6 1.8V40h-4a1 1 0 0 0-1 1v4H40V26ZM22 3a11 11 0 1 1-11 11A11 11 0 0 1 22 3M6 22h5.774a12.957 12.957 0 0 0 20.452 0H38v23H6Zm13 35a4 4 0 1 1-4-4 4 4 0 0 1 4 4m34 0a4 4 0 1 1-4-4 4 4 0 0 1 4 4m8-6H3v-4h58Z"/><path d="M43 36h2.382l.723 1.447A1 1 0 0 0 47 38h7a1 1 0 0 0 .8-1.6l-6-8a1 1 0 0 0-.8-.4h-5a1 1 0 0 0-1 1v6a1 1 0 0 0 1 1m1-6h3.5l4.5 6h-4.382l-.718-1.447A1 1 0 0 0 46 34h-2Zm-25.533-8.223L22 18.244l3.533 3.533a1 1 0 0 0 1.414 0l2.83-2.83a1 1 0 0 0 0-1.414L26.244 14l3.533-3.533a1 1 0 0 0 0-1.414l-2.83-2.83a1 1 0 0 0-1.414 0L22 9.756l-3.533-3.533a1 1 0 0 0-1.414 0l-2.83 2.83a1 1 0 0 0 0 1.414L17.756 14l-3.533 3.533a1 1 0 0 0 0 1.414l2.83 2.83a1 1 0 0 0 1.414 0m1.41-7.07a1 1 0 0 0 0-1.414L16.344 9.76l1.416-1.416 3.533 3.533a1 1 0 0 0 1.414 0l3.533-3.533 1.416 1.416-3.533 3.533a1 1 0 0 0 0 1.414l3.533 3.533-1.416 1.416-3.533-3.533a1 1 0 0 0-1.414 0l-3.533 3.533-1.416-1.416Z"/></g></svg>