<svg xmlns="http://www.w3.org/2000/svg" width="51.076" height="51.076" viewBox="0 0 51.076 51.076"><path fill="#ceac9a" d="M2.554 7.661h45.969v40.861a1.7 1.7 0 0 1-1.7 1.7H4.254a1.7 1.7 0 0 1-1.7-1.7Zm0 0"/><path fill="#543025" d="M10.216 47.671H5.108v-6.81h1.7v5.108h3.405Zm1.702-1.702h1.7v1.7h-1.7Zm0 0"/><path fill="#b28b79" d="M.851.851h49.374v6.81H.851Zm0 0"/><path fill="#ffd782" d="M43.415 3.405h6.81v1.7h-6.81Zm-28.092 0h1.7v1.7h-1.7Zm24.687 0h1.7v1.7h-1.7Zm0 0"/><path fill="#dbdab2" d="M41.712 38.307H5.959V17.025h42.563v14.472Zm0 0"/><path fill="#f4f4e6" d="M33.2 41.712h11.918v5.108H33.2Zm0 0"/><path fill="#fcf05a" d="M21.282 34.902H9.364l5.959-14.472Zm0 0"/><path fill="#b11e48" d="M14.472 25.538h1.7v3.405h-1.7Zm0 5.108h1.7v1.7h-1.7Zm0 0"/><path fill="#c1c0a3" d="M41.712 38.307v-6.81h6.81Zm0 0"/><path fill="#dd3e46" d="m33.203 21.282 1.7-10.212 10.216 1.7-1.7 10.216Zm0 0"/><path fill="#394d5c" d="M25.538 26.389h9.364v1.7h-9.364Zm-3.405-3.405h6.81v1.7h-6.81Zm8.513 0h1.7v1.7h-1.7Zm-4.257 6.81h10.215v1.7H26.389Zm-.851 3.405h5.108v1.7h-5.108Zm6.81 0h1.7v1.7h-1.7Zm0 0"/><path fill="#ffd782" d="M19.579 13.62V.851h11.918V13.62l-3.405-2.554-2.554 2.554-2.554-2.554Zm0 0"/><path d="M5.108 47.671h5.108v-1.7H6.808v-5.11h-1.7Zm6.81-1.702h1.7v1.7h-1.7Zm0 0"/><path d="M50.225 0H.851A.85.85 0 0 0 0 .851v6.81a.85.85 0 0 0 .851.851H1.7v40.01a2.554 2.554 0 0 0 2.554 2.554H46.82a2.554 2.554 0 0 0 2.554-2.554V8.513h.851a.85.85 0 0 0 .851-.851V.851A.85.85 0 0 0 50.225 0M20.43 1.7h10.216v10.218L28.6 10.386a.85.85 0 0 0-1.113.079l-1.952 1.952-1.952-1.952a.85.85 0 0 0-1.113-.079l-2.04 1.532ZM1.7 6.81V1.7h17.028v5.11Zm45.971 23.836h-5.959a.85.85 0 0 0-.851.851v5.959H6.81V17.877H32.9l-.681 4.1 11.891 1.982 1.015-6.086h2.542Zm-1.2 1.7-3.9 3.9v-3.9ZM34.178 20.582l1.422-8.537 8.537 1.423-1.423 8.537Zm13.493-4.408h-2.258l.681-4.1L34.2 10.088l-1.015 6.086H5.108v22.984h36.957l5.606-5.606v14.97a.85.85 0 0 1-.851.851H4.256a.85.85 0 0 1-.851-.851V8.513h15.323v5.107a.851.851 0 0 0 1.362.681l2.81-2.111 2.032 2.032a.85.85 0 0 0 1.2 0l2.032-2.032 2.822 2.11a.851.851 0 0 0 1.362-.681V8.513h15.323Zm1.7-12.769h-5.956v1.7h5.959v1.7H32.348V1.7h17.026Zm0 0"/><path d="M15.323 3.405h1.7v1.7h-1.7Zm24.687 0h1.7v1.7h-1.7Zm5.958 37.456h-13.62v6.81h13.62Zm-1.7 5.108h-10.22v-3.408h10.215ZM16.11 20.106a.851.851 0 0 0-1.575 0L8.576 34.578a.85.85 0 0 0 .787 1.175h11.918a.85.85 0 0 0 .787-1.175Zm-5.475 13.945 4.688-11.385 4.688 11.385Zm0 0"/><path d="M14.472 25.538h1.7v3.405h-1.7Zm0 5.108h1.7v1.7h-1.7Zm11.066-4.257h9.364v1.7h-9.364Zm-3.405-3.405h6.81v1.7h-6.81Zm8.513 0h1.7v1.7h-1.7Zm-4.257 6.81h10.215v1.7H26.389Zm-.851 3.406h5.108v1.7h-5.108Zm6.81 0h1.7v1.7h-1.7Zm0 0"/></svg>