<svg xmlns="http://www.w3.org/2000/svg" width="60.824" height="59.394" viewBox="0 0 60.824 59.394"><g transform="translate(-4.878 -5.518)"><path fill="#aed580" d="M48.627 61.288a29.29 29.29 0 0 0 8.96-45.069 2.17 2.17 0 1 0-3.293 2.827 24.9 24.9 0 0 1-7.162 38.11l-1-2.751-7.68 8.089 11.08 1.292ZM21.953 9.136a29.29 29.29 0 0 0-8.96 45.069 2.17 2.17 0 1 0 3.293-2.826 24.9 24.9 0 0 1 7.164-38.111l1 2.751 7.681-8.089-11.082-1.292Z"/><path fill="#bdddf4" d="M42.684 28.89a1.754 1.754 0 0 1-1.754-1.75v-5.688H29.648v5.687a1.754 1.754 0 0 1-1.754 1.754 2.243 2.243 0 0 0-2.243 2.243v17.548a4.485 4.485 0 0 0 4.485 4.485h10.3a4.485 4.485 0 0 0 4.485-4.485V31.132a2.243 2.243 0 0 0-2.237-2.242"/><rect width="14.178" height="4.197" fill="#70b2e2" rx="1" transform="translate(28.201 17.255)"/><path fill="#e4f2fc" d="M25.654 35.213h19.273v7.951H25.654Z"/><path d="M58.441 15.491a3.291 3.291 0 1 0-5 4.281 23.944 23.944 0 0 1-1.3 32.294 23.5 23.5 0 0 1-4.409 3.458l-.543-1.5a1.12 1.12 0 0 0-1.868-.389l-7.681 8.089a1.121 1.121 0 0 0 .683 1.885l11.081 1.292a1.12 1.12 0 0 0 1.185-1.495l-.578-1.581a30.408 30.408 0 0 0 8.43-46.329Zm-10.324 44.8a1.12 1.12 0 0 0-.544 1.379l.287.794-7.049-.823 4.888-5.148.378 1.045a1.12 1.12 0 0 0 .655.665 1.1 1.1 0 0 0 .931-.061 25.9 25.9 0 0 0 6.064-4.5 26.2 26.2 0 0 0 1.423-35.329 1.04 1.04 0 0 1 .045-1.422 1.06 1.06 0 0 1 1.542.052 28.167 28.167 0 0 1-8.617 43.342ZM32.942 8.7a1.121 1.121 0 0 0-.68-1.886L21.178 5.525a1.12 1.12 0 0 0-1.185 1.5l.574 1.575a30.41 30.41 0 0 0-8.428 46.33 3.291 3.291 0 0 0 5-4.282 23.946 23.946 0 0 1 1.3-32.294A23.6 23.6 0 0 1 22.85 14.9l.543 1.5a1.13 1.13 0 0 0 1.868.39Zm-8.437 4.185a1.12 1.12 0 0 0-1.586-.606 26.014 26.014 0 0 0-7.487 39.825 1.04 1.04 0 0 1-.045 1.422 1.06 1.06 0 0 1-1.542-.052 28.165 28.165 0 0 1 8.617-43.342 1.12 1.12 0 0 0 .544-1.386l-.287-.785 7.051.822-4.888 5.148Z"/><path d="M46.048 48.684V31.133a3.364 3.364 0 0 0-3.364-3.364.634.634 0 0 1-.634-.632v-4.716a2.24 2.24 0 0 0 1.45-2.09v-1.954a2.243 2.243 0 0 0-2.243-2.243H29.326a2.243 2.243 0 0 0-2.243 2.243v1.954a2.24 2.24 0 0 0 1.45 2.09v4.718a.634.634 0 0 1-.634.632 3.364 3.364 0 0 0-3.364 3.364v17.549a5.613 5.613 0 0 0 5.607 5.607h10.3a5.613 5.613 0 0 0 5.607-5.607Zm-19.273-12.35h17.03v5.709h-17.03Zm2.551-17.957h11.931v1.954H29.326Zm-1.43 11.634a2.88 2.88 0 0 0 2.876-2.872v-4.565h9.035v4.566a2.88 2.88 0 0 0 2.876 2.875 1.12 1.12 0 0 1 1.121 1.121v2.956H26.775v-2.959a1.12 1.12 0 0 1 1.121-1.121Zm-1.121 18.673v-4.4h17.03v4.4a3.364 3.364 0 0 1-3.364 3.365h-10.3a3.364 3.364 0 0 1-3.366-3.365"/></g></svg>