<svg xmlns="http://www.w3.org/2000/svg" width="70" height="70" viewBox="0 0 70 70"><g transform="translate(-1035.051 -9166)"><g transform="translate(1040.221 9172.5)"><g transform="translate(8.83 2.5)"><path fill="#e2e2e0" d="M38.334 5.732v37.195a5.335 5.335 0 0 1-5.339 5.339H5.732a5.34 5.34 0 0 1-5.339-5.339V5.732A5.345 5.345 0 0 1 5.732.393h27.254a5.347 5.347 0 0 1 5.348 5.339"/><path d="M32.994 48.666H5.732A5.74 5.74 0 0 1 0 42.934V5.732A5.74 5.74 0 0 1 5.732 0h27.254a5.74 5.74 0 0 1 5.732 5.732v37.195a5.734 5.734 0 0 1-5.724 5.74ZM5.732.785A4.95 4.95 0 0 0 .785 5.732v37.195a4.95 4.95 0 0 0 4.947 4.947h27.254a4.95 4.95 0 0 0 4.947-4.947V5.732A4.95 4.95 0 0 0 32.986.785Z"/><g transform="translate(2.371 2.371)"><path fill="#efefed" d="M38.333 5.739v37.195a5.335 5.335 0 0 1-5.34 5.336H5.74a5.34 5.34 0 0 1-5.339-5.339V5.739A5.345 5.345 0 0 1 5.74.4h27.253a5.335 5.335 0 0 1 5.339 5.339Z"/><path d="M32.994 48.666H5.732A5.74 5.74 0 0 1 0 42.934v-37.2A5.74 5.74 0 0 1 5.732 0h27.254a5.74 5.74 0 0 1 5.732 5.732v37.2a5.72 5.72 0 0 1-5.724 5.732ZM5.732.785A4.95 4.95 0 0 0 .785 5.732v37.2a4.95 4.95 0 0 0 4.947 4.948h27.254a4.95 4.95 0 0 0 4.947-4.947v-37.2A4.95 4.95 0 0 0 32.986.786Z"/></g></g><g transform="translate(21.793 9.584)"><path fill="#54e28e" d="M13.232 13.457c-3.243 2.63-8.284 2.183-10.969 1.688a2.28 2.28 0 0 1-1.869-2.3c.071-2.732.667-7.75 3.918-10.38S12.596.282 15.289.777a2.28 2.28 0 0 1 1.869 2.3c-.079 2.724-.676 7.742-3.926 10.38"/><path d="M6.212 15.915a22.5 22.5 0 0 1-4.02-.385 2.665 2.665 0 0 1-2.191-2.693c.071-2.819.7-7.954 4.059-10.679S12.579-.127 15.351.383a2.66 2.66 0 0 1 2.191 2.696c-.071 2.819-.7 7.954-4.067 10.686a11.47 11.47 0 0 1-7.263 2.151ZM11.324.784a10.73 10.73 0 0 0-6.768 1.979c-3.117 2.528-3.7 7.4-3.769 10.09a1.87 1.87 0 0 0 1.547 1.9c2.638.487 7.538.919 10.647-1.61s3.706-7.412 3.777-10.09a1.87 1.87 0 0 0-1.547-1.9 22 22 0 0 0-3.887-.369"/><path d="M1.014 14.862a.37.37 0 0 1-.2-.055.4.4 0 0 1-.149-.534 20.5 20.5 0 0 1 10.459-8.087.392.392 0 1 1 .267.738 20.07 20.07 0 0 0-10.05 7.742.37.37 0 0 1-.327.196"/><path d="M8.544 8.164a.37.37 0 0 1-.236-.079 2.68 2.68 0 0 1-.707-2.913.39.39 0 1 1 .738.251c-.016.055-.448 1.366.44 2.034a.393.393 0 0 1-.236.707Zm-.259 2.223a6.25 6.25 0 0 1-2.536-.652.392.392 0 1 1 .353-.7 4.66 4.66 0 0 0 2.866.463.395.395 0 1 1 .259.746 2.9 2.9 0 0 1-.942.141Zm-4.97 1.626a.4.4 0 0 1-.267-.11c-1.029-.981-.314-3.023-.228-3.251a.386.386 0 0 1 .5-.228.4.4 0 0 1 .236.5c-.165.455-.526 1.884.031 2.411a.4.4 0 0 1 .016.557.43.43 0 0 1-.291.118Z"/></g><g transform="translate(15.912 28.812)"><path fill="#fbe063" d="M8.928 2.223v4.389a1.833 1.833 0 0 1-1.837 1.83H2.223a1.826 1.826 0 0 1-1.83-1.83V2.223A1.826 1.826 0 0 1 2.223.394h4.868a1.833 1.833 0 0 1 1.837 1.83Z"/><path d="M7.09 8.833H2.222A2.225 2.225 0 0 1 0 6.611V2.222A2.225 2.225 0 0 1 2.222 0H7.09a2.227 2.227 0 0 1 2.23 2.222v4.389a2.227 2.227 0 0 1-2.23 2.222M2.222.79A1.44 1.44 0 0 0 .785 2.227v4.389a1.44 1.44 0 0 0 1.437 1.437H7.09a1.444 1.444 0 0 0 1.445-1.437V2.222A1.444 1.444 0 0 0 7.09.79Z"/></g><path d="M19.917 34.74a.37.37 0 0 1-.275-.118l-1.115-1.115a.394.394 0 0 1 .557-.557l.84.84 2.155-2.159a.394.394 0 0 1 .557.557l-2.437 2.442a.46.46 0 0 1-.283.11Zm24.902-3.243h-15.2a.393.393 0 0 1 0-.785h15.2a.393.393 0 0 1 0 .785m-5.885 4.248h-9.315a.393.393 0 0 1 0-.785h9.312a.39.39 0 0 1 .393.393.394.394 0 0 1-.39.392"/><g transform="translate(15.912 39.993)"><path fill="#fbe063" d="M8.928 2.223v4.389a1.833 1.833 0 0 1-1.837 1.831H2.223a1.826 1.826 0 0 1-1.83-1.83v-4.39a1.826 1.826 0 0 1 1.83-1.83h4.868a1.833 1.833 0 0 1 1.837 1.83"/><path d="M7.09 8.833H2.222A2.225 2.225 0 0 1 0 6.611V2.222A2.225 2.225 0 0 1 2.222 0H7.09a2.227 2.227 0 0 1 2.23 2.222v4.389a2.227 2.227 0 0 1-2.23 2.222M2.222.785A1.44 1.44 0 0 0 .785 2.222v4.389A1.44 1.44 0 0 0 2.222 8.05H7.09a1.444 1.444 0 0 0 1.445-1.437V2.222A1.444 1.444 0 0 0 7.09.785Z"/></g><path d="M44.819 42.678h-15.2a.393.393 0 1 1 0-.785h15.2a.393.393 0 0 1 0 .785m-5.885 4.248h-9.315a.393.393 0 1 1 0-.785h9.312a.39.39 0 0 1 .393.393.394.394 0 0 1-.39.392m-19.017-.903a.37.37 0 0 1-.275-.118l-1.115-1.115a.394.394 0 0 1 .557-.557l.84.84 2.155-2.159a.394.394 0 0 1 .557.557l-2.437 2.442a.46.46 0 0 1-.283.11Z"/></g><path fill="none" d="M1035.051 9166h70v70h-70z"/></g></svg>