<svg xmlns="http://www.w3.org/2000/svg" width="172" height="160" viewBox="0 0 172 160"><g transform="translate(-1124.051 -1929)"><g transform="translate(1093.283 1943.5)"><g transform="translate(73.767 7.5)"><path d="M222.414,15.233h-29.4L194.183,7.5h27.064Z" transform="translate(-165.186 -7.5)" fill="#98db7c"/><path d="M166.266,31.865H156.6v-16.9A7.468,7.468,0,0,1,164.068,7.5h2.2Z" transform="translate(-137.269 -7.5)" fill="#b8eb7c"/><path d="M323.649,31.865h-9.666V7.5h2.2a7.468,7.468,0,0,1,7.468,7.468Z" transform="translate(-257.922 -7.5)" fill="#b8eb7c"/><g transform="translate(0 23.198)"><path d="M73.767,188.092v4.131a7.468,7.468,0,0,0,7.468,7.468h70.122a7.468,7.468,0,0,0,7.468-7.468v-4.131l-2.684-3.866,2.684-3.866V110.634a3.734,3.734,0,0,0-3.734-3.734H77.5a3.734,3.734,0,0,0-3.734,3.734V180.36l2.168,3.866Z" transform="translate(-73.767 -106.9)" fill="#b8eb7c"/><path d="M383.233,199.691H388.6a7.468,7.468,0,0,0,7.468-7.468v-4.131l-2.684-3.866,2.684-3.866V110.634a3.734,3.734,0,0,0-3.734-3.734h-5.368a3.734,3.734,0,0,1,3.734,3.734v81.589A7.468,7.468,0,0,1,383.233,199.691Z" transform="translate(-311.01 -106.9)" fill="#98db7c"/><rect width="85.059" height="7.733" transform="translate(0 73.46)" fill="#98db7c"/><path d="M324.134,405.1H335.3a1.867,1.867,0,0,1,1.867,1.867V418.7a1.867,1.867,0,0,1-1.867,1.867H324.134a1.867,1.867,0,0,1-1.867-1.867V406.967A1.867,1.867,0,0,1,324.134,405.1Z" transform="translate(-264.273 -335.507)" fill="#ffc250"/><path d="M379.468,405.1H374.1a1.867,1.867,0,0,1,1.867,1.867V418.7a1.867,1.867,0,0,1-1.867,1.867h5.368a1.867,1.867,0,0,0,1.867-1.867V406.967A1.867,1.867,0,0,0,379.468,405.1Z" transform="translate(-304.009 -335.507)" fill="#ebb044"/><rect width="5.368" height="7.733" transform="translate(79.691 73.46)" fill="#77cc7d"/></g><g transform="translate(19.331 36.73)"><path d="M177.114,211.635l2-.019,4.573-.861,9.224-4.548,6.783-11.122v-11.9l-9.249-14.7-10.457-2.94h-2.874a23.2,23.2,0,0,0,0,46.084Z" transform="translate(-156.6 -165.395)" fill="#f9efda"/><path d="M258.67,243.883l5.063-1.72,2.979-5.524v-8.8h-1.648a11.56,11.56,0,0,0-9.064,7.02v8.5a.92.92,0,0,0,.272.151,11.6,11.6,0,0,0,1.365.349Z" transform="translate(-232.802 -213.144)" fill="#b8eb7c"/><path d="M200.169,244.981,203,240.972l-2.505-8.5-4.567-3.377h-4.489a1.952,1.952,0,0,0-1.316,1.363,11.59,11.59,0,0,0,10.046,14.521Z" transform="translate(-182.001 -214.111)" fill="#98db7c"/><path d="M247.184,164.883a23.432,23.432,0,0,0-2.684.155,23.2,23.2,0,0,1,0,46.085,23.2,23.2,0,1,0,2.684-46.24Z" transform="translate(-223.986 -164.883)" fill="#f4ddb1"/><path d="M276.453,229.111a1.955,1.955,0,0,0-1.388-1.388,11.664,11.664,0,0,0-4.624-.27,2.078,2.078,0,0,1,.644,1.058,12.738,12.738,0,0,1-3.005,11.826,11.412,11.412,0,0,1-5.066,3.134,11.591,11.591,0,0,0,13.439-14.36Z" transform="translate(-238.179 -212.762)" fill="#98db7c"/><path d="M208.3,230.718a11.59,11.59,0,0,0-11.186-3.005c-.025.007-.048.017-.072.025a11.331,11.331,0,0,1,5.891,3.368,12.93,12.93,0,0,1,2.839,12.516,11.649,11.649,0,0,0,4.757-.509.933.933,0,0,0,.6-.6A11.6,11.6,0,0,0,208.3,230.718Z" transform="translate(-187.601 -212.751)" fill="#77cc7d"/></g></g><g transform="translate(73.767 7.5)"><g transform="translate(19.331 36.73)"><circle cx="23.198" cy="23.198" r="23.198" fill="none" stroke="#000" stroke-linecap="round" stroke-linejoin="round" stroke-miterlimit="10" stroke-width="2"/><path d="M191.511,227.713a1.954,1.954,0,0,0-1.388,1.388,11.6,11.6,0,0,0,14.8,14.011.933.933,0,0,0,.6-.6,11.6,11.6,0,0,0-14.011-14.8Z" transform="translate(-182.001 -212.751)" fill="none" stroke="#000" stroke-linecap="round" stroke-linejoin="round" stroke-miterlimit="10" stroke-width="2"/><g transform="translate(23.198 14.572)"><line y1="6.493" x2="6.493" transform="translate(0.347 8.626)" fill="none" stroke="#000" stroke-linecap="round" stroke-linejoin="round" stroke-miterlimit="10" stroke-width="2"/><path d="M256,242.961a.915.915,0,0,0,.272.15,11.6,11.6,0,0,0,14.8-14.011,1.955,1.955,0,0,0-1.388-1.388A11.582,11.582,0,0,0,256,234.463" transform="translate(-256 -227.323)" fill="none" stroke="#000" stroke-linecap="round" stroke-linejoin="round" stroke-miterlimit="10" stroke-width="2"/></g></g><path d="M92.881,199.691H81.235a7.468,7.468,0,0,1-7.468-7.468V110.634A3.734,3.734,0,0,1,77.5,106.9h77.591a3.734,3.734,0,0,1,3.734,3.734v81.589a7.468,7.468,0,0,1-7.468,7.468H101.049" transform="translate(-73.767 -83.702)" fill="none" stroke="#000" stroke-linecap="round" stroke-linejoin="round" stroke-miterlimit="10" stroke-width="2"/><g transform="translate(0 92.791)"><path d="M324.134,405.1h15.6a1.867,1.867,0,0,1,1.867,1.867V418.7a1.867,1.867,0,0,1-1.867,1.867h-15.6a1.867,1.867,0,0,1-1.867-1.867V406.967A1.867,1.867,0,0,1,324.134,405.1Z" transform="translate(-264.273 -405.1)" fill="none" stroke="#000" stroke-linecap="round" stroke-linejoin="round" stroke-miterlimit="10" stroke-width="2"/><line x2="57.994" transform="translate(0 11.599)" fill="none" stroke="#000" stroke-linecap="round" stroke-linejoin="round" stroke-miterlimit="10" stroke-width="2"/><line x2="7.733" transform="translate(77.326 11.599)" fill="none" stroke="#000" stroke-linecap="round" stroke-linejoin="round" stroke-miterlimit="10" stroke-width="2"/><line x2="57.994" transform="translate(0 3.866)" fill="none" stroke="#000" stroke-linecap="round" stroke-linejoin="round" stroke-miterlimit="10" stroke-width="2"/><line x2="7.733" transform="translate(77.326 3.866)" fill="none" stroke="#000" stroke-linecap="round" stroke-linejoin="round" stroke-miterlimit="10" stroke-width="2"/></g><path d="M210.885,7.5h14.2v7.733H198.017V7.5h4.7" transform="translate(-169.02 -7.5)" fill="none" stroke="#000" stroke-linecap="round" stroke-linejoin="round" stroke-miterlimit="10" stroke-width="2"/><path d="M166.266,30.7H156.6V14.968A7.468,7.468,0,0,1,164.068,7.5h2.2Z" transform="translate(-137.269 -7.5)" fill="none" stroke="#000" stroke-linecap="round" stroke-linejoin="round" stroke-miterlimit="10" stroke-width="2"/><path d="M323.649,30.7h-9.666V7.5h2.2a7.468,7.468,0,0,1,7.468,7.468Z" transform="translate(-257.922 -7.5)" fill="none" stroke="#000" stroke-linecap="round" stroke-linejoin="round" stroke-miterlimit="10" stroke-width="2"/></g></g><rect width="172" height="160" transform="translate(1124.051 1929)" fill="none"/></g></svg>