<svg xmlns="http://www.w3.org/2000/svg" width="172" height="160" viewBox="0 0 172 160"><g transform="translate(-1124.051 -2179)"><g transform="translate(1144.55 2182.16)"><g transform="translate(7.501 22.84)"><g transform="translate(52.773 53.421)"><path d="M395.466,274.437l-.379,1.383c-2.268,3.913-4.831,8-9.356,7.994l-9.67-2.753-10.938-19.029a.467.467,0,0,1,.172-.637l16.638-9.564a.467.467,0,0,1,.637.172Z" transform="translate(-334.398 -251.77)" fill="#9be69d"/><path d="M295.373,361.067l-5.288,9.122a11,11,0,0,1-9.532,5.479l-33-.06a.467.467,0,0,0-.467.438l-.271,4.41a.467.467,0,0,1-.826.268L233.763,365.92a.467.467,0,0,1,.024-.621L246,352.606a.467.467,0,0,1,.8.311l.058,2.111a.467.467,0,0,0,.466.454l27.994.053,8.265.04a12.656,12.656,0,0,0,10.977-6.31l.163-.355.67,1.164A10.988,10.988,0,0,1,295.373,361.067Z" transform="translate(-233.656 -326.242)" fill="#bbf49b"/></g><path d="M97.217,377.547,97.046,397.2a.467.467,0,0,1-.471.463l-25.916-.225-1.707-1.186a12.482,12.482,0,0,1-.118-12.562l5.967-6.343Z" transform="translate(-53.267 -294.626)" fill="#9be69d"/><path d="M46.7,219.524l-3.225-1.776L29.037,242.261l-4.214,7.11a12.661,12.661,0,0,0-.112,12.659l.184.322-1.3-.012a10.994,10.994,0,0,1-9.472-5.579l-5.192-9.178a10.994,10.994,0,0,1,.1-10.993l16.759-28.456a.466.466,0,0,0-.123-.611l-4.108-3.064a.467.467,0,0,1,.22-.837l19.344-2.476a.467.467,0,0,1,.508.336Z" transform="translate(-7.502 -159.537)" fill="#bbf49b"/><path d="M165.111,62.841l-3.437,5.953-7.306,12.651a.934.934,0,0,1-1.275.342L137.28,72.658a.933.933,0,0,1-.342-1.275l9.619-16.658,3.108-5.383,1.079-.575c4.522,0,9.511.123,11.772,4.041Z" transform="translate(-106.639 -42.717)" fill="#9be69d"/><path d="M244.145,55.277l-6.979,18.432a.467.467,0,0,1-.548.288l-7.831-1.92-10.039-9.341L207.335,42.964,203.221,35.8a12.657,12.657,0,0,0-10.963-6.331h-.369l.651-1.129a11,11,0,0,1,9.521-5.5h10.545a10.99,10.99,0,0,1,9.518,5.5L238.619,56.9a.466.466,0,0,0,.632.174L243.48,54.7A.467.467,0,0,1,244.145,55.277Z" transform="translate(-148.863 -22.84)" fill="#bbf49b"/><g transform="translate(32.16 35.219)"><path d="M196.6,199.769c0,14.6-10.33,25.438-24.933,25.438-9.726,0-17.351-5.13-22.719-11.629a26.447,26.447,0,0,1,36.185-36.185C191.834,182.508,196.6,190.043,196.6,199.769Z" transform="translate(-145.321 -173.769)" fill="#f2fbff"/></g><g transform="translate(35.784 38.843)"><path d="M210.11,212.117a26.444,26.444,0,0,1-49.26,13.369A26.447,26.447,0,0,0,197.035,189.3,26.421,26.421,0,0,1,210.11,212.117Z" transform="translate(-160.85 -189.3)" fill="#dff6fd"/></g><path d="M226.353,227.878a10.24,10.24,0,0,1-1.138-4.939c0-5.2,4.042-11.271,7.358-14.816a.468.468,0,0,1,.686,0c3.312,3.542,7.358,9.616,7.358,14.816a10.231,10.231,0,0,1-1.151,4.964l-6.451,11.069Z" transform="translate(-174.412 -164.773)" fill="#9be69d"/><path d="M197.963,287.012l0-4.6a9.453,9.453,0,0,0-7.078-9.153h0c-.226-.059-.451-.123-.673-.2a35.42,35.42,0,0,1-7.7-3.638l-2.177-1.37a.467.467,0,0,0-.715.406l.164,7.093a11.731,11.731,0,0,0,11.728,11.461h6.447Z" transform="translate(-139.46 -210.777)" fill="#bbf49b"/><path d="M258.213,289.68l0-4.6a9.453,9.453,0,0,1,7.078-9.153h0c.226-.059.451-.123.672-.2a35.418,35.418,0,0,0,7.7-3.638l1-.631.562.279a.467.467,0,0,1,.715.406l-.236,5.945c-.147,6.372-4.432,10.849-10.805,10.849l-4.981.74Z" transform="translate(-199.708 -213.445)" fill="#bbf49b"/><path d="M282.155,268.458l-.163,7.091a11.732,11.732,0,0,1-11.728,11.462H265.52a26.493,26.493,0,0,0,14.745-18.22l1.174-.74A.468.468,0,0,1,282.155,268.458Z" transform="translate(-205.312 -210.777)" fill="#9be69d"/></g><g transform="translate(7.501 22.84)"><g transform="translate(0 0)"><g transform="translate(52.615 53.249)"><path d="M328.923,322.927l19.433.036-9.506-16.539" transform="translate(-306.534 -293.5)" fill="none" stroke="#000" stroke-linecap="round" stroke-linejoin="round" stroke-miterlimit="10" stroke-width="2"/><path d="M261.519,415.6l-14.931-.028-.37,6.031-13.242-16.039,4.352-4.523" transform="translate(-232.977 -366.038)" fill="none" stroke="#000" stroke-linecap="round" stroke-linejoin="round" stroke-miterlimit="10" stroke-width="2"/><path d="M373.005,259.9l15.424-8.867,13.8,24a10.994,10.994,0,0,1-.021,10.993l-5.289,9.122a10.994,10.994,0,0,1-9.53,5.479l-10.328-.019" transform="translate(-340.33 -251.036)" fill="none" stroke="#000" stroke-linecap="round" stroke-linejoin="round" stroke-miterlimit="10" stroke-width="2"/><path d="M414.762,356.726l7.668.015a12.66,12.66,0,0,0,10.976-6.309h0" transform="translate(-372.343 -327.238)" fill="none" stroke="#000" stroke-linecap="round" stroke-linejoin="round" stroke-miterlimit="10" stroke-width="2"/></g><g transform="translate(0 41.559)"><path d="M56.947,219.424l6.955-11.81-5.371-4,20.89-2.676,1.741,6.188" transform="translate(-45.409 -200.936)" fill="none" stroke="#000" stroke-linecap="round" stroke-linejoin="round" stroke-miterlimit="10" stroke-width="2"/><path d="M51.442,326.928,51.276,346l-27.686-.242a10.993,10.993,0,0,1-9.472-5.579L8.926,331a10.994,10.994,0,0,1,.1-10.992l5.924-10.059" transform="translate(-7.501 -284.509)" fill="none" stroke="#000" stroke-linecap="round" stroke-linejoin="round" stroke-miterlimit="10" stroke-width="2"/><path d="M110.287,300.981,99.79,318.8l21.1.185" transform="translate(-78.254 -277.636)" fill="none" stroke="#000" stroke-linecap="round" stroke-linejoin="round" stroke-miterlimit="10" stroke-width="2"/><path d="M79.863,379.506l-3.892,6.607a12.659,12.659,0,0,0-.11,12.659h0" transform="translate(-58.65 -337.837)" fill="none" stroke="#000" stroke-linecap="round" stroke-linejoin="round" stroke-miterlimit="10" stroke-width="2"/></g><g transform="translate(29.835)"><path d="M236.269,125.442l-9.446-16.361-9.513,16.476" transform="translate(-198.185 -88.957)" fill="none" stroke="#000" stroke-linecap="round" stroke-linejoin="round" stroke-miterlimit="10" stroke-width="2"/><path d="M356.853,107.682l8.466,14.662,5.748-3.222-7.578,20.017-5.329-1.307" transform="translate(-305.167 -87.884)" fill="none" stroke="#000" stroke-linecap="round" stroke-linejoin="round" stroke-miterlimit="10" stroke-width="2"/><path d="M176.047,35.868l4.348-7.531a10.994,10.994,0,0,1,9.52-5.5H200.46a10.994,10.994,0,0,1,9.52,5.5l4.236,7.336" transform="translate(-166.552 -22.84)" fill="none" stroke="#000" stroke-linecap="round" stroke-linejoin="round" stroke-miterlimit="10" stroke-width="2"/><path d="M150.791,126.745l-15.436-8.912,5.5-9.532" transform="translate(-135.355 -88.359)" fill="none" stroke="#000" stroke-linecap="round" stroke-linejoin="round" stroke-miterlimit="10" stroke-width="2"/><path d="M208.268,64.2l-3.834-6.641a12.659,12.659,0,0,0-10.964-6.33h0" transform="translate(-179.909 -44.605)" fill="none" stroke="#000" stroke-linecap="round" stroke-linejoin="round" stroke-miterlimit="10" stroke-width="2"/></g></g><g transform="translate(32.16 35.219)"><circle cx="26.442" cy="26.442" r="26.442" transform="translate(0 0)" fill="none" stroke="#000" stroke-linecap="round" stroke-linejoin="round" stroke-miterlimit="10" stroke-width="2"/></g><g transform="translate(40.145 42.989)"><g transform="translate(10.658)"><path d="M226.308,226.464a9.7,9.7,0,0,1-1.093-4.7c0-5.211,4.327-11.323,7.7-14.7,3.369,3.369,7.7,9.486,7.7,14.7a9.634,9.634,0,0,1-1.177,4.852" transform="translate(-225.215 -207.068)" fill="none" stroke="#000" stroke-linecap="round" stroke-linejoin="round" stroke-miterlimit="10" stroke-width="2"/><line y1="10.808" transform="translate(7.732 13.841)" fill="none" stroke="#000" stroke-linecap="round" stroke-linejoin="round" stroke-miterlimit="10" stroke-width="2"/></g><g transform="translate(0 13.823)"><path d="M197.9,285.729l0-4.6a9.453,9.453,0,0,0-7.078-9.153h0c-.226-.059-.451-.123-.673-.2a35.42,35.42,0,0,1-7.7-3.638l-2.912-1.833.183,7.961a11.731,11.731,0,0,0,11.728,11.461Z" transform="translate(-179.539 -266.307)" fill="none" stroke="#000" stroke-linecap="round" stroke-linejoin="round" stroke-miterlimit="10" stroke-width="2"/><path d="M228.761,324.223l-.417-.529a27.4,27.4,0,0,0-8.548-7.177h0" transform="translate(-210.403 -304.801)" fill="none" stroke="#000" stroke-linecap="round" stroke-linejoin="round" stroke-miterlimit="10" stroke-width="2"/><g transform="translate(18.358)"><path d="M258.212,281.128a9.453,9.453,0,0,1,7.078-9.153h0c.226-.059.451-.123.673-.2a35.42,35.42,0,0,0,7.7-3.638l2.912-1.833-.183,7.961a11.731,11.731,0,0,1-11.728,11.461h-6.447" transform="translate(-258.212 -266.307)" fill="none" stroke="#000" stroke-linecap="round" stroke-linejoin="round" stroke-miterlimit="10" stroke-width="2"/><path d="M267.182,316.517h0a27.4,27.4,0,0,0-8.548,7.177l-.417.529" transform="translate(-258.217 -304.801)" fill="none" stroke="#000" stroke-linecap="round" stroke-linejoin="round" stroke-miterlimit="10" stroke-width="2"/></g></g></g></g></g><rect width="172" height="160" transform="translate(1124.051 2179)" fill="none"/></g></svg>