<svg xmlns="http://www.w3.org/2000/svg" xmlns:xlink="http://www.w3.org/1999/xlink" width="172" height="160" viewBox="0 0 172 160"><defs><clipPath id="a"><path d="M0-682.665H104.329v104.329H0Z" transform="translate(0 682.665)"/></clipPath></defs><g transform="translate(-1124.051 -2433)"><g transform="translate(1158.051 3143.665)"><g transform="translate(0 -682.665)"><g clip-path="url(#a)"><g transform="translate(1.528 1.834)"><path d="M-3.834-361.963c-.951,15.891-3.04,23.483,11.226,23.483H58.914c14.266,0,12.177-7.592,11.226-23.483l-3.787-63.009a2.3,2.3,0,0,0-2.293-2.288H52.613a2.3,2.3,0,0,0-2.293,2.288v17.2H40.056c-.689-3.56-3.734-5.433-6.9-5.614-3.168.181-6.214,2.054-6.9,5.614H15.987v-17.2a2.3,2.3,0,0,0-2.293-2.288H2.246a2.3,2.3,0,0,0-2.293,2.288Z" transform="translate(4.525 427.259)" fill="#e6e6e6" fill-rule="evenodd"/></g><g transform="translate(20.687 35.203)"><path d="M-102.661,0a18.521,18.521,0,0,0-18.52,18.523,18.526,18.526,0,0,0,18.52,18.529,18.526,18.526,0,0,0,18.52-18.529A18.521,18.521,0,0,0-102.661,0" transform="translate(121.181)" fill="#bde5f8" fill-rule="evenodd"/></g><g transform="translate(27.765 47.949)"><path d="M-1.516-6.045C-2.584-4.225-.384-.951,2.621.812S8.07,2.767,9.652,1.967V-3.1A8.331,8.331,0,0,0,6.489-5.777C4.155-7.148-.449-7.866-1.516-6.045" transform="translate(1.79 7.136)" fill="#62b553" fill-rule="evenodd"/></g><g transform="translate(39.207 47.949)"><path d="M-17.532-7.533a8.332,8.332,0,0,0-3.163,2.679V.211c1.581.8,4.026.607,7.031-1.156s5.2-5.036,4.137-6.857-5.671-1.1-8.005.268" transform="translate(20.695 8.892)" fill="#62b553" fill-rule="evenodd"/></g><g transform="translate(39.207 47.972)"><path d="M-25.973-37.3a10.4,10.4,0,0,1-4.685,1.6v.753c1.581.8,4.026.607,7.031-1.156s5.2-5.036,4.136-6.857a2.759,2.759,0,0,0-2.281-1.068c.9,1.838-1.266,5.007-4.2,6.729" transform="translate(30.659 44.028)" fill="#5aa64c" fill-rule="evenodd"/></g><g transform="translate(27.765 47.972)"><path d="M-37.452-37.3a10.4,10.4,0,0,0,4.685,1.6v.753c-1.581.8-4.026.607-7.031-1.156s-5.2-5.036-4.137-6.857a2.759,2.759,0,0,1,2.281-1.068c-.9,1.838,1.266,5.007,4.2,6.729" transform="translate(44.208 44.028)" fill="#5aa64c" fill-rule="evenodd"/></g><g transform="translate(1.876 1.834)"><path d="M-78.92-457.461c-2.235-.006-12.738-.187-14.237-.566.9,4.587,3.828,6.822,11.57,6.822h51.522c14.266,0,12.177-7.592,11.226-23.483L-22.626-537.7a2.3,2.3,0,0,0-2.293-2.287h-3.472c-.513,45.8,5.456,82.594-50.53,82.524" transform="translate(93.157 539.985)" fill="#ccc" fill-rule="evenodd"/></g><g transform="translate(62.365 62.053)"><path d="M-78.824-5.014A20.226,20.226,0,0,0-93.044,14.3a20.173,20.173,0,0,0,1.383,7.365,20.255,20.255,0,0,0,14.99,12.494,20.344,20.344,0,0,0,3.845.362,20.3,20.3,0,0,0,3.845-.362,20.247,20.247,0,0,0,15.573-14.21,20.057,20.057,0,0,0,.8-5.649,20.06,20.06,0,0,0-.8-5.649A20.224,20.224,0,0,0-72.826-5.919a20.174,20.174,0,0,0-6,.9" transform="translate(93.044 5.919)" fill="#62b553" fill-rule="evenodd"/></g><g transform="translate(65.394 65.397)"><path d="M-169.423-90.353A20.257,20.257,0,0,1-185-76.142a20.4,20.4,0,0,1-3.851.368,20.346,20.346,0,0,1-3.845-.368,20.23,20.23,0,0,1-7.293-2.976,20.256,20.256,0,0,0,13.344,9.2,20.344,20.344,0,0,0,3.845.362,20.3,20.3,0,0,0,3.845-.362,20.247,20.247,0,0,0,15.573-14.21,20.063,20.063,0,0,0,.8-5.649,20.067,20.067,0,0,0-.8-5.649,20.257,20.257,0,0,0-8.28-11.228,20.217,20.217,0,0,1,2.235,5,20.312,20.312,0,0,1,.8,5.649,20.281,20.281,0,0,1-.8,5.649" transform="translate(199.986 106.652)" fill="#5aa64c" fill-rule="evenodd"/></g><g transform="translate(27.111 36.738)"><path d="M-108.063,0a18.487,18.487,0,0,1,6.424,14.029,18.526,18.526,0,0,1-18.52,18.528,18.388,18.388,0,0,1-7.4-1.54,18.454,18.454,0,0,0,12.1,4.5,18.526,18.526,0,0,0,18.52-18.528A18.528,18.528,0,0,0-108.063,0" transform="translate(127.557)" fill="#9cd0e8" fill-rule="evenodd"/></g><g transform="translate(28.727 63.39)"><path d="M-58.091,0A12.557,12.557,0,0,0-68.2,5.1c-.128.169-.251.338-.368.513a18.437,18.437,0,0,0,10.479,3.25,18.452,18.452,0,0,0,10.48-3.25,12.725,12.725,0,0,0-3.746-3.659A12.511,12.511,0,0,0-58.091,0" transform="translate(68.57)" fill="#a8652d" fill-rule="evenodd"/></g><g transform="translate(28.727 65.345)"><path d="M-95.418,0a18.43,18.43,0,0,1-11.431,3.951,18.62,18.62,0,0,1-5.415-.805c-.128.169-.251.338-.368.513A18.437,18.437,0,0,0-102.151,6.91a18.452,18.452,0,0,0,10.48-3.251A12.727,12.727,0,0,0-95.418,0" transform="translate(112.63)" fill="#914f18" fill-rule="evenodd"/></g><g transform="translate(91.254 81.294)"><path d="M0,0,2.083,2.772,4.16,0" fill="none" stroke="#000" stroke-linecap="round" stroke-linejoin="round" stroke-miterlimit="10" stroke-width="2"/></g><g transform="translate(69.735 80.582)"><path d="M-23.061-15.334-25.144-18.1l-2.077,2.766" transform="translate(27.221 18.1)" fill="none" stroke="#000" stroke-linecap="round" stroke-linejoin="round" stroke-miterlimit="10" stroke-width="2"/></g><g transform="translate(71.68 71.373)"><path d="M-110.605-94.138a10.9,10.9,0,0,1-9.05,4.82,10.9,10.9,0,0,1-10.736-9,10.9,10.9,0,0,1-.035-3.589m1.85-4.569a10.883,10.883,0,0,1,8.921-4.639,10.9,10.9,0,0,1,10.9,10.9,11.305,11.305,0,0,1-.146,1.792" transform="translate(130.558 111.12)" fill="none" stroke="#000" stroke-linecap="round" stroke-linejoin="round" stroke-miterlimit="10" stroke-width="2"/></g><g transform="translate(39.207 47.949)"><path d="M0-50.462c1.581.8,4.026.607,7.031-1.156s5.2-5.036,4.137-6.857-5.671-1.1-8.005.268A8.332,8.332,0,0,0,0-55.528" transform="translate(0 59.565)" fill="none" stroke="#000" stroke-linecap="round" stroke-linejoin="round" stroke-miterlimit="10" stroke-width="2"/></g><g transform="translate(27.765 47.949)"><path d="M-63.424-50.462c-1.581.8-4.026.607-7.031-1.156s-5.2-5.036-4.137-6.857,5.671-1.1,8.006.268a8.329,8.329,0,0,1,3.162,2.679" transform="translate(74.866 59.565)" fill="none" stroke="#000" stroke-linecap="round" stroke-linejoin="round" stroke-miterlimit="10" stroke-width="2"/></g><g transform="translate(1.528 1.834)"><path d="M-402.806-177.213l-1.785-29.681a2.3,2.3,0,0,0-2.293-2.288h-11.448a2.3,2.3,0,0,0-2.293,2.288v17.2h-10.264c-.689-3.56-3.734-5.433-6.9-5.614-3.168.181-6.214,2.054-6.9,5.614h-10.264v-17.2a2.3,2.3,0,0,0-2.293-2.288H-468.7a2.3,2.3,0,0,0-2.293,2.288l-3.787,63.009c-.951,15.891-3.04,23.483,11.226,23.483h50.71m11.8-27.446-1.289-21.464" transform="translate(475.471 209.181)" fill="none" stroke="#000" stroke-linecap="round" stroke-linejoin="round" stroke-miterlimit="10" stroke-width="2"/></g><g transform="translate(39.207 49.209)"><path d="M0-78.61V-92.79" transform="translate(0 92.79)" fill="none" stroke="#000" stroke-linecap="round" stroke-linejoin="round" stroke-miterlimit="10" stroke-width="2"/></g><g transform="translate(20.687 35.203)"><path d="M-102.661-205.389a18.56,18.56,0,0,0,18.52-18.529,18.559,18.559,0,0,0-18.52-18.523,18.558,18.558,0,0,0-18.52,18.523A18.559,18.559,0,0,0-102.661-205.389Z" transform="translate(121.181 242.441)" fill="none" stroke="#000" stroke-linecap="round" stroke-linejoin="round" stroke-miterlimit="10" stroke-width="2"/></g><g transform="translate(62.365 62.053)"><path d="M-178.059-21.838a20.224,20.224,0,0,1,8.315,16.282,20.213,20.213,0,0,1-20.218,20.221A20.217,20.217,0,0,1-210.179-5.556a20.217,20.217,0,0,1,20.218-20.221,19.375,19.375,0,0,1,5.427.736" transform="translate(210.179 25.777)" fill="none" stroke="#000" stroke-linecap="round" stroke-linejoin="round" stroke-miterlimit="10" stroke-width="2"/></g><g transform="translate(28.728 63.39)"><path d="M-116.182-31.121a12.727,12.727,0,0,0-3.746-3.659,12.51,12.51,0,0,0-6.734-1.955,12.557,12.557,0,0,0-10.112,5.1c-.128.169-.251.338-.367.513" transform="translate(137.141 36.735)" fill="none" stroke="#000" stroke-linecap="round" stroke-linejoin="round" stroke-miterlimit="10" stroke-width="2"/></g></g></g></g><rect width="172" height="160" transform="translate(1124.051 2433)" fill="none"/></g></svg>