<svg xmlns="http://www.w3.org/2000/svg" width="105" height="105" viewBox="0 0 105 105"><g transform="translate(-1230.051 -2904)"><g fill-rule="evenodd" transform="translate(854.051 2768)"><path d="M419.332 184.912c-2.994 0-3.187-3.187-4.3-2.849a5.7 5.7 0 0 1-2.849.58 15.9 15.9 0 0 0 6.568 11.108c1.5-2.222 4.105-1.98 4.153-2.318.1-.531-1.014-2.415.435-3.815 1.256-1.159 2.318-.29 2.7-.58.628-.676-.435-1.3.435-2.608a2.82 2.82 0 0 1 2.173-1.256c2.173-.193 2.56 1.932 2.994 2.9 2.994.1 3.622 3.815 1.352 5.844-1.4 1.256.773 1.642.918 3.67a15.88 15.88 0 0 0 9.852-17.145c-2.946.724-4.492-1.4-5.119-1.352-.386.048-1.014 2.608-3.187 2.56-1.835-.048-1.932-1.545-2.511-1.545-1.062 0-.869 1.69-2.849 1.69a3.2 3.2 0 0 1-1.98-.773c-1.835-1.5-.338-3.477-.048-4.395-2.222-2.318.145-5.506 3.284-5.361 2.028.145.773-1.835 2.125-3.429a15.84 15.84 0 0 0-15.6 2.656c1.787 2.028.869 4.54 1.159 4.588.773.241 2.656-.29 3.574 1.449.821 1.449-.338 2.318-.1 2.7.483.821 1.352-.048 2.415 1.111a3.1 3.1 0 0 1 .628 2.463c-.338 2.125-2.511 1.932-3.526 2.125a2.754 2.754 0 0 1-2.696 1.982m30.185 44.48h-42.983a7.544 7.544 0 0 1-7.534-7.534v-67.324a7.544 7.544 0 0 1 7.534-7.534h42.983a7.544 7.544 0 0 1 7.534 7.534v67.324a7.544 7.544 0 0 1-7.534 7.534m-42.983-80.46a5.606 5.606 0 0 0-5.6 5.6v2.173h54.187v-2.173a5.606 5.606 0 0 0-5.6-5.6Zm-5.6 9.707v62.687h54.187v-62.687Zm.193 64.619a5.55 5.55 0 0 0 5.409 4.2h42.983a5.55 5.55 0 0 0 5.409-4.2Zm49.309-18.69a.97.97 0 0 1-.966-.966v-40.278a.966.966 0 0 1 1.932 0V203.6a.94.94 0 0 1-.968.968Zm-44.818 0a.94.94 0 0 1-.966-.966v-40.278a.966.966 0 1 1 1.932 0V203.6a.97.97 0 0 1-.968.968Zm30.619-50.807h-16.42a.966.966 0 0 1 0-1.932h16.42a.966.966 0 0 1-.001 1.932ZM416.29 217.9h-8.114a.94.94 0 0 1-.966-.966v-8.164a.94.94 0 0 1 .966-.966h8.114a.97.97 0 0 1 .966.966v8.162a.97.97 0 0 1-.966.968m-7.148-1.932h6.182v-6.182h-6.182Zm22.94 1.932h-8.114a.97.97 0 0 1-.966-.966v-8.164a.97.97 0 0 1 .966-.966h8.114a.97.97 0 0 1 .966.966v8.162a.97.97 0 0 1-.966.968m-7.148-1.932h6.182v-6.182h-6.182Zm22.989 1.932h-8.162a.97.97 0 0 1-.966-.966v-8.164a.97.97 0 0 1 .966-.966h8.114a.97.97 0 0 1 .966.966v8.162a.93.93 0 0 1-.918.968m-7.2-1.932h6.182v-6.182h-6.182Zm-17.966-11.349c-1.256 0-2.849.29-2.849-.966s1.594-.966 2.849-.966a.966.966 0 0 1 .004 1.929Zm6.182 0c-1.207 0-2.8.29-2.8-.966s1.594-.966 2.8-.966a.966.966 0 0 1 .004 1.929Zm6.182 0c-1.207 0-2.8.29-2.8-.966s1.594-.966 2.8-.966a.966.966 0 1 1 .004 1.929Zm-23.037-24.1c.676.531 1.256.048 2.366-.29a2.79 2.79 0 0 1 3.284 1.642c.531 1.014 2.077 1.787 2.463.338.483-1.835 3.284-.869 3.429-1.739.1-.386-.048-.869-.29-.869a2.523 2.523 0 0 1-2.463-3.67c.435-.773-.58-.821-1.062-.821-2.125-.048-2.994-.966-2.753-3.139a2.7 2.7 0 0 0-.58-2.173 15.84 15.84 0 0 0-4.39 10.719Zm15.937 18.159a17.882 17.882 0 1 1 17.391-21.978 18.7 18.7 0 0 1 .483 4.105 17.89 17.89 0 0 1-17.87 17.871Zm-7.631-3.912a15.84 15.84 0 0 0 11.494 1.5c.338-.821-.29-1.207-.918-2.222a2.727 2.727 0 0 1 .773-3.574c.773-.724 1.256-2.463-.338-2.463-1.932 0-1.69-2.994-2.56-2.9-.386.048-.869.29-.773.531.483 1.594-.724 3.864-2.9 3.332-.869-.241-.676.773-.531 1.207.531 2.077-.145 3.139-2.318 3.477a2.93 2.93 0 0 0-1.924 1.11Zm22.988-18.256a15.94 15.94 0 0 0-7.92-9.8c-.869.386-.724 1.159-1.014 2.415a2.847 2.847 0 0 1-3.187 2.077c-1.207-.048-2.946.966-1.69 2.222 1.4 1.4-1.014 3.429-.241 4.105.338.29.918.483 1.111.145.821-1.594 3.381-2.27 4.54-.29.531.821 1.159 0 1.449-.531 1.014-1.739 2.27-2.366 4.3-.869a2.97 2.97 0 0 0 2.657.524Z"/><path fill="#3d7070" d="M454.925 223.258h-53.8a5.55 5.55 0 0 0 5.409 4.2h42.983a5.55 5.55 0 0 0 5.408-4.2"/><path fill="#1d81ce" d="M424.934 215.966h6.182v-6.182h-6.182Zm-9.61 0v-6.182h-6.182v6.182Zm25.403-6.182v6.182h6.182v-6.182Z"/><path fill="#bcffff" d="M439.761 207.804h8.114a.97.97 0 0 1 .966.966v8.162a.93.93 0 0 1-.918.966h-8.162a.97.97 0 0 1-.966-.966v-8.163a.97.97 0 0 1 .966-.965m6.133-27a17.946 17.946 0 1 1-.483-4.105 18.7 18.7 0 0 1 .484 4.108Zm-44.962 40.522h54.187v-62.687h-54.187Zm49.5-16.758a.97.97 0 0 1-.966-.966v-40.278a.966.966 0 0 1 1.932 0v40.278a.94.94 0 0 1-.966.966m-15.31-1.884a.966.966 0 1 1 0 1.932c-1.207 0-2.8.29-2.8-.966s1.596-.966 2.803-.966Zm-6.182 0a.966.966 0 0 1 0 1.932c-1.207 0-2.8.29-2.8-.966s1.592-.966 2.803-.966Zm-6.182 0a.966.966 0 0 1 0 1.932c-1.256 0-2.849.29-2.849-.966s1.597-.966 2.852-.966Zm-16.179.918a.97.97 0 0 1-.966.966.94.94 0 0 1-.966-.966v-40.278a.966.966 0 1 1 1.932 0Zm26.466 5.168v8.162a.97.97 0 0 1-.966.966h-8.114a.97.97 0 0 1-.966-.966v-8.163a.97.97 0 0 1 .966-.966h8.114a.97.97 0 0 1 .969.966Zm-15.793 0v8.162a.97.97 0 0 1-.966.966h-8.114a.94.94 0 0 1-.966-.966v-8.163a.94.94 0 0 1 .966-.966h8.114a.97.97 0 0 1 .97.966Z"/><path fill="#fff" d="M433.918 195.585a15.88 15.88 0 0 0 9.852-17.145c-2.946.724-4.492-1.4-5.119-1.352-.386.048-1.014 2.608-3.187 2.56-1.835-.048-1.932-1.545-2.511-1.545-1.062 0-.869 1.69-2.849 1.69a3.2 3.2 0 0 1-1.98-.773c-1.835-1.5-.338-3.477-.048-4.395-2.222-2.318.145-5.506 3.284-5.361 2.028.145.773-1.835 2.125-3.429a15.84 15.84 0 0 0-15.6 2.656c1.787 2.028.869 4.54 1.159 4.588.773.242 2.656-.29 3.574 1.449.821 1.449-.338 2.318-.1 2.7.483.821 1.352-.048 2.415 1.111a3.1 3.1 0 0 1 .628 2.463c-.338 2.125-2.511 1.932-3.526 2.125a2.754 2.754 0 0 1-2.7 1.98c-2.994 0-3.187-3.187-4.3-2.849a5.7 5.7 0 0 1-2.849.579 15.9 15.9 0 0 0 6.568 11.108c1.5-2.222 4.105-1.98 4.153-2.318.1-.531-1.014-2.415.435-3.815 1.256-1.159 2.318-.29 2.7-.579.628-.676-.435-1.3.435-2.608a2.82 2.82 0 0 1 2.173-1.256c2.173-.193 2.56 1.932 2.994 2.9 2.994.1 3.622 3.815 1.352 5.844-1.396 1.258.777 1.645.922 3.672"/><path fill="#7ed63f" d="M430.972 194.04a2.727 2.727 0 0 1 .773-3.574c.773-.724 1.256-2.463-.338-2.463-1.932 0-1.69-2.994-2.56-2.9-.386.048-.869.29-.773.531.483 1.594-.724 3.864-2.9 3.332-.869-.241-.676.773-.531 1.207.531 2.077-.145 3.139-2.318 3.477a2.93 2.93 0 0 0-1.93 1.114 15.84 15.84 0 0 0 11.494 1.5c.338-.824-.294-1.214-.917-2.224m-10.77-11.833c.483-1.835 3.284-.869 3.429-1.739.1-.386-.048-.869-.29-.869a2.523 2.523 0 0 1-2.463-3.67c.435-.773-.58-.821-1.062-.821-2.125-.048-2.994-.966-2.753-3.139a2.7 2.7 0 0 0-.58-2.173 15.84 15.84 0 0 0-4.395 10.721c.676.531 1.256.048 2.367-.29a2.79 2.79 0 0 1 3.284 1.642c.531 1.014 2.076 1.787 2.463.338m10.238-4.54c.821-1.594 3.381-2.27 4.54-.29.531.821 1.159 0 1.449-.531 1.014-1.739 2.27-2.366 4.3-.869a2.97 2.97 0 0 0 2.656.531 15.94 15.94 0 0 0-7.92-9.8c-.869.386-.724 1.159-1.014 2.415a2.847 2.847 0 0 1-3.188 2.077c-1.207-.048-2.946.966-1.69 2.221 1.4 1.4-1.014 3.429-.242 4.105.336.286.916.478 1.109.141"/><path fill="#3d7070" d="M400.932 156.708h54.187v-2.176a5.606 5.606 0 0 0-5.6-5.6h-42.987a5.606 5.606 0 0 0-5.6 5.6Zm35.3-4.878a.966.966 0 0 1 0 1.932h-16.42a.966.966 0 0 1 0-1.932Z"/></g><path fill="none" d="M1230.051 2904h105v105h-105z"/></g></svg>