<svg xmlns="http://www.w3.org/2000/svg" width="107" height="107" viewBox="0 0 107 107"><defs><filter id="a" width="107" height="107" x="0" y="0" filterUnits="userSpaceOnUse"><feOffset dy="3"/><feGaussianBlur result="b" stdDeviation="3"/><feFlood flood-opacity=".161"/><feComposite in2="b" operator="in"/><feComposite in="SourceGraphic"/></filter></defs><g transform="translate(-307.051 -4862)"><g filter="url(#a)" transform="translate(307.05 4862)"><circle cx="44.5" cy="44.5" r="44.5" fill="#fff" transform="translate(9 6)"/></g><g transform="translate(330.051 4885)"><path fill="#a4afb1" d="M55.806 21.947a8.24 8.24 0 0 0-3.851-2.289 12.3 12.3 0 0 0-3.069-6.752 12.8 12.8 0 0 0-6.351-3.842 10.557 10.557 0 0 0-20.859-.276 12.77 12.77 0 0 0-7.23 3.581 12.27 12.27 0 0 0-3.543 7H8.218a8.051 8.051 0 1 0 0 16.1h41.564A8.144 8.144 0 0 0 58 27.421a7.93 7.93 0 0 0-2.193-5.474Z"/><path fill="#134336" d="M55.807 21.947a8.24 8.24 0 0 0-3.851-2.289 12.3 12.3 0 0 0-3.069-6.752 12.8 12.8 0 0 0-6.354-3.842A10.46 10.46 0 0 0 32.087 0q-.407.002-.8.032V35.4s13.865.068 14.8.068h3.7a8.144 8.144 0 0 0 8.218-8.049 7.93 7.93 0 0 0-2.193-5.474Z"/><path fill="#f6f6f6" d="M40.746 19.409H21.82a4.95 4.95 0 0 0-4.978 4.913v24.587a4.95 4.95 0 0 0 4.978 4.913h18.685l5.219-13.955V24.321a4.95 4.95 0 0 0-4.978-4.912"/><path fill="#e8e8e8" d="M40.746 19.409h-9.463v34.412h9.222l5.219-13.955V24.321a4.95 4.95 0 0 0-4.978-4.912"/><path fill="#85e5aa" d="M51.573 48.45a1.7 1.7 0 0 0-1.541-.982h-.6v-7.6a1.7 1.7 0 0 0-1.7-1.7h-3.707a5.38 5.38 0 0 0-5.41 5.336v3.966h-.6a1.7 1.7 0 0 0-1.3 2.794l6.01 7.132a1.7 1.7 0 0 0 2.6 0l6.008-7.134a1.7 1.7 0 0 0 .24-1.812"/><path fill="#b0c0d2" d="M36.989 38.8H25.577a1.7 1.7 0 0 1 0-3.4h11.411a1.7 1.7 0 0 1 0 3.4Zm0-6.661H25.577a1.7 1.7 0 1 1 0-3.4h11.411a1.7 1.7 0 0 1 0 3.4Z"/><path fill="#727997" d="M36.989 35.402h-5.706v3.4h5.706a1.7 1.7 0 0 0 0-3.4m1.699-4.962a1.7 1.7 0 0 0-1.7-1.7h-5.705v3.4h5.706a1.7 1.7 0 0 0 1.699-1.7"/><path fill="#6bb788" d="M51.574 48.45a1.7 1.7 0 0 0-1.541-.982h-.6v-7.6a1.7 1.7 0 0 0-1.7-1.7h-3.711v19.834a1.7 1.7 0 0 0 1.3-.6l6.008-7.134a1.7 1.7 0 0 0 .244-1.818"/></g></g></svg>