<svg xmlns="http://www.w3.org/2000/svg" width="85" height="85" viewBox="0 0 85 85"><g transform="translate(-334.051 -1571)"><path fill="none" d="M334.051 1571h85v85h-85z"/><g transform="translate(340.72 1579.227)"><path fill="#f0c020" d="M65.399 14.253v39.938a2.474 2.474 0 0 1-2.474 2.474h-1.929l-9.064-9.063a.85.85 0 0 0-1.2 0l-2.387 2.389a.85.85 0 0 0 0 1.2l5.474 5.474h-45.4a2.474 2.474 0 0 1-2.47-2.474V14.253Z"/><path fill="#afafaf" d="M65.399 5.932v8.321H5.949V5.932A1.54 1.54 0 0 1 7.49 4.391h56.368a1.54 1.54 0 0 1 1.541 1.541"/><circle cx="1.889" cy="1.889" r="1.889" fill="#fc5d3d" transform="translate(42.643 7.434)"/><circle cx="1.889" cy="1.889" r="1.889" fill="#f0c020" transform="translate(49.925 7.434)"/><circle cx="1.889" cy="1.889" r="1.889" fill="#13bf6d" transform="translate(57.207 7.434)"/><path fill="#f9e5af" d="M50.807 54.271h-37.35a.619.619 0 0 1 0-1.237h37.35a.619.619 0 1 1 0 1.237m-39.824 0H8.712a.619.619 0 0 1 0-1.237h2.271a.619.619 0 1 1 0 1.237m51.485-.001h-4.485a.619.619 0 0 1 0-1.237h3.867V17.879a.619.619 0 0 1 1.237 0v35.773a.62.62 0 0 1-.619.618"/><path fill="#fc5d3d" d="M46.906 23.71a15.884 15.884 0 1 0 0 22.464 15.89 15.89 0 0 0 0-22.464"/><circle cx="12.081" cy="12.081" r="12.081" fill="#f0c020" transform="translate(23.593 22.862)"/><path fill="#fc5d3d" d="m64.549 60.218-3.553-3.553-9.063-9.063a.85.85 0 0 0-1.2 0l-2.387 2.389a.85.85 0 0 0 0 1.2l5.474 5.474 7.2 7.2a2.54 2.54 0 0 0 3.641-.054 2.59 2.59 0 0 0-.112-3.593"/><path fill="#ffcbc2" d="m62.412 62.555-.2-.2a.618.618 0 1 1 .874-.874l.2.2a.618.618 0 1 1-.874.874m-1.946-1.947-9.62-9.62a.618.618 0 1 1 .874-.874l9.62 9.62a.618.618 0 1 1-.874.874"/><path fill="#13bf6d" d="M39.142 38.576h-3.468a4.3 4.3 0 0 1 4.3-4.3h3.468a4.3 4.3 0 0 1-4.3 4.3m-7.768-8.89h-3.463a4.3 4.3 0 0 0 4.3 4.3h3.468a4.3 4.3 0 0 0-4.305-4.3"/><path d="M44.532 6.815a2.507 2.507 0 1 0 2.506 2.508 2.51 2.51 0 0 0-2.506-2.508m0 3.777a1.27 1.27 0 1 1 1.269-1.269 1.275 1.275 0 0 1-1.269 1.269m7.281-3.777a2.507 2.507 0 1 0 2.506 2.508 2.51 2.51 0 0 0-2.506-2.508m0 3.777a1.27 1.27 0 1 1 1.269-1.269 1.276 1.276 0 0 1-1.269 1.269m7.283-3.777a2.507 2.507 0 1 0 2.506 2.508 2.51 2.51 0 0 0-2.506-2.508m0 3.777a1.27 1.27 0 1 1 1.269-1.269 1.275 1.275 0 0 1-1.269 1.269M36.669 8.704H9.94a.619.619 0 1 0 0 1.237h26.729a.619.619 0 1 0 0-1.237m-9.976 17.259a12.7 12.7 0 1 0 21.312 12.024.619.619 0 0 0-1.2-.294 11.47 11.47 0 1 1 .173-4.66.619.619 0 0 0 1.22-.205 12.7 12.7 0 0 0-21.5-6.864Z"/><path d="M47.77 34.776a.61.61 0 0 0-.643.594.619.619 0 1 0 .643-.594M18.141 13.634a.618.618 0 1 0 .618.618.62.62 0 0 0-.618-.618"/><path d="M66.017 5.932a2.16 2.16 0 0 0-2.159-2.159H7.49a2.16 2.16 0 0 0-2.159 2.159v48.259a3.1 3.1 0 0 0 3.092 3.092h45.14L55.68 59.4a.63.63 0 0 0 .873 0 .62.62 0 0 0 0-.873l-2.293-2.293-.013-.013-5.467-5.466a.227.227 0 0 1 0-.327l2.387-2.389a.23.23 0 0 1 .324 0l12.621 12.615a1.977 1.977 0 0 1 .1 2.736 1.923 1.923 0 0 1-2.756.042l-1.407-1.407a.634.634 0 0 0-.873 0 .62.62 0 0 0 0 .876l1.405 1.4a3.164 3.164 0 0 0 4.529-.064 3.21 3.21 0 0 0-.126-4.46l-2.5-2.5h.437a3.1 3.1 0 0 0 3.092-3.092V5.927Zm-1.237 7.7H20.615a.619.619 0 1 0 0 1.237H64.78v39.32a1.86 1.86 0 0 1-1.855 1.855h-1.674l-8.881-8.881a1.47 1.47 0 0 0-2.076 0l-.755.755-1.762-1.764a16.5 16.5 0 0 0-.433-22.883 16.5 16.5 0 1 0-.44 23.761l1.761 1.768-.757.757a1.47 1.47 0 0 0 0 2.075l4.418 4.418H8.423a1.86 1.86 0 0 1-1.855-1.855V14.871h9.1a.619.619 0 0 0 0-1.237h-9.1v-7.7a.924.924 0 0 1 .922-.924h56.368a.923.923 0 0 1 .922.923zM46.473 45.729a15.265 15.265 0 1 1-.005-21.582 15.26 15.26 0 0 1 .005 21.582"/><path d="M57.427 60.276a.62.62 0 0 0 0 .873.618.618 0 0 0 .876-.873.63.63 0 0 0-.876 0m-21.753-16.49a.62.62 0 0 0 .618-.618v-3.973h2.85a4.924 4.924 0 0 0 4.918-4.918.62.62 0 0 0-.618-.618h-3.468a4.9 4.9 0 0 0-3.682 1.668v-1.34a4.924 4.924 0 0 0-4.918-4.918h-3.469a.62.62 0 0 0-.618.618 4.924 4.924 0 0 0 4.918 4.918h2.85v8.563a.62.62 0 0 0 .619.618m4.3-8.89h2.8a3.69 3.69 0 0 1-3.63 3.063h-2.8a3.69 3.69 0 0 1 3.63-3.064Zm-7.768-1.527a3.69 3.69 0 0 1-3.63-3.063h2.8a3.69 3.69 0 0 1 3.63 3.063Z"/></g></g></svg>