<svg xmlns="http://www.w3.org/2000/svg" width="85" height="85" viewBox="0 0 85 85"><g transform="translate(-758.051 -1571)"><path fill="none" d="M758.051 1571h85v85h-85z"/><g fill-rule="evenodd" transform="translate(772.051 1585)"><path d="m42.988 31.46-4.122-2.381a1.17 1.17 0 0 0-1.592.427 1.167 1.167 0 0 0 .427 1.591l4.124 2.379a1 1 0 0 1 .087.062c.3.249.635.547.987.861 1.822 1.625 4.316 3.851 6.057 2.844l6.069-3.5a2.86 2.86 0 0 0 1.043-3.894l-4.651-8.057a.9.9 0 0 0-1.554.9l1.923 3.331a.63.63 0 0 1-1.091.63l-1.924-3.331a.9.9 0 0 0-1.554.9l1.924 3.331a.631.631 0 0 1-1.092.63l-1.92-3.339a.9.9 0 1 0-1.554.9l1.923 3.331a.63.63 0 0 1-1.091.63l-4.892-8.474a.9.9 0 0 0-1.554.9l4.893 8.474a.631.631 0 0 1-.861.861Zm-1.407-2.269-3.716-6.437a2.157 2.157 0 0 1 3.736-2.157l1.989 3.445a2.15 2.15 0 0 1 2.32-.831 2.15 2.15 0 0 1 2.646-1.527 2.156 2.156 0 0 1 3.949-.52l4.652 8.055a4.12 4.12 0 0 1-1.5 5.616l-6.067 3.5a3.14 3.14 0 0 1-1.6.43c-2.088 0-4.255-1.932-5.93-3.425-.326-.293-.638-.57-.912-.8l-4.076-2.353a2.425 2.425 0 0 1 2.425-4.2Z"/><path d="M55.856 28.85a.63.63 0 0 1-.63-.63V11.23h-8.755a.63.63 0 1 1 0-1.26h9.385a.63.63 0 0 1 .63.63v17.62a.63.63 0 0 1-.63.63m0 16.519H.63a.63.63 0 0 1-.63-.63V10.6a.63.63 0 0 1 .63-.63h9.384a.63.63 0 0 1 0 1.26H1.256v32.879h53.97V33.921a.63.63 0 1 1 1.259 0v10.818a.63.63 0 0 1-.63.63Z"/><path d="M52.635 23.273a.63.63 0 0 1-.63-.63v-8.196h-5.533a.63.63 0 1 1 0-1.26h6.163a.63.63 0 0 1 .63.63v8.83a.63.63 0 0 1-.63.626m0 18.876H3.85a.63.63 0 0 1-.63-.63v-27.7a.63.63 0 0 1 .629-.63h6.165a.63.63 0 0 1 0 1.26H4.48v26.44h47.525v-5.042a.63.63 0 1 1 1.26 0v5.672a.63.63 0 0 1-.63.63M32.026 53.622h-7.567a.63.63 0 0 1-.63-.63v-8.254a.63.63 0 1 1 1.26 0v7.624h6.307v-7.624a.63.63 0 1 1 1.259 0v8.254a.63.63 0 0 1-.629.63"/><path d="M41.083 56.481H15.402a.63.63 0 0 1-.576-.886l1.932-4.347a.63.63 0 0 1 .525-.373l7.125-.574a.63.63 0 0 1 .1 1.256l-6.751.543-1.387 3.12h23.743l-1.386-3.12-6.752-.543a.63.63 0 0 1 .1-1.256l7.125.574a.63.63 0 0 1 .525.373l1.932 4.347a.63.63 0 0 1-.575.886Zm4.734-18.4h-35.8a.63.63 0 0 1-.63-.63V.63a.63.63 0 0 1 .63-.63h36.454a.63.63 0 0 1 .63.63v23.254a.63.63 0 0 1-1.26 0V1.26h-35.2v35.561h35.176a.63.63 0 0 1 0 1.26"/><path d="M46.472 7.917H10.018a.63.63 0 1 1 0-1.26h36.454a.63.63 0 0 1 0 1.26m-2.937-3.405h-2.464a.63.63 0 1 1 0-1.26h2.465a.63.63 0 0 1 0 1.26Zm-4.93 0H36.14a.63.63 0 1 1 0-1.26h2.466a.63.63 0 0 1 0 1.26Zm-4.93 0h-2.466a.63.63 0 1 1 0-1.26h2.466a.63.63 0 0 1 0 1.26m-9.785 0H12.949a.63.63 0 1 1 0-1.26H23.89a.63.63 0 0 1 0 1.26m1.673 29.746a.63.63 0 0 1-.424-1.1c1.81-1.647 2.637-4.81 2.457-9.4v-7.306a.63.63 0 1 1 1.26 0v7.275c.193 4.971-.773 8.46-2.869 10.368a.63.63 0 0 1-.424.163"/><path d="M28.92 25.065c3.861.368 4.247-.542 4.865-2.005a6.9 6.9 0 0 1 1.723-2.667 6.25 6.25 0 0 0-4.318 1.071 5.3 5.3 0 0 0-2.27 3.601m1.479 1.336a19 19 0 0 1-2.23-.15.63.63 0 0 1-.556-.64 6.5 6.5 0 0 1 2.856-5.18 7.56 7.56 0 0 1 6.72-.944.63.63 0 0 1 .119 1.139 5.28 5.28 0 0 0-2.359 2.924c-.731 1.72-1.47 2.852-4.55 2.852Z"/><path d="M20.978 20.393a6.9 6.9 0 0 1 1.723 2.667c.618 1.463 1 2.374 4.865 2.005a5.3 5.3 0 0 0-2.27-3.6 6.27 6.27 0 0 0-4.318-1.071Zm5.109 6.008c-3.081 0-3.819-1.131-4.546-2.852a5.28 5.28 0 0 0-2.364-2.923.63.63 0 0 1 .119-1.139 7.56 7.56 0 0 1 6.721.944 6.5 6.5 0 0 1 2.856 5.18.63.63 0 0 1-.556.64 19 19 0 0 1-2.23.151Zm2.155-14.96a4.373 4.373 0 0 0 0 7.609 4.374 4.374 0 0 0 0-7.609m0 8.965a.64.64 0 0 1-.3-.073 5.657 5.657 0 0 1 0-10.174.63.63 0 0 1 .591 0 5.658 5.658 0 0 1 0 10.174.6.6 0 0 1-.291.073"/><path fill="#fed2a5" d="m44.571 25.741 1.923 3.331a.63.63 0 0 1-1.091.63l-4.892-8.474a.9.9 0 0 0-1.554.9l4.893 8.474a.631.631 0 0 1-.861.861l-4.122-2.381a1.17 1.17 0 0 0-1.592.427 1.167 1.167 0 0 0 .427 1.591l4.124 2.379a1 1 0 0 1 .087.062c.3.249.635.547.987.861a20.4 20.4 0 0 0 3.172 2.474.6.6 0 0 1 .111.062 2.8 2.8 0 0 0 2.774.307l6.069-3.5a2.86 2.86 0 0 0 1.043-3.894l-3.967-6.866-.032-.056-.658-1.139a.9.9 0 0 0-1.554.9l1.923 3.331a.63.63 0 0 1-1.091.63l-1.924-3.331a.9.9 0 0 0-1.668.349v.2a.9.9 0 0 0 .114.346l1.924 3.331a.631.631 0 0 1-1.092.63l-1.922-3.331a.9.9 0 1 0-1.554.9Z"/><path fill="#62dbfb" d="M47.102 21.801a2.15 2.15 0 0 1 1.454-.116 2.16 2.16 0 0 1 3.448-1.111v-6.12h-4.9Zm2.484 16.534a3.14 3.14 0 0 1-1.6.43 5 5 0 0 1-2.34-.684H10.014a.63.63 0 0 1-.63-.63v-23h-4.9v26.438h47.521v-3.95l-2.418 1.4Z"/><path fill="#e5ecf5" d="M10.644 36.822H43.79a37 37 0 0 1-1.729-1.482c-.326-.293-.638-.57-.912-.8l-4.076-2.353a2.425 2.425 0 0 1 2.425-4.2l2.085 1.2-3.716-6.437a2.157 2.157 0 0 1 3.736-2.157l1.987 3.454a2.15 2.15 0 0 1 2.251-.848V7.916h-35.2Zm24.301-13.275c-.727 1.72-1.466 2.852-4.546 2.852q-.693 0-1.555-.078c-.19 3.607-1.148 6.215-2.858 7.772a.63.63 0 0 1-.848-.932c1.452-1.314 2.27-3.614 2.446-6.833-.553.049-1.05.073-1.5.073-3.081 0-3.819-1.131-4.546-2.852a5.28 5.28 0 0 0-2.364-2.923.63.63 0 0 1 .119-1.139 7.56 7.56 0 0 1 6.721.944 7 7 0 0 1 1.579 1.52v-1.82a5.646 5.646 0 0 1 .352-9.973.63.63 0 0 1 .591 0 5.647 5.647 0 0 1 .318 9.993v1.845a7 7 0 0 1 1.613-1.567 7.56 7.56 0 0 1 6.721-.944.63.63 0 0 1 .12 1.139 5.28 5.28 0 0 0-2.363 2.923"/><path fill="#d7d0d6" d="M53.264 13.82v8.655l1.961 3.4V11.23h-8.124v1.959h5.533a.63.63 0 0 1 .63.631m1.965 30.289v-9.03l-1.961 1.132v5.308a.63.63 0 0 1-.629.63H3.849a.63.63 0 0 1-.63-.63v-27.7a.63.63 0 0 1 .629-.63h5.534V11.23H1.26v32.879Z"/><path fill="#a9c2d6" d="M31.397 50.919v-5.55h-6.308v6.994h6.307v-1.416z"/><path fill="#a9c2d6" d="m38.724 52.101-6.071-.489v1.38a.63.63 0 0 1-.63.63h-7.564a.63.63 0 0 1-.63-.63v-1.38l-6.071.489-1.387 3.119h23.742Z"/><path fill="#32d736" d="M28.855 18.603a4.43 4.43 0 0 0 1.6-3.358 4.52 4.52 0 0 0-2.216-3.8 4.52 4.52 0 0 0-2.217 3.8 4.43 4.43 0 0 0 1.57 3.328v-2.121a.63.63 0 1 1 1.26 0Z"/><path fill="#6ce79a" d="M27.566 25.061a5.3 5.3 0 0 0-2.27-3.6 6.27 6.27 0 0 0-4.318-1.071 6.9 6.9 0 0 1 1.723 2.671c.618 1.463 1 2.374 4.865 2.005Zm3.624-3.599a5.3 5.3 0 0 0-2.27 3.6c3.861.367 4.247-.542 4.865-2.005a6.9 6.9 0 0 1 1.723-2.667 6.25 6.25 0 0 0-4.318 1.072"/><path fill="#fd8087" d="M10.644 6.656h35.2v-5.4h-35.2ZM23.89 4.512H12.949a.63.63 0 1 1 0-1.26H23.89a.63.63 0 0 1 0 1.26m9.785 0h-2.466a.63.63 0 1 1 0-1.26h2.466a.63.63 0 0 1 0 1.26m4.931 0h-2.467a.63.63 0 1 1 0-1.26h2.466a.63.63 0 0 1 0 1.26Zm4.931 0h-2.466a.63.63 0 1 1 0-1.26h2.465a.63.63 0 0 1 0 1.26Z"/></g></g></svg>