<svg xmlns="http://www.w3.org/2000/svg" width="85" height="85" viewBox="0 0 85 85"><g transform="translate(-1153.051 -1571)"><path fill="none" d="M1153.051 1571h85v85h-85z"/><g transform="translate(1164.051 1585)"><g transform="translate(.65 .65)"><path fill="#e6e8e7" d="M54.918 48.953a1.182 1.182 0 0 1 1.145 1.469 5.94 5.94 0 0 1-5.763 4.475H5.8a5.94 5.94 0 0 1-5.762-4.475 1.182 1.182 0 0 1 1.145-1.469Z"/><path fill="#405d6b" d="M53.296 48.957V19.804a2.35 2.35 0 0 0-2.35-2.35H5.158a2.35 2.35 0 0 0-2.35 2.35v29.153Z"/><path fill="#bee7fd" d="M6.332 48.957V22.279a1.3 1.3 0 0 1 1.3-1.3h40.835a1.3 1.3 0 0 1 1.3 1.3v26.678Z"/><path fill="#e6e8e7" d="M44.074 9.827v29.712a2.35 2.35 0 0 1-2.35 2.35H14.377a2.35 2.35 0 0 1-2.35-2.35V9.827Z"/><path d="M44.074 9.829v29.713a2.35 2.35 0 0 1-2.341 2.341h-3.667a2.35 2.35 0 0 0 2.354-2.341V9.829Z" opacity=".1"/><path fill="#facb00" d="M17.063 7.975v1.374a3.663 3.663 0 0 1-7.325 0V7.975Zm14.649 0v1.374a3.663 3.663 0 0 1-7.325 0V7.975Zm14.649 0v1.374a3.663 3.663 0 0 1-7.325 0V7.975Zm-29.298 0 3.1-6.389h-3.798a3.07 3.07 0 0 0-2.389 1.142L9.739 7.975Zm14.649 0L30.68 1.586h-5.259l-1.032 6.389Zm14.649 0-4.237-5.247a3.07 3.07 0 0 0-2.389-1.142h-3.794l3.1 6.389Z"/><path fill="#fd4746" d="M24.388 7.975v1.374a3.663 3.663 0 0 1-7.325 0V7.975Zm14.649 0v1.374a3.663 3.663 0 1 1-7.325 0V7.975Zm-14.649 0 1.032-6.389h-5.261l-3.1 6.389Zm14.648 0-3.1-6.389h-5.261l1.032 6.389Z"/><path fill="#72b505" d="M39.304 19.93v3.062a1.3 1.3 0 0 1-1.3 1.3h-2.916v10.257a1.3 1.3 0 0 1-1.3 1.3H22.313a1.3 1.3 0 0 1-1.3-1.3V24.292h-2.916a1.3 1.3 0 0 1-1.3-1.3v-3.066a1.3 1.3 0 0 1 1.3-1.3h6.12a3.834 3.834 0 0 0 7.668 0h6.12a1.3 1.3 0 0 1 1.3 1.3Z"/><path d="M35.084 24.302v10.251a1.3 1.3 0 0 1-1.3 1.3h-2.627a1.3 1.3 0 0 0 1.3-1.3v-7.62a2.626 2.626 0 0 1 2.627-2.631m4.226-4.37v3.069a1.3 1.3 0 0 1-1.3 1.3h-2.64a1.3 1.3 0 0 0 1.3-1.3v-3.069a1.3 1.3 0 0 0-1.3-1.3h2.64a1.3 1.3 0 0 1 1.3 1.3" opacity=".1"/><path fill="#fa8aa2" d="M62.418 6.317A6.317 6.317 0 1 1 56.101 0a6.32 6.32 0 0 1 6.317 6.317"/></g><path d="M55.568 48.953h-.978v-28.5a3 3 0 0 0-2.992-3h-6.229v-3.667a4.3 4.3 0 0 0 2.292-3.787V8.627a1 1 0 0 0-.145-.408l-4.237-5.247a3.7 3.7 0 0 0-2.894-1.383h-23.37a3.7 3.7 0 0 0-2.9 1.383L9.884 8.217a1 1 0 0 0-.145.408V10a4.3 4.3 0 0 0 2.29 3.785v3.665H5.812a3.007 3.007 0 0 0-3 3v28.5h-.977a1.83 1.83 0 0 0-1.778 2.282 6.58 6.58 0 0 0 6.391 4.966h44.5a6.58 6.58 0 0 0 6.393-4.966 1.83 1.83 0 0 0-1.773-2.279m-3.97-30.2a1.7 1.7 0 0 1 1.691 1.7v28.5h-2.224V22.927a1.953 1.953 0 0 0-1.951-1.951h-3.745V18.75ZM15.035 43.184h27.344a2.994 2.994 0 0 0 2.991-2.991V22.274h3.745a.65.65 0 0 1 .65.65v26.03H7.635V22.927a.65.65 0 0 1 .65-.65h3.745v17.915a3 3 0 0 0 3 2.991ZM46.361 10a3.012 3.012 0 0 1-6.024 0v-.724h6.024zm-7.325 0a3.012 3.012 0 0 1-6.024 0v-.724h6.023V10Zm-7.325 0a3.012 3.012 0 0 1-6.024 0v-.724h6.024zm-7.325 0a3.012 3.012 0 1 1-6.024 0v-.724h6.024Zm7.212-2.025h-5.8l.823-5.088h4.154Zm10.67-4.189 3.382 4.189h-5.555l-2.466-5.088h2.756a2.41 2.41 0 0 1 1.883.899m-6.086-.9 2.466 5.088h-5.732l-.822-5.088Zm-11.7 5.089h-5.731l2.466-5.088h4.09Zm-9.347-4.188a2.42 2.42 0 0 1 1.884-.9h2.755l-2.469 5.088h-5.556ZM11.035 10v-.724h6.023V10a3.012 3.012 0 1 1-6.023 0m3.012 4.312a4.3 4.3 0 0 0 3.661-2.064 4.282 4.282 0 0 0 7.325 0 4.282 4.282 0 0 0 7.325 0 4.282 4.282 0 0 0 7.325 0 4.18 4.18 0 0 0 4.382 1.991v25.953a1.69 1.69 0 0 1-1.69 1.691h-27.34a1.7 1.7 0 0 1-1.7-1.691V14.239a4.3 4.3 0 0 0 .723.073Zm-9.938 6.141a1.706 1.706 0 0 1 1.7-1.7h6.216v2.224H8.284a1.953 1.953 0 0 0-1.949 1.95v26.03H4.109Zm51.974 30.46a5.285 5.285 0 0 1-5.133 3.985H6.449a5.28 5.28 0 0 1-5.132-3.986.532.532 0 0 1 .514-.658c9 .007 55.574 0 53.737 0a.532.532 0 0 1 .516.659Z"/><path d="M52.035 51.925h-.695a.65.65 0 1 0 0 1.3h.695a.65.65 0 1 0 0-1.3m-2.877 0h-.695a.65.65 0 0 0 0 1.3h.695a.65.65 0 0 0 0-1.3m-2.878 0h-.695a.65.65 0 1 0 0 1.3h.695a.65.65 0 1 0 0-1.3M18.746 25.597h2.265v9.611a1.953 1.953 0 0 0 1.951 1.951h11.476a1.953 1.953 0 0 0 1.951-1.951v-9.607h2.266a1.953 1.953 0 0 0 1.951-1.951v-3.066a1.953 1.953 0 0 0-1.951-1.951h-6.121a.65.65 0 0 0-.65.65 3.184 3.184 0 1 1-6.367 0 .65.65 0 0 0-.65-.65h-6.12a1.953 1.953 0 0 0-1.951 1.951v3.066a1.953 1.953 0 0 0 1.95 1.947m-.65-5.016a.65.65 0 0 1 .65-.65h5.517a4.484 4.484 0 0 0 8.874 0h5.518a.65.65 0 0 1 .65.65v3.066a.65.65 0 0 1-.65.65h-2.916a.65.65 0 0 0-.65.65v10.261a.65.65 0 0 1-.65.65H22.963a.65.65 0 0 1-.65-.65V24.946a.65.65 0 0 0-.65-.65h-2.916a.65.65 0 0 1-.65-.65V20.58ZM56.751 0a6.967 6.967 0 1 0 6.967 6.964A6.975 6.975 0 0 0 56.751 0m0 12.634a5.667 5.667 0 1 1 5.666-5.667 5.674 5.674 0 0 1-5.666 5.667"/><path d="m58.962 4.546-3.463 3.463-.96-.959a.65.65 0 1 0-.919.919l1.42 1.419a.65.65 0 0 0 .919 0l3.923-3.923a.65.65 0 0 0-.919-.919Z"/></g></g></svg>