<svg xmlns="http://www.w3.org/2000/svg" width="85" height="85" viewBox="0 0 85 85"><g transform="translate(-1230.051 -5417)"><g transform="translate(1171.148 5423)"><path fill="#00aa95" d="M126.111 6.16v60.644a5 5 0 0 1-.353 1.852 5.1 5.1 0 0 1-4.725 3.225H82.024a5.09 5.09 0 0 1-5.077-5.077V6.16a5.09 5.09 0 0 1 4.4-5.03 5 5 0 0 1 .679-.046h39.009a5.09 5.09 0 0 1 5.076 5.076"/><path fill="#00ccb3" d="M126.11 6.16v60.644a5 5 0 0 1-.353 1.852 5 5 0 0 1-.679.046H86.069a5.09 5.09 0 0 1-5.077-5.077V2.98a5 5 0 0 1 .353-1.851 5 5 0 0 1 .679-.046h39.009a5.09 5.09 0 0 1 5.077 5.077"/><path fill="#b2fa09" d="M102.314 49.84q-.525.191-1.089.364-.559-.238-1.076-.493c-6.3-3.077-8.03-7.7-7.613-12.42a18 18 0 0 1 .419-2.547 25.7 25.7 0 0 1 1.543-4.482c.306-.695.637-1.374.982-2.033a48.4 48.4 0 0 1 5.076-7.675c.1-.12.188-.233.275-.338a1.1 1.1 0 0 1 1.728.042l.166.222a55 55 0 0 1 4.689 7.561q.503.99.959 2.033a29.6 29.6 0 0 1 1.653 4.771 20 20 0 0 1 .445 2.442c.604 5.124-1.135 9.999-8.157 12.553"/><path fill="#ffa733" d="M83.965 1.08v70.8h-1.94a5.09 5.09 0 0 1-5.077-5.077V6.16a5.09 5.09 0 0 1 5.076-5.08Z"/><path fill="#ff9811" d="M83.965 68.242v3.64h-1.94a5.09 5.09 0 0 1-5.078-5.08V6.16a5.09 5.09 0 0 1 4.4-5.03 5 5 0 0 0-.353 1.851v60.644a5.09 5.09 0 0 0 2.971 4.617"/><path d="M78.07 66.805V28.542a1.084 1.084 0 0 0-2.167 0v38.263a6.1 6.1 0 0 0 .569 2.58 1.084 1.084 0 1 0 1.965-.913 3.9 3.9 0 0 1-.367-1.667"/><path d="M126.253 66.454a1.085 1.085 0 0 0-1.227.918 4.014 4.014 0 0 1-3.952 3.426H85.088V2.167H96.5A1.084 1.084 0 0 0 96.5 0H82.063A6.167 6.167 0 0 0 75.9 6.16v18.047a1.084 1.084 0 1 0 2.167 0V6.16a4 4 0 0 1 3.993-3.993h.857V70.8a6.6 6.6 0 0 1-1.976-.161 1.084 1.084 0 1 0-.613 2.079 6.1 6.1 0 0 0 1.731.249h39.01a6.19 6.19 0 0 0 6.1-5.284 1.084 1.084 0 0 0-.916-1.229M121.074 0h-20.239a1.084 1.084 0 1 0 0 2.167h20.239a4 4 0 0 1 3.993 3.993V18.4a1.084 1.084 0 0 0 2.167 0V6.16a6.17 6.17 0 0 0-6.16-6.16"/><path d="M126.151 21.655a1.084 1.084 0 0 0-1.084 1.084v40.459a1.084 1.084 0 1 0 2.167 0V22.739a1.084 1.084 0 0 0-1.083-1.084M91.732 41.467c1.025 4.7 4.686 7.938 9.128 9.742a1.1 1.1 0 0 0 .732.029c5.162-1.585 8.389-4.412 9.591-8.4 3.03-10.054-8.111-23.771-8.587-24.35a1.084 1.084 0 0 0-1.639-.041c-.47.514-11.463 12.749-9.225 23.02m11.059-19.08a53 53 0 0 1 3.79 6.335l-3.946 3.442Zm-.2 12.693 4.945-4.313a27 27 0 0 1 1.585 4.769l-6.626 5.529Zm-.141 8.845 7.052-5.885a11.5 11.5 0 0 1-.393 4.17c-.872 2.892-3.135 5.061-6.735 6.463Zm-1.823-21.642-.165 10.37-4.072-3.738a47 47 0 0 1 4.235-6.632Zm-5.211 8.68 5 4.59-.094 5.883-6.432-5.7a23.2 23.2 0 0 1 1.524-4.773Zm-1.813 7.413 6.674 5.917-.067 4.214c-3.537-1.848-5.674-4.365-6.358-7.5a11.5 11.5 0 0 1-.251-2.631Z"/></g><path fill="none" d="M1230.051 5417h85v85h-85z"/></g></svg>