<svg xmlns="http://www.w3.org/2000/svg" width="83.717" height="104.063" viewBox="0 0 83.717 104.063"><g transform="translate(-56.037 -6.5)"><g transform="translate(57.037 7.5)"><path fill="#a2e62e" d="M80.691 0H17.46a1.027 1.027 0 0 0-1.027 1.027V8.7h55.762a.82.82 0 0 1 .821.821V85.63h7.675a1.027 1.027 0 0 0 1.027-1.027V1.027A1.027 1.027 0 0 0 80.691 0"/><path fill="#97d729" d="M80.69 0h-8.617A1.027 1.027 0 0 1 73.1 1.027V84.6a1 1 0 0 1-.084.405v.621h7.675a1.027 1.027 0 0 0 1.027-1.027V1.027A1.027 1.027 0 0 0 80.69 0"/><path fill="none" stroke="#000" stroke-linecap="round" stroke-linejoin="round" stroke-miterlimit="10" stroke-width="2" d="M73.222 85.63h7.469a1.027 1.027 0 0 0 1.027-1.027V1.027A1.027 1.027 0 0 0 80.691 0H17.46a1.027 1.027 0 0 0-1.027 1.027V8.5"/><path fill="#c8effe" d="M8.963 93.921a.82.82 0 0 1-.821-.821V16.433H1.027A1.027 1.027 0 0 0 0 17.46v83.576a1.027 1.027 0 0 0 1.027 1.027h63.231a1.027 1.027 0 0 0 1.027-1.027v-7.115Z"/><path fill="#99e6fc" d="M53.572 93.921v7.115a1.027 1.027 0 0 1-1.027 1.027h11.713a1.027 1.027 0 0 0 1.027-1.027v-7.115Z"/><path fill="none" stroke="#000" stroke-linecap="round" stroke-linejoin="round" stroke-miterlimit="10" stroke-width="2" d="M7.937 16.433h-6.91A1.027 1.027 0 0 0 0 17.46v9.752m0 7.185v66.639a1.027 1.027 0 0 0 1.027 1.027h63.231a1.027 1.027 0 0 0 1.027-1.027v-6.91"/><path fill="#f2fbff" d="M72.195 94.125H8.964a1.027 1.027 0 0 1-1.027-1.027V9.525a1.027 1.027 0 0 1 1.027-1.027h63.231a1.027 1.027 0 0 1 1.026 1.027v83.576a1.027 1.027 0 0 1-1.026 1.024"/><path fill="#dff6fd" d="M72.195 8.496h-8.561a1.027 1.027 0 0 1 1.027 1.027v83.576a1.027 1.027 0 0 1-1.027 1.027h8.561a1.027 1.027 0 0 0 1.027-1.027V9.525a1.027 1.027 0 0 0-1.027-1.029"/><path fill="none" stroke="#000" stroke-linecap="round" stroke-linejoin="round" stroke-miterlimit="10" stroke-width="2" d="M29.359 8.496H8.964a1.027 1.027 0 0 0-1.027 1.029v62.661m0 7.185v13.728a1.027 1.027 0 0 0 1.027 1.027h63.231a1.027 1.027 0 0 0 1.027-1.027V9.525a1.027 1.027 0 0 0-1.027-1.027H36.551"/><path fill="#dff6fd" d="M54.441 94.126h17.754a1.027 1.027 0 0 0 1.027-1.027V75.347Z"/><path fill="#c8effe" d="M64.661 93.1a1.027 1.027 0 0 1-1.027 1.027h8.561a1.026 1.026 0 0 0 1.027-1.027V75.347l-8.561 8.561Z"/><path fill="none" stroke="#000" stroke-linecap="round" stroke-linejoin="round" stroke-miterlimit="10" stroke-width="2" d="M54.441 94.126h17.754a1.027 1.027 0 0 0 1.027-1.027V75.347Z"/><path fill="#c8effe" d="M54.441 76.372v17.754l18.78-18.78H55.468a1.027 1.027 0 0 0-1.027 1.026"/><path fill="#99e6fc" d="M73.222 75.347h-8.561v8.561Z"/><path fill="none" stroke="#000" stroke-linecap="round" stroke-linejoin="round" stroke-miterlimit="10" stroke-width="2" d="M54.441 76.372v17.754l18.78-18.78H55.468a1.027 1.027 0 0 0-1.027 1.026"/></g><g fill="none" stroke="#000" stroke-linecap="round" stroke-linejoin="round" stroke-miterlimit="10" stroke-width="2" transform="translate(80.777 37.907)"><path d="M5.104 16.141.567 24a4.185 4.185 0 0 0 3.624 6.277h9.952m11.734-18.806-5.415-9.379a4.185 4.185 0 0 0-7.248 0l-5.415 9.379"/><g transform="translate(19.536 16.141)"><path d="M0 14.132h9.952a4.185 4.185 0 0 0 3.624-6.277L9.039-.004"/><path d="m2.804 16.94-2.8-2.8 2.8-2.8-2.8 2.8"/></g><path d="m1.309 17.027 3.831-1.026 1.026 3.831-1.026-3.831m21.838-8.14-1.042 3.826-3.826-1.042 3.826 1.042"/></g><path fill="#ffd15b" d="M72.078 23.21v5.75a1.027 1.027 0 0 0 1.022 1.023h49.023a1.027 1.027 0 0 0 1.027-1.027v-5.75a1.027 1.027 0 0 0-1.022-1.023H73.1a1.027 1.027 0 0 0-1.022 1.027"/><path fill="#ffc344" d="M122.128 22.183h-8.625a1.027 1.027 0 0 1 1.027 1.027v5.75a1.027 1.027 0 0 1-1.027 1.023h8.625a1.027 1.027 0 0 0 1.027-1.027v-5.75a1.027 1.027 0 0 0-1.027-1.023"/><path fill="none" stroke="#000" stroke-linecap="round" stroke-linejoin="round" stroke-miterlimit="10" stroke-width="2" d="M72.078 23.21v5.75a1.027 1.027 0 0 0 1.022 1.023h49.023a1.027 1.027 0 0 0 1.027-1.027v-5.75a1.027 1.027 0 0 0-1.022-1.023H73.1a1.027 1.027 0 0 0-1.022 1.027m4.298 56.953h19.451m-19.451 6.26h19.451m-19.451 6.26h19.451"/></g></svg>