<svg xmlns="http://www.w3.org/2000/svg" width="77.084" height="112.721" viewBox="0 0 77.084 112.721"><g transform="translate(-80.935)"><path fill="#faf0d3" d="M151.856 110.959H87.1a4.4 4.4 0 0 1-4.4-4.6l3.122-68.687a4.4 4.4 0 0 1 4.4-4.2h58.511a4.4 4.4 0 0 1 4.4 4.2l3.122 68.687a4.4 4.4 0 0 1-4.399 4.6"/><path fill="#f4e1a1" d="M156.254 106.353a4.4 4.4 0 0 1-4.4 4.6h-8.6a4.4 4.4 0 0 0 4.4-4.6l-3.122-68.687a4.4 4.4 0 0 0-4.4-4.2h8.6a4.4 4.4 0 0 1 4.4 4.2Z"/><path fill="#79cb9c" d="M126.522 81.019h-7.045v-5.284a17.61 17.61 0 0 1 17.612-17.612h7.045v5.287a17.61 17.61 0 0 1-17.612 17.609"/><path fill="#63ac7d" d="M144.134 58.123v5.287a17.613 17.613 0 0 1-17.612 17.612h-7.045a17.613 17.613 0 0 0 17.612-17.612v-5.284Z"/><path fill="#79cb9c" d="M112.433 81.019h7.045v-5.284a17.61 17.61 0 0 0-17.612-17.612h-7.045v5.287a17.61 17.61 0 0 0 17.612 17.609"/><path fill="#63ac7d" d="M119.478 75.735v5.284h-7.045v-5.284a17.613 17.613 0 0 0-17.612-17.612h7.045a17.613 17.613 0 0 1 17.612 17.612"/><path fill="#f1cc76" d="M103.627 33.466h-8.806V10.502a3.52 3.52 0 0 1 1.322-2.751l7.484-5.987Z"/><path fill="#ebb15d" d="M103.626 1.764v31.7h-3.522V4.582Z"/><path fill="#f1cc76" d="M135.328 33.466h8.806V10.502a3.52 3.52 0 0 0-1.322-2.751l-7.484-5.987Z"/><path fill="#ebb15d" d="M144.134 10.502v22.964h-3.522V10.502a3.52 3.52 0 0 0-1.321-2.751l-3.963-3.17V1.764l7.485 5.987a3.52 3.52 0 0 1 1.321 2.751"/><path fill="#f1cc76" d="M103.627 1.764h31.7v8.806h-31.7Z"/><path fill="#ebb15d" d="M126.522 1.764h8.806v8.806h-8.806Z"/><path d="m158.013 106.276-3.122-68.687a6.154 6.154 0 0 0-6.158-5.884H145.9V10.5a5.26 5.26 0 0 0-1.983-4.126c-8.026-6.42-7.663-6.268-8.36-6.357-.194-.026-31.954-.023-32.12 0-.727.081-.442 0-8.391 6.362A5.26 5.26 0 0 0 93.06 10.5v21.2h-2.838a6.154 6.154 0 0 0-6.158 5.884l-3.122 68.687a6.16 6.16 0 0 0 6.158 6.449h64.756a6.16 6.16 0 0 0 6.157-6.444M142.373 10.5v21.2h-5.283V5.428l4.623 3.7a1.75 1.75 0 0 1 .66 1.372m-36.985 21.2V12.331h28.179V31.7Zm28.179-22.9h-28.179V3.525h28.179Zm-36.985 1.7a1.75 1.75 0 0 1 .661-1.375l4.623-3.7V31.7h-5.284Zm55.274 98.7H87.1a2.64 2.64 0 0 1-2.639-2.762l3.122-68.687a2.637 2.637 0 0 1 2.639-2.522h58.511a2.637 2.637 0 0 1 2.639 2.522l3.122 68.687a2.64 2.64 0 0 1-2.639 2.762Z"/><path d="M144.134 56.361h-7.045a19.4 19.4 0 0 0-17.612 11.307 19.4 19.4 0 0 0-17.612-11.307H94.82a1.76 1.76 0 0 0-1.761 1.761v5.284a19.4 19.4 0 0 0 19.373 19.373h5.284v7.045a1.761 1.761 0 0 0 3.522 0v-7.045h5.284a19.4 19.4 0 0 0 19.373-19.373v-5.284a1.76 1.76 0 0 0-1.761-1.761m-47.553 7.045v-3.522h5.284a15.87 15.87 0 0 1 15.851 15.851v1.4l-11.169-9.773a1.761 1.761 0 1 0-2.32 2.651l10.562 9.242h-2.357a15.87 15.87 0 0 1-15.851-15.849m45.792 0a15.87 15.87 0 0 1-15.851 15.851h-2.357l10.562-9.242a1.761 1.761 0 1 0-2.32-2.651l-11.169 9.773v-1.4a15.87 15.87 0 0 1 15.851-15.851h5.284Z"/></g></svg>