<svg xmlns="http://www.w3.org/2000/svg" xmlns:xlink="http://www.w3.org/1999/xlink" width="141.251" height="108.981" viewBox="0 0 141.251 108.981"><defs><clipPath id="a"><rect width="141.251" height="108.981" fill="none"/></clipPath></defs><g transform="translate(0 0)" clip-path="url(#a)"><path d="M141.251,120.411c0,2.862-31.62,5.182-70.625,5.182S0,123.273,0,120.411s31.62-5.182,70.625-5.182,70.625,2.32,70.625,5.182" transform="translate(0 -16.612)" fill="#e8e8e8" style="mix-blend-mode:multiply;isolation:isolate"/><path d="M116.754,8.5a2.958,2.958,0,0,0-.027,1.195,7.157,7.157,0,0,0,.027-1.195" transform="translate(-16.821 -1.225)" fill="#e8e8e8"/><path d="M117.119,16.814a3.411,3.411,0,0,1-.636.991l.68-.34a1.292,1.292,0,0,0-.044-.651" transform="translate(-16.793 -2.424)" fill="#e8e8e8"/><path d="M126.866,2.4c-.017,3.924-3.9,7.752-7.656,8.207-1.707.207-3.576-.222-3.895-1.8-.41,4.216-4.595,6.438-8.44,6.609,1.594,2.609,6.269,2.466,8.223.306l-.626.312a2.815,2.815,0,0,0,1.539-2.375c2.791,1.3,7.486-.493,9.518-2.616,2.231-2.332,1.557-5.732,1.338-8.647" transform="translate(-15.407 -0.346)" fill="#e8e8e8"/><path d="M37.477,117.2c5.2-.2,10.406-.162,15.605-.161H59.4c-.122-2.5-.039-5.017-.021-7.516q.01-1.6.023-3.21a192.552,192.552,0,0,1-21.879,3.571c.015,2.434.094,4.889-.042,7.316" transform="translate(-5.403 -15.327)" fill="#e8e8e8"/><path d="M87.714,96.852c1.165.016,2.329.04,3.492.085a.844.844,0,0,1,.738.442.8.8,0,0,1,1.094.726c.117,2.7.113,5.4.132,8.1.017,2.5.1,5.025-.022,7.526l8.958.01c1.738,0,3.481-.009,5.223-.016-.1-2.5.037-5.039.042-7.523q.009-4.39.069-8.779a.828.828,0,0,1,.276-.632.868.868,0,0,1,.788-.927c2.334-.212,4.672-.3,7.011-.338q-.013-6.109-.027-12.217a145.069,145.069,0,0,1-27.773,13.54" transform="translate(-12.645 -12.011)" fill="#e8e8e8"/><path d="M108.211,73.853c-.013-5.986.03-11.976-.041-17.962-7.43,3.169-14.868,6.4-22.448,9.192a.976.976,0,0,1-1.713-.591q-.073-4.523-.147-9.044Q78.54,57.7,73.2,59.921c-3.895,1.611-7.794,3.412-11.8,4.736a.978.978,0,0,1-1.695-.618q-.073-4.521-.147-9.044-5.322,2.258-10.66,4.474c-3.817,1.578-7.638,3.339-11.561,4.656.3,2.976.124,6.064.133,9.046q.026,9.55.03,19.1,0,4.742-.006,9.484c0,.243,0,.488.005.732a192.188,192.188,0,0,0,21.878-3.571c.014-1.632.038-3.263.108-4.894a.757.757,0,0,1,.611-.744.691.691,0,0,1,.43-.293,27.725,27.725,0,0,1,5.8-.205c1.933-.009,3.868-.027,5.8-.027,2.773,0,5.55-.021,8.326.016a145.087,145.087,0,0,0,27.772-13.54q-.005-2.688-.012-5.376" transform="translate(-5.383 -7.928)" fill="#fff"/><path d="M55.073,82.9l-.01-.042a.878.878,0,0,0-.866-.864c-1.234-.074-2.47-.045-3.7-.039a35.416,35.416,0,0,0-3.7.105.972.972,0,0,0-.235.067.762.762,0,0,0-.924.558,29.322,29.322,0,0,0-.181,4.572c-.005,1.513,0,3.019.082,4.531l.01.042a.878.878,0,0,0,.867.864c1.233.074,2.469.045,3.7.039a35.436,35.436,0,0,0,3.7-.105.972.972,0,0,0,.234-.067A.761.761,0,0,0,54.974,92a29.3,29.3,0,0,0,.181-4.57c.006-1.514,0-3.02-.082-4.533" transform="translate(-6.551 -11.813)" fill="#2a5647"/><path d="M82.75,82.9l-.01-.042a.878.878,0,0,0-.866-.864c-1.234-.074-2.47-.045-3.7-.039a35.423,35.423,0,0,0-3.7.105.972.972,0,0,0-.235.067.762.762,0,0,0-.924.558,29.323,29.323,0,0,0-.181,4.572c-.005,1.513,0,3.019.083,4.531l.009.041a.879.879,0,0,0,.867.864c1.233.074,2.469.045,3.7.039a35.436,35.436,0,0,0,3.7-.105.972.972,0,0,0,.235-.067A.761.761,0,0,0,82.651,92a29.2,29.2,0,0,0,.181-4.57c.006-1.514,0-3.02-.082-4.533" transform="translate(-10.541 -11.813)" fill="#2a5647"/><path d="M110.509,87.433c.006-1.514,0-3.02-.082-4.533l-.01-.042a.878.878,0,0,0-.866-.864c-1.234-.074-2.469-.045-3.7-.039a35.184,35.184,0,0,0-3.7.1,1.013,1.013,0,0,0-.234.068.761.761,0,0,0-.924.558,29.315,29.315,0,0,0-.181,4.571c-.005,1.514,0,3.019.082,4.532l.01.04a.877.877,0,0,0,.867.864c1.233.074,2.469.045,3.7.039a35.2,35.2,0,0,0,3.7-.1,1.07,1.07,0,0,0,.234-.067.762.762,0,0,0,.923-.559,29.185,29.185,0,0,0,.181-4.569" transform="translate(-14.531 -11.813)" fill="#2a5647"/><path d="M18.841,80.731c-.959.009-1.919-.005-2.877-.029.045,3.992.178,7.968.32,11.947,1.037.016,2.075.026,3.106.049,1.483.033,2.967.08,4.45.11.309.006.612.007.911,0,.292-4.129.481-8.238.37-12.321-2.091.155-4.191.229-6.279.248" transform="translate(-2.301 -11.603)" fill="#8cc43d"/><path d="M12.888,80.6a27.386,27.386,0,0,1-4.238-.361c0,.122.009.249.01.37.071,3.923.123,7.847.182,11.77a.886.886,0,0,1,.645-.136,43.378,43.378,0,0,0,5.742.372c-.143-3.979-.275-7.955-.32-11.947-.674-.017-1.348-.038-2.021-.068" transform="translate(-1.247 -11.567)" fill="#a2e247"/><path d="M26.6,80.437c.111,4.082-.078,8.193-.37,12.321a6.752,6.752,0,0,0,2.623-.546,1.076,1.076,0,0,1,.472-.1q.005-.348.011-.7.086-5.627.179-11.254c-.968.114-1.941.2-2.915.27" transform="translate(-3.782 -11.557)" fill="#a2e247"/><path d="M15.638,61.655c.992.007,1.984.014,2.976.011l1.9-.005.993,0c.1,0,.2-.005.3-.009l.085.722c0,.015,0,.032.006.048a20.74,20.74,0,0,0-3.088-.186,21.576,21.576,0,0,0-3.214.188c.013-.256.028-.511.034-.767" transform="translate(-2.25 -8.888)" fill="#b5d6f0"/><path d="M23.222,64.788a.909.909,0,0,1-.825-.223,17.757,17.757,0,0,0-3.529-.357,20.035,20.035,0,0,0-2.6.2c-.255,4.041-.332,8.047-.317,12.037,1.025.015,2.051.02,3.075.008,2.012-.023,4.012-.138,6.011-.285a57.73,57.73,0,0,0-1.647-11.31c-.057-.02-.112-.047-.17-.066" transform="translate(-2.3 -9.256)" fill="#8cc43d"/><path d="M15.2,64.437c-2.272.34-4.348,1.231-5.5,3.5-1.264,2.484-1.216,5.515-1.117,8.348,1.539-.1,3.129.113,4.668.16.545.016,1.09.023,1.636.031-.016-3.99.062-8,.316-12.038" transform="translate(-1.231 -9.289)" fill="#a2e247"/><path d="M27.586,66.994a6.065,6.065,0,0,0-2.94-2.03,57.776,57.776,0,0,1,1.647,11.309q1.514-.11,3.029-.239c.069-3.03.168-6.557-1.736-9.04" transform="translate(-3.553 -9.365)" fill="#a2e247"/><path d="M13.861,96.717a16.3,16.3,0,0,1-4.77-.634.945.945,0,0,1-.191-.106c.028,1.9.052,3.791.087,5.687a13.351,13.351,0,0,0,.672,4.877,4.4,4.4,0,0,0,3.75,2.547c.753.121,1.517.248,2.282.347-.06-4.241-.205-8.457-.358-12.668l-1.472-.05" transform="translate(-1.283 -13.836)" fill="#a2e247"/><path d="M19.8,97.019,16.417,96.9c.152,4.211.3,8.427.358,12.668a18.783,18.783,0,0,0,2.16.171,24.541,24.541,0,0,0,4.825-.588c.241-4.01.6-8.011.911-12-.062,0-.126,0-.187,0-1.56,0-3.123-.087-4.682-.141" transform="translate(-2.367 -13.97)" fill="#8cc43d"/><path d="M25.908,97.1c-.306,3.986-.669,7.988-.911,12,.123-.027.252-.05.372-.079a4.3,4.3,0,0,0,3.358-3.635,27.228,27.228,0,0,0,.335-5.327l.054-3.524a7.622,7.622,0,0,1-3.209.567" transform="translate(-3.604 -13.917)" fill="#a2e247"/><path d="M112.99,115.255c-.01-.857-.028-1.714-.049-2.568,2.07.129,4.154.147,6.238.138,0,.778.005,1.556.009,2.335-2.07-.023-4.141-.014-6.2.1" transform="translate(-16.282 -16.245)" fill="#d19364"/><path d="M112.821,99.847c2.1-.122,4.21-.17,6.317-.178q.005,2.089.009,4.176-3.146.022-6.294.073c-.012-1.357-.015-2.713-.033-4.07" transform="translate(-16.265 -14.369)" fill="#d19364"/><path d="M112.906,110.139c0-.19-.009-.383-.009-.573,0-.981-.017-1.961-.023-2.941q3.143.054,6.285.073,0,1.452.007,2.9v.4c-2.091-.009-4.182.008-6.26.139" transform="translate(-16.272 -15.372)" fill="#d19364"/><path d="M122.439,106.721q2.958.014,5.915.015c0,.84-.018,1.679-.02,2.519,0,.255-.009.513-.011.769q-1.61.01-3.217.014c-.884,0-1.772-.008-2.66-.015,0-1.1-.007-2.2-.007-3.3" transform="translate(-17.651 -15.385)" fill="#d19364"/><path d="M131.549,109.258c0-.839-.015-1.677-.02-2.517q2.858,0,5.715,0-.006,1.4-.011,2.808l0,.555c-1.888-.074-3.779-.09-5.671-.086,0-.254-.01-.51-.011-.763" transform="translate(-18.962 -15.388)" fill="#d19364"/><path d="M136.972,99.771a1.331,1.331,0,0,0,.093.242,5.434,5.434,0,0,1,.165,2.234q.005.788.009,1.576-2.865,0-5.732,0c-.01-1.37-.015-2.741-.033-4.112.739,0,1.477.009,2.216.007,1.058,0,2.183.074,3.282.052" transform="translate(-18.954 -14.375)" fill="#d19364"/><path d="M126.79,99.7l1.015,0a.683.683,0,0,0,.248.16.87.87,0,0,0,.346.122c-.016,1.279-.021,2.559-.031,3.838q-2.964,0-5.928.016,0-2.082,0-4.163c1.451.005,2.9.016,4.352.023" transform="translate(-17.651 -14.369)" fill="#d19364"/><path d="M108.03,34.81c-.377-.017-.752-.036-1.128-.05-.671-.026-1.339-.073-2.007-.132-.05,1.857-.1,3.713-.144,5.56-.037,1.682-.084,3.363-.128,5.043.879-.085,1.783-.052,2.658-.058.443,0,.886,0,1.329,0q-.334-5.189-.581-10.362" transform="translate(-15.083 -4.992)" fill="#fff"/><path d="M109.415,45.2c.278,0,.571-.016.861-.013-.054-2.081-.108-4.161-.149-6.242-.027-1.351-.062-2.706-.1-4.064-.474,0-.95-.022-1.425-.043q.246,5.168.581,10.362h.23" transform="translate(-15.657 -5.023)" fill="#e8e8e8"/><path d="M109.922,31.027c-.074-3.065-.111-6.132,0-9.183-.242-.017-.483-.039-.721-.05-.338-.014-.676-.023-1.013-.033q.068,4.578.262,9.213c.492.011.985.024,1.476.052" transform="translate(-15.596 -3.137)" fill="#e4f7c9"/><path d="M107.722,21.758c-.16,0-.319-.012-.479-.015-.756-.017-1.511,0-2.266,0,.11,3.057.085,6.13.015,9.2.654-.013,1.308-.015,1.962,0,.343.009.687.016,1.031.023q-.2-4.636-.263-9.213" transform="translate(-15.134 -3.133)" fill="#a2e247"/><path d="M108.684,49.214c-.486,0-.972,0-1.459,0-.891-.006-1.811.027-2.7-.063q-.13,4.754-.294,9.507,2.476-1.028,4.954-2.053-.253-3.69-.5-7.391" transform="translate(-15.026 -7.086)" fill="#a2e247"/><path d="M110.662,56.314q-.117-3.539-.217-7.078c-.325.008-.656-.011-.967-.011h-.043q.244,3.7.5,7.391l.73-.3" transform="translate(-15.776 -7.096)" fill="#e4f7c9"/><path d="M82.574,113.731l-5.856,0c-3.8,0-7.634-.129-11.428.091q-.012-1.2-.028-2.4c3.8.223,7.648.092,11.456.092l5.639,0c1.872,0,3.826.15,5.691-.039q-.015,1.149-.027,2.3c-1.787-.177-3.655-.037-5.448-.038" transform="translate(-9.408 -16.062)" fill="#a2e247"/><path d="M88.062,108.959a54.692,54.692,0,0,0-5.494-.041l-5.856,0c-3.814,0-7.665-.131-11.474.092q-.006-1.2-.017-2.4c3.814.225,7.672.093,11.491.093l5.639,0a56.534,56.534,0,0,0,5.726-.042q-.009,1.153-.016,2.306" transform="translate(-9.402 -15.368)" fill="#a2e247"/><path d="M88.088,104.076a53.763,53.763,0,0,0-5.535-.044l-5.856,0c-3.822,0-7.679-.133-11.495.093-.008,0-.013,0-.02.005-.015-.942-.037-1.884-.072-2.825a35.918,35.918,0,0,0,5.219.1c1.933.009,3.867.027,5.8.027,3.937,0,7.883.05,11.817-.1a.946.946,0,0,0,.211-.049q-.053,1.4-.071,2.8" transform="translate(-9.387 -14.601)" fill="#a2e247"/><path d="M65.22,118.471q.054-1.117.062-2.239c3.795.221,7.63.092,11.43.092l5.639,0c1.863,0,3.808.148,5.666-.038q.01,1.1.062,2.2l-3.289,0q-9.785-.01-19.57,0" transform="translate(-9.402 -16.756)" fill="#a2e247"/><path d="M119.212,118.8c-2.084-.076-4.171-.1-6.26-.1.011-.282.033-.561.039-.844,2.063.11,4.139.119,6.214.1,0,.282,0,.565.007.847" transform="translate(-16.283 -16.991)" fill="#9b9b9b"/><path d="M122.475,115.2c-.009-.788-.017-1.577-.021-2.366.886-.007,1.772-.015,2.654-.014,1.061,0,2.123.007,3.185.013q-.026,1.186-.04,2.376c-.985.007-1.971.013-2.955.013-.939,0-1.88-.01-2.823-.022" transform="translate(-17.653 -16.264)" fill="#d19364"/><path d="M131.641,115.187q-.013-1.18-.04-2.358c1.879,0,3.757-.012,5.633-.086q0,.877-.008,1.753c0,.249,0,.5-.008.748-1.858-.053-3.718-.065-5.577-.057" transform="translate(-18.972 -16.254)" fill="#d19364"/><path d="M135.807,54.858c-3.215,11.952-6.372,24.076-5.33,36.518,1.066,0,2.13-.011,3.2-.009.728,0,1.491-.039,2.253-.054,2.623-11.587.455-24.119-.118-36.455" transform="translate(-18.781 -7.908)" fill="#85e5aa"/><path d="M141.675,75.059a191.105,191.105,0,0,0-4.581-21.739l-.354,1.316c.574,12.337,2.742,24.868.119,36.455a13.13,13.13,0,0,1,2.516.136.778.778,0,0,1,.617.7,1.335,1.335,0,0,1,.08,1.4,5.96,5.96,0,0,0-.166,2.4c0,.68-.011,1.36-.011,2.04,0,.07,0,.141,0,.212,2.5-2.378,2.4-7.019,2.495-10.166a78.132,78.132,0,0,0-.715-12.757" transform="translate(-19.713 -7.687)" fill="#6bb788"/><path d="M153.637,60.184c-.275,1.048-.55,2.1-.814,3.149A126.863,126.863,0,0,0,149.11,84.1a38.739,38.739,0,0,0,.263,9.847,12.178,12.178,0,0,0,1.3,3.792c5.69-9,3.179-24.474,2.965-37.551" transform="translate(-21.469 -8.676)" fill="#85e5aa"/><path d="M155.493,53.316q-.791,2.936-1.562,5.878c.213,13.076,2.725,28.555-2.965,37.552a4.7,4.7,0,0,0,2.99,2.466.87.87,0,0,1,1.058-.4c3.837,1.466,5.227-4.16,5.5-6.794,1.366-13.085-1.808-26.075-5.023-38.705" transform="translate(-21.764 -7.686)" fill="#6bb788"/><path d="M106.11,13.845c-.056-2.77,2.524-4.033,4.917-4.33a.97.97,0,0,0,.92-1.208c-.614-2.277,1.307-4.391,3.149-5.427a7.785,7.785,0,0,1,6.226-.495c.985.275,1.7-1.246.717-1.7a8.971,8.971,0,0,0-8.228.741c-2.169,1.345-4.026,3.742-3.869,6.352a7.8,7.8,0,0,0-3.7,1.611,5.661,5.661,0,0,0-1.986,4.456.927.927,0,0,0,1.854,0" transform="translate(-15.029 0)" fill="#003023"/><path d="M117.885,12.789a2.045,2.045,0,0,0-1.593,1.628c-.178.648-.172,1.315-.73,1.779a1.353,1.353,0,0,1-1.578.171.871.871,0,0,0-.877,1.5,3.193,3.193,0,0,0,4.531-1.424,6.2,6.2,0,0,0,.382-1.349c.145-.634.282-.511.87-.376a8.083,8.083,0,0,0,3.422.073,8.413,8.413,0,0,0,5.27-3.672c.71-1.06,2.818-5.013.662-5.6a.908.908,0,0,0-.993.4L127.189,6a.678.678,0,0,0,.1.984c-.018.1-.037.2-.06.294-.05.225-.11.449-.177.67a7.828,7.828,0,0,1-.45,1.164,7.969,7.969,0,0,1-1.442,2.088,6.208,6.208,0,0,1-4.745,1.9,11.441,11.441,0,0,0-2.534-.318" transform="translate(-16.248 -0.791)" fill="#003023"/><path d="M55.062,82.9c0-.015-.009-.026-.01-.041a.862.862,0,0,0-.852-.849c-1.234-.074-2.469-.045-3.7-.039a35.9,35.9,0,0,0-3.7.1.947.947,0,0,0-.233.066.751.751,0,0,0-.913.549,29.706,29.706,0,0,0-.177,4.568c-.006,1.513,0,3.019.08,4.531,0,.015.009.026.01.041a.864.864,0,0,0,.852.85c1.234.073,2.469.045,3.7.039a35.9,35.9,0,0,0,3.7-.1.986.986,0,0,0,.233-.067A.75.75,0,0,0,54.965,92a29.7,29.7,0,0,0,.177-4.568c.006-1.513,0-3.019-.08-4.531m-4.948,7.958c-.938,0-1.876-.009-2.813.015.041-1.205.056-2.409.051-3.617,0-1.161.033-2.332-.056-3.491,1.063.078,2.132.059,3.2.063.938,0,1.876.009,2.813-.015-.041,1.205-.056,2.409-.051,3.617,0,1.161-.033,2.332.056,3.492-1.063-.079-2.132-.059-3.2-.064" transform="translate(-6.554 -11.816)" fill="#003023"/><path d="M82.739,82.9c0-.015-.009-.026-.01-.04a.862.862,0,0,0-.852-.85c-1.234-.074-2.469-.045-3.7-.039a35.9,35.9,0,0,0-3.7.1.947.947,0,0,0-.233.066.751.751,0,0,0-.913.549,29.708,29.708,0,0,0-.177,4.568c-.006,1.513,0,3.019.08,4.531,0,.015.009.026.01.041a.864.864,0,0,0,.852.85c1.234.073,2.469.045,3.7.039a35.9,35.9,0,0,0,3.7-.1.986.986,0,0,0,.233-.067A.75.75,0,0,0,82.642,92a29.7,29.7,0,0,0,.177-4.568c.006-1.513,0-3.019-.08-4.531m-4.948,7.958c-.938,0-1.876-.009-2.813.015q.062-1.808.051-3.617c0-1.161.033-2.332-.056-3.491,1.063.078,2.132.059,3.2.063.938,0,1.876.009,2.813-.015-.041,1.205-.056,2.409-.051,3.617,0,1.161-.033,2.332.056,3.492-1.063-.079-2.131-.059-3.2-.064" transform="translate(-10.544 -11.816)" fill="#003023"/><path d="M110.319,92a29.7,29.7,0,0,0,.177-4.568c.006-1.513,0-3.019-.08-4.531,0-.015-.009-.026-.01-.04a.862.862,0,0,0-.852-.85c-1.234-.074-2.469-.045-3.7-.039a35.9,35.9,0,0,0-3.7.1.965.965,0,0,0-.234.066.75.75,0,0,0-.912.549,29.707,29.707,0,0,0-.177,4.568c-.006,1.513,0,3.019.08,4.531,0,.015.009.026.01.041a.864.864,0,0,0,.852.85c1.234.073,2.469.045,3.7.039a35.9,35.9,0,0,0,3.7-.1.986.986,0,0,0,.233-.067.75.75,0,0,0,.913-.549m-4.851-1.141c-.938,0-1.876-.009-2.813.015.041-1.205.056-2.409.051-3.617,0-1.161.033-2.332-.056-3.491,1.063.078,2.131.059,3.2.063.938,0,1.876.009,2.813-.015q-.062,1.808-.051,3.617c0,1.161-.033,2.332.056,3.492-1.063-.079-2.132-.059-3.2-.064" transform="translate(-14.534 -11.816)" fill="#003023"/><path d="M122.236,56.386c-.927-3.846-1.959-7.665-3-11.482a.974.974,0,0,0-1.895-.426c-1.9,7.187-3.966,14.343-5.337,21.657-1.242,6.619-2,13.47-1.178,20.187l-.686,0c-1.48.007-2.96.011-4.44.023v-.73q-.035-14.177-.077-28.352c-.009-2.628,0-5.257-.044-7.885a.944.944,0,0,0-1.4-.8q-3.284,1.4-6.589,2.76Q97.359,44.05,97.2,36.76c-.114-5.257-.014-10.555-.318-15.806a.746.746,0,0,0,.054-.17.867.867,0,0,0-.626-.959,10.48,10.48,0,0,0-1.663-.128q-.775-.028-1.552-.03a28.016,28.016,0,0,0-3.1.1.854.854,0,0,0-.83.83.638.638,0,0,0,.015.07.731.731,0,0,0-.032.126c-.336,5.725-.229,11.5-.352,17.237s-.286,11.437-.486,17.155q-3.446,1.442-6.866,2.939-.077-4.6-.155-9.2a.958.958,0,0,0-1.421-.815q-6.093,2.6-12.207,5.144c-3.492,1.454-7.084,2.781-10.522,4.377l-.154-9.157a.959.959,0,0,0-1.422-.816q-6.093,2.6-12.207,5.144c-3.942,1.642-8.024,3.1-11.853,4.993a.747.747,0,0,0-.263,1.088c-.273,2.612-.13,5.3-.145,7.922-.018,3.117-.015,6.234-.021,9.35q-.019,9.59-.009,19.179c0,2.356-.079,4.736-.043,7.1a1.049,1.049,0,0,0-.289.1c.128-.066,0-.064-.086-.2a1.651,1.651,0,0,1-.166-.781c-.033-.717.027-1.445.05-2.161.048-1.456.1-2.911.138-4.366a7.6,7.6,0,0,0-.44-3.757,2.436,2.436,0,0,0-1.953-1.391c.029-1.493.023-2.989.045-4.478.071-4.806.152-9.614.207-14.421.042-3.671.343-8.038-1.878-11.207a7.72,7.72,0,0,0-4.082-2.949c-.025-.22-.057-.44-.084-.662a11.65,11.65,0,0,0-.181-1.414c-.318-1.264-1.682-1.062-2.692-1.056-2.069.011-4.137.021-6.2.057a.93.93,0,0,0-.917.916c0,.7,0,1.406.04,2.108A7.444,7.444,0,0,0,9.02,58.921c-2.516,2.828-2.6,6.861-2.571,10.444.037,4.781.13,9.562.2,14.343.035,2.375.056,4.75.105,7.125a14.825,14.825,0,0,0,.852,5.5A5.632,5.632,0,0,0,9.19,98.479c-.071,1.04.026,2.113.05,3.141.031,1.252.075,2.5.121,3.756a1.045,1.045,0,0,0,1.305.994c1.288-.3,1.449-1.774,1.474-2.863l.085-3.656a26.633,26.633,0,0,0,5.273.647,34.274,34.274,0,0,0,4.793-.566,10.028,10.028,0,0,0,1.034-.221,18.948,18.948,0,0,0,.325,2.591,18.247,18.247,0,0,0,.9,3.174.993.993,0,0,0,.924.7.965.965,0,0,0,.924-.7,18.5,18.5,0,0,0,.346-3.786,16.9,16.9,0,0,0-.128-1.837,10.654,10.654,0,0,0-.321-1.8,5.145,5.145,0,0,0,.472-.569,9.805,9.805,0,0,0,1.42-5.106c.015-.23.02-.461.031-.692a.751.751,0,0,1,.365.341,3.558,3.558,0,0,1,.264,1.919c-.053,1.527-.134,3.053-.2,4.579-.055,1.352-.348,2.959.091,4.269a2.234,2.234,0,0,0,2.354,1.631c.008.165.008.332.018.5a.912.912,0,0,0,.923.9.793.793,0,0,0,.771.593c9.254.364,18.546.163,27.805.163s18.537-.007,27.805-.017c2.59,0,5.186.025,7.78.03a.932.932,0,0,0,.822,0c2.411,0,4.821-.022,7.225-.117a5.01,5.01,0,0,0,1.526-1.549c-.006-.385-.008-.771-.013-1.157.941-.012,1.881-.022,2.817-.021.993,0,1.986.006,2.979.012.015.688.04,1.374.092,2.056a.919.919,0,0,0,1.837,0c.052-.678.076-1.361.092-2.045,1.876.008,3.751,0,5.625-.057a14.343,14.343,0,0,0,.129,1.683.873.873,0,0,0,1.671,0,16.048,16.048,0,0,0,.141-2.24.963.963,0,0,0,0-.753c0-.383-.009-.766-.01-1.148q-.009-2.126-.017-4.251c0-.468,0-.936-.006-1.405a1.026,1.026,0,0,0,.246-.113c2.631-1.67,3.527-4.628,3.9-7.57a59.923,59.923,0,0,0,.3-10.4,113.792,113.792,0,0,0-3.315-21.128M8.51,83.676c-.059-3.948-.111-7.9-.183-11.845,0-.113-.005-.229-.009-.342a27.468,27.468,0,0,0,4.253.362c1.631.075,3.265.113,4.9.1a85.363,85.363,0,0,0,9.21-.52q-.1,5.715-.181,11.431-.005.276-.009.554a1.059,1.059,0,0,0-.479.092,7.88,7.88,0,0,1-3.541.551c-1.483-.029-2.967-.077-4.45-.11a70.063,70.063,0,0,1-8.851-.424.86.86,0,0,0-.656.154M14.3,55.587c1,.007,1.993.014,2.99.011l1.9-.005.993,0c.1,0,.211-.006.319-.01l.087.739c0,.021,0,.042.006.062a20.7,20.7,0,0,0-3.1-.187,21.56,21.56,0,0,0-3.229.193c.014-.266.029-.533.035-.8M9.459,61.336c1.636-3.015,4.9-3.507,8.038-3.561a17.765,17.765,0,0,1,3.536.354.889.889,0,0,0,.82.223A6.17,6.17,0,0,1,24.9,60.358c1.989,2.49,1.886,6.085,1.817,9.159-3.017.257-6.023.49-9.055.526-1.57.018-3.141.009-4.71-.039-1.545-.048-3.138-.264-4.683-.162-.1-2.888-.16-6.01,1.195-8.508M26.031,94.47A4.331,4.331,0,0,1,22.4,98.02a26.588,26.588,0,0,1-4.9.6,31.7,31.7,0,0,1-4.294-.495c-1.636-.246-3.1-.816-3.833-2.41a12.738,12.738,0,0,1-.752-5.054c-.035-1.9-.059-3.807-.087-5.71a.877.877,0,0,0,.21.116,16.329,16.329,0,0,0,4.767.632q2.429.086,4.857.168c1.559.054,3.122.137,4.682.141a7.877,7.877,0,0,0,3.411-.579q-.027,1.79-.055,3.579a25.667,25.667,0,0,1-.371,5.46m71.59,7.391c-.01-.867-.028-1.734-.048-2.6,2.081.129,4.175.145,6.269.136,0,.789.005,1.578.009,2.367-2.081-.022-4.161-.014-6.23.1m-.15-13.56c2.113-.123,4.23-.173,6.347-.18q.005,2.1.009,4.2-3.162.022-6.325.072c-.011-1.365-.015-2.731-.032-4.1m.077,9.316c0-.2-.009-.392-.009-.586,0-.985-.017-1.97-.023-2.955q3.157.054,6.315.072,0,1.444.007,2.889c0,.148,0,.3,0,.443-2.1-.009-4.2.007-6.291.137m8.154-3.461q2.973.014,5.945.016c0,.844-.017,1.689-.019,2.533,0,.26-.009.524-.012.786q-1.616.009-3.232.013c-.889,0-1.782-.007-2.675-.015q0-1.666-.007-3.333m7.8,2.55c0-.845-.015-1.689-.02-2.532q2.873,0,5.746,0-.006,1.411-.011,2.823l0,.57c-1.9-.074-3.8-.089-5.7-.085,0-.259-.01-.52-.011-.778m5.465-8.489a1.317,1.317,0,0,0,.093.247,5.544,5.544,0,0,1,.163,2.244q.005.8.009,1.591-2.881,0-5.763,0c-.01-1.38-.014-2.762-.032-4.142.731,0,1.461.008,2.192.007,1.078,0,2.222.075,3.339.051m-8.825-.068.943,0a.67.67,0,0,0,.257.164.885.885,0,0,0,.351.119c-.016,1.289-.021,2.579-.03,3.868q-2.98,0-5.958.015,0-2.1,0-4.193c1.481.005,2.96.016,4.439.023M90.584,38.03c.04-1.853.1-3.713.145-5.576.672.06,1.345.106,2.019.133.854.033,1.713.087,2.568.093.036,1.362.072,2.723.1,4.079.04,2.087.094,4.173.148,6.26-.294-.005-.592.012-.876.012-.519,0-1.04,0-1.559,0-.882.006-1.79-.027-2.673.059.044-1.686.091-3.373.128-5.06M94.53,21.479c.243.01.49.033.735.05-.107,3.061-.069,6.139.005,9.214-.838-.049-1.682-.053-2.521-.077-.659-.018-1.317-.017-1.974,0,.07-3.083.1-6.166-.01-9.233.757,0,1.516-.015,2.274,0,.5.01,1,.027,1.492.049m-4.12,23.4c.9.092,1.823.059,2.719.065.5,0,1,0,1.5,0,.317,0,.652.019.982.009q.1,3.553.218,7.106-2.859,1.18-5.714,2.368.166-4.773.294-9.549M73.774,100.519l-5.535,0c-3.8,0-7.644-.128-11.443.09q-.012-1.217-.028-2.431c3.809.22,7.658.091,11.472.091l5.535,0a57.71,57.71,0,0,0,5.811-.04q-.015,1.166-.027,2.332c-1.895-.193-3.883-.038-5.785-.039m5.83-4.077a56.839,56.839,0,0,0-5.83-.041l-5.535,0c-3.82,0-7.674-.129-11.489.092q-.008-1.218-.017-2.437l.011,0c3.816.223,7.673.092,11.495.092l5.535,0A56.668,56.668,0,0,0,79.62,94.1q-.009,1.168-.016,2.337m.04-4.117a56.178,56.178,0,0,0-5.87-.044l-5.535,0c-3.821,0-7.679-.13-11.495.092-.013,0-.021.008-.033.009q-.021-1.429-.071-2.858a35.057,35.057,0,0,0,5.13.1c1.969.009,3.938.027,5.907.027,3.935,0,7.881.05,11.813-.1a.905.905,0,0,0,.224-.052q-.051,1.413-.07,2.829m-22.912,12.24q.055-1.132.062-2.27c3.8.218,7.64.091,11.445.091l5.535,0c1.9,0,3.891.153,5.786-.039q.009,1.116.062,2.227l-3.184,0q-9.853-.01-19.707,0m24.684.009c.122-2.508.039-5.035.022-7.542-.018-2.7-.015-5.405-.129-8.1a.783.783,0,0,0-1.087-.707.827.827,0,0,0-.732-.445c-3.933-.15-7.878-.1-11.813-.1-1.969,0-3.938.017-5.907.027a27.367,27.367,0,0,0-5.694.2.679.679,0,0,0-.424.292.743.743,0,0,0-.607.732c-.115,2.7-.111,5.4-.129,8.1-.017,2.5-.1,5.028.022,7.533l-6.3,0c-5.213,0-10.436-.04-15.646.159.149-2.686.035-5.409.037-8.1q0-4.674.006-9.349Q33.036,77.686,33,68.1c-.009-2.993.171-6.088-.132-9.074,3.925-1.32,7.749-3.079,11.568-4.659q5.352-2.214,10.683-4.484.074,4.534.148,9.068a.962.962,0,0,0,1.667.607c4.009-1.327,7.909-3.127,11.805-4.74q5.353-2.213,10.683-4.483.073,4.533.148,9.068a.96.96,0,0,0,1.686.581c7.587-2.794,15.035-6.032,22.474-9.2.071,5.969.028,11.941.041,17.909q.021,8.841.04,17.682c-2.344.04-4.688.126-7.026.338a.854.854,0,0,0-.775.918.812.812,0,0,0-.275.627q-.056,4.39-.068,8.78c-.005,2.489-.143,5.037-.041,7.538-1.764.008-3.528.019-5.287.017l-8.926-.01m22.458.087c-2.094-.075-4.194-.1-6.293-.1.012-.292.035-.582.04-.876,2.074.11,4.159.117,6.246.095,0,.293,0,.586.007.879m1.862-2.876c-.008-.8-.017-1.6-.021-2.4.891-.007,1.781-.015,2.669-.014,1.067,0,2.134.006,3.2.012q-.028,1.2-.04,2.407c-.991.007-1.982.013-2.972.013-.943,0-1.891-.01-2.838-.021m7.846,0q-.013-1.2-.04-2.389c1.89,0,3.779-.012,5.665-.085q0,.883-.007,1.767c0,.254-.005.509-.009.763-1.868-.052-3.738-.064-5.609-.056m10.044-18.968c-.093,3.2.038,7.946-2.531,10.35,0-.083,0-.167,0-.25,0-.68.007-1.361.01-2.04a6.075,6.075,0,0,1,.164-2.414,1.327,1.327,0,0,0-.074-1.368.766.766,0,0,0-.609-.705,29.439,29.439,0,0,0-4.807-.08c-1.056,0-2.111,0-3.167.008-1.091-12.922,2.36-25.508,5.7-37.909a192.739,192.739,0,0,1,4.584,21.7,78.434,78.434,0,0,1,.733,12.71" transform="translate(-0.929 -2.835)" fill="#003023"/><path d="M159.122,61.851c-1.01-4.321-2.164-8.605-3.332-12.886a.975.975,0,0,0-1.9-.424c-2.119,8.008-4.384,15.972-5.787,24.146-1.186,6.914-2.429,14.549-.585,21.458.793,2.972,2.847,5.659,5.791,6.076.068,2.782.077,5.569-.007,8.35a.911.911,0,0,0,1.821,0q.108-4.19-.1-8.372l.009,0c2.419.218,4.616-1.606,5.637-3.85,1.5-3.3,1.492-7.334,1.513-10.895a101.49,101.49,0,0,0-3.066-23.6m.779,29.383c-.276,2.645-1.675,8.281-5.523,6.81a.857.857,0,0,0-1.046.4c-2.617-.564-3.851-3.726-4.307-6.247a38.976,38.976,0,0,1-.254-10.052,127.865,127.865,0,0,1,3.7-20.611c.76-3.031,1.574-6.046,2.386-9.062,3.221,12.649,6.408,25.661,5.039,38.766" transform="translate(-21.132 -6.898)" fill="#003023"/></g></svg>