<svg xmlns="http://www.w3.org/2000/svg" width="72.157" height="88.5" viewBox="0 0 72.157 88.5"><g transform="translate(-25.06 -1.75)"><g transform="translate(25.938 2.626)"><path d="M93.808,72.46V7.755a3.506,3.506,0,0,0-3.5-3.5H31.069a3.506,3.506,0,0,0-3.5,3.5V87.493a3.506,3.506,0,0,0,3.5,3.5H90.3a3.506,3.506,0,0,0,3.5-3.5V80.907a3.125,3.125,0,0,1-1.174-.74l-2.681-2.681v4.6H31.419V8.105H89.952V68.6Z" transform="translate(-27.564 -4.25)" fill="#afafaf"/></g><g transform="translate(29.793 6.482)"><path d="M82.355,68.4a1.051,1.051,0,0,0,0,1.486L97.1,84.631v4.6H38.564V15.25H97.1v60.5l-10.3-10.3a1.051,1.051,0,0,0-1.486,0Z" transform="translate(-38.564 -15.25)" fill="#72c1e8"/></g><g transform="translate(29.793 6.482)"><path d="M38.564,15.25H97.1v8.938H38.564Z" transform="translate(-38.564 -15.25)" fill="#f0c020"/></g><g transform="translate(32.832 70.37)"><path d="M98.112,203.99H53.75a.876.876,0,0,1,0-1.752H97.236v-3.831a.876.876,0,0,1,1.752,0v4.707A.876.876,0,0,1,98.112,203.99Zm-47.867,0H48.11a.876.876,0,1,1,0-1.752h2.135a.876.876,0,1,1,0,1.752Z" transform="translate(-47.234 -197.53)" fill="#c5e5ff"/></g><g transform="translate(82.833 19.538)"><path d="M190.77,96.2a.876.876,0,0,1-.876-.876V53.376a.876.876,0,1,1,1.752,0V95.327A.876.876,0,0,1,190.77,96.2Z" transform="translate(-189.894 -52.5)" fill="#c5e5ff"/></g><g transform="translate(39.374 22.469)"><path d="M84.5,60.863a18.605,18.605,0,1,0,18.58,17.632A18.607,18.607,0,0,0,84.5,60.863Z" transform="translate(-65.898 -60.863)" fill="#fc5d3d"/></g><g transform="translate(73.276 56.372)"><path d="M184.721,175.246l-3.189-3.19-3.855-3.855-10.3-10.3a1.051,1.051,0,0,0-1.486,0l-2.955,2.955a1.051,1.051,0,0,0,0,1.486l14.742,14.742,2.681,2.681a3.141,3.141,0,0,0,4.5-.067A3.207,3.207,0,0,0,184.721,175.246Z" transform="translate(-162.626 -157.592)" fill="#fc5d3d"/></g><g transform="translate(43.828 26.923)"><path d="M92.757,73.571A14.151,14.151,0,1,0,106.879,86.8,14.153,14.153,0,0,0,92.757,73.571Z" transform="translate(-78.606 -73.571)" fill="#fff"/></g><g transform="translate(53.649 31.805)"><circle cx="2.278" cy="2.278" r="2.278" fill="#13bf6d"/></g><g transform="translate(59.059 45.474)"><circle cx="2.278" cy="2.278" r="2.278" fill="#13bf6d"/></g><g transform="translate(25.06 1.75)"><path d="M118.048,238.294a.876.876,0,1,0,0-1.752H112.44a.876.876,0,1,0,0,1.752Z" transform="translate(-81.245 -154.249)"/><path d="M179.776,26.922h2.92a.876.876,0,0,0,0-1.752h-2.92a.876.876,0,0,0,0,1.752Z" transform="translate(-124.98 -16.961)"/><path d="M48.106,27.252h5.668a.876.876,0,1,0,0-1.752H48.106a.876.876,0,0,0,0,1.752Z" transform="translate(-39.46 -17.176)"/><path d="M69.717,88.881a.888.888,0,0,0-1.164.417.875.875,0,1,0,1.164-.417Z" transform="translate(-53.254 -58.289)"/><path d="M91.136,101.125A15.027,15.027,0,1,0,76.11,86.1,15.026,15.026,0,0,0,91.136,101.125Zm0-1.752a13.276,13.276,0,0,1-12.869-10H83.1a.877.877,0,0,0,.74-.407l4.352-6.835a3.044,3.044,0,0,0,1.15.117l3.213,8.044a3.156,3.156,0,1,0,4.626.846l4.88-5.312h2.341A13.266,13.266,0,0,1,91.136,99.372Zm-2.05-18.864a1.4,1.4,0,1,1,1.4-1.4A1.406,1.406,0,0,1,89.085,80.509ZM95.9,92.776a1.4,1.4,0,1,1-1.4-1.4A1.4,1.4,0,0,1,95.9,92.776Zm-4.76-19.954a13.275,13.275,0,0,1,13.121,11.251h-2.578a.868.868,0,0,0-.645.284l-5.14,5.6a3.115,3.115,0,0,0-1.708-.316l-3.2-8.016a3.155,3.155,0,1,0-4.26-.434l-4.1,6.433H77.949A13.272,13.272,0,0,1,91.136,72.822Z" transform="translate(-58.217 -46.774)"/><circle cx="0.876" cy="0.876" r="0.876" transform="translate(0 64.828)"/><circle cx="0.876" cy="0.876" r="0.876" transform="translate(62.388 36.027)"/><path d="M95.99,73.405l-2.934-2.934V6.131A4.387,4.387,0,0,0,88.675,1.75H29.441A4.39,4.39,0,0,0,25.06,6.131V63.949a.876.876,0,0,0,1.752,0V6.131A2.641,2.641,0,0,1,29.441,3.5H88.675A2.636,2.636,0,0,1,91.3,6.131V68.719l-2.1-2.1V42.159a.876.876,0,1,0-1.752,0V64.864l-8.8-8.8a1.925,1.925,0,0,0-2.723,0l-.859.859-2.7-2.7A19.337,19.337,0,0,0,77.452,40.8h2.4a.876.876,0,1,0,0-1.752h-2.5a19.482,19.482,0,0,0-35.127-9.442.875.875,0,0,0,.193,1.223.9.9,0,0,0,1.223-.189,17.724,17.724,0,1,1-2.836,6,.878.878,0,0,0-.631-1.069.891.891,0,0,0-1.066.631,19.423,19.423,0,0,0-.549,6.393H36.013a.876.876,0,0,0,0,1.752h2.764a19.477,19.477,0,0,0,32.343,11.1l2.7,2.7-.857.857a1.928,1.928,0,0,0,0,2.727L87.448,76.223v3.365H30.668V16.3h56.78V35.149a.876.876,0,0,0,1.752,0c0-11.732,0-26.3,0-28.667a.878.878,0,0,0-.876-.876H29.792a.882.882,0,0,0-.876.876V80.464a.881.881,0,0,0,.876.876H88.324a.873.873,0,0,0,.876-.876V77.976l1.188,1.188a4.024,4.024,0,0,0,.915.677v6.028A2.636,2.636,0,0,1,88.675,88.5H29.441a2.641,2.641,0,0,1-2.629-2.629V70.959a.876.876,0,0,0-1.752,0v14.91a4.39,4.39,0,0,0,4.381,4.381H88.675a4.387,4.387,0,0,0,4.381-4.381V80.331a4.013,4.013,0,0,0,3.091-1.251,4.09,4.09,0,0,0-.158-5.675ZM87.448,14.543H45.986L43.78,7.358H87.448v7.185Zm-45.5-7.185,2.206,7.185H30.669V7.358ZM94.875,77.874a2.265,2.265,0,0,1-3.249.049L74.2,60.5a.176.176,0,0,1,0-.245L77.158,57.3a.175.175,0,0,1,.249,0L94.752,74.646a2.331,2.331,0,0,1,.123,3.228Z" transform="translate(-25.06 -1.75)"/></g></g></svg>