<svg xmlns="http://www.w3.org/2000/svg" width="85" height="85" viewBox="0 0 85 85"><g transform="translate(-334.051 -1494)"><rect width="85" height="85" transform="translate(334.051 1494)" fill="none"/><g transform="translate(340.75 1503.002)"><g transform="translate(4.331 1.03)"><g transform="translate(0)"><path d="M65.972,8h35.253a1.111,1.111,0,0,1,.813.337l6.457,6.457a1.111,1.111,0,0,1,.337.813V63.891a1.152,1.152,0,0,1-1.15,1.15H65.972a1.152,1.152,0,0,1-1.15-1.15V9.15A1.152,1.152,0,0,1,65.972,8Z" transform="translate(-57.922 -8)" fill="#d1d1d6" fill-rule="evenodd"/><path d="M350.9,8.773a1.152,1.152,0,0,1,.337.237l6.457,6.457a1.15,1.15,0,0,1,.237.337h-6.456a.576.576,0,0,1-.575-.575Z" transform="translate(-307.121 -8.673)" fill="#a79ba7" fill-rule="evenodd"/><path d="M12.445,61.527H47.7a1.111,1.111,0,0,1,.813.337l6.457,6.457a1.111,1.111,0,0,1,.337.813v48.284a1.152,1.152,0,0,1-1.15,1.15H12.445a1.152,1.152,0,0,1-1.15-1.15V62.677a1.152,1.152,0,0,1,1.15-1.15Z" transform="translate(-11.295 -54.627)" fill="#eceff1" fill-rule="evenodd"/><path d="M12.445,61.527h2.693v57.041H12.445a1.152,1.152,0,0,1-1.15-1.15V62.677a1.152,1.152,0,0,1,1.15-1.15Z" transform="translate(-11.295 -54.627)" fill="#d1d1d6" fill-rule="evenodd"/><path d="M297.374,62.3a1.155,1.155,0,0,1,.337.237l6.457,6.457a1.153,1.153,0,0,1,.237.337h-6.456a.576.576,0,0,1-.575-.575V62.3Z" transform="translate(-260.495 -55.3)" fill="#a79ba7" fill-rule="evenodd"/><path d="M74.453,130.717h6.422a1.688,1.688,0,0,1,1.683,1.683v6.422a1.688,1.688,0,0,1-1.683,1.683H74.453a1.688,1.688,0,0,1-1.683-1.683V132.4A1.688,1.688,0,0,1,74.453,130.717Z" transform="translate(-64.845 -114.897)" fill="#8ac9fe" fill-rule="evenodd"/><path d="M81.49,131.014a1.69,1.69,0,0,1,1.327,1.645v6.422a1.688,1.688,0,0,1-1.683,1.683H74.712a1.69,1.69,0,0,1-1.645-1.327,1.671,1.671,0,0,0,.356.038h6.422a1.688,1.688,0,0,0,1.683-1.683V131.37A1.679,1.679,0,0,0,81.49,131.014Z" transform="translate(-65.104 -115.156)" fill="#60b7ff" fill-rule="evenodd"/></g><path d="M304.106,181.085V165.446a3.126,3.126,0,0,0-3.12-3.12H278.131a3.126,3.126,0,0,0-3.12,3.12v15.639a3.126,3.126,0,0,0,3.12,3.12h2.64v4.755a.645.645,0,0,0,1.109.447l5-5.2h14.108A3.126,3.126,0,0,0,304.106,181.085Z" transform="translate(-241.015 -142.431)" fill="#6cf5c2" fill-rule="evenodd"/><path d="M306.583,183.562V167.924a3.126,3.126,0,0,0-1.656-2.754,3.1,3.1,0,0,1,.367,1.465v15.639a3.126,3.126,0,0,1-3.12,3.12H288.066l-4.817,5.014v1.03a.645.645,0,0,0,1.109.447l5-5.2h14.108a3.126,3.126,0,0,0,3.12-3.12Zm-28.728,1.465a3.1,3.1,0,0,0,1.465.367h3.93v1.289h-2.64A3.126,3.126,0,0,1,277.855,185.027Z" transform="translate(-243.492 -144.909)" fill="#00e499" fill-rule="evenodd"/></g><path d="M14.343,24.37h5.433V18.937H14.343ZM12.28,25.4v-7.5a1.031,1.031,0,0,1,1.031-1.031h7.5a1.031,1.031,0,0,1,1.031,1.031v7.5a1.031,1.031,0,0,1-1.031,1.031h-7.5A1.031,1.031,0,0,1,12.28,25.4Zm48.474-.189H45a1.031,1.031,0,0,0,0,2.063H60.754a1.031,1.031,0,0,0,0-2.063Zm0,5.62H45A1.031,1.031,0,0,0,45,32.9H60.754a1.031,1.031,0,0,0,0-2.063Zm0,5.62H45a1.031,1.031,0,0,0,0,2.063H60.754a1.031,1.031,0,0,0,0-2.063ZM66.39,24.045V39.684A2.09,2.09,0,0,1,64.3,41.772H50.194a1.034,1.034,0,0,0-.744.317L45.119,46.6V42.8a1.031,1.031,0,0,0-1.031-1.031h-2.64a2.092,2.092,0,0,1-2.09-2.089V24.045a2.092,2.092,0,0,1,2.09-2.089H64.3A2.09,2.09,0,0,1,66.39,24.045ZM54.209,43.835H50.633l-1.261,1.313V57.039h4.837v-13.2Zm-6.9,20.1H5.363V8.961H40.179v6.1a1.032,1.032,0,0,0,1.031,1.031h6.1v3.8H41.448A4.157,4.157,0,0,0,37.3,24.045v.506H27.183a1.031,1.031,0,1,0,0,2.063H37.3v5.614H13.312a1.032,1.032,0,0,0,0,2.063H37.3v5.394c0,.074,0,.147.007.22H13.312a1.031,1.031,0,0,0,0,2.063h24.67a4.154,4.154,0,0,0,3.467,1.869h1.608V49.16a1.031,1.031,0,0,0,1.775.714L47.31,47.3Zm-5.069-49.91h3.61l-3.61-3.609ZM12.262,6.9V2.061H47.079v6.1a1.031,1.031,0,0,0,1.031,1.031h6.1v10.7H49.372V15.06a1.03,1.03,0,0,0-.3-.728L41.939,7.2a1.03,1.03,0,0,0-.73-.3H12.262Zm36.879.23h3.61L49.141,3.52ZM68.453,24.045V39.684A4.155,4.155,0,0,1,64.3,43.835h-8.03V58.07A1.031,1.031,0,0,1,55.241,59.1H49.372v5.869A1.032,1.032,0,0,1,48.341,66H4.331A1.031,1.031,0,0,1,3.3,64.971V7.93A1.031,1.031,0,0,1,4.331,6.9H10.2V1.029A1.031,1.031,0,0,1,11.231,0h36.88a1.032,1.032,0,0,1,.729.3L55.97,7.431a1.03,1.03,0,0,1,.3.729V19.893H64.3A4.155,4.155,0,0,1,68.453,24.045Zm-41.27-5.108H36.2a1.031,1.031,0,1,0,0-2.062H27.183a1.031,1.031,0,1,0,0,2.062ZM39.36,55.256H13.312a1.031,1.031,0,0,0,0,2.063H39.36a1.031,1.031,0,0,0,0-2.063Zm1.031-6.645A1.031,1.031,0,0,0,39.36,47.58H13.312a1.031,1.031,0,1,0,0,2.062H39.36A1.031,1.031,0,0,0,40.391,48.61Z" fill-rule="evenodd"/></g></g></svg>