<svg xmlns="http://www.w3.org/2000/svg" width="85" height="85" viewBox="0 0 85 85"><g transform="translate(-743.051 -1494)"><rect width="85" height="85" transform="translate(743.051 1494)" fill="none"/><g transform="translate(715.614 1493.5)"><g transform="translate(39.437 7.5)"><g transform="translate(38.375 13.685)"><g transform="translate(0 0)"><path d="M326.53,103.3H312.754a5.032,5.032,0,0,0-4.692,3.215,21.8,21.8,0,0,1,12.051,14.395h9.949a1.5,1.5,0,0,0,1.5-1.5V108.329A5.032,5.032,0,0,0,326.53,103.3Z" transform="translate(-308.062 -103.297)" fill="#99e6fc"/><path d="M389.519,103.3H389.3v11.909a1.5,1.5,0,0,1-1.5,1.5H381.55a21.513,21.513,0,0,1,1.552,4.2h9.949a1.5,1.5,0,0,0,1.5-1.5V108.329A5.032,5.032,0,0,0,389.519,103.3Z" transform="translate(-371.052 -103.297)" fill="#62dbfb"/></g></g><g transform="translate(43.112)"><circle cx="6.843" cy="6.843" r="6.843" fill="#ffdfcf"/></g><path d="M360.059,7.812a6.841,6.841,0,0,1-4.973,11.541,6.888,6.888,0,0,1-.772-.045,6.842,6.842,0,1,0,5.745-11.5Z" transform="translate(-309.332 -7.767)" fill="#ffcebf"/><path d="M139.433,137.921l-3.588-3.7a.914.914,0,0,1-.258-.637v-.637a21.889,21.889,0,0,0-25.564-21.531,13.006,13.006,0,0,1-.84,8.9l-.148.308.323-.112a13.17,13.17,0,1,1-7.546,6.7l.15-.308-.324.11a13.013,13.013,0,0,1-8.923-.219,21.841,21.841,0,0,0,6.571,22.571,1.709,1.709,0,0,1,.589,1.284v14.955a1.7,1.7,0,0,0,1.7,1.7h20.038a1.7,1.7,0,0,0,1.7-1.7v-6.45a3.544,3.544,0,0,1,3.546-3.542h4.377a4.356,4.356,0,0,0,4.358-4.353v-8.65a.914.914,0,0,1,.478-.8l3.026-1.643A1.428,1.428,0,0,0,139.433,137.921Z" transform="translate(-84.349 -96.309)" fill="#ffb09e"/><path d="M187.679,161.962l-3.588-3.7a.914.914,0,0,1-.258-.637v-.637a21.8,21.8,0,0,0-9.245-17.835,21.717,21.717,0,0,1,3.995,12.584v18.315a4.356,4.356,0,0,1-4.358,4.353h0a7.923,7.923,0,0,0-7.923,7.923v2.07a1.7,1.7,0,0,1-1.7,1.7H148.121v3.555a1.7,1.7,0,0,0,1.7,1.7h20.038a1.7,1.7,0,0,0,1.7-1.7V183.2a3.544,3.544,0,0,1,3.546-3.542h4.377a4.356,4.356,0,0,0,4.358-4.353v-8.65a.914.914,0,0,1,.478-.8l3.026-1.643A1.428,1.428,0,0,0,187.679,161.962Z" transform="translate(-132.595 -120.35)" fill="#f89580"/><path d="M64.307,63.533a13.108,13.108,0,1,0-7.337,6.513A13.248,13.248,0,0,1,64.307,63.533Z" transform="translate(-39.437 -39.27)" fill="#fe4fb7"/><path d="M87.939,67.131a13.129,13.129,0,0,0-7.816-18.368A13.125,13.125,0,0,1,67.007,70.656a13.133,13.133,0,0,0,13.6,2.989A13.248,13.248,0,0,1,87.939,67.131Z" transform="translate(-63.068 -42.868)" fill="#fe2aa8"/><g transform="translate(5.884 13.796)"><path d="M86.155,105.022l1.709,1.709,1.709-1.709a3.239,3.239,0,0,1,4.58,0h0a3.239,3.239,0,0,1,0,4.58l-5.606,5.606a.965.965,0,0,1-1.365,0L81.575,109.6a3.239,3.239,0,0,1,0-4.58h0A3.239,3.239,0,0,1,86.155,105.022Z" transform="translate(-80.626 -104.073)" fill="#fff"/></g><g transform="translate(11.021 13.799)"><path d="M124.974,105.036h0a3.233,3.233,0,0,0-2.988-.87,3.236,3.236,0,0,1-.163,4.4l-5.239,5.239L118,115.223a.965.965,0,0,0,1.365,0l5.606-5.606A3.239,3.239,0,0,0,124.974,105.036Z" transform="translate(-116.585 -104.09)" fill="#f3f0f3"/></g><circle cx="13.319" cy="13.319" r="13.319" transform="translate(15.999 23.347)" fill="#ffe177"/><path d="M202.111,172.213a13.321,13.321,0,0,1-9.668,24.17,13.319,13.319,0,1,0,9.668-24.17Z" transform="translate(-170.585 -148.683)" fill="#ffd15b"/></g><g transform="translate(39.437 7.5)"><path d="M419.434,110.295v-1.966A5.032,5.032,0,0,0,414.4,103.3h-3.823" transform="translate(-357.559 -89.612)" fill="none" stroke="#000" stroke-linecap="round" stroke-linejoin="round" stroke-miterlimit="10" stroke-width="2"/><path d="M393.465,194.4h9.8a1.5,1.5,0,0,0,1.5-1.5v-3.861" transform="translate(-342.89 -163.104)" fill="none" stroke="#000" stroke-linecap="round" stroke-linejoin="round" stroke-miterlimit="10" stroke-width="2"/><path d="M323.044,103.3h-9.953a5.032,5.032,0,0,0-4.636,3.077" transform="translate(-270.024 -89.612)" fill="none" stroke="#000" stroke-linejoin="round" stroke-miterlimit="10" stroke-width="2"/><line y2="1.259" transform="translate(25.225 32.055)" fill="none" stroke="#000" stroke-linecap="round" stroke-linejoin="round" stroke-miterlimit="10" stroke-width="2"/><line y2="1.259" transform="translate(33.409 32.055)" fill="none" stroke="#000" stroke-linecap="round" stroke-linejoin="round" stroke-miterlimit="10" stroke-width="2"/><path d="M218.033,278.932a3.822,3.822,0,0,0,7.607,0" transform="translate(-192.519 -240.156)" fill="none" stroke="#000" stroke-linecap="round" stroke-linejoin="round" stroke-miterlimit="10" stroke-width="2"/><circle cx="6.843" cy="6.843" r="6.843" transform="translate(43.112)" fill="none" stroke="#000" stroke-linecap="round" stroke-linejoin="round" stroke-miterlimit="10" stroke-width="2"/><path d="M78.843,63.345A13.123,13.123,0,0,0,56.288,50.108" transform="translate(-53.881 -39.268)" fill="none" stroke="#000" stroke-linecap="round" stroke-linejoin="round" stroke-miterlimit="10" stroke-width="2"/><path d="M39.73,117.1a13.13,13.13,0,0,0,17.043,15.19" transform="translate(-39.438 -101.441)" fill="none" stroke="#000" stroke-linecap="round" stroke-linejoin="round" stroke-miterlimit="10" stroke-width="2"/><path d="M86.155,105.022l1.709,1.709,1.709-1.709a3.239,3.239,0,0,1,4.58,0h0a3.239,3.239,0,0,1,0,4.58l-5.606,5.606a.965.965,0,0,1-1.365,0L81.575,109.6a3.239,3.239,0,0,1,0-4.58h0A3.239,3.239,0,0,1,86.155,105.022Z" transform="translate(-74.742 -90.277)" fill="none" stroke="#000" stroke-linejoin="round" stroke-miterlimit="10" stroke-width="2"/><path d="M148.121,159.422v6.19a1.7,1.7,0,0,0,1.7,1.7h20.038a1.7,1.7,0,0,0,1.7-1.7v-6.45a3.544,3.544,0,0,1,3.546-3.542h4.377a4.356,4.356,0,0,0,4.358-4.353v-8.65a.914.914,0,0,1,.478-.8l3.026-1.643a1.428,1.428,0,0,0,.343-2.25l-3.588-3.7a.914.914,0,0,1-.258-.637v-.637A21.888,21.888,0,0,0,158.411,111.4" transform="translate(-132.595 -96.309)" fill="none" stroke="#000" stroke-linecap="round" stroke-linejoin="round" stroke-miterlimit="10" stroke-width="2"/><path d="M92.673,221.93a21.847,21.847,0,0,0,6.613,22.431,1.709,1.709,0,0,1,.589,1.284v3.514" transform="translate(-84.349 -191.297)" fill="none" stroke="#000" stroke-linecap="round" stroke-linejoin="round" stroke-miterlimit="10" stroke-width="2"/><circle cx="13.319" cy="13.319" r="13.319" transform="translate(15.999 23.347)" fill="none" stroke="#000" stroke-linejoin="round" stroke-miterlimit="10" stroke-width="2"/></g></g></g></svg>