<svg xmlns="http://www.w3.org/2000/svg" width="85" height="85" viewBox="0 0 85 85"><g transform="translate(-1161.051 -1494)"><rect width="85" height="85" transform="translate(1161.051 1494)" fill="none"/><g transform="translate(1162.551 1468.5)"><circle cx="14.215" cy="14.215" r="14.215" transform="translate(18.564 38.5)" fill="#bbec6c"/><path d="M183.012,38.5a14.339,14.339,0,0,0-2.012.142,14.216,14.216,0,0,1,0,28.145A14.215,14.215,0,1,0,183.012,38.5Z" transform="translate(-150.233)" fill="#a2e62e"/><path d="M405.269,346.311h3.279V330.528h-3.993Z" transform="translate(-343.809 -252.866)" fill="#ffb09e"/><path d="M203.261,288.177a2.874,2.874,0,0,1-2.638.158l-7.81-3.512a3.648,3.648,0,0,0-4.819,1.815h0a3.612,3.612,0,0,0,1.826,4.787l8.533,3.816,7.379,3.3c6.084,2.719,8.694.02,12.659-2.7l-.494-4.966C213.713,283.241,205.589,286.8,203.261,288.177Z" transform="translate(-156.011 -213.011)" fill="#ffcebf"/><path d="M204.24,288.176a2.874,2.874,0,0,1-2.638.158l-7.81-3.512a3.648,3.648,0,0,0-4.819,1.815h0a3.651,3.651,0,0,0-.17.456,3.637,3.637,0,0,1,1.823.307l7.81,3.512a2.873,2.873,0,0,0,2.638-.158c2.327-1.372,10.451-4.936,14.636,2.7l.457,4.6c1.032-.65,2.06-1.43,3.2-2.212l-.494-4.966C214.691,283.24,206.568,286.8,204.24,288.176Z" transform="translate(-156.99 -213.011)" fill="#ffb09e"/><path d="M27.859,295.188l-14.481-7.531a4.006,4.006,0,1,0-3.723,7.1l14.481,7.531a4.006,4.006,0,1,0,3.723-7.1Z" transform="translate(0 -215.351)" fill="#ffb09e"/><path d="M106.634,312.4c0-6.481-5.021-10.356-11.856-9.829s-16.74,7.235-16.74,7.235L62.257,297.464a4.03,4.03,0,0,0-5.641.674,3.988,3.988,0,0,0,.677,5.616l20.1,15.722a4.033,4.033,0,0,0,3.068.812l15.273-2.244h0l7.509-1.1C105.441,316.619,106.634,314.61,106.634,312.4Z" transform="translate(-41.786 -223.496)" fill="#ffcebf"/><g transform="translate(34.921 79.075)"><path d="M232.427,341.065a9.233,9.233,0,0,1,4.969,8.589c0,2.209-1.193,4.218-3.388,4.541l-7.509,1.1-14.526,2.134.689.539a4.033,4.033,0,0,0,3.068.812L231,356.539l7.509-1.1c2.195-.323,3.388-2.332,3.388-4.541C241.9,345.194,238.015,341.511,232.427,341.065Z" transform="translate(-211.973 -341.065)" fill="#ffb09e"/></g><path d="M434.333,330.528h8.027a1.383,1.383,0,0,1,1.383,1.383v13.018a1.383,1.383,0,0,1-1.383,1.383h-8.027Z" transform="translate(-369.593 -252.866)" fill="#ffe177"/><path d="M474.5,330.528v15.783h2.641a1.383,1.383,0,0,0,1.383-1.383V331.911a1.383,1.383,0,0,0-1.383-1.383H474.5Z" transform="translate(-404.374 -252.866)" fill="#ffd15b"/><g transform="translate(7.5 38.5)"><g transform="translate(0 0)"><path d="M95.173,41.746a14.2,14.2,0,1,1-3.1,3.569" transform="translate(-78.937 -38.5)" fill="none" stroke="#000" stroke-linecap="round" stroke-linejoin="round" stroke-miterlimit="10" stroke-width="2"/><g transform="translate(18.305 6.212)"><path d="M185.387,89.851l-2.517-4.418a1.2,1.2,0,0,0-2.087,0l-1.152,2.022" transform="translate(-174.854 -84.824)" fill="none" stroke="#000" stroke-linecap="round" stroke-linejoin="round" stroke-miterlimit="10" stroke-width="2"/><path d="M200.109,155.38h5.218a1.211,1.211,0,0,0,1.043-1.813l-1-1.753" transform="translate(-192.585 -142.831)" fill="none" stroke="#000" stroke-linecap="round" stroke-linejoin="round" stroke-miterlimit="10" stroke-width="2"/><path d="M147.051,127.052l-2.89,5.073a1.211,1.211,0,0,0,1.043,1.813h2.073" transform="translate(-144 -121.389)" fill="none" stroke="#000" stroke-linecap="round" stroke-linejoin="round" stroke-miterlimit="10" stroke-width="2"/><path d="M207.1,114.58l2.653.27.908-2.334" transform="translate(-198.641 -108.802)" fill="none" stroke="#000" stroke-linecap="round" stroke-linejoin="round" stroke-miterlimit="10" stroke-width="2"/><path d="M152.885,127.34,151.835,125l-2.491.549" transform="translate(-148.627 -119.611)" fill="none" stroke="#000" stroke-linecap="round" stroke-linejoin="round" stroke-miterlimit="10" stroke-width="2"/><path d="M196.126,162.585l-1.622,2.121,1.48,2.2" transform="translate(-187.731 -152.157)" fill="none" stroke="#000" stroke-linecap="round" stroke-linejoin="round" stroke-miterlimit="10" stroke-width="2"/></g><path d="M15.636,288.831l-2.258-1.174a4.006,4.006,0,1,0-3.723,7.1l14.139,7.353" transform="translate(-7.5 -253.851)" fill="none" stroke="#000" stroke-linecap="round" stroke-linejoin="round" stroke-miterlimit="10" stroke-width="2"/><path d="M96.388,317.95l-15.922,2.339a4.032,4.032,0,0,1-3.068-.812L57.3,303.755a3.988,3.988,0,0,1-.677-5.616,4.03,4.03,0,0,1,5.641-.674L78.04,309.808s9.9-6.709,16.74-7.235c6.186-.476,10.886,2.652,11.723,8.055" transform="translate(-49.288 -261.997)" fill="none" stroke="#000" stroke-linecap="round" stroke-linejoin="round" stroke-miterlimit="10" stroke-width="2"/><path d="M198.662,295.379l-8.843-3.955a3.612,3.612,0,0,1-1.826-4.787h0a3.648,3.648,0,0,1,4.819-1.815l7.81,3.512a2.873,2.873,0,0,0,2.638-.158c2.306-1.359,10.3-4.871,14.521,2.5h10.995a1.383,1.383,0,0,1,1.383,1.383v13.018a1.383,1.383,0,0,1-1.383,1.383H217.471l-2.022.3" transform="translate(-163.51 -251.511)" fill="none" stroke="#000" stroke-linecap="round" stroke-linejoin="round" stroke-miterlimit="10" stroke-width="2"/></g><line y2="15.139" transform="translate(57.24 39.642)" fill="none" stroke="#000" stroke-linecap="round" stroke-linejoin="round" stroke-miterlimit="10" stroke-width="2"/></g></g></g></svg>