<svg xmlns="http://www.w3.org/2000/svg" width="96.801" height="93.667" viewBox="0 0 96.801 93.667"><defs><path id="a" fill="#ab5b51" d="M96.033 7.621v17.132H.738V7.621c7.944 0 7.944 4.471 15.888 4.471s7.944-4.471 15.888-4.471 7.944 4.471 15.888 4.471 7.946-4.471 15.887-4.471 7.944 4.471 15.888 4.471c7.912-.015 7.912-4.471 15.856-4.471"/></defs><g transform="translate(-1.51 -2.52)"><g transform="translate(1.51 70.696)"><path fill="#b9dd53" d="M96.033.738v20.1H.738V.738c7.944 0 7.944 4.471 15.888 4.471S24.57.738 32.514.738s7.944 4.471 15.888 4.471S56.348.738 64.289.738s7.944 4.471 15.888 4.471c7.913 0 7.913-4.471 15.857-4.471Z"/><path d="M80.145 5.946a14.67 14.67 0 0 1-8.3-2.336 13.3 13.3 0 0 0-7.575-2.136 13.4 13.4 0 0 0-7.575 2.136 14.67 14.67 0 0 1-8.3 2.336 14.76 14.76 0 0 1-8.307-2.336 13.3 13.3 0 0 0-7.575-2.136 13.4 13.4 0 0 0-7.576 2.136 14.76 14.76 0 0 1-8.313 2.336 14.67 14.67 0 0 1-8.3-2.336A13.3 13.3 0 0 0 .749 1.474a.738.738 0 1 1 0-1.475 14.76 14.76 0 0 1 8.313 2.336 13.3 13.3 0 0 0 7.575 2.136 13.4 13.4 0 0 0 7.575-2.136 14.67 14.67 0 0 1 8.3-2.336 14.76 14.76 0 0 1 8.313 2.336A13.3 13.3 0 0 0 48.4 4.471a13.4 13.4 0 0 0 7.575-2.136 14.76 14.76 0 0 1 8.313-2.336 14.76 14.76 0 0 1 8.313 2.336 14.5 14.5 0 0 0 15.15 0 14.76 14.76 0 0 1 8.313-2.336.738.738 0 1 1 0 1.475 13.4 13.4 0 0 0-7.576 2.136 14.9 14.9 0 0 1-8.343 2.336"/><use href="#a"/><use href="#a"/><path d="M80.145 12.83a14.67 14.67 0 0 1-8.3-2.336 13.3 13.3 0 0 0-7.575-2.136 13.4 13.4 0 0 0-7.575 2.137 14.67 14.67 0 0 1-8.3 2.336 14.76 14.76 0 0 1-8.313-2.336 13.3 13.3 0 0 0-7.575-2.136 13.4 13.4 0 0 0-7.575 2.136 14.76 14.76 0 0 1-8.313 2.336 14.67 14.67 0 0 1-8.3-2.336A13.3 13.3 0 0 0 .744 8.359a.738.738 0 1 1 0-1.475A14.76 14.76 0 0 1 9.057 9.22a13.3 13.3 0 0 0 7.575 2.136 13.4 13.4 0 0 0 7.575-2.136 14.67 14.67 0 0 1 8.3-2.336A14.76 14.76 0 0 1 40.82 9.22a13.3 13.3 0 0 0 7.575 2.136A13.4 13.4 0 0 0 55.97 9.22a14.76 14.76 0 0 1 8.313-2.336 14.76 14.76 0 0 1 8.313 2.336 14.5 14.5 0 0 0 15.15 0 14.76 14.76 0 0 1 8.313-2.336.738.738 0 1 1 0 1.475 13.4 13.4 0 0 0-7.575 2.136 14.9 14.9 0 0 1-8.339 2.335m15.888 12.666H.738a.738.738 0 1 1 0-1.475h95.31a.74.74 0 0 1 .738.738.75.75 0 0 1-.753.738ZM5.454 19.883H4.072a.738.738 0 1 1 0-1.475h1.382a.74.74 0 0 1 .738.738.73.73 0 0 1-.738.737m13.399 0H8.436a.738.738 0 1 1 0-1.475h10.417a.738.738 0 1 1 0 1.475m56.083-1.721h-1.382a.74.74 0 0 1-.738-.738.75.75 0 0 1 .738-.738h1.382a.74.74 0 0 1 .738.738.75.75 0 0 1-.738.738m13.383 0H77.902a.74.74 0 0 1-.738-.738.75.75 0 0 1 .738-.738h10.417a.738.738 0 0 1 0 1.475Zm-34.987 3.426H51.95a.738.738 0 1 1 0-1.475h1.382a.738.738 0 1 1 0 1.475"/></g><g transform="translate(1.793 2.52)"><g transform="translate(8.414)"><path fill="#b6c4d3" d="M55.714 84.125v5.73a3.056 3.056 0 0 1-3.058 3.058H27.304a3.056 3.056 0 0 1-3.058-3.058v-5.73Z"/><path d="M52.656 93.666H27.304a3.81 3.81 0 0 1-3.811-3.811v-5.73a.74.74 0 0 1 .738-.738h31.483a.74.74 0 0 1 .738.738v5.731a3.787 3.787 0 0 1-3.796 3.81m-27.673-8.8v4.994a2.33 2.33 0 0 0 2.32 2.32h25.353a2.33 2.33 0 0 0 2.32-2.32v-4.998Z"/><g transform="translate(0 .738)"><path fill="#d5dce5" d="M75.351 40.764v14.689a29.7 29.7 0 0 1-29.685 29.681h-11.4A29.69 29.69 0 0 1 4.579 55.453V40.764Z"/><path fill="#b6c4d3" d="M75.351 48.616v6.853a29.7 29.7 0 0 1-29.685 29.686h-11.4a29.64 29.64 0 0 1-23.587-11.663c17.18.646 64.672.215 64.672-24.876"/><g transform="translate(.753)"><path fill="#d5dce5" d="M71.909 5.332a5.3 5.3 0 0 1-.138 1.2l-5.7 24.922H43.545L62.06 2.474a5.342 5.342 0 0 1 9.849 2.858"/><path fill="#b6c4d3" d="M71.909 5.332a5.3 5.3 0 0 1-.138 1.2l-5.7 24.922H43.545l2.2-3.457h7.176a11.26 11.26 0 0 0 10.983-8.745l3.7-16.164a5.3 5.3 0 0 0 .138-1.2 5 5 0 0 0-.323-1.8 5.33 5.33 0 0 1 4.49 5.244"/><path fill="#b6c4d3" d="M78.47 34.127v3.964a2.675 2.675 0 0 1-2.674 2.674H2.674A2.675 2.675 0 0 1 0 38.091v-3.964a2.675 2.675 0 0 1 2.674-2.674h73.123a2.675 2.675 0 0 1 2.673 2.674"/><path fill="#fff" d="M10.772 60.585a.74.74 0 0 1-.738-.738v-1.72a.74.74 0 0 1 .738-.738.75.75 0 0 1 .738.738v1.721a.72.72 0 0 1-.738.737m0-5.563a.74.74 0 0 1-.738-.738V46.05a.74.74 0 0 1 .738-.738.75.75 0 0 1 .738.738v8.236a.72.72 0 0 1-.738.736"/></g><path d="M76.53 41.52H3.43A3.43 3.43 0 0 1 0 38.091v-3.965A3.43 3.43 0 0 1 3.43 30.7h73.12a3.43 3.43 0 0 1 3.426 3.426v3.964a3.453 3.453 0 0 1-3.446 3.43m-73.1-9.33a1.94 1.94 0 0 0-1.94 1.936v3.964a1.94 1.94 0 0 0 1.94 1.937h73.12a1.94 1.94 0 0 0 1.936-1.936v-3.965a1.94 1.94 0 0 0-1.936-1.936Z"/><path d="M45.677 85.892h-11.4a30.453 30.453 0 0 1-30.42-30.423V40.782a.74.74 0 0 1 .738-.738h70.756a.74.74 0 0 1 .738.738v14.687a30.44 30.44 0 0 1-30.412 30.423M5.347 41.517v13.952a28.97 28.97 0 0 0 28.93 28.932h11.4a28.97 28.97 0 0 0 28.937-28.932V41.517Z"/></g><path d="M66.824 32.928H44.298a.73.73 0 0 1-.645-.384.7.7 0 0 1 .031-.753l18.5-28.979A6.086 6.086 0 0 1 73.4 6.069a6 6 0 0 1-.154 1.368l-5.7 24.922a.73.73 0 0 1-.722.569m-21.173-1.475h20.574l5.562-24.339a5 5 0 0 0 .123-1.034 4.6 4.6 0 0 0-8.482-2.458Z"/></g><g transform="translate(13.98 1.035)"><path fill="#b9dd53" d="M.749 1.454c1.383 2.105 1.89 4.64 3.088 7.3a12.65 12.65 0 0 0 4.871 5.624c2.443 1.506 4.656 1.629 6.669.676a6.77 6.77 0 0 0 3.519-4.256C21.046 2.991 9.108-.989.749 1.454"/><path fill="#b9dd53" d="M18.895 10.797a6.7 6.7 0 0 1-3.5 4.256c-2.013.953-4.225.814-6.684-.676A12.66 12.66 0 0 1 3.84 8.753L3.61 8.2C2.581 5.742 2.043 3.421.752 1.455c6.93-2.013 16.3.353 18.1 5.67a6.2 6.2 0 0 1 .046 3.672Z"/><path fill="#a3c134" d="M18.895 10.794a6.7 6.7 0 0 1-3.5 4.256c-2.013.953-4.225.814-6.684-.676a12.66 12.66 0 0 1-4.874-5.621l-.23-.553s9.66 3.18 15.242-1.076a6.2 6.2 0 0 1 .046 3.672Z"/><path fill="#b9dd53" d="M37.548 7.463a28.5 28.5 0 0 0-2.443 3.5 6.8 6.8 0 0 1-3.211 2.412 3.575 3.575 0 0 1-5.055-3.042c-.277-4.364 6.515-5.1 10.71-2.873Z"/><path d="M12.764 16.406a8.43 8.43 0 0 1-4.441-1.4 13.14 13.14 0 0 1-4.5-4.671.744.744 0 1 1 1.291-.738 11.64 11.64 0 0 0 3.993 4.149c2.151 1.321 4.1 1.521 5.962.645a6.02 6.02 0 0 0 3.119-3.78 5.4 5.4 0 0 0-1.567-5.578c-3.027-2.981-9.45-4.287-14.735-3.1A26 26 0 0 1 3.33 5.421a.744.744 0 0 1-1.4.507A19.2 19.2 0 0 0 .117 1.872.744.744 0 0 1 .532.75C6.524-1.002 14.053.427 17.664 3.977a6.85 6.85 0 0 1 1.936 7.022 7.46 7.46 0 0 1-3.9 4.732 6.9 6.9 0 0 1-2.935.676Zm17.548-1.984a3.97 3.97 0 0 1-2.489-.845 4.38 4.38 0 0 1-1.706-3.181 4.01 4.01 0 0 1 1.921-3.78c2.4-1.552 6.745-1.475 9.88.2a.742.742 0 0 1 .169 1.183 9.2 9.2 0 0 0-1.383 1.921 18 18 0 0 1-.983 1.49 7.5 7.5 0 0 1-3.565 2.674 6 6 0 0 1-1.844.338m2.136-7.437a6.8 6.8 0 0 0-3.6.876 2.53 2.53 0 0 0-1.245 2.428 2.94 2.94 0 0 0 1.122 2.105 3 3 0 0 0 2.935.292 6.1 6.1 0 0 0 2.863-2.151c.338-.461.63-.937.907-1.4.307-.492.6-.968.922-1.414a10.7 10.7 0 0 0-3.9-.738Z"/><path d="M22.954 28.097a.74.74 0 0 1-.738-.738v-7.052c-.077-.845-.661-9.619 10.879-12.139a.748.748 0 0 1 .323 1.46c-10.682 2.336-9.764 10.218-9.714 10.541v7.191a.76.76 0 0 1-.753.738Z"/><path d="M22.951 29.265a.74.74 0 0 1-.737-.74 24.45 24.45 0 0 0-13.982-22.1l-.2-.092a.743.743 0 0 1 .615-1.352l.2.092a25.95 25.95 0 0 1 14.8 21.8.8.8 0 0 1 .046.277v1.375a.73.73 0 0 1-.742.74"/></g><path d="M7.615 31.437a.76.76 0 0 1-.461-.154L2.96 28.011a.744.744 0 1 1 .922-1.168l4.194 3.273a.74.74 0 0 1 .123 1.045.71.71 0 0 1-.584.277ZM.793 34.925a.748.748 0 0 1-.092-1.49l4.517-.553a.754.754 0 0 1 .83.645.745.745 0 0 1-.645.83l-4.517.553a.2.2 0 0 1-.093.015m9.125-6.423a.746.746 0 0 1-.738-.661l-.553-4.517a.745.745 0 0 1 .645-.83.754.754 0 0 1 .83.645l.553 4.517a.745.745 0 0 1-.645.83.2.2 0 0 1-.092.015Zm-8.403-1.841a.76.76 0 0 1-.461-.154l-.768-.6a.744.744 0 1 1 .92-1.169l.768.584a.74.74 0 0 1 .123 1.045.73.73 0 0 1-.584.292Z"/></g><g transform="translate(27.465 54.093)"><path fill="#b9dd53" d="M24.044 19.107c3.042-7.022 3.181-12.738-1.552-16.226A11.35 11.35 0 0 0 16.023.745C9.078.591 4.345 3.111.75 7.014c4.394-1.4 7.483-.63 9 2.75 2.443 6.607 7.1 9.864 14.29 9.342Z"/><path fill="#b9dd53" d="M37.335 8.72c-1.583.907-2.8 2.72-3.749 5.147a7.62 7.62 0 0 1-3.334 3.9 12.7 12.7 0 0 1-6.192 1.337c2.3-5.316 2.935-9.88 1.06-13.306 6.5-.722 9.972.184 12.215 2.919Z"/><path fill="#a3c134" d="M30.389 5.616c-.015 9.511-6.1 13.352-6.33 13.491 2.289-5.332 2.935-9.88 1.06-13.306a29 29 0 0 1 5.27-.185"/><path d="M22.598 19.906c-6.576 0-11.124-3.319-13.537-9.864C7.77 7.184 5.127 6.416.979 7.742a.76.76 0 0 1-.86-.307.74.74 0 0 1 .077-.907A19.7 19.7 0 0 1 16.038.008a12 12 0 0 1 6.884 2.274c4.686 3.457 5.27 9.05 1.782 17.117a.72.72 0 0 1-.63.446 16 16 0 0 1-1.475.061ZM4.53 5.615a6.04 6.04 0 0 1 5.916 3.857c2.336 6.33 6.622 9.235 13.107 8.912 2.965-7.1 2.489-11.97-1.49-14.9a10.47 10.47 0 0 0-6.039-1.982 18.15 18.15 0 0 0-12.815 4.21A10 10 0 0 1 4.53 5.62Z"/><path d="M24.044 19.86a.75.75 0 0 1-.63-.338.77.77 0 0 1-.061-.707c2.379-5.519 2.734-9.649 1.09-12.646a.743.743 0 0 1 .569-1.106c6.684-.753 10.418.169 12.876 3.181a.7.7 0 0 1 .154.6.76.76 0 0 1-.353.507c-1.337.768-2.489 2.382-3.442 4.779a8.32 8.32 0 0 1-3.673 4.266 12.9 12.9 0 0 1-6.53 1.46Zm2.2-13.414c1.245 3.088.891 6.991-1.06 11.893a10.86 10.86 0 0 0 4.7-1.214 6.9 6.9 0 0 0 3.012-3.519 11.6 11.6 0 0 1 3.317-5.01c-2-1.951-5.009-2.6-9.972-2.151Zm-12.895.752a1.2 1.2 0 0 1-.23-.031 39 39 0 0 0-.753-.23.74.74 0 0 1 .384-1.429c.277.077.553.154.83.246a.753.753 0 0 1 .476.937.73.73 0 0 1-.707.507"/><path d="M24.043 19.859a.755.755 0 0 1-.738-.63c-.015-.077-1.168-7.053-7.237-10.71a.748.748 0 1 1 .784-1.275c6.669 4.041 7.882 11.447 7.944 11.754a.744.744 0 0 1-.615.845.5.5 0 0 1-.138.016"/></g></g></svg>