<svg xmlns="http://www.w3.org/2000/svg" width="104.054" height="98.757" viewBox="0 0 104.054 98.757"><g transform="translate(-6.099 -17.598)"><g transform="translate(7.5 26.332)"><g transform="translate(0 46.045)"><path d="M124.273,295.976a45.5,45.5,0,0,1-90.378,0" transform="translate(-28.518 -293.209)" fill="none" stroke="#000" stroke-linecap="round" stroke-linejoin="round" stroke-miterlimit="10" stroke-width="2"/><path d="M19.11,287.409l-6.594-5.016L7.5,288.987" transform="translate(-7.5 -282.393)" fill="none" stroke="#000" stroke-linecap="round" stroke-linejoin="round" stroke-miterlimit="10" stroke-width="2"/></g><path d="M451.622,170.423A45.216,45.216,0,0,0,445,151.564" transform="translate(-355.866 -132.172)" fill="none" stroke="#000" stroke-linecap="round" stroke-linejoin="round" stroke-miterlimit="10" stroke-width="2"/><path d="M342.424,70.227a45.526,45.526,0,0,0-20.889-13.6" transform="translate(-257.558 -56.577)" fill="none" stroke="#000" stroke-linecap="round" stroke-linejoin="round" stroke-miterlimit="10" stroke-width="2"/><path d="M65.842,56.379A45.539,45.539,0,0,0,33.9,94.63" transform="translate(-28.518 -56.379)" fill="none" stroke="#000" stroke-linecap="round" stroke-linejoin="round" stroke-miterlimit="10" stroke-width="2"/><path d="M447.533,227.924l6.607,5,5-6.607" transform="translate(-357.886 -191.695)" fill="none" stroke="#000" stroke-linecap="round" stroke-linejoin="round" stroke-miterlimit="10" stroke-width="2"/></g><g transform="translate(27.578 39.315)"><circle cx="30.548" cy="30.548" r="30.548" transform="translate(0 0)" fill="#dff6fd"/></g><path d="M239.3,120.107a30.817,30.817,0,0,0-4.273.3,30.55,30.55,0,0,1,0,60.5,30.549,30.549,0,1,0,4.273-60.8Z" transform="translate(-181.174 -80.792)" fill="#c8effe"/><path d="M120.141,147.251A30.536,30.536,0,0,0,107.4,168.184" transform="translate(-79.546 -102.406)" fill="none" stroke="#000" stroke-linecap="round" stroke-linejoin="round" stroke-miterlimit="10" stroke-width="2"/><path d="M106.794,175.315a30.549,30.549,0,1,0,47.928-28.063" transform="translate(-79.065 -102.407)" fill="none" stroke="#000" stroke-linecap="round" stroke-linejoin="round" stroke-miterlimit="10" stroke-width="2"/><g transform="translate(36.452 66.279)"><path d="M150.8,253.648a14.565,14.565,0,0,0,19.138,19.138A14.565,14.565,0,0,0,150.8,253.648Z" transform="translate(-149.612 -252.463)" fill="#a2e62e"/><path d="M169.849,256.727a14.567,14.567,0,0,0-16.059-3.079c-.156.362-.294.729-.419,1.1a14.558,14.558,0,0,1,15.777,19.086,14.555,14.555,0,0,0,3.78-1.047A14.567,14.567,0,0,0,169.849,256.727Z" transform="translate(-152.604 -252.463)" fill="#97d729"/><line x2="14.336" y2="14.336" transform="translate(7.338 7.338)" fill="none" stroke="#000" stroke-linecap="round" stroke-linejoin="round" stroke-miterlimit="10" stroke-width="2"/><path d="M277.14,253.648A14.565,14.565,0,0,1,258,272.786a14.565,14.565,0,0,1,19.138-19.138Z" transform="translate(-234.977 -252.463)" fill="#a2e62e"/><path d="M280.278,254.144a14.559,14.559,0,0,0-3.859-1.058,14.559,14.559,0,0,1-15.661,19.21q.173.5.382.986a14.565,14.565,0,0,0,19.138-19.138Z" transform="translate(-238.115 -252.959)" fill="#97d729"/><path d="M150.8,253.648a14.565,14.565,0,0,0,19.138,19.138A14.565,14.565,0,0,0,150.8,253.648Z" transform="translate(-149.612 -252.463)" fill="none" stroke="#000" stroke-linecap="round" stroke-linejoin="round" stroke-miterlimit="10" stroke-width="2"/><path d="M277.14,253.648A14.565,14.565,0,0,1,258,272.786a14.565,14.565,0,0,1,19.138-19.138Z" transform="translate(-234.977 -252.463)" fill="none" stroke="#000" stroke-linecap="round" stroke-linejoin="round" stroke-miterlimit="10" stroke-width="2"/><line x1="14.336" y2="14.336" transform="translate(21.674 7.338)" fill="none" stroke="#000" stroke-linecap="round" stroke-linejoin="round" stroke-miterlimit="10" stroke-width="2"/><line y2="12.458" transform="translate(21.674 21.674)" fill="none" stroke="#000" stroke-linecap="round" stroke-linejoin="round" stroke-miterlimit="10" stroke-width="2"/></g><g transform="translate(39.683 18.644)"><circle cx="18.443" cy="18.443" r="18.443" transform="translate(0 2.019)" fill="#8ac9fe"/><g transform="translate(15.237 3.984)"><path d="M251.762,38.2,250.4,41.953a18.44,18.44,0,0,1-10.137,30.891,18.446,18.446,0,0,0,11.5-34.642Z" transform="translate(-240.264 -38.202)" fill="#60b7ff"/></g><g transform="translate(0 2.019)"><path d="M189.687,29.475A18.446,18.446,0,0,0,175.6,63.462" transform="translate(-165.473 -28.553)" fill="none" stroke="#000" stroke-linecap="round" stroke-linejoin="round" stroke-miterlimit="10" stroke-width="2"/><path d="M227.568,72.193A18.446,18.446,0,0,0,241.652,38.2" transform="translate(-214.918 -36.236)" fill="none" stroke="#000" stroke-linecap="round" stroke-linejoin="round" stroke-miterlimit="10" stroke-width="2"/></g><path d="M225.221,37.744h-6.043l6.606-18.209a.661.661,0,0,0-1.106-.676l-18.1,19.45a1.286,1.286,0,0,0,.941,2.162h6.047l-6.642,18.2a.661.661,0,0,0,1.105.678l18.133-19.447A1.286,1.286,0,0,0,225.221,37.744Z" transform="translate(-197.927 -18.644)" fill="#ffd15b"/><g transform="translate(8.953 0)"><path d="M249.014,37.744h4.231l6.606-18.209a.661.661,0,0,0-1.106-.676l-4.72,5.073Z" transform="translate(-240.948 -18.644)" fill="#ffc344"/><path d="M227.761,112.4h-4.231a1.286,1.286,0,0,1,.94,2.163l-13.4,14.374-1.6,4.4a.661.661,0,0,0,1.105.678L228.7,114.56A1.286,1.286,0,0,0,227.761,112.4Z" transform="translate(-209.42 -93.297)" fill="#ffc344"/></g><path d="M209.081,35.62l-2.5,2.69a1.286,1.286,0,0,0,.941,2.162h6.047l-6.642,18.2a.661.661,0,0,0,1.105.678l18.133-19.447a1.286,1.286,0,0,0-.94-2.163h-6.043l6.606-18.209a.661.661,0,0,0-1.106-.676L213.941,30.4" transform="translate(-197.927 -18.644)" fill="none" stroke="#000" stroke-linecap="round" stroke-linejoin="round" stroke-miterlimit="10" stroke-width="2"/></g></g></svg>