<svg xmlns="http://www.w3.org/2000/svg" width="101.702" height="82.392" viewBox="0 0 101.702 82.392"><defs><path id="a" fill="#ffcebf" d="M0 0h11.967v11.967H0Z"/><path id="b" fill="#935b50" d="m7.54 3.538-1.557-.914-1.557.914V0h3.113Z"/></defs><g transform="translate(0 -48.605)"><g transform="translate(.795 49.4)"><path fill="#dedbee" d="M40.414 48.71h19.283v26.133H40.414Z"/><path fill="#dedbee" d="M26.151 80.803a4.548 4.548 0 1 1 0-9.087h47.81a4.548 4.548 0 1 1 0 9.087Zm73.961-27.181a4.77 4.77 0 0 1-4.755 4.755H4.755A4.77 4.77 0 0 1 0 53.622V4.755a4.77 4.77 0 0 1 4.755-4.76h90.6a4.77 4.77 0 0 1 4.755 4.755Z"/><path fill="#83a454" d="M5.019 5.019h90.075v7.309H5.019Z"/><path fill="#01d0fb" d="M5.019 12.328h90.075v41.034H5.019Z"/><g transform="translate(43.5 15.19)"><g transform="translate(25.887 25.887)"><path fill="#fd4755" d="M6.082.98C4.551-.551 2.65-.156 1.246 1.248s-1.8 3.3-.268 4.836l3.765 3.765 5.1-5.1Z"/><path fill="#5e753c" d="M4.745 9.849 18.61 23.714a3.622 3.622 0 1 0 5.1-5.1L9.848 4.745Z"/></g><circle cx="17.625" cy="17.625" r="17.625" fill="#5e753c"/><circle cx="13.218" cy="13.218" r="13.218" fill="#01d0fb" transform="translate(4.406 4.406)"/></g><g transform="translate(8.493 38.216)"><use href="#a"/><use href="#b"/></g><g transform="translate(23.722 38.216)"><use href="#a"/><use href="#b"/></g><g transform="translate(8.493 23.205)"><use href="#a"/><use href="#b"/></g><g transform="translate(23.722 23.205)"><use href="#a"/><use href="#b"/></g><g transform="translate(52.488 22.869)"><path fill="#ffcebf" d="m8.637 19.943 8.637-4.986V4.984L8.637 9.97Z"/><path fill="#935b50" d="m3.341 9.523 2.125 1.227V8.144l8.637-4.987-2.125-1.227-8.637 4.987Z"/><path fill="#ffcebf" d="M5.466 8.143v2.606L3.341 9.522V6.916l8.637-4.987-3.341-1.93L0 4.986l3.341 1.929L0 4.986v9.976l8.637 4.986V9.975l-3.171-1.83 3.171 1.83 8.637-4.986-3.171-1.831Z"/></g></g><g transform="translate(3.575 50.194)"><path fill="#f9f7f8" d="M40.414 58.377h15.708v9.764H40.414Zm-16.051 18.85a2.763 2.763 0 1 1 0-5.511h47.811a2.763 2.763 0 1 1 0 5.511Zm66.381-22.425-1.443-1.443h4.005a1.79 1.79 0 0 0 1.788-1.788V3.231a1.79 1.79 0 0 0-1.788-1.788H3.231a1.79 1.79 0 0 0-1.788 1.788V51.57a1.79 1.79 0 0 0 1.788 1.788h70.806l1.443 1.443H2.967A2.97 2.97 0 0 1 0 51.834V2.967A2.97 2.97 0 0 1 2.967-.005h90.6a2.97 2.97 0 0 1 2.967 2.967v48.873a2.97 2.97 0 0 1-2.967 2.967h-2.826Z"/><path fill="#e4f7c9" d="M19.677 8.752a1.788 1.788 0 0 0-.333-3.544h-1.518a1.788 1.788 0 0 0-.333 3.544h-3.1a1.788 1.788 0 0 0-.333-3.544h-1.517a1.788 1.788 0 0 0-.333 3.544h-3.1a1.788 1.788 0 0 0-.333-3.544H7.26a1.788 1.788 0 0 0-.333 3.544H5.019V5.019h86.5v3.733Z"/><path fill="#62dbfb" d="m85.725 49.783-9.388-9.388a19.428 19.428 0 0 0-11.756-28.068h26.936v37.455Zm-21.365 0a19.2 19.2 0 0 0 4.351-1.75l1.75 1.75Zm-29.331 0a1.79 1.79 0 0 0 .66-1.386V36.429a1.79 1.79 0 0 0-.851-1.522 1.79 1.79 0 0 0 .851-1.522V21.418a1.79 1.79 0 0 0-1.788-1.788H21.935a1.79 1.79 0 0 0-1.631 1.055 1.79 1.79 0 0 0-1.631-1.055H6.706a1.79 1.79 0 0 0-1.687 1.2v-8.5h49.074a19.426 19.426 0 0 0 .208 37.455H35.029Zm-15.229 0a1.8 1.8 0 0 0 .5-.654 1.8 1.8 0 0 0 .5.654Zm-14.781 0v-.795a1.8 1.8 0 0 0 .56.795Zm0-15.806a1.8 1.8 0 0 0 .75.93 1.8 1.8 0 0 0-.75.93Zm15.285 1.72a1.8 1.8 0 0 0-.694-.79 1.8 1.8 0 0 0 .694-.79 1.8 1.8 0 0 0 .694.79 1.8 1.8 0 0 0-.694.79"/><path fill="#fe646f" d="M71.716 45.982q.706-.585 1.348-1.228c.642-.643.84-.88 1.228-1.348l.628.628-2.575 2.576Z"/><path fill="#f2fbe4" d="M89.091 62.435a2.32 2.32 0 0 1-1.618-.7l-12.6-12.6 2.575-2.576 12.6 12.6a2.01 2.01 0 0 1 .232 2.807 1.66 1.66 0 0 1-1.189.469"/><path fill="#83a454" d="M59.337 46.864a15.837 15.837 0 1 1 11.2-4.638 15.73 15.73 0 0 1-11.2 4.638m0-30.843a15.006 15.006 0 1 0 10.611 4.4 14.9 14.9 0 0 0-10.611-4.4"/><path fill="#62dbfb" d="M68.576 37.759a11.5 11.5 0 0 1-1.156 1.351 11.34 11.34 0 0 1-6.873 3.285Zm-10.448 4.636a11.34 11.34 0 0 1-6.874-3.285 11.5 11.5 0 0 1-1.157-1.351Zm-9.216-6.678a11.5 11.5 0 0 1 0-9.379Zm20.85 0v-9.379a11.5 11.5 0 0 1 0 9.378ZM50.027 24.394a11.5 11.5 0 0 1 1.227-1.449 11.35 11.35 0 0 1 6.992-3.3Zm10.4-4.746a11.45 11.45 0 0 1 8.219 4.746Z"/><path fill="#ffdfcf" d="M8.493 46.608v-8.392h.852v1.751a1.787 1.787 0 0 0 2.693 1.541l.651-.382.652.382a1.787 1.787 0 0 0 2.693-1.542v-1.75h.852v8.392Z"/><path fill="#ab695d" d="M12.287 38.368a.8.8 0 0 1 .8 0l.36.211v-1.356h-1.52v1.356Z"/><path fill="#ffdfcf" d="M23.722 46.608v-8.392h.852v1.751a1.788 1.788 0 0 0 2.693 1.541l.651-.382.652.382a1.788 1.788 0 0 0 2.693-1.542v-1.75h.852v8.392Z"/><path fill="#ab695d" d="M27.516 38.368a.8.8 0 0 1 .8 0l.36.211v-1.356h-1.524v1.356Z"/><path fill="#ffdfcf" d="M8.493 31.597v-8.392h.852v1.751a1.787 1.787 0 0 0 2.693 1.541l.651-.382.652.382a1.788 1.788 0 0 0 2.693-1.542v-1.751h.852v8.392Z"/><path fill="#ab695d" d="M12.287 23.357a.8.8 0 0 1 .8 0l.36.211v-1.356h-1.52v1.356Z"/><path fill="#ffdfcf" d="M23.722 31.597v-8.392h.852v1.751a1.788 1.788 0 0 0 2.693 1.541l.651-.382.652.382a1.788 1.788 0 0 0 2.693-1.542v-1.751h.852v8.392Z"/><path fill="#ab695d" d="M27.516 23.357a.8.8 0 0 1 .8 0l.36.211v-1.356h-1.524v1.356Z"/><path fill="#ffdfcf" d="m61.125 32.087 5.062-2.922v5.845l-5.062 2.922Z"/><path fill="#ab695d" d="m54.836 30.145.536.309v-1.306q-.002-.026.008-.053c.01-.027.006-.036.01-.053l.012-.044q.007-.024.017-.05l.02-.051q.01-.023.023-.045c.013-.022.006-.016.011-.024s.011-.013.015-.021a1 1 0 0 1 .061-.085q.017-.021.036-.041l.032-.032.04-.035.044-.035.041-.027c.007 0 .013-.011.021-.015l7.445-4.3-.536-.309-7.843 4.528v1.689Z"/><path fill="#ffdfcf" d="M52.488 35.01v-3.523a1.8 1.8 0 0 0 .66.666l2.125 1.227a1.786 1.786 0 0 0 2.277-.416v4.97Zm-.199-8.942 1.752 1.012 7.048-4.069-1.753-1.012Zm7.048 4.069 7.048-4.069-1.582-.913-7.048 4.069Z"/></g><g transform="translate(0 48.605)"><path d="M96.152-.005H5.549A5.556 5.556 0 0 0 0 5.549v48.868a5.556 5.556 0 0 0 5.549 5.549h34.865v11.75H26.945a5.342 5.342 0 1 0 0 10.676h47.811a5.342 5.342 0 1 0 0-10.676h-13.47v-11.75h20.763l6.18 6.18a4.92 4.92 0 0 0 3.443 1.453 4.22 4.22 0 0 0 3.016-1.221 4.575 4.575 0 0 0-.189-6.412h1.652a5.556 5.556 0 0 0 5.549-5.549V5.549a5.556 5.556 0 0 0-5.548-5.554m3.96 54.417a3.965 3.965 0 0 1-3.96 3.96h-3.237l-3.43-3.43h6.4a.8.8 0 0 0 .795-.795V5.813a.8.8 0 0 0-.795-.795H5.813a.8.8 0 0 0-.795.795v48.339a.8.8 0 0 0 .795.795H77.03l3.43 3.43H5.549a3.964 3.964 0 0 1-3.96-3.96V5.549a3.965 3.965 0 0 1 3.96-3.96h90.6a3.965 3.965 0 0 1 3.96 3.96Zm-6.779 6.626a3 3 0 0 1 .232 4.212 2.65 2.65 0 0 1-1.892.756 3.32 3.32 0 0 1-2.32-.987l-13.3-13.3 3.98-3.98Zm1.76-48.716H6.608v-5.72h88.485ZM6.608 13.917h88.485v39.442H87.9L77.678 43.141a18.378 18.378 0 1 0-6.222 6.232l3.985 3.985H6.608Zm55.311 36.522a16.83 16.83 0 1 1 11.9-4.929 16.72 16.72 0 0 1-11.9 4.929M72.8 48.472a18.6 18.6 0 0 0 3.979-3.98l2.125 2.125-3.98 3.98Zm1.954 32.331H26.945a3.754 3.754 0 1 1 0-7.5h47.811a3.754 3.754 0 1 1 0 7.5ZM42 71.716v-11.75h17.7v11.75Z"/><path d="M9.842 10.372h1.519a.795.795 0 1 0 0-1.589H9.842a.795.795 0 0 0 0 1.589m5.283 0h1.519a.795.795 0 0 0 0-1.589h-1.519a.795.795 0 0 0 0 1.589m5.283 0h1.519a.795.795 0 1 0 0-1.589h-1.519a.795.795 0 0 0 0 1.589m51.42 33.145a14.013 14.013 0 1 0-9.909 4.1 14.03 14.03 0 0 0 9.909-4.1m-18.694-1.124a12.424 12.424 0 1 1 8.785 3.639 12.44 12.44 0 0 1-8.785-3.638Zm-31.879-4.177H9.288a.8.8 0 0 0-.795.795v11.967a.8.8 0 0 0 .795.795h11.967a.8.8 0 0 0 .795-.795V39.011a.8.8 0 0 0-.795-.795m-.795 11.967H10.082V39.805h2.838v2.744a.794.794 0 0 0 1.2.685l1.154-.678 1.154.678a.794.794 0 0 0 1.2-.685v-2.744h2.838v10.378Zm-4.425-10.378v1.356l-.36-.211a.8.8 0 0 0-.8 0l-.36.211v-1.356Zm20.449-1.589H24.517a.8.8 0 0 0-.795.795v11.967a.8.8 0 0 0 .795.795h11.967a.8.8 0 0 0 .795-.795V39.011a.8.8 0 0 0-.795-.795m-.795 11.967H25.311V39.805h2.838v2.744a.794.794 0 0 0 1.2.685l1.154-.678 1.154.678a.794.794 0 0 0 1.2-.685v-2.744h2.838v10.378Zm-4.427-10.378v1.356l-.36-.211a.8.8 0 0 0-.8 0l-.36.211v-1.356Zm-10.007-16.6H9.288a.8.8 0 0 0-.795.795v11.967a.8.8 0 0 0 .795.795h11.967a.8.8 0 0 0 .795-.795V24a.8.8 0 0 0-.795-.795m-.795 11.967H10.082V24.794h2.838v2.744a.794.794 0 0 0 1.2.685l1.154-.678 1.154.678a.794.794 0 0 0 1.2-.685v-2.744h2.838v10.378Zm-4.425-10.378v1.356l-.36-.211a.8.8 0 0 0-.8 0l-.36.211v-1.356Zm20.449-1.589H24.517a.8.8 0 0 0-.795.795v11.967a.8.8 0 0 0 .795.795h11.967a.8.8 0 0 0 .795-.795V24a.8.8 0 0 0-.795-.795m-.795 11.967H25.311V24.794h2.838v2.744a.794.794 0 0 0 1.2.685l1.154-.678 1.154.678a.794.794 0 0 0 1.2-.685v-2.744h2.838v10.378Zm-4.427-10.378v1.356l-.36-.211a.8.8 0 0 0-.8 0l-.36.211v-1.356Z"/><path d="m62.225 44.345.022-.012.074-.037 8.637-4.987a.8.8 0 0 0 .4-.688v-9.973l-.005-.082v-.021a1 1 0 0 0-.03-.131c0-.012-.008-.023-.012-.035a1 1 0 0 0-.058-.128 1 1 0 0 0-.082-.114l-.023-.027a1 1 0 0 0-.1-.092l-.017-.012q-.032-.025-.068-.045l-8.637-4.987a.8.8 0 0 0-.795 0l-8.637 4.987-.067.045-.018.012a1 1 0 0 0-.1.092l-.024.027a1 1 0 0 0-.082.114 1 1 0 0 0-.058.128l-.012.035a1 1 0 0 0-.03.131v.021l-.005.082v9.973a.8.8 0 0 0 .4.688l8.637 4.987.074.036.018.009a1 1 0 0 0 .129.04l.035.007a.7.7 0 0 0 .282 0l.035-.007a1 1 0 0 0 .117-.036m3.572-17.524-7.445 4.3c-.008 0-.013.011-.021.015l-.041.027-.044.035-.04.035-.032.032q-.019.02-.036.041l-.034.043-.027.042c-.012.02-.011.013-.015.021l-.011.024c-.004.008-.016.029-.023.045l-.02.051-.018.05q-.008.023-.012.044l-.01.053-.008.053q-.002.026 0 .05c.002.024 0 .017 0 .026v1.23l-.536-.309V31.04l7.843-4.528Zm3.171 1.831-7.048 4.069-1.582-.913 7.048-4.069Zm-6.254 5.445 7.048-4.069v8.139l-7.048 4.069Zm-6.09-4.433-1.752-1.012 7.048-4.069 1.753 1.012Zm-2.547.364 1.752 1.012v2.147a.8.8 0 0 0 .4.688l2.125 1.227a.795.795 0 0 0 1.192-.688v-1.23l1.582.913v8.136l-7.048-4.069Z"/></g></g></svg>