<svg xmlns="http://www.w3.org/2000/svg" width="101.702" height="82.392" viewBox="0 0 101.702 82.392"><g transform="translate(0 -48.605)"><g transform="translate(0.795 49.4)"><path d="M207.46,297.826h19.283v26.133H207.46Z" transform="translate(-167.046 -249.116)" fill="#dedbee"/><path d="M116.47,422.737a4.548,4.548,0,1,1,0-9.087H164.28a4.548,4.548,0,1,1,0,9.087Z" transform="translate(-90.319 -341.934)" fill="#dedbee"/><path d="M104.112,106.227a4.769,4.769,0,0,1-4.755,4.755H8.755A4.769,4.769,0,0,1,4,106.227V57.36A4.769,4.769,0,0,1,8.755,52.6h90.6a4.769,4.769,0,0,1,4.755,4.755Z" transform="translate(-4 -52.605)" fill="#dedbee"/><path d="M29.267,77.872h90.075v7.309H29.267Z" transform="translate(-24.248 -72.853)" fill="#83a454"/><path d="M29.267,114.666h90.075V155.7H29.267Z" transform="translate(-24.248 -102.338)" fill="#01d0fb"/><g transform="translate(43.5 15.19)"><g transform="translate(25.887 25.887)"><path d="M359.4,260.379c-1.531-1.531-3.432-1.136-4.836.268s-1.8,3.3-.268,4.836l3.765,3.765,5.1-5.1Z" transform="translate(-353.318 -259.399)" fill="#fd4755"/><path d="M377.207,288.39l13.865,13.865a3.622,3.622,0,1,0,5.1-5.1L382.31,283.286Z" transform="translate(-372.462 -278.541)" fill="#5e753c"/></g><circle cx="17.625" cy="17.625" r="17.625" fill="#5e753c"/><circle cx="13.218" cy="13.218" r="13.218" transform="translate(4.406 4.406)" fill="#01d0fb"/></g><g transform="translate(8.493 38.216)"><path d="M46.758,245H58.725v11.967H46.758Z" transform="translate(-46.758 -245)" fill="#ffcebf"/><path d="M72.158,248.538l-1.557-.914-1.557.914V245h3.113Z" transform="translate(-64.618 -245)" fill="#935b50"/></g><g transform="translate(23.722 38.216)"><path d="M123.425,245h11.967v11.967H123.425Z" transform="translate(-123.425 -245)" fill="#ffcebf"/><path d="M148.825,248.538l-1.557-.914-1.557.914V245h3.113Z" transform="translate(-141.285 -245)" fill="#935b50"/></g><g transform="translate(8.493 23.205)"><path d="M46.758,169.427H58.725v11.967H46.758Z" transform="translate(-46.758 -169.427)" fill="#ffcebf"/><path d="M72.158,172.965l-1.557-.914-1.557.914v-3.538h3.113Z" transform="translate(-64.618 -169.427)" fill="#935b50"/></g><g transform="translate(23.722 23.205)"><path d="M123.425,169.427h11.967v11.967H123.425Z" transform="translate(-123.425 -169.427)" fill="#ffcebf"/><path d="M148.825,172.965l-1.557-.914-1.557.914v-3.538h3.113Z" transform="translate(-141.285 -169.427)" fill="#935b50"/></g><g transform="translate(52.488 22.869)"><path d="M311.724,207.8l8.637-4.986v-9.973l-8.637,4.986Z" transform="translate(-303.087 -187.857)" fill="#ffcebf"/><path d="M285.063,185.045l2.125,1.227v-2.606l8.637-4.987-2.125-1.227-8.637,4.987Z" transform="translate(-281.722 -175.522)" fill="#935b50"/><path d="M273.707,175.881v2.606l-2.125-1.227v-2.606l8.637-4.987-3.341-1.93-8.637,4.987,3.341,1.929-3.341-1.929V182.7l8.637,4.986v-9.973l-3.171-1.83,3.171,1.83,8.637-4.986-3.171-1.831Z" transform="translate(-268.241 -167.738)" fill="#ffcebf"/></g></g><g transform="translate(3.575 50.194)"><path d="M221.46,350.495h15.708v9.764H221.46Z" transform="translate(-181.046 -292.118)" fill="#f9f7f8"/><path d="M128.682,423.161a2.763,2.763,0,1,1,0-5.511h47.811a2.763,2.763,0,1,1,0,5.511Z" transform="translate(-104.319 -345.934)" fill="#f9f7f8"/><path d="M108.744,111.407l-1.443-1.443h4.005a1.79,1.79,0,0,0,1.788-1.788V59.836a1.79,1.79,0,0,0-1.788-1.788H21.231a1.79,1.79,0,0,0-1.788,1.788v48.339a1.79,1.79,0,0,0,1.788,1.788H92.037l1.443,1.443H20.967A2.97,2.97,0,0,1,18,108.439V59.572A2.97,2.97,0,0,1,20.967,56.6h90.6a2.97,2.97,0,0,1,2.967,2.967V108.44a2.97,2.97,0,0,1-2.967,2.967h-2.826Z" transform="translate(-18 -56.605)" fill="#f9f7f8"/><path d="M57.923,85.605a1.788,1.788,0,0,0-.333-3.544H56.072a1.788,1.788,0,0,0-.333,3.544h-3.1a1.788,1.788,0,0,0-.333-3.544H50.789a1.788,1.788,0,0,0-.333,3.544h-3.1a1.788,1.788,0,0,0-.333-3.544H45.506a1.788,1.788,0,0,0-.333,3.544H43.265V81.872h86.5v3.733Z" transform="translate(-38.246 -76.853)" fill="#e4f7c9"/><path d="M123.971,156.121l-9.388-9.388a19.428,19.428,0,0,0-11.756-28.068h26.936v37.455Zm-21.365,0a19.235,19.235,0,0,0,4.351-1.75l1.75,1.75Zm-29.331,0a1.785,1.785,0,0,0,.66-1.386V142.767a1.788,1.788,0,0,0-.851-1.522,1.788,1.788,0,0,0,.851-1.522V127.756a1.79,1.79,0,0,0-1.788-1.788H60.181a1.79,1.79,0,0,0-1.631,1.055,1.79,1.79,0,0,0-1.631-1.055H44.952a1.791,1.791,0,0,0-1.687,1.2v-8.5H92.339a19.426,19.426,0,0,0,.208,37.455H73.275Zm-15.229,0a1.8,1.8,0,0,0,.5-.654,1.8,1.8,0,0,0,.5.654Zm-14.781,0v-.795a1.8,1.8,0,0,0,.56.795Zm0-15.806a1.8,1.8,0,0,0,.75.93,1.8,1.8,0,0,0-.75.93Zm15.285,1.72a1.8,1.8,0,0,0-.694-.79,1.8,1.8,0,0,0,.694-.79,1.8,1.8,0,0,0,.694.79A1.8,1.8,0,0,0,58.55,142.035Z" transform="translate(-38.246 -106.338)" fill="#62dbfb"/><path d="M379.042,277.7c.47-.389.921-.8,1.348-1.228s.84-.88,1.228-1.348l.628.628-2.575,2.576Z" transform="translate(-307.326 -231.718)" fill="#fe646f"/><path d="M409.152,306.887a2.319,2.319,0,0,1-1.618-.7l-12.6-12.6,2.575-2.576,12.6,12.6a2.008,2.008,0,0,1,.232,2.807A1.66,1.66,0,0,1,409.152,306.887Z" transform="translate(-320.061 -244.452)" fill="#f2fbe4"/><path d="M252.833,164.75a15.837,15.837,0,1,1,11.2-4.638A15.733,15.733,0,0,1,252.833,164.75Zm0-30.843a15.006,15.006,0,1,0,10.611,4.4A14.908,14.908,0,0,0,252.833,133.907Z" transform="translate(-193.496 -117.886)" fill="#83a454"/><path d="M279.87,173.627a11.479,11.479,0,0,1-1.156,1.351,11.343,11.343,0,0,1-6.873,3.285Zm-10.448,4.636a11.344,11.344,0,0,1-6.874-3.285,11.48,11.48,0,0,1-1.157-1.351Zm-9.216-6.678a11.5,11.5,0,0,1,0-9.379Zm20.85,0v-9.379A11.494,11.494,0,0,1,281.056,171.584Zm-19.735-11.323a11.479,11.479,0,0,1,1.227-1.449,11.345,11.345,0,0,1,6.992-3.3Zm10.4-4.746a11.449,11.449,0,0,1,8.219,4.746Z" transform="translate(-211.294 -135.868)" fill="#62dbfb"/><path d="M60.758,257.392V249h.852v1.751a1.787,1.787,0,0,0,2.693,1.541l.651-.382.652.382a1.787,1.787,0,0,0,2.693-1.542V249h.852v8.392Z" transform="translate(-52.265 -210.784)" fill="#ffdfcf"/><path d="M78.406,245.145a.794.794,0,0,1,.8,0l.36.211V244H78.046v1.356Z" transform="translate(-66.119 -206.777)" fill="#ab695d"/><path d="M137.425,257.392V249h.852v1.751a1.788,1.788,0,0,0,2.693,1.541l.651-.382.652.382a1.788,1.788,0,0,0,2.693-1.542V249h.852v8.392Z" transform="translate(-113.703 -210.784)" fill="#ffdfcf"/><path d="M155.073,245.145a.794.794,0,0,1,.8,0l.36.211V244h-1.524v1.356Z" transform="translate(-127.557 -206.777)" fill="#ab695d"/><path d="M60.758,181.819v-8.392h.852v1.751a1.787,1.787,0,0,0,2.693,1.541l.651-.382.652.382a1.788,1.788,0,0,0,2.693-1.542v-1.751h.852v8.392Z" transform="translate(-52.265 -150.222)" fill="#ffdfcf"/><path d="M78.406,169.572a.794.794,0,0,1,.8,0l.36.211v-1.356H78.046v1.356Z" transform="translate(-66.119 -146.215)" fill="#ab695d"/><path d="M137.425,181.819v-8.392h.852v1.751a1.788,1.788,0,0,0,2.693,1.541l.651-.382.652.382a1.788,1.788,0,0,0,2.693-1.542v-1.751h.852v8.392Z" transform="translate(-113.703 -150.222)" fill="#ffdfcf"/><path d="M155.073,169.572a.8.8,0,0,1,.8,0l.36.211v-1.356h-1.524v1.356Z" transform="translate(-127.557 -146.215)" fill="#ab695d"/><path d="M325.724,206.354l5.062-2.922v5.845l-5.062,2.922Z" transform="translate(-264.599 -174.267)" fill="#ffdfcf"/><path d="M294.063,183.285l.536.309v-1.23c0-.009,0-.017,0-.026s0-.034,0-.05,0-.036.008-.053.006-.036.01-.053.008-.029.012-.044.011-.034.017-.05.013-.035.02-.051.015-.03.023-.045.006-.016.011-.024.011-.013.015-.021.018-.029.027-.042.022-.029.034-.043.023-.028.036-.041l.032-.032c.013-.012.026-.023.04-.035s.029-.024.044-.035l.041-.027c.007,0,.013-.011.021-.015l7.445-4.3-.536-.309-7.843,4.528v1.689Z" transform="translate(-239.227 -153.14)" fill="#ab695d"/><path d="M282.241,218.643V215.12a1.788,1.788,0,0,0,.66.666l2.125,1.227a1.786,1.786,0,0,0,2.277-.416v4.97Z" transform="translate(-229.753 -183.633)" fill="#ffdfcf"/><path d="M281.241,171.426l1.752,1.012,7.048-4.069-1.753-1.012Z" transform="translate(-228.952 -145.358)" fill="#ffdfcf"/><path d="M310.343,188.228l7.048-4.069-1.582-.913-7.048,4.069Z" transform="translate(-251.006 -158.091)" fill="#ffdfcf"/></g><g transform="translate(0 48.605)"><path d="M96.152,48.6H5.549A5.556,5.556,0,0,0,0,54.154v48.868a5.556,5.556,0,0,0,5.549,5.549H40.414v11.75H26.945a5.342,5.342,0,1,0,0,10.676H74.756a5.342,5.342,0,1,0,0-10.676H61.286v-11.75H82.049l6.18,6.18a4.918,4.918,0,0,0,3.443,1.453,4.225,4.225,0,0,0,3.016-1.221,4.575,4.575,0,0,0-.189-6.412h1.652a5.556,5.556,0,0,0,5.549-5.549V54.154A5.556,5.556,0,0,0,96.152,48.6Zm3.96,54.417a3.965,3.965,0,0,1-3.96,3.96H92.915l-3.43-3.43h6.4a.8.8,0,0,0,.795-.795V54.418a.8.8,0,0,0-.795-.795H5.813a.8.8,0,0,0-.795.795v48.339a.8.8,0,0,0,.795.795H77.03l3.43,3.43H5.549a3.964,3.964,0,0,1-3.96-3.96V54.154a3.965,3.965,0,0,1,3.96-3.96h90.6a3.965,3.965,0,0,1,3.96,3.96Zm-6.779,6.626a3,3,0,0,1,.232,4.212,2.647,2.647,0,0,1-1.892.756,3.319,3.319,0,0,1-2.32-.987l-13.3-13.3,3.98-3.98Zm1.76-48.716H6.608v-5.72H95.093ZM6.608,62.522H95.093v39.442H87.9L77.678,91.746a18.378,18.378,0,1,0-6.222,6.232l3.985,3.985H6.608ZM61.919,99.044a16.83,16.83,0,1,1,11.9-4.929A16.721,16.721,0,0,1,61.919,99.044ZM72.8,97.077a18.564,18.564,0,0,0,3.979-3.98l2.125,2.125-3.98,3.98Zm1.954,32.331H26.945a3.754,3.754,0,1,1,0-7.5H74.756a3.754,3.754,0,1,1,0,7.5ZM42,120.321v-11.75H59.7v11.75Z" transform="translate(0 -48.605)"/><path d="M46.34,94.411h1.519a.795.795,0,1,0,0-1.589H46.34a.795.795,0,0,0,0,1.589Z" transform="translate(-36.498 -84.039)"/><path d="M72.938,94.411h1.519a.795.795,0,0,0,0-1.589H72.938a.795.795,0,0,0,0,1.589Z" transform="translate(-57.813 -84.039)"/><path d="M99.533,94.411h1.519a.795.795,0,1,0,0-1.589H99.533a.795.795,0,0,0,0,1.589Z" transform="translate(-79.125 -84.039)"/><path d="M265.127,171.18a14.013,14.013,0,1,0-9.909,4.1A14.029,14.029,0,0,0,265.127,171.18Zm-18.694-1.124a12.424,12.424,0,1,1,8.785,3.639A12.438,12.438,0,0,1,246.433,170.057Z" transform="translate(-193.299 -127.663)"/><path d="M55.52,241H43.553a.8.8,0,0,0-.795.795v11.967a.8.8,0,0,0,.795.795H55.52a.8.8,0,0,0,.795-.795V241.795A.8.8,0,0,0,55.52,241Zm-.795,11.967H44.347V242.589h2.838v2.744a.794.794,0,0,0,1.2.685l1.154-.678,1.154.678a.794.794,0,0,0,1.2-.685v-2.744h2.838v10.378ZM50.3,242.589v1.356l-.36-.211a.794.794,0,0,0-.8,0l-.36.211v-1.356Z" transform="translate(-34.265 -202.784)"/><path d="M132.187,241H120.22a.8.8,0,0,0-.795.795v11.967a.8.8,0,0,0,.795.795h11.967a.8.8,0,0,0,.795-.795V241.795A.8.8,0,0,0,132.187,241Zm-.795,11.967H121.014V242.589h2.838v2.744a.794.794,0,0,0,1.2.685l1.154-.678,1.154.678a.794.794,0,0,0,1.2-.685v-2.744h2.838v10.378Zm-4.427-10.378v1.356l-.36-.211a.794.794,0,0,0-.8,0l-.36.211v-1.356Z" transform="translate(-95.703 -202.784)"/><path d="M55.52,165.427H43.553a.8.8,0,0,0-.795.795v11.967a.8.8,0,0,0,.795.795H55.52a.8.8,0,0,0,.795-.795V166.222A.8.8,0,0,0,55.52,165.427Zm-.795,11.967H44.347V167.016h2.838v2.744a.794.794,0,0,0,1.2.685l1.154-.678,1.154.678a.794.794,0,0,0,1.2-.685v-2.744h2.838v10.378ZM50.3,167.016v1.356l-.36-.211a.794.794,0,0,0-.8,0l-.36.211v-1.356Z" transform="translate(-34.265 -142.222)"/><path d="M132.187,165.427H120.22a.8.8,0,0,0-.795.795v11.967a.8.8,0,0,0,.795.795h11.967a.8.8,0,0,0,.795-.795V166.222A.8.8,0,0,0,132.187,165.427Zm-.795,11.967H121.014V167.016h2.838v2.744a.794.794,0,0,0,1.2.685l1.154-.678,1.154.678a.794.794,0,0,0,1.2-.685v-2.744h2.838v10.378Zm-4.427-10.378v1.356l-.36-.211a.794.794,0,0,0-.8,0l-.36.211v-1.356Z" transform="translate(-95.703 -142.222)"/><path d="M273.978,185.212,274,185.2a.8.8,0,0,0,.074-.037l8.637-4.987a.794.794,0,0,0,.4-.688v-9.973a.812.812,0,0,0-.005-.082c0-.007,0-.014,0-.021a.77.77,0,0,0-.03-.131c0-.012-.008-.023-.012-.035a.8.8,0,0,0-.058-.128h0a.788.788,0,0,0-.082-.114l-.023-.027a.775.775,0,0,0-.1-.092l-.017-.012c-.022-.016-.044-.032-.068-.045l-8.637-4.987a.794.794,0,0,0-.795,0l-8.637,4.987a.739.739,0,0,0-.067.045l-.018.012a.8.8,0,0,0-.1.092l-.024.027a.827.827,0,0,0-.082.114h0a.8.8,0,0,0-.058.128l-.012.035a.791.791,0,0,0-.03.131c0,.007,0,.014,0,.021a.8.8,0,0,0-.005.082v9.973a.794.794,0,0,0,.4.688l8.637,4.987a.793.793,0,0,0,.074.036l.018.009a.805.805,0,0,0,.129.04l.035.007a.712.712,0,0,0,.282,0l.035-.007A.789.789,0,0,0,273.978,185.212Zm3.572-17.524-7.445,4.3c-.008,0-.013.011-.021.015l-.041.027c-.015.011-.03.023-.044.035s-.027.023-.04.035l-.032.032c-.013.013-.024.027-.036.041s-.023.028-.034.043-.018.028-.027.042-.011.013-.015.021-.007.016-.011.024-.016.029-.023.045-.014.034-.02.051-.012.034-.018.05-.008.029-.012.044-.007.035-.01.053-.006.036-.008.053,0,.034,0,.05,0,.017,0,.026v1.23l-.536-.309v-1.689l7.843-4.528Zm3.171,1.831-7.048,4.069-1.582-.913,7.048-4.069Zm-6.254,5.445,7.048-4.069v8.139l-7.048,4.069Zm-6.09-4.433-1.752-1.012,7.048-4.069,1.753,1.012Zm-2.547.364,1.752,1.012v2.147a.8.8,0,0,0,.4.688l2.125,1.227a.795.795,0,0,0,1.192-.688v-1.23l1.582.913V183.1l-7.048-4.069Z" transform="translate(-211.753 -140.867)"/></g></g></svg>