<svg xmlns="http://www.w3.org/2000/svg" width="72.793" height="91" viewBox="0 0 72.793 91"><g transform="translate(-58.374 -8.139)"><path d="M299.841,136.038h4.746v5.953h-4.746Z" transform="translate(-196.947 -104.318)" fill="#ffe177"/><path d="M269.611,148.2h5.075a1.291,1.291,0,0,1,0,2.582h-5.075a1.291,1.291,0,0,1,0-2.582Zm-2.592-5.2v-6.967h-4.254v18.418h18.418V136.037h-4.254V143a1.574,1.574,0,0,1-1.573,1.568h-6.763A1.574,1.574,0,0,1,267.018,143Z" transform="translate(-166.706 -104.317)" fill="#c48958"/><path d="M185.945,136.038h4.746v5.953h-4.746Z" transform="translate(-104.05 -104.318)" fill="#00e499"/><path d="M217.737,36.89h-5.075a1.291,1.291,0,1,1,0-2.582h5.075a1.291,1.291,0,0,1,0,2.582Zm6.5-14.749h-4.254v6.967a1.57,1.57,0,0,1-1.573,1.568h-6.763a1.57,1.57,0,0,1-1.573-1.568V22.141h-4.254V40.559h18.418V22.141Z" transform="translate(-120.258 -11.42)" fill="#ecba78"/><path d="M160.79,150.786h-5.075a1.291,1.291,0,0,1,0-2.582h5.075a1.291,1.291,0,0,1,0,2.582ZM163.032,143a1.574,1.574,0,0,1-1.573,1.568H154.7A1.574,1.574,0,0,1,153.123,143v-6.967h-4.254v18.418h18.418V136.037h-4.254V143Z" transform="translate(-73.81 -104.317)" fill="#e3a76f"/><path d="M242.894,22.142h4.745v5.953h-4.745Z" transform="translate(-150.499 -11.421)" fill="#fd7a6e"/><path d="M176.332,332.861c-1.108-.664-2.252-1.348-3.376-2.012a9.6,9.6,0,0,0-7.646-.967,6.822,6.822,0,0,0-1.845.983,11.059,11.059,0,0,1-2.1,1.171c-3.747,1.51-7.108.089-8.195-2.153a3.08,3.08,0,0,1,1.375-4.176,48.043,48.043,0,0,0,7.3-5.268,5.705,5.705,0,0,0-5.237.073c-3.387,1.688-6,.909-8.639-.2l-4.85,11.446,1.808.753a.591.591,0,0,0,.058.026,5.2,5.2,0,0,1,2,1.672,4.109,4.109,0,0,1,4.657-.334,4.039,4.039,0,0,1,1.84,2.378,4.1,4.1,0,0,1,2.869.392,3.213,3.213,0,0,1,1.787,1.944,3.344,3.344,0,0,1,.141.444,4.091,4.091,0,0,1,3.068.449,3.975,3.975,0,0,1,1.641,1.84,4.11,4.11,0,0,1,3.622.256,4.062,4.062,0,0,1,1.887,2.514,4.178,4.178,0,0,1,.11.711l1.688,1c.246.141.5.293.742.444.4.235.815.486,1.207.706a1.527,1.527,0,0,0,2.017-.57,1.516,1.516,0,0,0-.523-2.064h-.011l-8.592-5.075a1.293,1.293,0,0,1,1.317-2.226l8.592,5.08a.017.017,0,0,1,.011.005l1.171.7a1.519,1.519,0,0,0,1.139.157,1.5,1.5,0,0,0,.925-.69,1.526,1.526,0,0,0,.162-1.15,1.5,1.5,0,0,0-.69-.92h-.005l-7.672-4.536a1.291,1.291,0,0,1,1.317-2.221l7.667,4.531a1.513,1.513,0,0,0,1.8-2.409c-1.516-.883-3.052-1.8-4.536-2.7Z" transform="translate(-69.116 -254.23)" fill="#fabeaf"/><path d="M89.145,278.362l-2.791-1.207-4.578,10.536a1.293,1.293,0,0,1-1.186.779,1.307,1.307,0,0,1-.517-.1,1.292,1.292,0,0,1-.664-1.7l4.578-10.536-3.026-1.307a.005.005,0,0,1-.005-.005.664.664,0,0,0-.24-.052.409.409,0,0,0-.162.031.15.15,0,0,0-.073.052l-8.127,19.17c-.016.047.063.267.334.387l8.19,3.538a.55.55,0,0,0,.4.031c.037-.021.068-.037.073-.058l1.15-2.707c0-.005,0-.01.005-.01a.027.027,0,0,1,.011-.021l6.961-16.426c.021-.052-.063-.272-.334-.392Z" transform="translate(-11.4 -217.468)" fill="#837683"/><path d="M225.622,320.669a5.747,5.747,0,0,0-7.056,1.27c-.026.026-.052.058-.084.084a51.29,51.29,0,0,1-8.268,6.042c-.465.267-.47.507-.324.81.4.836,2.258,1.949,4.907.883a8.713,8.713,0,0,0,1.631-.925,9.47,9.47,0,0,1,2.5-1.3,12.1,12.1,0,0,1,9.674,1.176.107.107,0,0,0,.042.021c1.134.674,2.289,1.369,3.408,2.038,1.306.784,2.644,1.594,3.977,2.373a.344.344,0,0,1,.068.021l2.88-1.228L234.313,320.4c-2.571,1.087-5.279,1.986-8.691.272Z" transform="translate(-123.512 -254.345)" fill="#ffddcf"/><path d="M271.856,469.941l-1.03-.606-1.542,2.6.983.58a1.487,1.487,0,0,0,1.145.162,1.506,1.506,0,0,0,.93-.7,1.53,1.53,0,0,0-.486-2.038Z" transform="translate(-172.025 -376.164)" fill="#ffddcf"/><path d="M242.448,448.909a1.53,1.53,0,0,0-2.085.538l-.533.9-1.923,3.235a1.5,1.5,0,0,0,.538,2.049,1.525,1.525,0,0,0,2.08-.538l2.446-4.123a1.467,1.467,0,0,0,.167-1.134,1.531,1.531,0,0,0-.69-.925Z" transform="translate(-146.265 -359.334)" fill="#ffddcf"/><path d="M356.428,276.354a.464.464,0,0,0-.5-.042l-2.833,1.118,4.212,10.688a1.3,1.3,0,0,1-.732,1.678,1.232,1.232,0,0,1-.47.089,1.292,1.292,0,0,1-1.2-.815L350.7,278.382l-3.068,1.218a.53.53,0,0,0-.3.272.115.115,0,0,0-.016.084l.983,2.435a1.044,1.044,0,0,1,.068.131,1.076,1.076,0,0,1,.063.183l6.7,16.547a.455.455,0,0,0,.5.042l8.3-3.282a.55.55,0,0,0,.3-.272c.021-.047.021-.078.016-.084l-7.813-19.3Z" transform="translate(-235.66 -218.691)" fill="#a79ba7"/><path d="M213.386,439.567a1.5,1.5,0,0,0-.528-2.054,1.532,1.532,0,0,0-2.085.533l-2.362,3.988-.005.005-.272.465-.042.063a1.487,1.487,0,0,0-.162,1.134,1.469,1.469,0,0,0,.69.92,1.524,1.524,0,0,0,2.085-.533l.664-1.118c0-.005.005-.01.005-.016l.005-.005,1.787-3.021h.005l.063-.11.152-.251Z" transform="translate(-121.943 -350.039)" fill="#ffddcf"/><path d="M184.092,424.554a1.969,1.969,0,0,0,.042-1.505.787.787,0,0,0-.324-.45,1.145,1.145,0,0,1-.246-.11,1.52,1.52,0,0,0-2.075.533l-.005.005-3.319,5.613a1.493,1.493,0,0,0,.523,2.059c.011.005.021.016.031.021a1.419,1.419,0,0,0,1.082.146,1.5,1.5,0,0,0,.962-.7l.794-1.338,2.53-4.27c.005,0,.005-.005.005-.01Z" transform="translate(-97.53 -337.785)" fill="#ffddcf"/><path d="M162.352,409.141a1.512,1.512,0,0,0-.528-2.054,1.529,1.529,0,0,0-2.085.533l-2.336,3.93a1.633,1.633,0,0,0-.12,1.254,1.2,1.2,0,0,0,.57.758c.026.016.052.026.078.042a1.547,1.547,0,0,0,2.085-.533c.026-.042.052-.084.084-.125l2.252-3.8Z" transform="translate(-80.614 -325.221)" fill="#ffddcf"/><g transform="translate(58.374 8.139)"><path d="M185.366,202.028h-5.075a1.291,1.291,0,0,0,0,2.582h5.075a1.291,1.291,0,0,0,0-2.582Z" transform="translate(-156.761 -166.28)" fill="#030403"/><path d="M170.028,31.72v5.953h-4.746V31.72Zm2.582,6.967V31.72h4.254V50.138H158.446V31.72H162.7v6.967a1.574,1.574,0,0,0,1.573,1.568h6.763a1.574,1.574,0,0,0,1.573-1.568Zm-24.663-9.548V10.721H152.2v6.967a1.57,1.57,0,0,0,1.573,1.568h6.763a1.57,1.57,0,0,0,1.573-1.568V10.721h4.254V29.138Zm7.918,21H137.447V31.72H141.7v6.967a1.574,1.574,0,0,0,1.573,1.568h6.763a1.574,1.574,0,0,0,1.573-1.568V31.72h4.254V50.138ZM144.283,31.72h4.746v5.953h-4.746Zm10.5-21h4.745v5.953h-4.745ZM166.85,8.139H147.466a2.1,2.1,0,0,0-2.1,2.1v18.9h-8.4a2.1,2.1,0,0,0-2.1,2.1V50.618a2.1,2.1,0,0,0,2.1,2.1H177.35a2.1,2.1,0,0,0,2.1-2.1V31.234a2.1,2.1,0,0,0-2.1-2.1h-8.4v-18.9a2.1,2.1,0,0,0-2.1-2.1Z" transform="translate(-120.762 -8.139)" fill="#030403"/><path d="M128.566,283.117a.549.549,0,0,1-.3.272l-8.3,3.282a.455.455,0,0,1-.5-.042l-6.7-16.547a1.076,1.076,0,0,0-.063-.183,1.04,1.04,0,0,0-.068-.131l-.983-2.435a.115.115,0,0,1,.016-.084.53.53,0,0,1,.3-.272l3.068-1.218,4.207,10.688a1.292,1.292,0,0,0,1.2.815,1.232,1.232,0,0,0,.47-.089,1.3,1.3,0,0,0,.732-1.678l-4.212-10.688,2.833-1.118a.464.464,0,0,1,.5.042l7.813,19.3c.005.005.005.037-.016.084Zm-15.977,1.766a.33.33,0,0,0-.068-.021c-1.333-.779-2.671-1.589-3.977-2.373-1.118-.669-2.273-1.364-3.408-2.038a.1.1,0,0,1-.042-.021,12.1,12.1,0,0,0-9.674-1.176,9.47,9.47,0,0,0-2.5,1.3,8.718,8.718,0,0,1-1.631.925c-2.65,1.066-4.505-.047-4.907-.883-.146-.3-.141-.544.324-.81a51.269,51.269,0,0,0,8.268-6.042c.031-.026.058-.058.084-.084a5.747,5.747,0,0,1,7.056-1.27c3.413,1.714,6.12.815,8.691-.272l4.667,11.535-2.88,1.228Zm-.559,4.4a1.527,1.527,0,0,1-2.08.533l-7.667-4.531a1.291,1.291,0,0,0-1.317,2.221l7.672,4.536h.005a1.5,1.5,0,0,1,.69.92,1.525,1.525,0,0,1-.162,1.15,1.5,1.5,0,0,1-.925.69,1.519,1.519,0,0,1-1.139-.157l-1.171-.7a.016.016,0,0,0-.011-.005l-8.592-5.08a1.293,1.293,0,0,0-1.317,2.226l8.592,5.075h.011a1.516,1.516,0,0,1,.523,2.064,1.527,1.527,0,0,1-2.017.57c-.392-.22-.8-.47-1.207-.706-.246-.152-.5-.3-.742-.444l-1.688-1a4.173,4.173,0,0,0-.11-.711,4.062,4.062,0,0,0-1.887-2.514,4.11,4.11,0,0,0-3.622-.256,3.975,3.975,0,0,0-1.641-1.84,4.091,4.091,0,0,0-3.068-.45,3.35,3.35,0,0,0-.141-.444,3.213,3.213,0,0,0-1.787-1.944,4.1,4.1,0,0,0-2.869-.392,4.039,4.039,0,0,0-1.84-2.378,4.109,4.109,0,0,0-4.657.334,5.2,5.2,0,0,0-2-1.672.62.62,0,0,1-.058-.026L74,283.6l4.85-11.446c2.639,1.108,5.252,1.887,8.639.2a5.705,5.705,0,0,1,5.237-.073,48.019,48.019,0,0,1-7.3,5.268,3.08,3.08,0,0,0-1.374,4.176c1.087,2.242,4.448,3.664,8.195,2.153a11.08,11.08,0,0,0,2.1-1.171,6.809,6.809,0,0,1,1.845-.983,9.605,9.605,0,0,1,7.646.967c1.124.664,2.268,1.348,3.376,2.012,1.484.9,3.021,1.819,4.536,2.7a1.514,1.514,0,0,1,.277,1.876Zm-11.712,12.606a1.507,1.507,0,0,1-.93.7,1.486,1.486,0,0,1-1.145-.162l-.983-.58,1.542-2.6,1.03.606a1.53,1.53,0,0,1,.486,2.038ZM96.706,297.7l-2.446,4.123a1.525,1.525,0,0,1-2.08.538,1.5,1.5,0,0,1-.538-2.049l1.923-3.235.533-.9a1.514,1.514,0,0,1,2.775.387,1.466,1.466,0,0,1-.167,1.134Zm-5.477-1.746h-.005l-1.787,3.021-.005.005c0,.005-.005.01-.005.016l-.664,1.118a1.524,1.524,0,0,1-2.085.533,1.469,1.469,0,0,1-.69-.92,1.486,1.486,0,0,1,.162-1.134l.042-.063.272-.465.005-.005,2.362-3.988a1.532,1.532,0,0,1,2.085-.533,1.5,1.5,0,0,1,.528,2.054l-.152.251-.063.11Zm-7.2,1.16-.794,1.338a1.5,1.5,0,0,1-.962.7A1.419,1.419,0,0,1,81.189,299c-.011-.005-.021-.016-.031-.021a1.493,1.493,0,0,1-.523-2.059l3.319-5.613.005-.005a1.52,1.52,0,0,1,2.075-.533,1.135,1.135,0,0,0,.246.11.786.786,0,0,1,.324.449,1.969,1.969,0,0,1-.042,1.505c0,.005,0,.01-.005.01l-2.53,4.27Zm-4.542-3.324c-.031.042-.058.084-.084.125a1.547,1.547,0,0,1-2.085.533c-.026-.016-.052-.026-.078-.042a1.2,1.2,0,0,1-.57-.758,1.633,1.633,0,0,1,.12-1.254l2.336-3.93a1.529,1.529,0,0,1,2.085-.533,1.512,1.512,0,0,1,.528,2.054l-2.252,3.8Zm-8.367-10.014a.027.027,0,0,0-.011.021c-.005,0-.005.005-.005.011l-1.15,2.707c-.005.021-.037.037-.073.058a.55.55,0,0,1-.4-.031l-8.19-3.538c-.272-.12-.35-.34-.334-.387l8.127-19.17a.149.149,0,0,1,.073-.052.4.4,0,0,1,.162-.031.668.668,0,0,1,.24.052.005.005,0,0,0,.005.005l3.026,1.307-4.578,10.536a1.292,1.292,0,0,0,.664,1.7,1.308,1.308,0,0,0,.517.1,1.293,1.293,0,0,0,1.186-.779l4.578-10.536,2.791,1.207c.272.12.355.34.334.392l-6.961,16.426Zm52.044-21.015a2.936,2.936,0,0,0-3.847-1.479l-8.3,3.293a3.146,3.146,0,0,0-1.73,1.657,2.683,2.683,0,0,0-.031,2.07l.575,1.422c-2.321.988-4.129,1.578-6.559.361a8.235,8.235,0,0,0-8.461.423,8.257,8.257,0,0,0-8.472-.47c-2.4,1.2-4.223.679-6.481-.267l.6-1.416a2.955,2.955,0,0,0-1.683-3.763l-8.184-3.538A3.143,3.143,0,0,0,68.2,261a2.693,2.693,0,0,0-1.495,1.448l-8.127,19.165a2.954,2.954,0,0,0,1.683,3.763l8.19,3.543a3.279,3.279,0,0,0,1.275.267,3.014,3.014,0,0,0,1.113-.214,2.667,2.667,0,0,0,1.495-1.443l.659-1.552,1.793.747a2.853,2.853,0,0,1,1.411,1.625l-1.62,2.728a4.222,4.222,0,0,0-.381,3.308,3.73,3.73,0,0,0,1.855,2.315,4.155,4.155,0,0,0,1.819.538,4.146,4.146,0,0,0,.1,1.474,4.034,4.034,0,0,0,1.866,2.488,3.913,3.913,0,0,0,2.07.58,3.864,3.864,0,0,0,.972-.12,4.29,4.29,0,0,0,.972-.371,4.05,4.05,0,0,0,3.59,2.153,4.13,4.13,0,0,0,1.9-.46,4.045,4.045,0,0,0,3.6,2.169,4.131,4.131,0,0,0,2.88-1.165l1.113.653a4,4,0,0,0,2.07.57,4.122,4.122,0,0,0,3.533-2.007,3.953,3.953,0,0,0,.549-1.725,4.151,4.151,0,0,0,4.286-1.934,4.06,4.06,0,0,0,.565-2.117,4.014,4.014,0,0,0,.962-.131,4.076,4.076,0,0,0,2.969-4.855,4.077,4.077,0,0,0,2.613-5.556l1.965-.836.622,1.547a2.816,2.816,0,0,0,2.66,1.7,3.188,3.188,0,0,0,1.192-.225l8.294-3.287a3.1,3.1,0,0,0,1.73-1.662,2.637,2.637,0,0,0,.031-2.07l-7.808-19.29Z" transform="translate(-58.374 -214.208)" fill="#030403"/><path d="M294.188,204.61h5.075a1.291,1.291,0,0,0,0-2.582h-5.075a1.291,1.291,0,0,0,0,2.582Z" transform="translate(-249.657 -166.28)" fill="#030403"/><path d="M242.315,88.132H237.24a1.291,1.291,0,1,0,0,2.582h5.075a1.291,1.291,0,0,0,0-2.582Z" transform="translate(-203.209 -73.383)" fill="#030403"/></g></g></svg>