<svg xmlns="http://www.w3.org/2000/svg" width="72.793" height="91" viewBox="0 0 72.793 91"><g transform="translate(-58.374 -8.139)"><path fill="#ffe177" d="M102.894 31.72h4.746v5.953h-4.746Z"/><path fill="#c48958" d="M102.905 43.883h5.075a1.291 1.291 0 0 1 0 2.582h-5.075a1.291 1.291 0 0 1 0-2.582m-2.592-5.2v-6.967h-4.254v18.418h18.418V31.72h-4.254v6.963a1.574 1.574 0 0 1-1.573 1.568h-6.763a1.574 1.574 0 0 1-1.575-1.568Z"/><path fill="#00e499" d="M81.895 31.72h4.746v5.953h-4.746Z"/><path fill="#ecba78" d="M97.479 25.47h-5.075a1.291 1.291 0 1 1 0-2.582h5.075a1.291 1.291 0 0 1 0 2.582m6.5-14.749h-4.254v6.967a1.57 1.57 0 0 1-1.573 1.568h-6.763a1.57 1.57 0 0 1-1.573-1.568v-6.967h-4.254v18.418h18.418z"/><path fill="#e3a76f" d="M86.98 46.469h-5.075a1.291 1.291 0 0 1 0-2.582h5.075a1.291 1.291 0 0 1 0 2.582m2.242-7.786a1.574 1.574 0 0 1-1.573 1.568H80.89a1.574 1.574 0 0 1-1.577-1.568v-6.967h-4.254v18.418h18.418V31.72h-4.254v6.963Z"/><path fill="#fd7a6e" d="M92.395 10.721h4.745v5.953h-4.745Z"/><path fill="#fabeaf" d="M107.216 78.631a629 629 0 0 0-3.376-2.012 9.6 9.6 0 0 0-7.646-.967 6.8 6.8 0 0 0-1.845.983 11 11 0 0 1-2.1 1.171c-3.747 1.51-7.108.089-8.195-2.153a3.08 3.08 0 0 1 1.375-4.176 48 48 0 0 0 7.3-5.268 5.7 5.7 0 0 0-5.237.073c-3.387 1.688-6 .909-8.639-.2l-4.85 11.446 1.808.753.058.026a5.2 5.2 0 0 1 2 1.672 4.11 4.11 0 0 1 4.657-.334 4.04 4.04 0 0 1 1.84 2.378 4.1 4.1 0 0 1 2.869.392 3.2 3.2 0 0 1 1.787 1.944 3 3 0 0 1 .141.444 4.1 4.1 0 0 1 3.068.449 3.98 3.98 0 0 1 1.641 1.84 4.11 4.11 0 0 1 3.622.256 4.06 4.06 0 0 1 1.887 2.514 4 4 0 0 1 .11.711l1.688 1c.246.141.5.293.742.444.4.235.815.486 1.207.706a1.527 1.527 0 0 0 2.017-.57 1.516 1.516 0 0 0-.523-2.064h-.011l-8.592-5.075a1.293 1.293 0 0 1 1.317-2.226l8.592 5.08.011.005 1.171.7a1.52 1.52 0 0 0 1.139.157 1.5 1.5 0 0 0 .925-.69 1.53 1.53 0 0 0 .162-1.15 1.5 1.5 0 0 0-.69-.92h-.005l-7.672-4.536a1.291 1.291 0 0 1 1.317-2.221l7.667 4.531a1.513 1.513 0 0 0 1.8-2.409c-1.516-.883-3.052-1.8-4.536-2.7Z"/><path fill="#837683" d="m77.745 60.894-2.791-1.207-4.578 10.536a1.29 1.29 0 0 1-1.186.779 1.3 1.3 0 0 1-.517-.1 1.29 1.29 0 0 1-.664-1.7l4.578-10.536-3.026-1.307-.005-.005a.7.7 0 0 0-.24-.052.4.4 0 0 0-.162.031.15.15 0 0 0-.073.052l-8.127 19.17c-.016.047.063.267.334.387l8.19 3.538a.55.55 0 0 0 .4.031c.037-.021.068-.037.073-.058l1.15-2.707q-.001-.009.005-.01a.03.03 0 0 1 .011-.021l6.961-16.426c.021-.052-.063-.272-.334-.392Z"/><path fill="#ffddcf" d="M102.11 66.324a5.75 5.75 0 0 0-7.056 1.27c-.026.026-.052.058-.084.084a51.3 51.3 0 0 1-8.268 6.042c-.465.267-.47.507-.324.81.4.836 2.258 1.949 4.907.883a8.7 8.7 0 0 0 1.631-.925 9.5 9.5 0 0 1 2.5-1.3 12.1 12.1 0 0 1 9.674 1.176.1.1 0 0 0 .042.021c1.134.674 2.289 1.369 3.408 2.038 1.306.784 2.644 1.594 3.977 2.373a.3.3 0 0 1 .068.021l2.88-1.228-4.664-11.534c-2.571 1.087-5.279 1.986-8.691.272Zm-2.279 27.453-1.03-.606-1.542 2.6.983.58a1.5 1.5 0 0 0 1.145.162 1.5 1.5 0 0 0 .93-.7 1.53 1.53 0 0 0-.486-2.038Zm-3.648-4.202a1.53 1.53 0 0 0-2.085.538l-.533.9-1.923 3.235a1.5 1.5 0 0 0 .538 2.049 1.525 1.525 0 0 0 2.08-.538l2.446-4.123a1.47 1.47 0 0 0 .167-1.134 1.53 1.53 0 0 0-.69-.925Z"/><path fill="#a79ba7" d="M120.768 57.663a.46.46 0 0 0-.5-.042l-2.833 1.118 4.212 10.688a1.3 1.3 0 0 1-.732 1.678 1.2 1.2 0 0 1-.47.089 1.29 1.29 0 0 1-1.2-.815l-4.205-10.688-3.068 1.218a.53.53 0 0 0-.3.272.12.12 0 0 0-.016.084l.983 2.435a1 1 0 0 1 .068.131 1 1 0 0 1 .063.183l6.7 16.547a.46.46 0 0 0 .5.042l8.3-3.282a.55.55 0 0 0 .3-.272c.021-.047.021-.078.016-.084l-7.813-19.3Z"/><path fill="#ffddcf" d="M91.443 89.528a1.5 1.5 0 0 0-.528-2.054 1.53 1.53 0 0 0-2.085.533l-2.362 3.988-.005.005-.272.465-.042.063a1.5 1.5 0 0 0-.162 1.134 1.47 1.47 0 0 0 .69.92 1.524 1.524 0 0 0 2.085-.533l.664-1.118c0-.005.005-.01.005-.016l.005-.005 1.787-3.021h.005l.063-.11zm-4.881-2.759a1.97 1.97 0 0 0 .042-1.505.8.8 0 0 0-.324-.45 1.2 1.2 0 0 1-.246-.11 1.52 1.52 0 0 0-2.075.533l-.005.005-3.319 5.613a1.493 1.493 0 0 0 .523 2.059c.011.005.021.016.031.021a1.42 1.42 0 0 0 1.082.146 1.5 1.5 0 0 0 .962-.7l.794-1.338 2.53-4.27q.006-.001.005-.01Zm-4.824-2.849a1.51 1.51 0 0 0-.528-2.054 1.53 1.53 0 0 0-2.085.533l-2.336 3.93a1.63 1.63 0 0 0-.12 1.254 1.2 1.2 0 0 0 .57.758c.026.016.052.026.078.042a1.547 1.547 0 0 0 2.085-.533q.037-.063.084-.125l2.252-3.8Z"/><g fill="#030403" transform="translate(58.374 8.139)"><path d="M28.605 35.748H23.53a1.291 1.291 0 0 0 0 2.582h5.075a1.291 1.291 0 0 0 0-2.582"/><path d="M49.266 23.581v5.953H44.52v-5.953Zm2.582 6.967v-6.967h4.254v18.418H37.684V23.581h4.254v6.967a1.574 1.574 0 0 0 1.573 1.568h6.763a1.574 1.574 0 0 0 1.573-1.568ZM27.185 21V2.582h4.253v6.967a1.57 1.57 0 0 0 1.573 1.568h6.763a1.57 1.57 0 0 0 1.573-1.568V2.582h4.254v18.417Zm7.918 21H16.685V23.581h4.253v6.967a1.574 1.574 0 0 0 1.573 1.568h6.763a1.574 1.574 0 0 0 1.573-1.568v-6.967h4.254v18.418ZM23.521 23.581h4.746v5.953h-4.746Zm10.5-21h4.745v5.953h-4.745ZM46.088 0H26.704a2.1 2.1 0 0 0-2.1 2.1V21h-8.4a2.1 2.1 0 0 0-2.1 2.1v19.379a2.1 2.1 0 0 0 2.1 2.1h40.384a2.1 2.1 0 0 0 2.1-2.1V23.095a2.1 2.1 0 0 0-2.1-2.1h-8.4v-18.9a2.1 2.1 0 0 0-2.1-2.1Zm24.104 68.909a.55.55 0 0 1-.3.272l-8.3 3.282a.46.46 0 0 1-.5-.042l-6.7-16.547a1 1 0 0 0-.063-.183 1 1 0 0 0-.068-.131l-.983-2.435a.12.12 0 0 1 .016-.084.53.53 0 0 1 .3-.272l3.068-1.218 4.207 10.688a1.29 1.29 0 0 0 1.2.815 1.2 1.2 0 0 0 .47-.089 1.3 1.3 0 0 0 .732-1.678l-4.212-10.688 2.833-1.118a.46.46 0 0 1 .5.042l7.813 19.3c.005.005.005.037-.016.084Zm-15.977 1.766a.3.3 0 0 0-.068-.021c-1.333-.779-2.671-1.589-3.977-2.373-1.118-.669-2.273-1.364-3.408-2.038a.1.1 0 0 1-.042-.021 12.1 12.1 0 0 0-9.674-1.176 9.5 9.5 0 0 0-2.5 1.3 8.7 8.7 0 0 1-1.631.925c-2.65 1.066-4.505-.047-4.907-.883-.146-.3-.141-.544.324-.81a51.3 51.3 0 0 0 8.268-6.042c.031-.026.058-.058.084-.084a5.75 5.75 0 0 1 7.056-1.27c3.413 1.714 6.12.815 8.691-.272l4.667 11.535-2.88 1.228Zm-.559 4.4a1.527 1.527 0 0 1-2.08.533l-7.667-4.531a1.291 1.291 0 0 0-1.317 2.221l7.672 4.536h.005a1.5 1.5 0 0 1 .69.92 1.53 1.53 0 0 1-.162 1.15 1.5 1.5 0 0 1-.925.69 1.52 1.52 0 0 1-1.139-.157l-1.171-.7-.011-.005-8.592-5.08a1.293 1.293 0 0 0-1.317 2.226l8.592 5.075h.011a1.516 1.516 0 0 1 .523 2.064 1.527 1.527 0 0 1-2.017.57c-.392-.22-.8-.47-1.207-.706-.246-.152-.5-.3-.742-.444l-1.688-1a4 4 0 0 0-.11-.711 4.06 4.06 0 0 0-1.887-2.514 4.11 4.11 0 0 0-3.622-.256 3.98 3.98 0 0 0-1.641-1.84 4.1 4.1 0 0 0-3.068-.45 3 3 0 0 0-.141-.444 3.2 3.2 0 0 0-1.787-1.944 4.1 4.1 0 0 0-2.869-.392 4.04 4.04 0 0 0-1.84-2.378 4.11 4.11 0 0 0-4.657.334 5.2 5.2 0 0 0-2-1.672l-.058-.026-1.808-.752 4.85-11.446c2.639 1.108 5.252 1.887 8.639.2a5.7 5.7 0 0 1 5.237-.073 48 48 0 0 1-7.3 5.268 3.08 3.08 0 0 0-1.374 4.176c1.087 2.242 4.448 3.664 8.195 2.153a11 11 0 0 0 2.1-1.171 6.8 6.8 0 0 1 1.845-.983 9.6 9.6 0 0 1 7.646.967 629 629 0 0 1 3.376 2.012c1.484.9 3.021 1.819 4.536 2.7a1.514 1.514 0 0 1 .277 1.876ZM41.944 87.681a1.5 1.5 0 0 1-.93.7 1.5 1.5 0 0 1-1.145-.162l-.983-.58 1.542-2.6 1.03.606a1.53 1.53 0 0 1 .486 2.038Zm-3.612-4.189-2.446 4.123a1.525 1.525 0 0 1-2.08.538 1.5 1.5 0 0 1-.538-2.049l1.923-3.235.533-.9a1.514 1.514 0 0 1 2.775.387 1.47 1.47 0 0 1-.167 1.134Zm-5.477-1.746h-.005l-1.787 3.021-.005.005c0 .005-.005.01-.005.016l-.664 1.118a1.524 1.524 0 0 1-2.085.533 1.47 1.47 0 0 1-.69-.92 1.5 1.5 0 0 1 .162-1.134l.042-.063.272-.465.005-.005 2.362-3.988a1.53 1.53 0 0 1 2.085-.533 1.5 1.5 0 0 1 .528 2.054l-.152.251zm-7.2 1.16-.794 1.338a1.5 1.5 0 0 1-.962.7 1.42 1.42 0 0 1-1.084-.152c-.011-.005-.021-.016-.031-.021a1.493 1.493 0 0 1-.523-2.059l3.319-5.613.005-.005a1.52 1.52 0 0 1 2.075-.533 1 1 0 0 0 .246.11.8.8 0 0 1 .324.449 1.97 1.97 0 0 1-.042 1.505q.001.009-.005.01l-2.53 4.27Zm-4.542-3.324a2 2 0 0 0-.084.125 1.547 1.547 0 0 1-2.085.533c-.026-.016-.052-.026-.078-.042a1.2 1.2 0 0 1-.57-.758 1.63 1.63 0 0 1 .12-1.254l2.336-3.93a1.53 1.53 0 0 1 2.085-.533 1.51 1.51 0 0 1 .528 2.054l-2.252 3.8Zm-8.367-10.014a.03.03 0 0 0-.011.021q-.006.001-.005.011l-1.15 2.707c-.005.021-.037.037-.073.058a.55.55 0 0 1-.4-.031l-8.19-3.538c-.272-.12-.35-.34-.334-.387l8.127-19.17a.15.15 0 0 1 .073-.052.4.4 0 0 1 .162-.031.7.7 0 0 1 .24.052l.005.005 3.026 1.307-4.578 10.536a1.29 1.29 0 0 0 .664 1.7 1.3 1.3 0 0 0 .517.1 1.29 1.29 0 0 0 1.186-.779l4.578-10.536 2.791 1.207c.272.12.355.34.334.392l-6.961 16.426ZM64.79 48.553a2.936 2.936 0 0 0-3.847-1.479l-8.3 3.293a3.15 3.15 0 0 0-1.73 1.657 2.68 2.68 0 0 0-.031 2.07l.575 1.422c-2.321.988-4.129 1.578-6.559.361a8.24 8.24 0 0 0-8.461.423 8.26 8.26 0 0 0-8.472-.47c-2.4 1.2-4.223.679-6.481-.267l.6-1.416a2.955 2.955 0 0 0-1.683-3.763l-8.184-3.538a3.14 3.14 0 0 0-2.391-.054 2.7 2.7 0 0 0-1.495 1.448L.204 67.405a2.954 2.954 0 0 0 1.683 3.763l8.19 3.543a3.3 3.3 0 0 0 1.275.267 3 3 0 0 0 1.113-.214 2.67 2.67 0 0 0 1.495-1.443l.659-1.552 1.793.747a2.85 2.85 0 0 1 1.411 1.625l-1.62 2.728a4.22 4.22 0 0 0-.381 3.308 3.73 3.73 0 0 0 1.855 2.315 4.16 4.16 0 0 0 1.819.538 4.2 4.2 0 0 0 .1 1.474 4.03 4.03 0 0 0 1.866 2.488 3.9 3.9 0 0 0 2.07.58 4 4 0 0 0 .972-.12 4.3 4.3 0 0 0 .972-.371 4.05 4.05 0 0 0 3.59 2.153 4.1 4.1 0 0 0 1.9-.46 4.05 4.05 0 0 0 3.6 2.169 4.13 4.13 0 0 0 2.88-1.165l1.113.653a4 4 0 0 0 2.07.57 4.12 4.12 0 0 0 3.533-2.007 3.95 3.95 0 0 0 .549-1.725 4.15 4.15 0 0 0 4.286-1.934 4.06 4.06 0 0 0 .565-2.117 4 4 0 0 0 .962-.131 4.076 4.076 0 0 0 2.969-4.855 4.077 4.077 0 0 0 2.613-5.556l1.965-.836.622 1.547a2.82 2.82 0 0 0 2.66 1.7 3.2 3.2 0 0 0 1.192-.225l8.294-3.287a3.1 3.1 0 0 0 1.73-1.662 2.64 2.64 0 0 0 .031-2.07l-7.808-19.29Z"/><path d="M44.531 38.33h5.075a1.291 1.291 0 0 0 0-2.582h-5.075a1.291 1.291 0 0 0 0 2.582m-5.425-23.581h-5.075a1.291 1.291 0 1 0 0 2.582h5.075a1.291 1.291 0 0 0 0-2.582"/></g></g></svg>