<svg xmlns="http://www.w3.org/2000/svg" width="121" height="121" viewBox="0 0 121 121"><g transform="translate(-1129.051 -2514)"><g transform="translate(1143.476 2529.446)"><g transform="translate(3.838 73.853)"><path fill="#b9dd53" d="M40.073 13.339H0a7.314 7.314 0 0 1 13.339-4.147h.1a2.6 2.6 0 0 1 2.116-1.107 2.54 2.54 0 0 1 1.443.434 6.6 6.6 0 0 1-.14-1.415A7.107 7.107 0 0 1 30.87 5.423c.813-1.289 2.06-2.746 3.307-2.13.645.308.322 1.6-.2 2.872a2.64 2.64 0 0 1 2.633 2.634v.448a4.145 4.145 0 0 1 3.463 4.092"/><path fill="#b9dd53" d="M40.073 13.339H0a7.3 7.3 0 0 1 7.31-7.314 7.25 7.25 0 0 1 6.011 3.167h.1a2.6 2.6 0 0 1 2.13-1.093 2.53 2.53 0 0 1 1.457.448 6.6 6.6 0 0 1-.154-1.415 7.107 7.107 0 0 1 14.012-1.681c.813-1.289 2.06-2.746 3.307-2.13.645.308.322 1.6-.21 2.872a2.62 2.62 0 0 1 2.62 2.634v.448a3.3 3.3 0 0 1 .532.126 4.08 4.08 0 0 1 2.958 3.938"/><path fill="#a3c134" d="M40.073 13.344H0a7.3 7.3 0 0 1 .518-2.718l.224-.112s22.839 1.065 36.4-1.135a4.15 4.15 0 0 1 2.931 3.965"/><path fill="#050505" d="M30.377 6.95a.7.7 0 0 1-.322-.084.676.676 0 0 1-.28-.911q.21-.4.5-.883a.683.683 0 1 1 1.163.715c-.182.28-.336.56-.462.8a.68.68 0 0 1-.6.364Zm2.97 1.079a.73.73 0 0 1-.406-.126.675.675 0 0 1-.14-.953 2.7 2.7 0 0 0 .518-.967.675.675 0 0 1 1.3.35 4 4 0 0 1-.743 1.415.61.61 0 0 1-.529.281"/></g><path d="M43.911 87.865H3.838a.673.673 0 0 1-.673-.673 8.3 8.3 0 0 1 .56-2.971 8 8 0 0 1 13.535-2.172 3.38 3.38 0 0 1 2.76-.729c0-.112-.014-.238-.014-.364a7.79 7.79 0 0 1 14.909-3.151c1.415-1.7 2.592-1.653 3.391-1.275 1.051.518.771 1.934.434 2.942a3.31 3.31 0 0 1 2.368 3.083c.014 0 .042.014.056.014a4.78 4.78 0 0 1 3.419 4.61.676.676 0 0 1-.673.687ZM4.555 86.506h38.613a3.45 3.45 0 0 0-2.4-2.634c-.154-.042-.294-.084-.434-.112a.68.68 0 0 1-.574-.673v-.448a1.955 1.955 0 0 0-1.948-1.962.68.68 0 0 1-.56-.294.63.63 0 0 1-.056-.631c.56-1.359.532-1.934.476-2.046-.827-.378-1.948 1.219-2.4 1.934a.7.7 0 0 1-.687.308.67.67 0 0 1-.546-.518 6.432 6.432 0 0 0-12.68 1.527 6 6 0 0 0 .126 1.275.69.69 0 0 1-.28.715.68.68 0 0 1-.757 0 1.96 1.96 0 0 0-2.634.49.68.68 0 0 1-.56.294h-.1a.68.68 0 0 1-.56-.294 6.625 6.625 0 0 0-11.616 1.3 6 6 0 0 0-.423 1.769"/><g transform="translate(1.575 2.554)"><g transform="translate(.68)"><g transform="translate(25.529 .681)"><path fill="#f1f3f6" d="M35.632 4.946 30.966 0 17.823 9.808l6.557 6.684Z"/><path fill="#d5dce5" d="m17.823 9.808 6.557 6.684L35.646 4.947l-1.429-1.5-5.563 5.717a6 6 0 0 1-8.561.014l-.588-.617Z"/><path fill="#f1f3f6" d="M.014 4.946 4.68 0l13.144 9.808-6.557 6.684Z"/><path fill="#d5dce5" d="m17.82 9.808-6.557 6.684L0 4.947l1.429-1.5 5.563 5.717a6 6 0 0 0 8.561.014l.588-.6Z"/></g><path fill="#ffca6b" d="m68.572 40.657 2.2 43.982H15.917l2.214-43.982L0 29.04l14.572-17.7a14.04 14.04 0 0 1 7.076-4.61l3.909-1.093 11.265 11.55 6.529-6.7 6.557 6.684L61.174 5.627l3.909 1.093a14.13 14.13 0 0 1 7.076 4.61l14.572 17.7Z"/><path fill="#f9b84e" d="M70.786 84.639H15.917s52.936-3.265 52.95-38.294Z"/><path fill="#f1f3f6" d="m16.239 78.319-.322 6.319h54.869l-.322-6.319Z"/><path fill="#f9b84e" d="m68.572 40.656-.448-10.649 4.806 7.86Zm-50.441 0 .452-10.649-4.81 7.86Z"/><path d="M36.794 17.86a.72.72 0 0 1-.476-.2.68.68 0 0 1-.014-.953l6.557-6.684a.685.685 0 0 1 .967 0l6.557 6.684a.674.674 0 1 1-.967.939l-6.067-6.186-6.071 6.189a.68.68 0 0 1-.486.211"/><g transform="translate(24.834)"><path d="M25.075 17.859a.68.68 0 0 1-.49-.21l-6.557-6.684a.7.7 0 0 1-.2-.532.67.67 0 0 1 .266-.49L31.241.135a.67.67 0 0 1 .9.084l4.666 4.946a.664.664 0 0 1-.014.939L25.521 17.646a.57.57 0 0 1-.448.21Zm-5.534-7.286 5.52 5.633L35.388 5.627l-3.811-4.035Z"/><path d="M11.96 17.859a.66.66 0 0 1-.49-.21l-5.268-5.408a.674.674 0 1 1 .967-.939l4.792 4.9 5.521-5.633L5.431 1.592 1.616 5.627 4.6 8.696a.674.674 0 1 1-.967.939L.191 6.104a.69.69 0 0 1-.014-.939L4.843.219a.685.685 0 0 1 .9-.084l13.143 9.808a.67.67 0 0 1 .266.49.7.7 0 0 1-.2.532l-6.557 6.683a.5.5 0 0 1-.434.21Z"/></g><path d="M68.572 41.342a.667.667 0 0 1-.673-.645l-.448-10.649a.674.674 0 0 1 .645-.7.7.7 0 0 1 .7.645l.448 10.649a.674.674 0 0 1-.645.7Zm-50.441.001h-.028a.673.673 0 0 1-.645-.7l.448-10.649a.676.676 0 0 1 .673-.645h.028a.673.673 0 0 1 .645.7l-.448 10.649a.687.687 0 0 1-.673.645"/></g><path fill="#fff" d="M16.012 19.316a.7.7 0 0 1-.438-.15.67.67 0 0 1-.1-.953l1.2-1.471a.677.677 0 0 1 1.051.855l-1.2 1.471a.64.64 0 0 1-.513.248m-6.056 7.356a.7.7 0 0 1-.434-.154.67.67 0 0 1-.1-.953l4.2-5.1a.677.677 0 1 1 1.051.855l-4.2 5.1a.66.66 0 0 1-.517.252"/><path d="M71.466 85.311H16.597a.66.66 0 0 1-.49-.21.68.68 0 0 1-.182-.5l2.186-43.59L.315 29.601a.66.66 0 0 1-.308-.462.7.7 0 0 1 .14-.532l14.572-17.7a14.7 14.7 0 0 1 7.412-4.834L26.04 4.98a.68.68 0 0 1 .673.182L37.488 16.22l6.067-6.193a.685.685 0 0 1 .967 0l6.067 6.193L61.364 5.165a.66.66 0 0 1 .673-.182l3.908 1.093a14.7 14.7 0 0 1 7.412 4.834l14.568 17.696a.63.63 0 0 1 .14.532.63.63 0 0 1-.308.462l-17.79 11.406 2.186 43.59a.68.68 0 0 1-.182.5.7.7 0 0 1-.505.215m-54.155-1.359h53.44L68.58 40.698a.69.69 0 0 1 .308-.6l17.486-11.212-14.067-17.108a13.3 13.3 0 0 0-6.726-4.386l-3.517-.995-10.985 11.252a.7.7 0 0 1-.49.21.73.73 0 0 1-.49-.2l-6.067-6.207-6.067 6.193a.7.7 0 0 1-.49.21.68.68 0 0 1-.49-.21L25.998 6.398l-3.517.981a13.4 13.4 0 0 0-6.74 4.386L1.674 28.886l17.487 11.21a.66.66 0 0 1 .308.6Z"/><path d="M71.465 85.31H16.596a.66.66 0 0 1-.49-.21.68.68 0 0 1-.182-.5l.322-6.319a.676.676 0 0 1 .673-.645h54.224a.667.667 0 0 1 .673.645l.322 6.319a.68.68 0 0 1-.182.5.66.66 0 0 1-.49.21Zm-54.154-1.359h53.44l-.252-4.96H17.563Z"/><g transform="translate(23.673 30.399)"><circle cx="19.42" cy="19.42" r="19.42" fill="#6bbeeb" transform="translate(.673 .687)"/><path fill="#2e87af" d="M39.513 20.107a19.42 19.42 0 0 1-19.424 19.42 20 20 0 0 1-2.074-.112 19.419 19.419 0 0 0 0-38.616 20 20 0 0 1 2.074-.112 19.43 19.43 0 0 1 19.424 19.42"/><path fill="#b9dd53" d="M14.488 15.638c.028.9-.757 1.429-1.457 1.85l-2.27 1.387c-.056.028-.112.07-.182.1a1.979 1.979 0 0 1-2.97-1.822v-.028a2.95 2.95 0 0 1 1.065-1.864 5.9 5.9 0 0 1 1.948-1.009 3.6 3.6 0 0 1 3.012.028 1.68 1.68 0 0 1 .854 1.358"/><path fill="#fff" d="M27.659 2.213a11 11 0 0 0-2.2 1.317c-1.023.785-1.92 1.737-2.984 2.48a4.8 4.8 0 0 1-3.643.967c-1.177-.266-2.2-1.177-3.391-1.135a9 9 0 0 0-2.368.757c-.8.252-1.85.168-2.214-.588a2.23 2.23 0 0 1 .112-1.639c.182-.56.378-1.121.56-1.681a19.53 19.53 0 0 1 16.127-.476Z"/><path fill="#c6d0e0" d="M27.659 2.213a10.2 10.2 0 0 0-1.934 1.121A19.3 19.3 0 0 0 18.033.812 20 20 0 0 1 20.093.7a19.2 19.2 0 0 1 7.566 1.513"/><path fill="#fff" d="M39.256 23.217a19.43 19.43 0 0 1-4.946 10.116 7.5 7.5 0 0 0-2.368-1.065 5.7 5.7 0 0 1-1.051-.322 1.27 1.27 0 0 1-.729-.771 1.36 1.36 0 0 1 .518-1.331 8.6 8.6 0 0 1 1.289-.785 1.97 1.97 0 0 0 .987-1.092 3.1 3.1 0 0 0-.392-1.836 1.57 1.57 0 0 1 .168-1.779 1.93 1.93 0 0 1 1.317-.224 11.66 11.66 0 0 0 5.207-.911"/><path fill="#c6d0e0" d="M39.261 23.217a19.43 19.43 0 0 1-4.946 10.116 7.5 7.5 0 0 0-2.368-1.065 13 13 0 0 1-.7-.182 19.2 19.2 0 0 0 3.7-7.931 12.1 12.1 0 0 0 4.316-.939Z"/><path fill="#b9dd53" d="M37.93 12.442c-.659 1.359-1.317 2.7-1.976 4.063-.7 1.443-1.569 3.349-3.041 3.979-1.3.56-2.76-.056-4.147.2a13.3 13.3 0 0 0-3.124 1.226 7 7 0 0 1-3.237.855 2.79 2.79 0 0 1-2.592-1.821c-.35-1.3.939-2.76.392-3.979-.322-.743-1.527-1.3-1.457-2.116a2.1 2.1 0 0 1 .883-1.261 44 44 0 0 1 6.053-3.867 28 28 0 0 0 6.726-4.624 19.4 19.4 0 0 1 5.521 7.342Z"/><path fill="#83960f" d="M37.929 12.442c-.659 1.359-1.317 2.7-1.976 4.063-.224.448-.448.953-.715 1.429a19.33 19.33 0 0 0-4.987-10.942 15.3 15.3 0 0 0 2.172-1.864 19.2 19.2 0 0 1 5.507 7.314Z"/><path fill="#b9dd53" d="M10.621 30.573a12.6 12.6 0 0 1-1.471 3.223 11.6 11.6 0 0 0-.827 1.737A19.38 19.38 0 0 1 .715 21.255c.224-.014.434-.014.659-.028a2.41 2.41 0 0 1 2.242.967c.364.673.126 1.527.35 2.256.336 1.065 1.569 1.555 2.676 1.765a6.05 6.05 0 0 1 3.153 1.051 3.5 3.5 0 0 1 .826 3.307"/><path fill="#fff" d="M31.288 35.968a19.4 19.4 0 0 1-11.2 3.545 19.7 19.7 0 0 1-6.88-1.247 12.6 12.6 0 0 1 1.639-1.359 6 6 0 0 1 3.915-1.148 15.4 15.4 0 0 1 2.48.645 9.74 9.74 0 0 0 4.876.042 17 17 0 0 1 3.295-.787 5.3 5.3 0 0 1 1.878.308Z"/><path fill="#c6d0e0" d="M31.285 35.982a19.4 19.4 0 0 1-11.2 3.545 21 21 0 0 1-2.088-.112 19.3 19.3 0 0 0 8.631-3.1 11.2 11.2 0 0 1 2.774-.631 4.8 4.8 0 0 1 1.878.294Z"/><path d="M20.093 40.199a20.093 20.093 0 1 1 20.092-20.092 20.11 20.11 0 0 1-20.092 20.092m0-38.84A18.733 18.733 0 1 0 38.83 20.093 18.76 18.76 0 0 0 20.093 1.359"/><path d="M8.322 36.219a.62.62 0 0 1-.406-.14A20.1 20.1 0 0 1 .041 21.311a.666.666 0 0 1 .631-.715.674.674 0 0 1 .715.631 18.73 18.73 0 0 0 6.654 13.227c.168-.35.35-.687.518-.981l.21-.364a9.8 9.8 0 0 0 1.191-2.676 2.8 2.8 0 0 0-.617-2.648 4.54 4.54 0 0 0-2.3-.8l-.518-.084c-1.723-.322-2.83-1.079-3.195-2.228a4.6 4.6 0 0 1-.154-1.191 2.3 2.3 0 0 0-.154-.953 1 1 0 0 0-.112-.168.674.674 0 0 1 .981-.925 2 2 0 0 1 .322.448 3.3 3.3 0 0 1 .308 1.541 3 3 0 0 0 .1.827c.266.841 1.471 1.177 2.158 1.3.168.028.336.056.49.084a5.64 5.64 0 0 1 2.984 1.121 4.11 4.11 0 0 1 1.037 3.951 11.5 11.5 0 0 1-1.345 3.055l-.2.35a13 13 0 0 0-.785 1.639.64.64 0 0 1-.448.42.6.6 0 0 1-.19.047m15.455 1.193a10.4 10.4 0 0 1-2.7-.35c-.266-.07-.532-.154-.785-.238a8.7 8.7 0 0 0-1.583-.392 5.2 5.2 0 0 0-3.125.813.673.673 0 1 1-.7-1.149 6.38 6.38 0 0 1 3.975-1.009 9.7 9.7 0 0 1 1.85.448c.252.07.49.154.743.224a9.2 9.2 0 0 0 4.54.042.68.68 0 0 1 .336 1.317 11.5 11.5 0 0 1-2.55.294ZM19.546 7.734a3.8 3.8 0 0 1-.883-.1 7.5 7.5 0 0 1-1.541-.588 4 4 0 0 0-1.681-.532 3.7 3.7 0 0 0-1.331.406c-.28.112-.56.238-.841.322a2.46 2.46 0 0 1-3.026-.939 1.8 1.8 0 0 1-.182-.827.676.676 0 0 1 .673-.687.656.656 0 0 1 .687.659.5.5 0 0 0 .056.252c.168.35.855.406 1.387.238.238-.084.49-.182.729-.28a4.9 4.9 0 0 1 1.821-.5 4.95 4.95 0 0 1 2.312.659 5.6 5.6 0 0 0 1.247.49 4.16 4.16 0 0 0 3.111-.869 17 17 0 0 0 1.6-1.317c.434-.378.883-.785 1.359-1.149.308-.238.645-.462.967-.673a18.8 18.8 0 0 0-5.927-.953.673.673 0 1 1 0-1.345 20.1 20.1 0 0 1 7.827 1.582.677.677 0 0 1 .014 1.247 10.4 10.4 0 0 0-2.074 1.233c-.434.336-.841.7-1.275 1.079a17 17 0 0 1-1.737 1.415 5.9 5.9 0 0 1-3.292 1.177m11.125 22.783a.64.64 0 0 1-.5-.238.67.67 0 0 1 .07-.953 5.3 5.3 0 0 1 1.009-.645l.378-.21a1.45 1.45 0 0 0 .673-.687 2.03 2.03 0 0 0-.252-1.121l-.112-.294a2.13 2.13 0 0 1 .378-2.55 2.4 2.4 0 0 1 1.765-.364 10.2 10.2 0 0 0 2.522-.154.676.676 0 1 1 .238 1.331 12 12 0 0 1-2.816.168 1.55 1.55 0 0 0-.855.07c-.154.126-.14.546.042.995l.112.266a3.04 3.04 0 0 1 .308 1.99 2.53 2.53 0 0 1-1.289 1.5c-.14.084-.294.168-.434.238a4.4 4.4 0 0 0-.757.476.8.8 0 0 1-.48.182m-8.057-7.061h-.238a3.43 3.43 0 0 1-3.209-2.326 3.97 3.97 0 0 1 .252-2.3 2.48 2.48 0 0 0 .182-1.6 3 3 0 0 0-.546-.645 2.33 2.33 0 0 1-.967-1.807 2.64 2.64 0 0 1 1.119-1.705 41 41 0 0 1 5.717-3.685l1.083-.615a42 42 0 0 0 3.755-2.284.673.673 0 0 1 .785 1.093c-1.233.869-2.578 1.625-3.867 2.368l-1.079.617a40 40 0 0 0-5.521 3.545c-.322.266-.617.546-.645.8-.014.154.336.49.56.715a3.5 3.5 0 0 1 .841 1.065 3.54 3.54 0 0 1-.129 2.546 3 3 0 0 0-.238 1.527 2.12 2.12 0 0 0 1.976 1.317 6.26 6.26 0 0 0 2.9-.785l.462-.224a10.8 10.8 0 0 1 2.844-1.065 8 8 0 0 1 1.99-.028 4.34 4.34 0 0 0 2.018-.14c1.177-.518 1.962-2.144 2.606-3.447l.911-1.878a.68.68 0 0 1 1.219.6l-.911 1.878c-.729 1.513-1.639 3.391-3.279 4.105a5.13 5.13 0 0 1-2.662.238 6.3 6.3 0 0 0-1.625 0 10 10 0 0 0-2.494.953l-.476.224a7.6 7.6 0 0 1-3.335.939ZM9.598 19.91a2.7 2.7 0 0 1-1.485-.448A2.5 2.5 0 0 1 6.95 17.08a3.6 3.6 0 0 1 1.3-2.34 6.6 6.6 0 0 1 2.158-1.135 4.3 4.3 0 0 1 3.587.084 2.29 2.29 0 0 1 1.163 1.934 2.93 2.93 0 0 1-1.779 2.438l-.588.35c-.56.336-1.121.687-1.681 1.023l-.194.109a2.5 2.5 0 0 1-1.317.364Zm-1.3-2.732v.042a1.21 1.21 0 0 0 .546 1.121 1.34 1.34 0 0 0 1.4.056c.1-.056.154-.084.21-.112.518-.322 1.079-.659 1.639-1.009l.574-.35c.743-.448 1.135-.785 1.121-1.261v-.014a.96.96 0 0 0-.5-.785 2.92 2.92 0 0 0-2.466.028 5.2 5.2 0 0 0-1.723.883 2.3 2.3 0 0 0-.8 1.4Z"/></g></g><g transform="translate(1.582 71.443)"><g transform="translate(40.577)"><path fill="#b9dd53" d="M46 15.749H.673a8.264 8.264 0 0 1 15.08-4.676h.112a2.91 2.91 0 0 1 2.4-1.247 2.97 2.97 0 0 1 1.639.49 7.4 7.4 0 0 1-.168-1.6A8.037 8.037 0 0 1 35.583 6.81c.911-1.457 2.326-3.111 3.741-2.41.729.35.364 1.807-.224 3.251a2.97 2.97 0 0 1 2.97 2.97v.5a4.686 4.686 0 0 1 3.937 4.624Z"/><path fill="#b9dd53" d="M46 15.749H.673A8.26 8.26 0 0 1 8.94 7.482a8.22 8.22 0 0 1 6.8 3.573h.112a2.95 2.95 0 0 1 2.4-1.247 2.9 2.9 0 0 1 1.639.5 7.5 7.5 0 0 1-.168-1.611 8.045 8.045 0 0 1 15.861-1.906c.911-1.457 2.326-3.111 3.741-2.41.715.35.364 1.807-.224 3.251a2.975 2.975 0 0 1 2.97 2.984v.5a4 4 0 0 1 .6.14A4.67 4.67 0 0 1 46 15.749"/><path fill="#a3c134" d="M46 15.749H.673a8.3 8.3 0 0 1 .588-3.069 1.6 1.6 0 0 0 .252-.126s25.824 1.191 41.167-1.289A4.675 4.675 0 0 1 46 15.749"/><path fill="#050505" d="M35.043 8.432a.7.7 0 0 1-.322-.084.676.676 0 0 1-.28-.911c.154-.294.35-.645.574-.995a.683.683 0 0 1 1.163.715c-.2.322-.378.645-.518.911a.72.72 0 0 1-.617.364"/><path fill="#050505" d="M46 16.422H.673A.673.673 0 0 1 0 15.749a8.94 8.94 0 0 1 15.847-5.675 3.7 3.7 0 0 1 3.223-.841c-.014-.168-.014-.336-.014-.518a8.724 8.724 0 0 1 16.758-3.391c1.6-1.99 2.928-1.962 3.825-1.527 1.5.729.448 3.279.1 4.119a.675.675 0 1 1-1.247-.518c.8-1.934.546-2.4.532-2.4-1.023-.5-2.34 1.359-2.858 2.186a.676.676 0 0 1-1.233-.21 7.355 7.355 0 0 0-14.5 1.737 7 7 0 0 0 .154 1.457.72.72 0 0 1-.28.715.68.68 0 0 1-.757 0 2.2 2.2 0 0 0-1.261-.378 2.24 2.24 0 0 0-1.85.953.68.68 0 0 1-.56.294h-.119a.68.68 0 0 1-.56-.294A7.59 7.59 0 0 0 1.387 15.08h43.884a3.99 3.99 0 0 0-3.311-3.282.69.69 0 0 1-.574-.673v-.5a.673.673 0 0 1 1.345-.028 5.335 5.335 0 0 1 3.923 5.17.64.64 0 0 1-.659.659Z"/><path fill="#050505" d="M38.391 9.668a.66.66 0 0 1-.392-.126.69.69 0 0 1-.154-.953 3.2 3.2 0 0 0 .6-1.121.675.675 0 0 1 1.3.35 4.6 4.6 0 0 1-.813 1.569.67.67 0 0 1-.541.281"/></g><path d="M87.376 16.421H.673A.673.673 0 0 1 0 15.748a.68.68 0 0 1 .673-.673H87.39a.673.673 0 0 1 .673.673.685.685 0 0 1-.687.673"/></g></g><path fill="none" d="M1129.051 2514h121v121h-121z"/></g></svg>