<svg xmlns="http://www.w3.org/2000/svg" width="85.623" height="86.028" viewBox="0 0 85.623 86.028"><g transform="translate(-855.953 -367)"><path fill="#231f20" fill-rule="evenodd" d="M919.45 367h-41.3a1.47 1.47 0 0 0-1.117.51l-20.425 23.658a1.48 1.48 0 0 0-.653 1.226v59.159a1.475 1.475 0 0 0 1.475 1.475h82.67a1.475 1.475 0 0 0 1.475-1.475v-59.158a1.47 1.47 0 0 0-.363-.969l-20.645-23.916a1.47 1.47 0 0 0-1.117-.51"/><path fill="#ffeb99" fill-rule="evenodd" d="M938.626 393.87v56.209h-79.723V393.87Z"/><circle cx="21.706" cy="21.706" r="21.706" fill="#231f20" transform="translate(877.094 400.268)"/><circle cx="18.755" cy="18.755" r="18.755" fill="#fff" transform="translate(880.044 403.219)"/><path fill="#231f20" fill-rule="evenodd" d="M897.325 434.539v4.319a1.475 1.475 0 1 0 2.95 0v-4.32c5.315-4.281 8.132-8.6 8.278-12.8.153-4.4-2.561-8.87-8.926-13.177a1.48 1.48 0 0 0-1.658 0c-6.365 4.307-9.079 8.777-8.926 13.177.146 4.2 2.965 8.526 8.281 12.807Z"/><path fill="#91cc04" fill-rule="evenodd" d="M900.276 430.661c3.329-3.039 5.225-6.017 5.329-9.03.12-3.424-2.131-6.714-6.806-10.058-4.674 3.344-6.925 6.635-6.806 10.058.1 3.015 2 5.993 5.332 9.032v-8.862a1.475 1.475 0 0 1 2.95 0Z"/><path fill="#ffeb99" fill-rule="evenodd" d="m878.824 369.95-18.1 20.969h36.571V369.95Zm21.416 0v20.969h36.639l-18.105-20.969Z"/></g></svg>