<svg xmlns="http://www.w3.org/2000/svg" width="104.054" height="98.757" viewBox="0 0 104.054 98.757"><g transform="translate(-6.099 -17.598)"><g fill="none" stroke="#000" stroke-linecap="round" stroke-linejoin="round" stroke-miterlimit="10" stroke-width="2" transform="translate(7.5 26.332)"><g transform="translate(0 46.045)"><path d="M95.755 2.767a45.5 45.5 0 0 1-90.378 0"/><path d="M11.61 5.016 5.016 0 0 6.594"/></g><path d="M95.756 38.251a45.2 45.2 0 0 0-6.622-18.859m-4.268-5.742A45.53 45.53 0 0 0 63.977.05M37.324 0A45.54 45.54 0 0 0 5.382 38.251"/><path d="m89.647 36.229 6.607 5 5-6.607"/></g><circle cx="30.548" cy="30.548" r="30.548" fill="#dff6fd" transform="translate(27.578 39.315)"/><path fill="#c8effe" d="M58.126 39.315a31 31 0 0 0-4.273.3 30.55 30.55 0 0 1 0 60.5 30.549 30.549 0 1 0 4.273-60.8"/><path fill="none" stroke="#000" stroke-linecap="round" stroke-linejoin="round" stroke-miterlimit="10" stroke-width="2" d="M40.595 44.845a30.54 30.54 0 0 0-12.741 20.933m-.125 7.13a30.549 30.549 0 1 0 47.928-28.063"/><g transform="translate(36.452 66.279)"><path fill="#a2e62e" d="M1.188 1.185a14.565 14.565 0 0 0 19.138 19.138A14.565 14.565 0 0 0 1.188 1.185"/><path fill="#97d729" d="M17.245 4.264A14.57 14.57 0 0 0 1.186 1.185q-.233.543-.419 1.1a14.558 14.558 0 0 1 15.777 19.086 14.6 14.6 0 0 0 3.78-1.047 14.57 14.57 0 0 0-3.079-16.06"/><path fill="none" stroke="#000" stroke-linecap="round" stroke-linejoin="round" stroke-miterlimit="10" stroke-width="2" d="m7.338 7.338 14.336 14.336"/><path fill="#a2e62e" d="M42.163 1.185a14.565 14.565 0 0 1-19.14 19.138A14.565 14.565 0 0 1 42.161 1.185Z"/><path fill="#97d729" d="M42.163 1.185A14.6 14.6 0 0 0 38.304.127a14.56 14.56 0 0 1-15.661 19.21q.173.5.382.986A14.565 14.565 0 0 0 42.163 1.185"/><path fill="none" stroke="#000" stroke-linecap="round" stroke-linejoin="round" stroke-miterlimit="10" stroke-width="2" d="M1.188 1.185a14.565 14.565 0 0 0 19.138 19.138A14.565 14.565 0 0 0 1.188 1.185"/><path fill="none" stroke="#000" stroke-linecap="round" stroke-linejoin="round" stroke-miterlimit="10" stroke-width="2" d="M42.163 1.185a14.565 14.565 0 0 1-19.14 19.138A14.565 14.565 0 0 1 42.161 1.185ZM36.01 7.338 21.674 21.674m0 0v12.458"/></g><g transform="translate(39.683 18.644)"><circle cx="18.443" cy="18.443" r="18.443" fill="#8ac9fe" transform="translate(0 2.019)"/><path fill="#60b7ff" d="m26.735 3.982-1.362 3.753a18.44 18.44 0 0 1-10.137 30.891 18.446 18.446 0 0 0 11.5-34.642Z"/><path fill="none" stroke="#000" stroke-linecap="round" stroke-linejoin="round" stroke-miterlimit="10" stroke-width="2" d="M24.214 2.941a18.446 18.446 0 0 0-14.087 33.987m2.523 1.048A18.446 18.446 0 0 0 26.734 3.983"/><path fill="#ffd15b" d="M27.294 19.1h-6.043L27.857.891a.661.661 0 0 0-1.106-.676l-18.1 19.45a1.286 1.286 0 0 0 .941 2.162h6.047l-6.642 18.2a.661.661 0 0 0 1.105.678l18.133-19.447a1.286 1.286 0 0 0-.941-2.158"/><path fill="#ffc344" d="M17.019 19.1h4.231L27.856.891A.661.661 0 0 0 26.75.215l-4.72 5.073Zm10.275.003h-4.231a1.286 1.286 0 0 1 .94 2.163l-13.4 14.374-1.6 4.4a.661.661 0 0 0 1.105.678l18.125-19.455a1.286 1.286 0 0 0-.939-2.16"/><path fill="none" stroke="#000" stroke-linecap="round" stroke-linejoin="round" stroke-miterlimit="10" stroke-width="2" d="m11.154 16.976-2.5 2.69a1.286 1.286 0 0 0 .941 2.162h6.047L9 40.028a.661.661 0 0 0 1.105.678l18.133-19.447a1.286 1.286 0 0 0-.94-2.163h-6.043L27.861.887a.661.661 0 0 0-1.106-.676L16.014 11.756"/></g></g></svg>