<svg xmlns="http://www.w3.org/2000/svg" width="135" height="129" viewBox="0 0 135 129"><g transform="translate(-1125.051 -5035)"><g transform="translate(1070.031 5043.283)"><path fill="#a2b9e2" d="M144.786 111.002h-45.1A13.53 13.53 0 0 1 86.15 97.471v-82.29A13.53 13.53 0 0 1 99.682 1.65h45.1a13.53 13.53 0 0 1 13.532 13.531V97.47a13.53 13.53 0 0 1-13.528 13.532"/><path fill="#ecf4ff" d="M92.751 95.711V16.942a8.69 8.69 0 0 1 8.691-8.691h41.585a8.69 8.69 0 0 1 8.691 8.691v78.769a8.69 8.69 0 0 1-8.691 8.691h-41.585a8.69 8.69 0 0 1-8.691-8.691"/><path fill="#ddeafb" d="M143.026 8.251h-6.6a8.69 8.69 0 0 1 8.691 8.691v78.769a8.69 8.69 0 0 1-8.691 8.691h6.6a8.69 8.69 0 0 0 8.691-8.691V16.942a8.69 8.69 0 0 0-8.691-8.691"/><path fill="#5c90b9" d="M144.786 111h-45.1A13.53 13.53 0 0 1 86.15 97.471V91.2h72.168v6.271A13.53 13.53 0 0 1 144.786 111"/><path fill="#4a80aa" d="M151.717 91.2v6.271A13.53 13.53 0 0 1 138.186 111h6.6a13.53 13.53 0 0 0 13.531-13.531V91.2Z"/><path fill="#dd4fb1" d="M106.832 101.101a3.3 3.3 0 0 1 3.3-3.3h24.2a3.3 3.3 0 1 1 0 6.6h-24.2a3.3 3.3 0 0 1-3.3-3.3"/><path fill="#a2b9e2" d="M125.827 46.325h-7.921a2.65 2.65 0 0 1-2.64-2.64V17.722a2.65 2.65 0 0 1 2.64-2.64h7.921a2.65 2.65 0 0 1 2.64 2.64v25.963a2.65 2.65 0 0 1-2.64 2.64"/><path fill="#89aada" d="M125.828 15.082h-6.6a2.65 2.65 0 0 1 2.64 2.64v25.963a2.65 2.65 0 0 1-2.64 2.64h6.6a2.65 2.65 0 0 0 2.64-2.64V17.722a2.65 2.65 0 0 0-2.64-2.64"/><path fill="#ffd064" d="M115.266 27.47v16.3a2.564 2.564 0 0 0 2.561 2.552h8.079a2.564 2.564 0 0 0 2.561-2.552v-16.3Z"/><path fill="#ffc250" d="M121.867 27.47v16.3a2.564 2.564 0 0 1-2.561 2.552h6.6a2.564 2.564 0 0 0 2.561-2.552v-16.3Z"/><circle cx="6.821" cy="6.821" r="6.821" fill="#ffd064" transform="translate(115.046 61.942)"/><path fill="#ffc250" d="M121.867 61.942a6.8 6.8 0 0 0-3.3.852 6.821 6.821 0 0 1 0 11.938 6.821 6.821 0 1 0 3.3-12.79"/><g transform="translate(84.5)"><path d="M73.818 20.646a1.65 1.65 0 0 0 1.65-1.65v-3.814A15.2 15.2 0 0 0 60.287 0h-45.1A15.2 15.2 0 0 0 0 15.182v82.289a15.2 15.2 0 0 0 15.182 15.182h5.831a1.65 1.65 0 1 0 0-3.3h-5.831A11.9 11.9 0 0 1 3.3 97.471V92.85h68.868v4.621a11.9 11.9 0 0 1-11.881 11.881h-30.95a1.65 1.65 0 0 0 0 3.3h30.95A15.2 15.2 0 0 0 75.469 97.47V26.843a1.65 1.65 0 0 0-3.3 0V89.55h-3.3V16.942A10.353 10.353 0 0 0 58.526 6.6H16.942A10.353 10.353 0 0 0 6.6 16.942V89.55H3.3V15.182A11.9 11.9 0 0 1 15.182 3.3h45.1a11.9 11.9 0 0 1 11.881 11.881V19a1.65 1.65 0 0 0 1.655 1.646M9.9 16.942A7.05 7.05 0 0 1 16.942 9.9h41.585a7.05 7.05 0 0 1 7.041 7.041V89.55H9.9Z"/><path d="M54.782 101.102a4.956 4.956 0 0 0-4.947-4.951h-24.2a4.951 4.951 0 0 0 0 9.9h24.2a4.956 4.956 0 0 0 4.947-4.949m-30.8 0a1.65 1.65 0 0 1 1.65-1.65h24.2a1.65 1.65 0 1 1 0 3.3h-24.2a1.65 1.65 0 0 1-1.65-1.65m9.424-53.126h7.921a4.3 4.3 0 0 0 4.29-4.29V17.722a4.3 4.3 0 0 0-4.29-4.29h-7.921a4.3 4.3 0 0 0-4.29 4.29v25.964a4.3 4.3 0 0 0 4.29 4.29m7.921-3.3h-7.921a1 1 0 0 1-.99-.99V29.12h9.9v14.566a1 1 0 0 1-.989.989Zm-7.921-27.943h7.921a1 1 0 0 1 .99.99v8.1h-9.9v-8.1a1 1 0 0 1 .989-.991Zm-4.51 52.03a8.471 8.471 0 1 0 8.471-8.471 8.48 8.48 0 0 0-8.471 8.471m8.471-5.171a5.171 5.171 0 1 1-5.171 5.171 5.176 5.176 0 0 1 5.168-5.171Zm1.65-8.251v-2.64a1.65 1.65 0 0 0-3.3 0v2.64a1.65 1.65 0 0 0 3.3 0m-1.65 25.193a1.65 1.65 0 0 0-1.65 1.65v2.64a1.65 1.65 0 0 0 3.3 0v-2.64a1.65 1.65 0 0 0-1.65-1.65m-8.14-22.57a1.713 1.713 0 0 0 2.254.6 1.65 1.65 0 0 0 .6-2.254l-1.32-2.286a1.65 1.65 0 0 0-2.858 1.65Zm16.28 21.597a1.65 1.65 0 1 0-2.858 1.65l1.32 2.286a1.67 1.67 0 0 0 2.254.6 1.65 1.65 0 0 0 .6-2.254ZM26.569 60.623l-2.286-1.32a1.65 1.65 0 0 0-1.65 2.858l2.286 1.32a1.676 1.676 0 0 0 2.254-.6 1.65 1.65 0 0 0-.604-2.258m25.533 14.741-2.287-1.32a1.65 1.65 0 0 0-1.65 2.858l2.287 1.32a1.68 1.68 0 0 0 2.254-.6 1.65 1.65 0 0 0-.604-2.258m-26.506-6.602a1.65 1.65 0 0 0-1.65-1.65h-2.64a1.65 1.65 0 1 0 0 3.3h2.64a1.65 1.65 0 0 0 1.65-1.65m27.832-1.65h-2.64a1.65 1.65 0 1 0 0 3.3h2.64a1.65 1.65 0 1 0 0-3.3m-28.509 6.933-2.286 1.32a1.65 1.65 0 0 0-.6 2.254 1.7 1.7 0 0 0 2.254.6l2.286-1.32a1.65 1.65 0 0 0-1.65-2.858Zm24.073-10.342a1.64 1.64 0 0 0 .824-.221l2.287-1.32a1.65 1.65 0 0 0-1.65-2.858l-2.287 1.32a1.65 1.65 0 0 0 .827 3.079Zm-17.51 15.254a1.65 1.65 0 0 0-2.254.6l-1.32 2.286a1.65 1.65 0 0 0 .6 2.254 1.67 1.67 0 0 0 2.254-.6l1.32-2.286a1.65 1.65 0 0 0-.6-2.254m14.742-25.533a1.65 1.65 0 0 0-2.254.6l-1.32 2.286a1.65 1.65 0 1 0 2.858 1.65l1.32-2.287a1.65 1.65 0 0 0-.604-2.249"/></g></g><path fill="none" d="M1125.051 5035h135v129h-135z"/></g></svg>