<svg xmlns="http://www.w3.org/2000/svg" width="82" height="84" viewBox="0 0 82 84"><g transform="translate(-3 -2)"><path fill="#ffdf64" d="M72 15v34.7l-6.78 4.92L53.66 63 44 56l-9.66 7L16 49.7V3h32l19.45 6.18A6.006 6.006 0 0 1 72 15"/><path fill="#f7c73e" d="M67.53 9.2A6 6 0 0 0 60 15L48 3Z"/><path fill="#5dc976" d="m72 31 12 10-12 8.7ZM4 41l12-10v18.7Z"/><path fill="#7ee182" d="M44 26a6.85 6.85 0 0 1-4-6 6.85 6.85 0 0 1 4-6 6.85 6.85 0 0 1 4 6 6.85 6.85 0 0 1-4 6m5.98 6a6.4 6.4 0 0 1-1.737-.242 6.14 6.14 0 0 1 1.5-6.011A6 6 0 0 1 54.025 24a6.4 6.4 0 0 1 1.733.241 6.2 6.2 0 0 1 .027 3.331 5.85 5.85 0 0 1-1.533 2.679A6.07 6.07 0 0 1 49.98 32m-11.956 0a6 6 0 0 1-4.277-1.744 6.12 6.12 0 0 1-1.5-6.009 6.3 6.3 0 0 1 1.73-.247 6 6 0 0 1 4.276 1.744 6.12 6.12 0 0 1 1.5 6.009 6.4 6.4 0 0 1-1.73.242Z"/><path fill="#827e7d" d="M57 47H31a20.4 20.4 0 0 1 6.83-4.84A15.9 15.9 0 0 1 44 41c6.15 0 9.88 2.88 13 6"/><path fill="#f7c73e" d="M65.22 54.62 53.66 63 44 56l-9.66 7L16 49.7V3h3.86c.97 15.53 7.92 44.39 45.36 51.62"/><path fill="#635c5a" d="M44.56 47H31a20.4 20.4 0 0 1 6.83-4.84A48.7 48.7 0 0 0 44.56 47"/><path fill="#7ee182" d="M84 41v44H4V41l30.34 22.01L44 56l9.66 7.01Z"/><path fill="#4fba63" d="M48.21 85H4V46.17C11.88 61.42 25.33 77.28 48.21 85"/><path fill="#5dc976" d="M84 85H4l19.34-14.02L44 56Z"/><path fill="#36a355" d="M48.21 85H4l19.34-14.02A74.1 74.1 0 0 0 48.21 85"/><path fill="#1f1f23" d="M85 85V41a1.14 1.14 0 0 0-.359-.768L73 30.531V15a7.006 7.006 0 0 0-5.272-6.775c-.009 0-.015-.01-.024-.013L48.3 2.047 48 2H16a1 1 0 0 0-1 1v27.531l-11.641 9.7A1.14 1.14 0 0 0 3 41v44a1.04 1.04 0 0 0 1 1h80a1.033 1.033 0 0 0 1-1M5 42.96 32.639 63 5 83.04Zm39 14.275L80.917 84H7.083ZM55.361 63 83 42.96v40.08Zm27.011-22.055L73 47.741V33.135ZM62.838 8.764a7.03 7.03 0 0 0-3.517 4.142L51.61 5.2ZM17 4h30.586l11.707 11.707A1 1 0 0 0 61 15a5 5 0 0 1 10 0v34.19L53.66 61.765l-9.073-6.575a1 1 0 0 0-1.174 0l-9.073 6.575L17 49.19Zm-2 43.741-9.372-6.8L15 33.135Z"/><path fill="#1f1f23" d="M57 48a1 1 0 0 0 .707-1.707c-3.089-3.089-6.766-5.956-12.66-6.262a10.98 10.98 0 0 1 3.2-6.859l.328-.328a7.3 7.3 0 0 0 1.4.156 7.03 7.03 0 0 0 4.985-2.04 7.12 7.12 0 0 0 1.757-6.989 1 1 0 0 0-.688-.689 6.994 6.994 0 0 0-8.873 8.148l-.327.327A13 13 0 0 0 45 34.066v-7.494A7.74 7.74 0 0 0 49 20a7.84 7.84 0 0 0-4.551-6.894 1 1 0 0 0-.9 0A7.84 7.84 0 0 0 39 20a7.74 7.74 0 0 0 4 6.572v7.494a13 13 0 0 0-1.828-2.309l-.327-.327a6.994 6.994 0 0 0-8.873-8.148 1 1 0 0 0-.689.689 7.12 7.12 0 0 0 1.757 6.989A7.03 7.03 0 0 0 38.024 33a7.3 7.3 0 0 0 1.4-.154l.328.328a10.98 10.98 0 0 1 3.195 6.859c-5.894.306-9.571 3.173-12.66 6.262A1 1 0 0 0 31 48Zm-6.546-21.546a5.02 5.02 0 0 1 4.468-1.375 5.02 5.02 0 0 1-1.376 4.468 4.94 4.94 0 0 1-3.113 1.435l1.274-1.274a1 1 0 1 0-1.414-1.414l-1.273 1.272a4.95 4.95 0 0 1 1.434-3.112m-16 3.093a5.02 5.02 0 0 1-1.376-4.468 5.02 5.02 0 0 1 4.468 1.375 4.95 4.95 0 0 1 1.434 3.112l-1.273-1.273a1 1 0 1 0-1.414 1.414l1.274 1.273a4.95 4.95 0 0 1-3.112-1.434ZM41 20a5.68 5.68 0 0 1 3-4.862A5.68 5.68 0 0 1 47 20a5.44 5.44 0 0 1-2 4.134V21a1 1 0 0 0-2 0v3.134A5.44 5.44 0 0 1 41 20m3 22a15.33 15.33 0 0 1 10.461 4H33.554A15.14 15.14 0 0 1 44 42"/></g></svg>