<svg xmlns="http://www.w3.org/2000/svg" width="95.404" height="92.674" viewBox="0 0 95.404 92.674"><path fill="#5290db" d="M82.116 12.908H62.489a22 22 0 0 1 4.642 3.545 21.981 21.981 0 0 1-31.084 31.088 21.983 21.983 0 0 1 4.644-34.633h-27.4a5.16 5.16 0 0 0-5.169 5.162v54.363h79.154V18.071a5.163 5.163 0 0 0-5.16-5.163"/><path fill="#fcdd86" d="M82.093 16.818H67.479a21.978 21.978 0 0 1-31.431 30.723 22 22 0 0 1-.345-30.723H13.312a1.277 1.277 0 0 0-1.277 1.277v54.338h71.334V18.095a1.276 1.276 0 0 0-1.276-1.277"/><path fill="#3a70bf" d="M82.093 16.818H67.479a21.9 21.9 0 0 1 3.734 5.278h12.16v-4a1.277 1.277 0 0 0-1.28-1.278m-68.781 0a1.277 1.277 0 0 0-1.277 1.277v4H31.97a21.9 21.9 0 0 1 3.732-5.278Z"/><path fill="#edf4fc" d="M92.411 72.433H2.994a2.06 2.06 0 0 0-2.062 2.062 7.255 7.255 0 0 0 7.255 7.255h79.03a7.255 7.255 0 0 0 7.255-7.255 2.06 2.06 0 0 0-2.061-2.062"/><path fill="#c7d7e5" d="M31.279 72.433v2.227a2.14 2.14 0 0 0 2.142 2.142h28.562a2.14 2.14 0 0 0 2.142-2.142v-2.226H31.279Z"/><path d="M82.117 11.976H62.726a.932.932 0 0 0 0 1.863h19.391a4.235 4.235 0 0 1 4.231 4.231v53.974a.932.932 0 0 0 1.863 0V18.071a6.1 6.1 0 0 0-6.094-6.095m-41.62 0H13.291a6.1 6.1 0 0 0-6.1 6.095v53.957a.932.932 0 1 0 1.863 0V18.071a4.235 4.235 0 0 1 4.237-4.231h27.21a.932.932 0 0 0 0-1.863Z"/><path d="M82.092 15.887H67.764a.932.932 0 0 0 0 1.863h14.328a.346.346 0 0 1 .345.345v53.949a.932.932 0 1 0 1.863 0V18.095a2.21 2.21 0 0 0-2.208-2.208m-46.712 0H13.309a2.21 2.21 0 0 0-2.206 2.208v53.949a.932.932 0 0 0 1.863 0V18.095a.346.346 0 0 1 .343-.345H35.38a.932.932 0 0 0 0-1.863"/><path d="M31.754 21.165H12.671a.932.932 0 0 0 0 1.863h19.083a.932.932 0 1 0 0-1.863m51.352 0H71.483a.932.932 0 1 0 0 1.863h11.623a.932.932 0 0 0 0-1.863m9.305 50.337H2.993A3 3 0 0 0 0 74.495a8.2 8.2 0 0 0 8.187 8.187h79.03a8.2 8.2 0 0 0 8.187-8.187 3 3 0 0 0-2.993-2.993m-5.194 9.317H8.187a6.33 6.33 0 0 1-6.324-6.324 1.13 1.13 0 0 1 1.13-1.13h89.418a1.13 1.13 0 0 1 1.13 1.13 6.33 6.33 0 0 1-6.324 6.324"/><path d="M64.125 71.864a.93.93 0 0 0-.932.932v1.868a1.21 1.21 0 0 1-1.21 1.21H33.421a1.21 1.21 0 0 1-1.21-1.21v-1.816a.932.932 0 1 0-1.863 0v1.816a3.077 3.077 0 0 0 3.074 3.074h28.562a3.077 3.077 0 0 0 3.074-3.074v-1.863a.93.93 0 0 0-.933-.937M19.566 16.253a.93.93 0 0 0-.932.932v4.643a.932.932 0 0 0 1.863 0v-4.643a.93.93 0 0 0-.931-.932"/><path fill="#fc657e" d="M95.365 56.096a2.9 2.9 0 0 1-2.327-2.275c0-.052-.1-.052-.1 0a2.9 2.9 0 0 1-2.327 2.275c-.052 0-.052.078 0 .1a2.9 2.9 0 0 1 2.327 2.275c0 .052.1.052.1 0a2.9 2.9 0 0 1 2.327-2.275c.052-.017.052-.1 0-.1"/><path fill="#70d6f9" d="M38.087 3.774h-.857v-.857a1.2 1.2 0 0 0-1.193-1.193 1.177 1.177 0 0 0-1.192 1.193v.857h-.857a1.2 1.2 0 0 0-1.193 1.192 1.177 1.177 0 0 0 1.193 1.193h.857v.857a1.2 1.2 0 0 0 1.193 1.193 1.177 1.177 0 0 0 1.193-1.193v-.857h.857a1.2 1.2 0 0 0 1.193-1.193 1.177 1.177 0 0 0-1.194-1.192"/><path fill="#87d147" d="M52.339 86.097a1.267 1.267 0 1 0 1.267 1.267 1.267 1.267 0 0 0-1.267-1.267"/><path fill="#f5c84c" d="M48.239 0a1.267 1.267 0 1 0 1.267 1.267A1.267 1.267 0 0 0 48.239 0m17.889 89.227a4.135 4.135 0 0 1-3.317-3.242c0-.075-.149-.075-.149 0a4.135 4.135 0 0 1-3.317 3.242c-.075 0-.075.112 0 .149a4.135 4.135 0 0 1 3.317 3.242c0 .075.149.075.149 0a4.135 4.135 0 0 1 3.317-3.242c.074-.037.074-.149 0-.149"/><path fill="#edf4fc" d="M67.133 16.459a21.981 21.981 0 0 0-31.086 31.082 21.981 21.981 0 0 0 31.086-31.082"/><path fill="#c7d7e5" d="M36.047 47.542a23 23 0 0 1-1.3-1.425l-4.512 4.512a2.33 2.33 0 0 1 1.248.649l.806.806a2.33 2.33 0 0 1 .649 1.248l4.509-4.509c-.481-.408-.95-.831-1.4-1.281"/><path fill="#5290db" d="M64.43 19.158a18.149 18.149 0 1 0 0 25.681 18.033 18.033 0 0 0 0-25.681"/><path fill="#fc657e" d="M41.564 39.434a.62.62 0 0 0-.619.619v6.657a18 18 0 0 0 5.413 2.679v-9.954z"/><path fill="#f5c84c" d="M46.978 35.058a.62.62 0 0 0-.619.619v13.711a18.3 18.3 0 0 0 5.478.758V35.058Z"/><path fill="#87d147" d="M52.46 30.682a.62.62 0 0 0-.619.619v18.84a18.2 18.2 0 0 0 5.482-.916V30.682Z"/><path fill="#70d6f9" d="M62.118 26.307h-4.177a.62.62 0 0 0-.619.619v22.3a18 18 0 0 0 5.413-2.9v-19.4a.62.62 0 0 0-.617-.619"/><path fill="#fc657e" d="m32.291 52.077-.806-.806a2.34 2.34 0 0 0-3.311 0L18.127 61.322a2.34 2.34 0 0 0 0 3.311l.806.806a2.34 2.34 0 0 0 3.311 0L32.29 55.393a2.34 2.34 0 0 0 .001-3.316"/><path d="M67.791 15.796a22.75 22.75 0 0 0-16.2-6.7 22.9 22.9 0 1 0 16.2 6.7m-1.317 31.087a21.07 21.07 0 0 1-29.768 0l-.659.659.663-.659a21.05 21.05 0 1 1 29.768 0Zm-33.525 4.541-.806-.806a3.276 3.276 0 0 0-4.629 0L17.468 60.664a3.27 3.27 0 0 0 0 4.629l.806.806a3.27 3.27 0 0 0 4.629 0L32.95 56.053a3.277 3.277 0 0 0-.001-4.629m-1.318 3.311L21.585 64.781a1.41 1.41 0 0 1-1.994 0l-.806-.806a1.41 1.41 0 0 1 0-1.994l10.047-10.047a1.41 1.41 0 0 1 1.994 0l.806.806a1.41 1.41 0 0 1 0 1.994Z"/><path d="M35.166 45.697a.93.93 0 0 0-1.317 0l-4.113 4.113a.932.932 0 0 0 1.318 1.317l4.113-4.113a.93.93 0 0 0-.001-1.317m2.726 2.68a.93.93 0 0 0-1.317 0l-4.136 4.136a.932.932 0 0 0 1.318 1.317l4.136-4.136a.93.93 0 0 0-.001-1.317m17.462-30.069h-3.96a.932.932 0 1 0 0 1.863h3.028v3.028a.932.932 0 1 0 1.863 0V19.24a.93.93 0 0 0-.931-.932"/><path d="M55.011 19.579a.93.93 0 0 0-1.317 0L38.94 34.339a.932.932 0 0 0 1.318 1.317l14.753-14.759a.93.93 0 0 0 0-1.318"/><path d="M65.089 18.499a19.081 19.081 0 1 0 0 27 18.96 18.96 0 0 0 0-27m-1.317 25.68a17.218 17.218 0 1 1 0-24.364 17.247 17.247 0 0 1-.001 24.364Z"/><path d="M45.978 38.502h-4.415a1.55 1.55 0 0 0-1.55 1.55v6.3a.932.932 0 1 0 1.863 0v-5.991h4.1a.932.932 0 0 0 0-1.864Z"/><path d="M51.59 34.126h-4.613a1.55 1.55 0 0 0-1.55 1.55v13.455a.932.932 0 1 0 1.863 0v-13.14h4.3a.932.932 0 1 0 0-1.863Z"/><path d="M56.995 29.751h-4.536a1.55 1.55 0 0 0-1.55 1.55v18.556a.932.932 0 1 0 1.863 0V31.614h4.223a.932.932 0 1 0 0-1.863"/><path d="M62.118 25.375h-4.177a1.55 1.55 0 0 0-1.55 1.55v21.958a.932.932 0 1 0 1.863 0V27.238h3.55v18.835a.932.932 0 1 0 1.863 0V26.922a1.55 1.55 0 0 0-1.549-1.547"/></svg>