<svg xmlns="http://www.w3.org/2000/svg" width="90.416" height="91.199" viewBox="0 0 90.416 91.199"><g transform="translate(-9.083 -6.9)"><g transform="translate(9.688 7.5)"><path d="M93.986,52.5a46.574,46.574,0,0,0-.585-5.544.939.939,0,0,1,.645-1.01L97.5,44.823a.943.943,0,0,0,.606-1.188L95,33.825a.943.943,0,0,0-1.188-.606l-3.277,1.2a.939.939,0,0,1-1.115-.438c-1.665-3.046-3.564-6.582-5.93-9.085a.939.939,0,0,1-.072-1.2l2.139-2.944a.943.943,0,0,0-.209-1.317l-9.216-6.7a.943.943,0,0,0-1.317.209l-2.134,2.937a.939.939,0,0,1-1.161.3A39.879,39.879,0,0,0,61.692,13a.939.939,0,0,1-.762-.925V8.443a.943.943,0,0,0-.943-.943H48.6a.943.943,0,0,0-.943.943v3.632A.939.939,0,0,1,46.89,13a39.88,39.88,0,0,0-9.829,3.191.939.939,0,0,1-1.161-.3l-2.134-2.937a.943.943,0,0,0-1.317-.209l-9.216,6.7a.943.943,0,0,0-.209,1.317L25.163,23.7a.939.939,0,0,1-.072,1.2,40.3,40.3,0,0,0-6.08,8.356.939.939,0,0,1-1.115.438l-3.454-1.122a.943.943,0,0,0-1.188.606L9.734,44.011A.943.943,0,0,0,10.34,45.2L13.8,46.322a.939.939,0,0,1,.645,1.01,40.5,40.5,0,0,0,0,10.336.939.939,0,0,1-.645,1.01L10.34,59.8a.943.943,0,0,0-.606,1.188l3.52,10.834a.943.943,0,0,0,1.188.606L17.9,71.306a.939.939,0,0,1,1.115.438,40.306,40.306,0,0,0,6.08,8.356.939.939,0,0,1,.072,1.2L23.024,84.24a.943.943,0,0,0,.209,1.317l9.216,6.7a.943.943,0,0,0,1.317-.209L35.9,89.108a.939.939,0,0,1,1.161-.3,41.189,41.189,0,0,0,10.1,2.758.939.939,0,0,1,.762.925l.313,3.557a.943.943,0,0,0,.943.943l10.5.046a.943.943,0,0,0,.943-.943l-.089-3.5a.939.939,0,0,1,.762-.925,44.743,44.743,0,0,0,10.382-3.5.939.939,0,0,1,1.161.3l2,2.812a.943.943,0,0,0,1.317.209l8.7-6.06a.943.943,0,0,0,.209-1.317l-2.046-2.9a.939.939,0,0,1,.072-1.2,42.95,42.95,0,0,0,6.272-8.631.939.939,0,0,1,1.115-.437l3.4,1.077a.943.943,0,0,0,1.188-.606l2.965-9.946a.943.943,0,0,0-.606-1.188l-3.456-1.123a.939.939,0,0,1-.645-1.01A48.361,48.361,0,0,0,93.986,52.5Z" transform="translate(-9.688 -7.5)" fill="#95969b"/><g transform="translate(27.373 17.4)"><path d="M222.031,138.487l-3.456-1.123a.939.939,0,0,1-.645-1.01,40.5,40.5,0,0,0,0-10.336.939.939,0,0,1,.645-1.01l3.456-1.123a.943.943,0,0,0,.606-1.188l-3.52-10.834a.943.943,0,0,0-1.188-.606l-3.454,1.122a.939.939,0,0,1-1.115-.438,40.305,40.305,0,0,0-6.08-8.356c1.387,4.377,1.565,12.769,1.493,17.6-.369,25.033-22.576,46.3-47.924,46.3a39.88,39.88,0,0,0,9.829,3.191.939.939,0,0,1,.762.925v3.632a.943.943,0,0,0,.943.943h11.392a.943.943,0,0,0,.943-.943v-3.632a.939.939,0,0,1,.762-.925,39.88,39.88,0,0,0,9.829-3.191.939.939,0,0,1,1.161.3l2.134,2.937a.943.943,0,0,0,1.317.209l9.216-6.7a.943.943,0,0,0,.209-1.317l-2.139-2.944a.939.939,0,0,1,.072-1.2,40.3,40.3,0,0,0,6.08-8.356.939.939,0,0,1,1.115-.438l3.454,1.122a.943.943,0,0,0,1.188-.606l3.52-10.834A.943.943,0,0,0,222.031,138.487Z" transform="translate(-160.849 -103.587)" fill="#7e7e87"/></g><path d="M140.891,110.17c0,13.917-8.073,24.921-20.141,29.45-2.878,1.08-6,2.6-9.271,2.774q-.869.046-1.75.047a32.272,32.272,0,1,1,30.7-42.26C141.448,103.327,140.891,106.684,140.891,110.17Z" transform="translate(-65.186 -65.151)" fill="#f9f7f8"/><path d="M265.682,243.021a32.3,32.3,0,0,0,28.94-42.22C294.35,219.26,282.206,235.676,265.682,243.021Z" transform="translate(-219.325 -165.797)" fill="#efedef"/><path d="M200.775,152.18c0,5.656,3.855,9.109,9.495,9.18,6.059.076,10.071-4.2,9.7-10.247-.04-.657.6-1.313.48-1.964-1.418-7.675-7.994-14.771-9.664-16.472a.542.542,0,0,0-.774,0c-1.671,1.7-8.246,8.8-9.664,16.472C200.177,150.092,200.775,151.229,200.775,152.18Z" transform="translate(-165.799 -109.876)" fill="#bbec6c"/><path d="M209.324,230.125c-.088-.093-.174-.187-.264-.278a23.351,23.351,0,0,0-9.787-5.472,15.653,15.653,0,0,0-.271,2.844,10.322,10.322,0,0,0,10.189,10.321,10.458,10.458,0,0,0,10.427-11.2,16.2,16.2,0,0,0-.244-1.964,23.35,23.35,0,0,0-9.787,5.472C209.5,229.938,209.411,230.032,209.324,230.125Z" transform="translate(-164.72 -185.102)" fill="#b1dd50"/><path d="M150.534,240.87c3.738,3.738,3.411,9-.269,12.769-4,4.1-9.71,4.279-13.457-.06-.426-.493-1.279-.985-1.642-1.532-3.963-5.974-4.317-14.74-4.341-17a.542.542,0,0,1,.547-.548c2.273.023,11.136.381,17.112,4.414A14.849,14.849,0,0,1,150.534,240.87Z" transform="translate(-108.889 -193.393)" fill="#bbec6c"/><path d="M171.189,273.275c-.246.326-1.023.276-1.315.575-.353.362-.216,1.052-.608,1.344a9.848,9.848,0,0,1-13.291-1.62,15.577,15.577,0,0,1-1.18-1.564,9.741,9.741,0,0,0,10.85-.437,9.429,9.429,0,0,0,1.117-.98,9.8,9.8,0,0,0,.806-.938,9.66,9.66,0,0,0,.546-10.779,14.7,14.7,0,0,1,2.183,1.786A9.646,9.646,0,0,1,171.189,273.275Z" transform="translate(-128.519 -213.355)" fill="#b1dd50"/><path d="M278.039,236.269c-.027,2.466-.4,11.646-5.472,17.524-3.417,3.955-8.678,5.143-12.714,2.121a9.151,9.151,0,0,1-.933-1.087c-.292-.3-.743-.4-.989-.73a9.648,9.648,0,0,1,.893-12.614c4.289-4.289,11.576-5.722,16.024-6.129,1.483-.136,2,.374,2.643.367A.543.543,0,0,1,278.039,236.269Z" transform="translate(-211.395 -194.073)" fill="#bbec6c"/><path d="M295.551,234.5c-.636.007-1.812.041-3.271.173-.38,4.2-.725,10.817-4.493,15.18-2.743,3.176-7.015,6.754-10.5,5.38h0a9.848,9.848,0,0,0,13.292-1.623c5.076-5.878,5.5-16.1,5.521-18.563A.542.542,0,0,0,295.551,234.5Z" transform="translate(-228.827 -193.392)" fill="#b1dd50"/></g><g transform="translate(9.688 7.5)"><path d="M219.629,151.56q.015-.285.016-.574c0-9.84-10.322-19.7-10.322-19.7S199,141.146,199,150.986q0,.289.016.574" transform="translate(-164.719 -108.869)" fill="none" stroke="#000" stroke-linecap="round" stroke-linejoin="round" stroke-miterlimit="10" stroke-width="1.2"/><path d="M131.46,241.863a42.055,42.055,0,0,1-.641-7.371s13.338-.3,19.841,6.2a9.647,9.647,0,1,1-13.642,13.642,18.082,18.082,0,0,1-3.911-6.345" transform="translate(-108.882 -193.385)" fill="none" stroke="#000" stroke-linecap="round" stroke-linejoin="round" stroke-miterlimit="10" stroke-width="1.2"/><path d="M258.826,240.691a9.647,9.647,0,0,0,13.642,13.642c6.5-6.5,6.2-19.841,6.2-19.841S265.328,234.188,258.826,240.691Z" transform="translate(-211.396 -193.385)" fill="none" stroke="#000" stroke-linecap="round" stroke-linejoin="round" stroke-miterlimit="10" stroke-width="1.2"/><line x1="8.4" y1="8.4" transform="translate(33.269 52.439)" fill="none" stroke="#000" stroke-linecap="round" stroke-linejoin="round" stroke-miterlimit="10" stroke-width="1.2"/><line y1="8.289" x2="8.289" transform="translate(47.649 52.439)" fill="none" stroke="#000" stroke-linecap="round" stroke-linejoin="round" stroke-miterlimit="10" stroke-width="1.2"/><line y2="15.606" transform="translate(44.604 37.427)" fill="none" stroke="#000" stroke-linecap="round" stroke-linejoin="round" stroke-miterlimit="10" stroke-width="1.2"/><path d="M208.022,78.972A32.3,32.3,0,0,1,248.9,107.739" transform="translate(-172.107 -65.061)" fill="none" stroke="#000" stroke-linecap="round" stroke-linejoin="round" stroke-miterlimit="10" stroke-width="1.2"/><path d="M142.084,129.821a32.274,32.274,0,1,1-46.62-32.806" transform="translate(-65.457 -80.805)" fill="none" stroke="#000" stroke-linecap="round" stroke-linejoin="round" stroke-miterlimit="10" stroke-width="1.2"/><path d="M83.184,87.131l2.166-1.573a.943.943,0,0,0,.209-1.317L83.419,81.3a.939.939,0,0,1,.072-1.2,40.3,40.3,0,0,0,6.08-8.356.939.939,0,0,1,1.115-.437l3.454,1.122a.943.943,0,0,0,1.188-.606l3.52-10.834a.943.943,0,0,0-.606-1.188l-3.456-1.123a.939.939,0,0,1-.645-1.01,40.5,40.5,0,0,0,0-10.336.939.939,0,0,1,.645-1.01L98.243,45.2a.943.943,0,0,0,.606-1.188l-3.52-10.834a.943.943,0,0,0-1.188-.606l-3.454,1.122a.939.939,0,0,1-1.115-.437,40.306,40.306,0,0,0-6.08-8.356.939.939,0,0,1-.072-1.2l2.139-2.944a.943.943,0,0,0-.209-1.317l-9.216-6.7a.943.943,0,0,0-1.317.209l-2.134,2.936a.939.939,0,0,1-1.161.3A39.879,39.879,0,0,0,61.692,13a.939.939,0,0,1-.762-.925V8.443a.943.943,0,0,0-.943-.943H48.6a.943.943,0,0,0-.943.943v3.632A.939.939,0,0,1,46.89,13a39.88,39.88,0,0,0-9.829,3.191.939.939,0,0,1-1.161-.3l-2.134-2.937a.943.943,0,0,0-1.317-.209l-9.216,6.7a.943.943,0,0,0-.209,1.317L25.163,23.7a.939.939,0,0,1-.072,1.2,40.3,40.3,0,0,0-6.08,8.356.939.939,0,0,1-1.115.438l-3.454-1.122a.943.943,0,0,0-1.188.606L9.734,44.011A.943.943,0,0,0,10.34,45.2L13.8,46.322a.939.939,0,0,1,.645,1.01,40.5,40.5,0,0,0,0,10.336.939.939,0,0,1-.645,1.01L10.34,59.8a.943.943,0,0,0-.606,1.188l3.52,10.834a.943.943,0,0,0,1.188.606L17.9,71.306a.939.939,0,0,1,1.115.438,40.306,40.306,0,0,0,6.08,8.356.939.939,0,0,1,.072,1.2L23.024,84.24a.943.943,0,0,0,.209,1.317l9.216,6.7a.943.943,0,0,0,1.317-.209L35.9,89.108a.939.939,0,0,1,1.161-.3A39.879,39.879,0,0,0,46.89,92a.939.939,0,0,1,.762.925v3.632a.943.943,0,0,0,.943.943H59.987a.943.943,0,0,0,.943-.943V92.924A.939.939,0,0,1,61.692,92a39.879,39.879,0,0,0,9.829-3.191.939.939,0,0,1,1.161.3l2.134,2.937a.943.943,0,0,0,1.317.209l1.923-1.4" transform="translate(-9.688 -7.5)" fill="none" stroke="#000" stroke-linecap="round" stroke-linejoin="round" stroke-miterlimit="10" stroke-width="1.2"/></g></g></svg>