<svg xmlns="http://www.w3.org/2000/svg" width="97.495" height="89.068" viewBox="0 0 97.495 89.068"><g transform="translate(-3.752 -7.966)"><path d="M98.412,92.229v.105a3.95,3.95,0,0,1-3.95,3.95H9.133a3.95,3.95,0,0,1-3.95-3.95,4.128,4.128,0,0,1,1.188-2.9l10.3-10.448H87.894l9.454,10.475a4.128,4.128,0,0,1,1.063,2.766Z" fill="#fff"/><path d="M56.234,85.252l1.729,1.561a1.173,1.173,0,0,1-.786,2.043H46.417a1.173,1.173,0,0,1-.786-2.043l1.729-1.561a1.173,1.173,0,0,1,.786-.3h7.3a1.173,1.173,0,0,1,.786.3Z" fill="#5b5476"/><path d="M87.9,78.99V36.6a4.831,4.831,0,0,0-4.831-4.831H21.5A4.831,4.831,0,0,0,16.669,36.6V78.99Z" fill="#c3c9fb"/><path d="M87.894,36.6V78.988H16.672v-8.73H42.057A38.486,38.486,0,0,0,80.543,31.772h2.525A4.827,4.827,0,0,1,87.894,36.6Z" fill="#8693e2"/><path d="M5.184,92.334a3.95,3.95,0,0,0,3.95,3.95H94.462a3.95,3.95,0,0,0,3.95-3.95v-.105Z" fill="#c3c9fb"/><path d="M98.412,92.225v.107a3.95,3.95,0,0,1-3.953,3.953H9.136a3.95,3.95,0,0,1-3.953-3.953h.554a3.966,3.966,0,0,0,3.4,1.923H94.459a3.963,3.963,0,0,0,3.457-2.03Z" fill="#8693e2"/><path d="M94.462,97.034H9.133a4.705,4.705,0,0,1-4.7-4.7,4.849,4.849,0,0,1,1.4-3.425l10.3-10.448a.751.751,0,0,1,.534-.223H87.895a.749.749,0,0,1,.557.248L97.9,88.961a4.869,4.869,0,0,1,1.257,3.268v.105a4.705,4.705,0,0,1-4.7,4.7Zm-77.476-17.3L6.906,89.963a3.356,3.356,0,0,0-.973,2.371,3.2,3.2,0,0,0,3.2,3.2H94.462a3.2,3.2,0,0,0,3.2-3.2v-.105a3.373,3.373,0,0,0-.87-2.263l-9.23-10.228H16.986Z" fill="#0f0f0f"/><path d="M94.462,97.034H9.133a4.705,4.705,0,0,1-4.7-4.7.75.75,0,0,1,.749-.75l93.228-.105a1.071,1.071,0,0,1,.531.219.75.75,0,0,1,.22.531v.105a4.705,4.705,0,0,1-4.7,4.7ZM6.022,93.084a3.206,3.206,0,0,0,3.111,2.451H94.462A3.205,3.205,0,0,0,97.6,92.98Z" fill="#0f0f0f"/><path d="M20.1,27.618a.75.75,0,0,1-.105-1.492,10.65,10.65,0,0,1,1.506-.107.75.75,0,0,1,0,1.5,9.169,9.169,0,0,0-1.293.092.762.762,0,0,1-.107.008Z" fill="#0f0f0f"/><path d="M11.669,37.349a.75.75,0,0,1-.75-.75,10.64,10.64,0,0,1,6.063-9.567.75.75,0,1,1,.643,1.355A9.133,9.133,0,0,0,12.419,36.6a.75.75,0,0,1-.75.75Z" fill="#0f0f0f"/><path d="M87.9,79.741H16.669a.75.75,0,0,1-.75-.75V36.6A5.587,5.587,0,0,1,21.5,31.018H83.066A5.587,5.587,0,0,1,88.647,36.6V78.991A.75.75,0,0,1,87.9,79.741Zm-70.479-1.5H87.147V36.6a4.085,4.085,0,0,0-4.081-4.081H21.5A4.085,4.085,0,0,0,17.419,36.6Z" fill="#0f0f0f"/><path d="M57.178,89.606H46.417a1.923,1.923,0,0,1-1.288-3.35L46.858,84.7a1.921,1.921,0,0,1,1.288-.5h7.3a1.922,1.922,0,0,1,1.288.5h0l1.729,1.561a1.923,1.923,0,0,1-1.288,3.35ZM48.146,85.7a.422.422,0,0,0-.283.109L46.134,87.37a.423.423,0,0,0,.283.736H57.178a.423.423,0,0,0,.283-.737l-1.729-1.561a.423.423,0,0,0-.283-.109Z" fill="#0f0f0f"/><path d="M94.745,12.521A3.809,3.809,0,1,1,90.94,8.716,3.808,3.808,0,0,1,94.745,12.521Z" fill="#ffd9b0"/><path d="M94.745,12.52a3.809,3.809,0,0,1-7.393,1.3,3.815,3.815,0,0,0,5.8-3.256,3.719,3.719,0,0,0-.216-1.268,3.794,3.794,0,0,1,1.808,3.229Z" fill="#edb57e"/><path d="M90.939,17.083a4.559,4.559,0,1,1,4.555-4.562A4.567,4.567,0,0,1,90.939,17.083Zm0-7.618a3.059,3.059,0,1,0,3.055,3.055A3.062,3.062,0,0,0,90.939,9.466Z" fill="#0f0f0f"/><path d="M19.578,14.806a7.3,7.3,0,0,0-5.66,5.667.15.15,0,0,1-.3,0,7.315,7.315,0,0,0-5.66-5.667.15.15,0,0,1,0-.3,7.289,7.289,0,0,0,5.66-5.667.15.15,0,0,1,.3,0,7.289,7.289,0,0,0,5.66,5.667.15.15,0,0,1,0,.3Z" fill="#dabcbc"/><path d="M19.581,14.8a7.3,7.3,0,0,0-5.665,5.674.151.151,0,0,1-.3,0,7.154,7.154,0,0,0-1.84-3.537,4.858,4.858,0,0,0,3.978-4.581,1.163,1.163,0,0,0,.144.163,7.217,7.217,0,0,0,3.681,1.984A.151.151,0,0,1,19.581,14.8Z" fill="#bc9595"/><path d="M13.77,21.35a.9.9,0,0,1-.882-.724,6.564,6.564,0,0,0-5.075-5.085.9.9,0,0,1,0-1.765,6.538,6.538,0,0,0,5.079-5.082.9.9,0,0,1,1.765,0,6.539,6.539,0,0,0,5.075,5.084.9.9,0,0,1,0,1.766h0a6.528,6.528,0,0,0-5.077,5.084.9.9,0,0,1-.882.726ZM9.889,14.658a7.978,7.978,0,0,1,2.277,1.608,7.944,7.944,0,0,1,1.6,2.279,8.028,8.028,0,0,1,3.881-3.886,8.1,8.1,0,0,1-3.882-3.884,8.09,8.09,0,0,1-3.881,3.883Zm9.689.148h.01Zm-.152-.734h0Z" fill="#0f0f0f"/><path d="M76.358,22.85V67.13a4.545,4.545,0,0,1-4.55,4.54H32.758a4.545,4.545,0,0,1-4.55-4.54V22.85a4.554,4.554,0,0,1,4.55-4.55h39.05a4.554,4.554,0,0,1,4.55,4.55Z" fill="#fff"/><path d="M76.358,61.5v5.63a4.545,4.545,0,0,1-4.55,4.54H32.758a4.545,4.545,0,0,1-4.55-4.54V22.85a4.554,4.554,0,0,1,4.55-4.55h5.6a29.113,29.113,0,0,0,38,43.2Z" fill="#ddd"/><path d="M71.808,72.425H32.758a5.306,5.306,0,0,1-5.3-5.3V22.85a5.306,5.306,0,0,1,5.3-5.3h39.05a5.306,5.306,0,0,1,5.3,5.3V67.125A5.306,5.306,0,0,1,71.808,72.425ZM32.758,19.05a3.8,3.8,0,0,0-3.8,3.8V67.125a3.8,3.8,0,0,0,3.8,3.8h39.05a3.8,3.8,0,0,0,3.8-3.8V22.85a3.8,3.8,0,0,0-3.8-3.8Z" fill="#0f0f0f"/><path d="M48.858,24.05H39.733a.75.75,0,0,1,0-1.5h9.125a.75.75,0,0,1,0,1.5Z" fill="#0f0f0f"/><path d="M35.983,24.05H33.208a.75.75,0,0,1,0-1.5h2.775a.75.75,0,0,1,0,1.5Z" fill="#0f0f0f"/><path d="M42.858,29.75h-9.65a.75.75,0,0,1,0-1.5h9.65a.75.75,0,0,1,0,1.5Z" fill="#0f0f0f"/><path d="M58.674,62.772a.747.747,0,0,1-.37-.1L41.618,53.21a.75.75,0,0,1,0-1.3L58.3,42.441a.75.75,0,0,1,.74,1.3L43.508,52.557l15.537,8.812a.75.75,0,0,1-.371,1.4Z" fill="#0f0f0f"/><circle cx="4.426" cy="4.426" r="4.426" transform="translate(37.562 48.131)" fill="#ffd9b0"/><path d="M46.418,52.56a4.431,4.431,0,0,1-8.73,1.06,4.437,4.437,0,0,0,7.23-3.44,4.586,4.586,0,0,0-.13-1.06,4.453,4.453,0,0,1,1.63,3.44Z" fill="#edb57e"/><circle cx="4.426" cy="4.426" r="4.426" transform="translate(54.248 38.667)" fill="#ffd9b0"/><circle cx="4.426" cy="4.426" r="4.426" transform="translate(54.248 57.596)" fill="#ffd9b0"/><path d="M63.1,43.09a4.424,4.424,0,0,1-8.72,1.06,4.429,4.429,0,0,0,7.22-3.43,4.329,4.329,0,0,0-.14-1.08,4.451,4.451,0,0,1,1.64,3.45Z" fill="#edb57e"/><path d="M63.1,62.02a4.419,4.419,0,0,1-8.71,1.07,4.431,4.431,0,0,0,7.21-3.44,4.111,4.111,0,0,0-.13-1.06A4.418,4.418,0,0,1,63.1,62.02Z" fill="#edb57e"/><path d="M41.988,57.734a5.176,5.176,0,1,1,5.176-5.177A5.182,5.182,0,0,1,41.988,57.734Zm0-8.853a3.676,3.676,0,1,0,3.676,3.676A3.68,3.68,0,0,0,41.988,48.881Z" fill="#0f0f0f"/><path d="M58.674,48.27a5.176,5.176,0,1,1,5.176-5.176A5.182,5.182,0,0,1,58.674,48.27Zm0-8.853a3.676,3.676,0,1,0,3.676,3.677A3.681,3.681,0,0,0,58.674,39.417Z" fill="#0f0f0f"/><path d="M58.674,67.2a5.176,5.176,0,1,1,5.176-5.176A5.182,5.182,0,0,1,58.674,67.2Zm0-8.853a3.676,3.676,0,1,0,3.676,3.677A3.681,3.681,0,0,0,58.674,58.345Z" fill="#0f0f0f"/><path d="M100.5,31.48V46.4a3.477,3.477,0,0,1-3.471,3.48H77.189a3.477,3.477,0,0,1-3.471-3.48V31.48A3.477,3.477,0,0,1,77.189,28H97.027a3.477,3.477,0,0,1,3.471,3.48Z" fill="#ff84a0"/><path d="M100.5,44.92V46.4a3.474,3.474,0,0,1-3.47,3.48H77.188a3.474,3.474,0,0,1-3.47-3.48V31.48A3.48,3.48,0,0,1,77.188,28h2.62a10.134,10.134,0,0,0-1.45,5.17c0,6.95,7.3,12.58,16.31,12.58a20.432,20.432,0,0,0,5.83-.83Z" fill="#f76189"/><path d="M97.027,50.633H77.188a4.23,4.23,0,0,1-4.22-4.23V31.48a4.23,4.23,0,0,1,4.22-4.23H97.027a4.23,4.23,0,0,1,4.22,4.23V46.4A4.23,4.23,0,0,1,97.027,50.633ZM77.188,28.75a2.728,2.728,0,0,0-2.72,2.73V46.4a2.728,2.728,0,0,0,2.72,2.73H97.027a2.728,2.728,0,0,0,2.72-2.73V31.48a2.728,2.728,0,0,0-2.72-2.73Z" fill="#0f0f0f"/><path d="M90.885,41.132l-4.94,2.95a2.547,2.547,0,0,1-3.86-2.19v-5.9a2.547,2.547,0,0,1,3.86-2.19l4.94,2.95a2.549,2.549,0,0,1,0,4.38Z" fill="#fff"/><path d="M90.888,41.13l-4.94,2.95a2.547,2.547,0,0,1-3.86-2.19v-1.1a4.457,4.457,0,0,0,2.21.59c2.59,0,4.76-2.29,5.34-5.38l1.25.75A2.549,2.549,0,0,1,90.888,41.13Z" fill="#ddd"/><path d="M84.633,45.2a3.311,3.311,0,0,1-3.3-3.31v-5.9a3.3,3.3,0,0,1,5-2.833l4.939,2.949a3.3,3.3,0,0,1,0,5.668l-4.94,2.95a3.288,3.288,0,0,1-1.7.476Zm0-11.017a1.8,1.8,0,0,0-1.8,1.807v5.9a1.8,1.8,0,0,0,2.724,1.547L90.5,40.488a1.8,1.8,0,0,0,0-3.092l-4.94-2.95a1.8,1.8,0,0,0-.929-.261Z" fill="#0f0f0f"/><path d="M31.282,56.047V70.97a3.477,3.477,0,0,1-3.471,3.48H7.973A3.477,3.477,0,0,1,4.5,70.97V56.047a3.477,3.477,0,0,1,3.471-3.48H27.811A3.477,3.477,0,0,1,31.282,56.047Z" fill="#aff2b6"/><path d="M31.282,69.487v1.48a3.474,3.474,0,0,1-3.47,3.48H7.972a3.474,3.474,0,0,1-3.47-3.48V56.047a3.48,3.48,0,0,1,3.47-3.48h2.62a10.134,10.134,0,0,0-1.45,5.17c0,6.95,7.3,12.58,16.31,12.58a20.432,20.432,0,0,0,5.83-.83Z" fill="#7fd685"/><path d="M27.811,75.2H7.973a4.23,4.23,0,0,1-4.22-4.23V56.047a4.23,4.23,0,0,1,4.22-4.23H27.811a4.23,4.23,0,0,1,4.221,4.23V70.97a4.23,4.23,0,0,1-4.221,4.23ZM7.973,53.317a2.728,2.728,0,0,0-2.72,2.73V70.97a2.728,2.728,0,0,0,2.72,2.73H27.811a2.728,2.728,0,0,0,2.721-2.73V56.047a2.729,2.729,0,0,0-2.721-2.73Z" fill="#0f0f0f"/><path d="M26.368,71.083H9.419a1.57,1.57,0,0,1-1.263-2.5l5.828-7.857a1.571,1.571,0,0,1,2.5-.018L20.66,66.2a.467.467,0,0,0,.7.037l1.89-2.01a1.566,1.566,0,0,1,2.554.406l1.983,4.224a1.571,1.571,0,0,1-1.42,2.232Z" fill="#fff"/><path d="M26.368,71.083H9.419a1.57,1.57,0,0,1-1.263-2.5l5.063-6.824c.572,4.122,4.675,7.322,9.655,7.322a10.911,10.911,0,0,0,4.565-.978l.35.747a1.571,1.571,0,0,1-1.42,2.232Z" fill="#ddd"/><path d="M26.368,71.834H9.419a2.32,2.32,0,0,1-1.868-3.692l5.831-7.86a2.317,2.317,0,0,1,1.857-.931h.007a2.287,2.287,0,0,1,1.833.9l3.971,5.216,1.655-1.76a2.316,2.316,0,0,1,3.779.6l1.983,4.225a2.32,2.32,0,0,1-2.1,3.3ZM15.245,60.85h0a.823.823,0,0,0-.66.33L8.758,69.031a.808.808,0,0,0-.067.856.8.8,0,0,0,.728.446H26.368a.8.8,0,0,0,.684-.375.814.814,0,0,0,.055-.793l-1.98-4.218a.816.816,0,0,0-1.33-.21l-1.89,2.01a1.2,1.2,0,0,1-.936.376,1.219,1.219,0,0,1-.9-.461l-4.186-5.5a.8.8,0,0,0-.641-.314Z" fill="#0f0f0f"/><circle cx="2.083" cy="2.083" r="2.083" transform="translate(19.367 55.934)" fill="#fff"/><path d="M21.45,60.85a2.833,2.833,0,1,1,2.833-2.833A2.836,2.836,0,0,1,21.45,60.85Zm0-4.166a1.333,1.333,0,1,0,1.333,1.333A1.334,1.334,0,0,0,21.45,56.684Z" fill="#0f0f0f"/><path d="M93.233,25.008h-9.07a.75.75,0,0,1,0-1.5h9.07a.75.75,0,0,1,0,1.5Z" fill="#0f0f0f"/><path d="M81.009,25.008h-.79a.75.75,0,0,1,0-1.5h.79a.75.75,0,0,1,0,1.5Z" fill="#0f0f0f"/></g></svg>