<svg xmlns="http://www.w3.org/2000/svg" width="71.058" height="77.674" viewBox="0 0 71.058 77.674"><g transform="translate(-53.445 -35.131)"><path d="M58.935,130.89h51.421v21.85s-8.156-.861-12.712,4.266-9.1,9.886-6.987,15.631H65.809s-6.63-.421-7.363-7.153V148.668Z" transform="translate(-4.098 -78.463)" fill="#c9c9c9"/><path d="M110.356,171.912c-6.953,9.722-24.537,28.94-51.91,23.262V199.1c.733,6.733,7.363,7.153,7.363,7.153H90.657c-2.115-5.744,2.431-10.5,6.987-15.631s12.712-4.266,12.712-4.266Z" transform="translate(-4.097 -112.076)" fill="#a9aaaa"/><path d="M58.935,72.936h51.421l.519-5.789-1.812-3.931-3.329-2.082-4.646-.974H65.58l-5.4,2.993-1.739,2.889Z" transform="translate(-4.098 -20.509)" fill="#f85e3a"/><path d="M215.56,61.134l-4.647-.974h-3.737c1.478,3.847,1.185,10.179-14.585,12.756l-.112.019h27.7l.519-5.789-1.812-3.931Z" transform="translate(-113.923 -20.509)" fill="#c83e23"/><path d="M185.674,174.942s4.375,18.857-14.358,18.14l-1.318-.8s-2.64-6.535,1.258-11.162,10.089-4.68,10.089-4.68Z" transform="translate(-94.786 -114.559)" fill="#c1ee2b"/><path d="M185.943,215.175c-3.6,3.661-9.742,7.726-16.54,2.711a13.842,13.842,0,0,0,.6,7.364l1.318.8C182.1,226.461,185.227,220.4,185.943,215.175Z" transform="translate(-94.795 -147.526)" fill="#8dae08"/><path d="M130.624,202.291l7.15,2.159s-2.869,6.152.052,10.243l-.325.8S126.993,212.876,130.624,202.291Z" transform="translate(-62.614 -136.969)" fill="#66ba00"/><path d="M142.317,209.746l-3.284-.992c.111,2.787-.194,7.549-3.627,7.087,2.072,3.808,6.639,4.945,6.639,4.945l.325-.8C139.448,215.9,142.317,209.746,142.317,209.746Z" transform="translate(-67.157 -142.264)" fill="#48880c"/><path d="M255,255.445a3.345,3.345,0,0,0,.212,3.875c1.529,1.952,1.017,3.935-.369,4.529s-3.907,1.892-3.64,3.763.239,4.667-.724,5.692-2.866,2.723-7.831,1.858a49.342,49.342,0,0,1-8-2s.569-19.992,20.355-17.716Z" transform="translate(-148.471 -180.374)" fill="#66ba00"/><path d="M369.559,264.225s-3.977,2.265-1.621,4.881,5.7,3.56,4.85,6.089.173,7.054,2.639,8.486a5.892,5.892,0,0,0,5.015.282s1.522-17.139-10.882-19.738Z" transform="translate(-257.079 -187.716)" fill="#66ba00"/><path d="M263.208,394.2s1.831-5.646,5.66-4.645,6.531,1.753,8.988-.086,8.773-5.09,12.09.777l1.124,3.576s-12.659,12.557-27.861.378Z" transform="translate(-171.877 -288.234)" fill="#c1ee2b"/><path d="M398.847,277.875c.985,3.421,2.631,11.01-2.3,10.55,0,2.438,1.046,5.345,2.933,6.441a5.892,5.892,0,0,0,5.015.282,29.041,29.041,0,0,0-1.341-10.731l-3.318-5.625A11.818,11.818,0,0,0,398.847,277.875Z" transform="translate(-281.13 -198.901)" fill="#48880c"/><path d="M244.307,282.478c-6.392.22-2.749-9.292-2.721-9.364h0l-5.019,6.655a24.029,24.029,0,0,0-1.922,8.017,49.347,49.347,0,0,0,8,2c4.965.866,6.868-.833,7.831-1.858s.991-3.82.724-5.692a2.263,2.263,0,0,1,.651-1.836c-1.142.8-3.455,1.935-7.544,2.076Z" transform="translate(-148.471 -195)" fill="#48880c"/><path d="M307.137,390.25c-2-3.546-5.1-3.761-7.786-2.97.755,2.225,3.01,11.8-15.162,9.5,13.46,7.57,24.072-2.953,24.072-2.953Z" transform="translate(-189.068 -288.236)" fill="#8dae08"/><path d="M262.488,257.149s-3.626,2.719-.878,5.228,4.141,2.5,3.958,5.2-.731,6.141,2.649,7.825,4.88,1.373,4.88,1.373l-.921,4.381-2.6,3.836s-2.83-5.728-6.1-5.614-5.285.622-7.058,2a6.049,6.049,0,0,1-4.087,1.074s-3.568-1.3-5.181-.325-5.843,3.494-5.843,3.494-4.927-6.047-4.588-11.072v-1.4s7.786,3.136,11.453,1.818,4.412-.7,4.354-2.21-.516-5.18-.516-5.18l3.115-2.835,1.926-1.691a2.648,2.648,0,0,0,.265-3.106,6.378,6.378,0,0,1-.666-3.825l.286-.852S262.087,255.946,262.488,257.149Z" transform="translate(-150.154 -180.375)" fill="#92f5ff"/><g transform="translate(88.788 92.527)"><path d="M249.126,403.7a27.692,27.692,0,0,0,2.36,3.546s2.591-1.544,4.491-2.682A34.081,34.081,0,0,1,249.126,403.7Z" transform="translate(-249.126 -394.526)" fill="#6ad2ff"/><path d="M337.578,355.41a4.614,4.614,0,0,1-2.368-2.5,22.962,22.962,0,0,1-13.862,9.436c.215.068.34.113.34.113a6.05,6.05,0,0,0,4.087-1.074c1.773-1.379,3.788-1.886,7.058-2s6.1,5.614,6.1,5.614l2.6-3.835.921-4.381S340.958,357.095,337.578,355.41Z" transform="translate(-308.303 -352.912)" fill="#6ad2ff"/></g><g transform="translate(53.445 35.131)"><path d="M148.906,167.324a.9.9,0,0,0-1.368.626c-.479.284-2.089,1.008-7.25,2.178a11.567,11.567,0,0,0-7.313,4.655,11.229,11.229,0,0,0-1.712-.53,24.514,24.514,0,0,1-5.243-1.547.9.9,0,0,0-1.342-.51,1.008,1.008,0,0,0-.473.921c-.88,4.7-.366,8.37,1.53,10.91a10.284,10.284,0,0,0,7.482,3.75c.028,0,.056,0,.084,0a.893.893,0,0,0,.383-.09c.452.046,1.137.1,1.98.1,2.891,0,7.606-.59,10.859-3.976,3.213-3.344,4.178-8.556,2.87-15.5a1.047,1.047,0,0,0-.487-.991Zm-21.724,15.623c-1.436-1.924-1.9-4.734-1.389-8.365a34.521,34.521,0,0,0,5.07,1.432,9.58,9.58,0,0,1,1.21.36l-.045.1a12.591,12.591,0,0,0-.227,9.258A7.742,7.742,0,0,1,127.182,182.947Zm18.045-.394a12.187,12.187,0,0,1-7.449,3.3c-.4.046-.792.075-1.161.094a29.426,29.426,0,0,0,8.723-9.74.9.9,0,0,0-1.566-.9c-1.637,2.846-5.07,7.83-10.1,10.24a10.7,10.7,0,0,1,.008-8.341,9.536,9.536,0,0,1,7.009-5.319,48.771,48.771,0,0,0,6.737-1.9q.21-.085.4-.168C148.7,175.559,147.832,179.836,145.227,182.553Z" transform="translate(-111.083 -143.337)" fill="#05231c"/><path d="M104.966,112.8a19.537,19.537,0,0,0,2.2-38.949V47.316a8.065,8.065,0,0,0-8.056-8.056H95.68V36.034a.9.9,0,1,0-1.806,0V39.26H66.953V36.034a.9.9,0,1,0-1.806,0V39.26H61.5a8.065,8.065,0,0,0-8.056,8.056V75.743a.9.9,0,0,0,1.806,0V53.33H67.937a.9.9,0,0,0,0-1.806H55.252V47.316a6.257,6.257,0,0,1,6.25-6.25h37.6a6.257,6.257,0,0,1,6.25,6.25v4.207H73.322a.9.9,0,0,0,0,1.806h32.034V73.736c-.13,0-.259,0-.39,0A19.559,19.559,0,0,0,85.429,93.267v0H61.5a6.257,6.257,0,0,1-6.25-6.25V80.784a.9.9,0,1,0-1.806,0V87.02A8.065,8.065,0,0,0,61.5,95.076H85.513a19.471,19.471,0,0,0,5.164,11.5.9.9,0,0,0,.194.206,19.482,19.482,0,0,0,14.094,6.021Zm0-1.806a17.675,17.675,0,0,1-12.513-5.181,5.882,5.882,0,0,1,5.638-3.637,12.366,12.366,0,0,1,2.217.415c.384.1.782.195,1.185.277a6.175,6.175,0,0,0,4.117-.315,7.415,7.415,0,0,0,1.573-1.167c.192-.171.373-.333.557-.482a6.68,6.68,0,0,1,5.4-1.3.9.9,0,0,0,.344-1.773,8.505,8.505,0,0,0-6.88,1.662c-.221.178-.428.363-.629.542a5.974,5.974,0,0,1-1.189.9,4.5,4.5,0,0,1-2.937.155c-.365-.074-.727-.164-1.109-.26a13.912,13.912,0,0,0-2.545-.465,7.775,7.775,0,0,0-7.052,3.986,17.642,17.642,0,0,1-3.9-10.525l5.11,1.075a31.755,31.755,0,0,0,4.829.757c.209.011.445.02.7.02A7.386,7.386,0,0,0,100.4,95.3a4.389,4.389,0,0,0,2.62-2.384,6.462,6.462,0,0,0,.123-3.468,4.459,4.459,0,0,1,.07-2.6,4.7,4.7,0,0,1,2.041-1.6,5.321,5.321,0,0,0,2.893-2.737,4.629,4.629,0,0,0-.3-3.257c-.089-.22-.184-.438-.279-.656a6.968,6.968,0,0,1-.578-1.678,1.825,1.825,0,0,1,.216-1.232,17.582,17.582,0,0,1,3.824.927,5.2,5.2,0,0,0,.96,7.732,9.326,9.326,0,0,0,1.187.661c.242.12.471.232.686.356a2,2,0,0,1,.974.976,3.084,3.084,0,0,1-.179,1.627c-.057.208-.115.423-.165.642a7.238,7.238,0,0,0,7.153,8.85c.186,0,.372-.01.558-.024a17.649,17.649,0,0,1-2.545,5.759,8.6,8.6,0,0,0-1.462-2.524.9.9,0,1,0-1.389,1.155,6.739,6.739,0,0,1,1.461,3.163,17.692,17.692,0,0,1-13.3,6.022ZM122.7,93.267a17.823,17.823,0,0,1-.149,2.3A5.449,5.449,0,0,1,116.254,89c.041-.181.092-.368.146-.566a4.467,4.467,0,0,0,.148-2.677,3.7,3.7,0,0,0-1.784-1.966c-.265-.153-.532-.285-.789-.411a7.867,7.867,0,0,1-.964-.53,3.4,3.4,0,0,1-.185-5.47,17.75,17.75,0,0,1,9.871,15.89ZM104.966,75.537c.115,0,.229,0,.343,0a3.843,3.843,0,0,0-.105,1.64,8.424,8.424,0,0,0,.709,2.13c.088.2.177.4.259.607a2.975,2.975,0,0,1,.265,2c-.256.756-1.086,1.208-2.047,1.732a6.127,6.127,0,0,0-2.782,2.363,5.9,5.9,0,0,0-.251,3.7,5,5,0,0,1-.01,2.517A2.627,2.627,0,0,1,99.781,93.6a6.259,6.259,0,0,1-2.5.267,30.386,30.386,0,0,1-4.554-.72L87.281,92a17.753,17.753,0,0,1,17.685-16.464Z" transform="translate(-53.445 -35.131)" fill="#05231c"/></g></g></svg>