<svg xmlns="http://www.w3.org/2000/svg" width="87.089" height="88.052" viewBox="0 0 87.089 88.052"><g transform="translate(-28.516 -26)"><g transform="translate(28.516 26)"><path d="M140.282,123.657v36.369H68.5V123.657A7.655,7.655,0,0,1,76.157,116h56.468A7.655,7.655,0,0,1,140.282,123.657Z" transform="translate(-60.846 -98.772)" fill="#e3f4ff"/><circle cx="5.743" cy="5.743" r="5.743" transform="translate(2.868 0.957)" fill="#00d27e"/><path d="M432.328,31a3.828,3.828,0,1,1-3.828,3.828A3.84,3.84,0,0,1,432.328,31Z" transform="translate(-351.936 -30.043)" fill="#00d27e"/><path d="M312.734,241.5l-.613,5.57v.077h-5.436L305.9,241.6a5.176,5.176,0,0,0,3.446,1.244A5.108,5.108,0,0,0,312.734,241.5Z" transform="translate(-252.804 -200.249)" fill="#43a3f9"/><path d="M198.5,216h4.02v10.528H198.5Z" transform="translate(-165.962 -179.631)" fill="#fc3e81"/><path d="M177.5,216h4.02v10.528H177.5Z" transform="translate(-148.982 -179.631)" fill="#fd6096"/><path d="M218.5,446h15.313v6.7H218.5Z" transform="translate(-182.134 -365.604)" fill="#99bce4"/><path d="M298.5,446h32.541a13.324,13.324,0,0,1-11.542,6.7h-21Z" transform="translate(-246.82 -365.604)" fill="#4e7693"/><path d="M77,446v6.7H55.043A13.324,13.324,0,0,1,43.5,446Z" transform="translate(-40.632 -365.604)" fill="#4e7693"/><path d="M120.067,376l4.785,13.4H43.5L48.285,376Z" transform="translate(-40.632 -309.004)" fill="#618baa"/><path d="M68.5,346h71.782v5.743H68.5Z" transform="translate(-60.846 -284.746)" fill="#bddff4"/><path d="M192.378,274.35a3.341,3.341,0,0,1-3.35,3.35H152.85a3.35,3.35,0,1,1,0-6.7h36.178A3.341,3.341,0,0,1,192.378,274.35Z" transform="translate(-126.341 -224.103)" fill="#99bce4"/><path d="M248.2,186.1h-6.7V166h6.7Z" transform="translate(-200.731 -139.201)" fill="#fd9426"/><path d="M181.52,166l4.02,9.571H177.5Z" transform="translate(-148.982 -139.201)" fill="#fede93"/><path d="M306.736,176.547a5.182,5.182,0,0,1-5.092,5.245,5.212,5.212,0,0,1-3.446-1.244,5.116,5.116,0,0,1-1.8-3.848c-.038-2.584,5.034-6.738,4.977-10.7C303.175,168.756,306.7,173.925,306.736,176.547Z" transform="translate(-245.121 -139.201)" fill="#fede93"/><g transform="translate(0 0)"><path d="M471.269,246.893a1.433,1.433,0,1,0-.766,1.876A1.435,1.435,0,0,0,471.269,246.893Z" transform="translate(-384.292 -203.901)"/><path d="M380.5,63.769A1.433,1.433,0,1,0,378.627,63,1.435,1.435,0,0,0,380.5,63.769Z" transform="translate(-311.519 -54.313)"/><path d="M265.5,43.769A1.433,1.433,0,1,0,263.628,43,1.435,1.435,0,0,0,265.5,43.769Z" transform="translate(-218.532 -38.141)"/><path d="M170.5,73.769A1.433,1.433,0,1,0,168.627,73,1.435,1.435,0,0,0,170.5,73.769Z" transform="translate(-141.717 -62.399)"/><path d="M31.269,181.893a1.433,1.433,0,1,0-.766,1.876A1.435,1.435,0,0,0,31.269,181.893Z" transform="translate(-28.516 -151.343)"/><path d="M116.954,161.553v-41.94A8.627,8.627,0,0,0,108.34,111H51.872a8.627,8.627,0,0,0-8.614,8.614v41.94c-5.034,14.088-4.747,13.284-4.785,13.438a1.031,1.031,0,0,0,.115.613,14.3,14.3,0,0,0,12.385,7.178H109.24a14.28,14.28,0,0,0,12.385-7.178.793.793,0,0,0,.115-.44c0-.287.306.67-4.785-13.61ZM45.172,156.94H115.04v3.828H45.172Zm6.7-44.026H108.34a6.707,6.707,0,0,1,6.7,6.7v35.412H45.172V119.614A6.707,6.707,0,0,1,51.872,112.914ZM41.21,176.082H71.971v4.785h-21A12.428,12.428,0,0,1,41.21,176.082Zm46.074,4.785h-13.4v-4.785h13.4Zm21.956,0H89.2v-4.785H119A12.341,12.341,0,0,1,109.24,180.868Zm-68.451-6.7,4.1-11.485h70.442l4.1,11.485Z" transform="translate(-36.561 -94.729)"/><path d="M106.371,396h-1.914a.957.957,0,1,0,0,1.914h1.914a.957.957,0,1,0,0-1.914Z" transform="translate(-89.147 -325.175)"/><path d="M146.371,396h-1.914a.957.957,0,1,0,0,1.914h1.914a.957.957,0,1,0,0-1.914Z" transform="translate(-121.49 -325.175)"/><path d="M184.457,397.914h1.914a.957.957,0,1,0,0-1.914h-1.914a.957.957,0,1,0,0,1.914Z" transform="translate(-153.833 -325.175)"/><path d="M224.457,397.914h1.914a.957.957,0,1,0,0-1.914h-1.914a.957.957,0,1,0,0,1.914Z" transform="translate(-186.176 -325.175)"/><path d="M266.371,396h-1.914a.957.957,0,0,0,0,1.914h1.914a.957.957,0,0,0,0-1.914Z" transform="translate(-218.52 -325.175)"/><path d="M306.371,396h-1.914a.957.957,0,1,0,0,1.914h1.914a.957.957,0,1,0,0-1.914Z" transform="translate(-250.863 -325.175)"/><path d="M346.371,396h-1.914a.957.957,0,0,0,0,1.914h1.914a.957.957,0,0,0,0-1.914Z" transform="translate(-283.206 -325.175)"/><path d="M386.371,396h-1.914a.957.957,0,0,0,0,1.914h1.914a.957.957,0,0,0,0-1.914Z" transform="translate(-315.55 -325.175)"/><path d="M106.371,416h-1.914a.957.957,0,1,0,0,1.914h1.914a.957.957,0,0,0,0-1.914Z" transform="translate(-89.147 -341.347)"/><path d="M146.371,416h-1.914a.957.957,0,1,0,0,1.914h1.914a.957.957,0,1,0,0-1.914Z" transform="translate(-121.49 -341.347)"/><path d="M201.685,416H184.457a.957.957,0,0,0,0,1.914h17.228a.957.957,0,1,0,0-1.914Z" transform="translate(-153.833 -341.347)"/><path d="M306.371,416h-1.914a.957.957,0,1,0,0,1.914h1.914a.957.957,0,0,0,0-1.914Z" transform="translate(-250.863 -341.347)"/><path d="M346.371,416h-1.914a.957.957,0,0,0,0,1.914h1.914a.957.957,0,0,0,0-1.914Z" transform="translate(-283.206 -341.347)"/><path d="M386.371,416h-1.914a.957.957,0,0,0,0,1.914h1.914a.957.957,0,0,0,0-1.914Z" transform="translate(-315.55 -341.347)"/><path d="M428.285,35.571a4.785,4.785,0,1,0-4.785-4.785A4.787,4.787,0,0,0,428.285,35.571Zm0-7.657a2.871,2.871,0,1,1-2.871,2.871A2.867,2.867,0,0,1,428.285,27.914Z" transform="translate(-347.893 -26)"/><path d="M45.2,39.4a6.7,6.7,0,1,0-6.7-6.7A6.707,6.707,0,0,0,45.2,39.4Zm0-11.485A4.785,4.785,0,1,1,40.414,32.7,4.787,4.787,0,0,1,45.2,27.914Z" transform="translate(-36.589 -26)"/><path d="M148.807,189.713h36.178a4.307,4.307,0,1,0,0-8.614h-2.316l.459-4.249a6.183,6.183,0,0,0,1.742-4.364c-.057-2.967-3.771-8.384-5.494-11.045a.959.959,0,0,0-1.761.536c.038,3.618-5.034,7.657-4.977,10.719a6.094,6.094,0,0,0,1.857,4.288l.574,4.115h-4.345V161.957a.948.948,0,0,0-.957-.957h-6.7a.948.948,0,0,0-.957.957V181.1h-2.3c0-10.145.019-9.59-.019-9.762s.191.4-4.077-9.743a.953.953,0,0,0-1.761,0c-4.249,10.145-4.039,9.571-4.077,9.743s-.019-.383-.019,9.762h-1.053a4.307,4.307,0,0,0,0,8.614Zm30.244-25.248c1.646,2.584,3.867,6.24,3.9,8.059a4.208,4.208,0,0,1-4.135,4.269h-.077a4.2,4.2,0,0,1-4.192-4.135C174.533,171.011,177.864,167.7,179.051,164.465Zm-2.431,13.859a6.128,6.128,0,0,0,4.441-.057l-.306,2.852h-3.733Zm-12.6-15.409h4.785v2.871H166.9a.957.957,0,1,0,0,1.914h1.914v3.828H166.9a.957.957,0,1,0,0,1.914h1.914v3.828H166.9a.957.957,0,1,0,0,1.914h1.914V181.1h-4.785ZM151.774,181.1v-8.614h2.106V181.1Zm4.02-8.614H157.9V181.1h-2.106Zm-.957-8.059,2.584,6.145h-5.168Zm-6.03,18.587h36.178a2.393,2.393,0,1,1,0,4.785H148.807a2.393,2.393,0,1,1,0-4.785Z" transform="translate(-122.298 -135.159)"/></g></g></g></svg>