<svg xmlns="http://www.w3.org/2000/svg" width="65.614" height="100.666" viewBox="0 0 65.614 100.666"><g transform="translate(-94.397 -7)"><path fill="#6ce79a" d="M155.927 107.166H98.041a2.9 2.9 0 0 1-3.144-2.567V46.25l15.878-7.969c0-1.418.716-2.567 1.6-2.567h29.66c.883 0 1.6 1.149 1.6 2.567l15.878 8.5v57.457c-.002 1.618-1.607 2.928-3.586 2.928"/><path fill="#00d8a2" d="M143.632 38.28c0-1.418-.716-2.567-1.6-2.567h-4.761c.883 0 1.6 1.149 1.6 2.567l15.878 8.5v57.457c0 1.617-1.6 2.927-3.584 2.927h4.761c1.979 0 3.584-1.31 3.584-2.927V46.783Z"/><path fill="none" stroke="#000" stroke-linecap="round" stroke-linejoin="round" stroke-miterlimit="10" d="M159.511 70.636v-38.1a2.84 2.84 0 0 0-2.841-2.841H97.738a2.84 2.84 0 0 0-2.841 2.841v71.787a2.84 2.84 0 0 0 2.841 2.841h58.534a3.24 3.24 0 0 0 3.239-3.239V76.452"/><path fill="#faf7f8" d="M94.9 57.793c17.4-5.521 39.986 9.982 64.614 3.31V32.264a2.9 2.9 0 0 0-3.144-2.567H98.041a2.9 2.9 0 0 0-3.144 2.567v25.528Z"/><path fill="#f0eef0" d="M156.367 29.697h-4.761a2.9 2.9 0 0 1 3.144 2.567v29.867a48 48 0 0 0 4.761-1.028V32.264a2.9 2.9 0 0 0-3.144-2.567"/><circle cx="9.278" cy="9.278" r="9.278" fill="#a2dbff" transform="translate(117.926 35.926)"/><circle cx="9.278" cy="9.278" r="9.278" fill="none" stroke="#000" stroke-linecap="round" stroke-linejoin="round" stroke-miterlimit="10" transform="translate(117.926 35.926)"/><path fill="#6ce79a" d="M117.926 45.204a9.24 9.24 0 0 0 2.287 6.1c1.832-2.955 5.7-6.239 6.5-9.185.535-1.962-.678-4.07-2.177-5.8a9.28 9.28 0 0 0-6.61 8.885m18.556-.001a9.3 9.3 0 0 0-.439-2.824c-2.8.619-5.962 1.872-6.67 4.4-.736 2.631.122 4.905.554 7.292a9.28 9.28 0 0 0 6.555-8.868"/><path fill="none" stroke="#000" stroke-linecap="round" stroke-linejoin="round" stroke-miterlimit="10" d="M117.926 45.204a9.24 9.24 0 0 0 2.287 6.1c1.832-2.955 5.7-6.239 6.5-9.185.535-1.962-.678-4.07-2.177-5.8a9.28 9.28 0 0 0-6.61 8.885m18.556-.001a9.3 9.3 0 0 0-.439-2.824c-2.8.619-5.962 1.872-6.67 4.4-.736 2.631.122 4.905.554 7.292a9.28 9.28 0 0 0 6.555-8.868"/><g transform="translate(117.429 67.953)"><path fill="#00c4a4" d="m7.772 10.232.113-2.638A7.933 7.933 0 0 1 16.151.008l2.638.113a.8.8 0 0 1 .761.829l-.113 2.638a7.933 7.933 0 0 1-8.266 7.586l-2.638-.113a.8.8 0 0 1-.761-.829"/><path fill="none" stroke="#000" stroke-linecap="round" stroke-linejoin="round" stroke-miterlimit="10" d="m7.772 10.232.113-2.638A7.93 7.93 0 0 1 16.151.008l2.638.113a.8.8 0 0 1 .761.829l-.113 2.638a7.934 7.934 0 0 1-7.862 7.593q-.2 0-.4-.007l-2.638-.113a.8.8 0 0 1-.765-.829"/><path fill="#00d8a2" d="M10.79 12.891H7.933A7.933 7.933 0 0 1 0 4.958V2.101a.58.58 0 0 1 .579-.579h2.857a7.933 7.933 0 0 1 7.933 7.933v2.857a.58.58 0 0 1-.579.579"/><path fill="none" stroke="#000" stroke-linecap="round" stroke-linejoin="round" stroke-miterlimit="10" d="M10.79 12.891H7.933A7.933 7.933 0 0 1 0 4.958V2.101a.58.58 0 0 1 .579-.579h2.857a7.933 7.933 0 0 1 7.933 7.933v2.857a.58.58 0 0 1-.579.579"/></g><path fill="none" stroke="#000" stroke-linecap="round" stroke-linejoin="round" stroke-miterlimit="10" d="M106.806 43.808h3.621m33.555 0h3.621"/><path fill="#faf7f8" d="M140.385 92.266h-26.362a1.346 1.346 0 0 1-1.346-1.346v-3.876a1.346 1.346 0 0 1 1.346-1.346h26.362a1.346 1.346 0 0 1 1.346 1.346v3.876a1.346 1.346 0 0 1-1.346 1.346"/><path fill="#f0eef0" d="M140.385 85.698h-4.091a1.346 1.346 0 0 1 1.346 1.346v3.876a1.346 1.346 0 0 1-1.346 1.346h4.091a1.346 1.346 0 0 0 1.346-1.346v-3.876a1.346 1.346 0 0 0-1.346-1.346"/><path fill="none" stroke="#000" stroke-linecap="round" stroke-linejoin="round" stroke-miterlimit="10" d="M102.627 98.23h4.673m6.447 0h4.673m6.448 0h4.673m6.447 0h4.673m6.447 0h4.673m-29.396-5.964h18a1.346 1.346 0 0 0 1.346-1.346v-3.876a1.346 1.346 0 0 0-1.346-1.346h-26.362a1.346 1.346 0 0 0-1.346 1.346v3.876a1.346 1.346 0 0 0 1.346 1.346h2.547m-5.791-35.098c14.415 2.082 31.047 8.725 48.732 3.935V32.264a2.9 2.9 0 0 0-3.144-2.567H98.041a2.9 2.9 0 0 0-3.144 2.567v25.528a29.3 29.3 0 0 1 10.066-1.181"/><path fill="#6c5e69" d="M111.339 35.713h-4.476a1.62 1.62 0 0 1-1.619-1.619v-10a1.62 1.62 0 0 1 1.619-1.619h4.476a1.62 1.62 0 0 1 1.619 1.619v10a1.62 1.62 0 0 1-1.619 1.619"/><path fill="#574d56" d="M111.338 22.477h-3.716a1.62 1.62 0 0 1 1.619 1.619v10a1.62 1.62 0 0 1-1.619 1.619h3.716a1.62 1.62 0 0 0 1.619-1.619v-10a1.62 1.62 0 0 0-1.619-1.619"/><path fill="none" stroke="#000" stroke-linecap="round" stroke-linejoin="round" stroke-miterlimit="10" d="M111.339 35.713h-4.476a1.62 1.62 0 0 1-1.619-1.619v-10a1.62 1.62 0 0 1 1.619-1.619h4.476a1.62 1.62 0 0 1 1.619 1.619v10a1.62 1.62 0 0 1-1.619 1.619m-2.238-13.236V7.5"/><path fill="#6c5e69" d="M147.545 35.713h-4.476a1.62 1.62 0 0 1-1.619-1.619v-10a1.62 1.62 0 0 1 1.619-1.619h4.476a1.62 1.62 0 0 1 1.619 1.619v10a1.62 1.62 0 0 1-1.619 1.619"/><path fill="#574d56" d="M147.545 22.477h-3.72a1.62 1.62 0 0 1 1.619 1.619v10a1.62 1.62 0 0 1-1.619 1.617h3.716a1.62 1.62 0 0 0 1.619-1.619v-10a1.62 1.62 0 0 0-1.615-1.617"/><path fill="none" stroke="#000" stroke-linecap="round" stroke-linejoin="round" stroke-miterlimit="10" d="M147.545 35.713h-4.476a1.62 1.62 0 0 1-1.619-1.619v-10a1.62 1.62 0 0 1 1.619-1.619h4.476a1.62 1.62 0 0 1 1.619 1.619v10a1.62 1.62 0 0 1-1.619 1.619m-2.238-13.236V7.5"/></g></svg>