<svg xmlns="http://www.w3.org/2000/svg" width="62" height="62" viewBox="0 0 62 62"><g transform="translate(-1 -1)"><path d="M34,2a12,12,0,1,1-7.9,21.03h-.01a12.017,12.017,0,0,1-2.81-3.64h-.01a11.834,11.834,0,0,1-1.17-3.84A11.316,11.316,0,0,1,22,14,12,12,0,0,1,34,2Z" fill="#e6e9ed"/><circle cx="8" cy="8" r="8" transform="translate(26 6)" fill="#bceb79"/><path d="M48.39,51l-6.54,6.51L38.74,55.6a21.946,21.946,0,0,1-6.89,2.86L31,62H23l-.85-3.54a21.946,21.946,0,0,1-6.89-2.86l-3.11,1.91L6.49,51.85,8.4,48.74a21.946,21.946,0,0,1-2.86-6.89L2,41V33l3.54-.85A21.946,21.946,0,0,1,8.4,25.26L6.49,22.15l5.66-5.66,3.11,1.91a21.886,21.886,0,0,1,6.84-2.85,11.834,11.834,0,0,0,1.17,3.84A18,18,0,1,0,38.31,51H48.39Z" fill="#ffc729"/><path d="M13.61,41A14.453,14.453,0,0,0,27.42,51H38.31A18,18,0,1,1,23.27,19.39h.01a12.017,12.017,0,0,0,2.81,3.64A13.992,13.992,0,0,0,13,37.08,13.39,13.39,0,0,0,13.61,41Z" fill="#fcd770"/><path d="M51,41H41a2,2,0,0,1-2-2V31a2,2,0,0,1,2-2H51a2,2,0,0,1,2,2v8A2,2,0,0,1,51,41Z" fill="#d3a06c"/><path d="M31,41H21a2,2,0,0,1-2-2V31a2,2,0,0,1,2-2H31a2,2,0,0,1,2,2v8A2,2,0,0,1,31,41Z" fill="#d3a06c"/><path d="M43,29h6v4H43Z" fill="#b27946"/><path d="M23,29h6v4H23Z" fill="#b27946"/><path d="M60.54,42.46A5.022,5.022,0,0,0,57,41H13.61A14.453,14.453,0,0,0,27.42,51H57a5.006,5.006,0,0,0,3.54-8.54Z" fill="#ccd1d9"/><circle cx="4" cy="4" r="4" transform="translate(26 42)" fill="#969faa"/><circle cx="4" cy="4" r="4" transform="translate(38 42)" fill="#969faa"/><circle cx="4" cy="4" r="4" transform="translate(50 42)" fill="#969faa"/><path d="M34,23a9,9,0,1,0-9-9A9.01,9.01,0,0,0,34,23ZM34,7a7,7,0,1,1-7,7A7.008,7.008,0,0,1,34,7Z"/><path d="M57,40H53.816A2.966,2.966,0,0,0,54,39V31a3,3,0,0,0-3-3H41a3,3,0,0,0-3,3v8a2.966,2.966,0,0,0,.184,1H33.815A2.943,2.943,0,0,0,34,39V31a3,3,0,0,0-3-3H21a3,3,0,0,0-3,3v8a2.966,2.966,0,0,0,.184,1H14.361A12.6,12.6,0,0,1,14,37.076,13,13,0,0,1,25.79,24.068,12.992,12.992,0,1,0,21,14c0,.272.024.537.041.805a22.782,22.782,0,0,0-5.779,2.419L12,15.23,5.23,22l1.994,3.262a22.778,22.778,0,0,0-2.509,6.055L1,32.213v9.574l3.715.9a22.811,22.811,0,0,0,2.509,6.055L5.23,52,12,58.77l3.261-1.993a22.841,22.841,0,0,0,6.055,2.51l.9,3.713h9.575l.9-3.714a22.841,22.841,0,0,0,6.055-2.51L42,58.768,48.8,52H57a6,6,0,0,0,0-12Zm-3,9a3,3,0,1,1,3-3A3,3,0,0,1,54,49Zm-5-3a4.982,4.982,0,0,0,2.031,4H44.969a4.954,4.954,0,0,0,0-8h6.062A4.982,4.982,0,0,0,49,46ZM32.969,50a4.954,4.954,0,0,0,0-8h6.062a4.954,4.954,0,0,0,0,8ZM30,43a3,3,0,1,1-3,3,3,3,0,0,1,3-3Zm12,6a3,3,0,1,1,3-3A3,3,0,0,1,42,49Zm2-19h4v2H44Zm-4,9V31a1,1,0,0,1,1-1h1v4h8V30h1a1,1,0,0,1,1,1v8a1,1,0,0,1-1,1H41A1,1,0,0,1,40,39ZM24,30h4v2H24Zm-4,9V31a1,1,0,0,1,1-1h1v4h8V30h1a1,1,0,0,1,1,1v8a1,1,0,0,1-1,1H21A1,1,0,0,1,20,39Zm1,3h6.031a4.953,4.953,0,0,0-.018,7.985A13.448,13.448,0,0,1,15.035,42Zm-9-4.912A15.247,15.247,0,0,0,27.415,52h7.56a16.99,16.99,0,1,1-12.19-31.457,13.111,13.111,0,0,0,1.232,1.771A15,15,0,0,0,12,37.088ZM34,3A11,11,0,1,1,23,14,11.013,11.013,0,0,1,34,3Zm7.7,53.243-2.972-1.817-.525.332a20.838,20.838,0,0,1-6.568,2.723l-.606.137L30.212,61H23.787l-.816-3.383-.606-.137A20.792,20.792,0,0,1,15.8,54.757l-.525-.332L12.3,56.241,7.759,51.7l1.816-2.971L9.242,48.2A20.821,20.821,0,0,1,6.52,41.634l-.137-.606L3,40.213V33.787l3.383-.815.137-.606A20.8,20.8,0,0,1,9.242,25.8l.333-.525L7.759,22.3,12.3,17.759l2.97,1.816.525-.332A20.846,20.846,0,0,1,21.313,16.8a12.871,12.871,0,0,0,.583,1.9A18.992,18.992,0,1,0,38.642,52h7.324ZM57,50h-.031a4.954,4.954,0,0,0,0-8H57a4,4,0,0,1,0,8Z"/><path d="M39.707,11.707l-1.414-1.414L33,15.586l-2.293-2.293-1.414,1.414L33,18.414Z"/></g></svg>