<svg xmlns="http://www.w3.org/2000/svg" width="76" height="76" viewBox="0 0 76 76"><g transform="translate(-609.051 -9158)"><g transform="translate(615.051 9164)"><path fill="#ffde66" d="M44 20a14 14 0 1 0-18.98 13.07H25V38a5 5 0 0 0 10 0v-4.93h-.02A14 14 0 0 0 44 20"/><path fill="#8d9fb2" d="M35 34v4a5 5 0 0 1-10 0v-4Z"/><path fill="#ffd098" d="M40.41 43A8 8 0 0 0 33 38H23a5 5 0 0 0-5 5v1h-2.5a2.5 2.5 0 0 0 0 5h1a2.5 2.5 0 0 0 0 5h1a2.5 2.5 0 0 0 0 5H19a2 2 0 0 0 0 4h14a7.98 7.98 0 0 0 6.92-4H54V43Z"/><path fill="#95e517" d="M28.53 18.88c2.54 2.54 1.77 7.42 1.77 7.42s-4.89.77-7.42-1.77-1.77-7.42-1.77-7.42 4.89-.77 7.42 1.77"/><path fill="#6bd915" d="M36.78 24.18c-2.93 2.93-8.49 2.12-8.49 2.12s-.81-5.56 2.12-8.49 8.49-2.12 8.49-2.12.81 5.56-2.12 8.49"/><path d="M23 39h10a6.985 6.985 0 0 1 6.49 4.38.99.99 0 0 0 .93.62h13.59v-2H41.07a8.93 8.93 0 0 0-5.06-4.47v-3.8a15.011 15.011 0 1 0-12-.01v3.27h-1a6 6 0 0 0-6 6h-1.5a3.5 3.5 0 0 0-1.84 6.47 3.47 3.47 0 0 0-.66 2.03 3.51 3.51 0 0 0 1.66 2.97 3.478 3.478 0 0 0 1.61 5.3 2.99 2.99 0 0 0 2.73 4.23h14a9.05 9.05 0 0 0 7.48-4h13.52v-2H39.93a1 1 0 0 0-.87.5 7.02 7.02 0 0 1-6.06 3.5H19a1 1 0 0 1 0-2h6v-2h-7.5a1.5 1.5 0 0 1 0-3H25v-2h-8.5a1.5 1.5 0 0 1 0-3H25v-2h-9.5a1.5 1.5 0 0 1 0-3H25v-2h-6a4 4 0 0 1 4-4Zm11-1.93a8 8 0 0 0-1-.07h-7v-2h8ZM17 20a13.03 13.03 0 0 1 4.33-9.69 12.88 12.88 0 0 1 10.16-3.22 12.991 12.991 0 0 1 3.14 25.05.98.98 0 0 0-.62.86h-8a.99.99 0 0 0-.63-.86A13.075 13.075 0 0 1 17 20"/><path d="M29.33 27.39c.21 0 .45.02.7.02 2.05 0 5.31-.38 7.45-2.52 3.25-3.25 2.44-9.09 2.4-9.34a1.01 1.01 0 0 0-.85-.85c-.25-.04-6.09-.84-9.34 2.4a6.3 6.3 0 0 0-.71.85c-2.91-2.6-7.84-1.87-8.06-1.83a1 1 0 0 0-.83.83c-.03.22-.82 5.42 2.05 8.28 1.85 1.85 4.69 2.17 6.44 2.17.27 0 .51 0 .73-.02Zm1.79-8.87c1.93-1.93 5.33-1.99 6.86-1.91.08 1.53.03 4.92-1.91 6.86a8.1 8.1 0 0 1-5.25 1.9 20.8 20.8 0 0 0 3.83-5.44 20.6 20.6 0 0 0-5.44 3.86 8.06 8.06 0 0 1 1.91-5.28Zm-3.71 3.42a7.6 7.6 0 0 0-2.78-1.3 6.9 6.9 0 0 0 2.56 4.03c0 .24 0 .46.02.66a6.15 6.15 0 0 1-3.63-1.5c-1.6-1.6-1.65-4.44-1.56-5.8 1.36-.08 4.21-.04 5.81 1.55.07.07.12.15.18.22a11.4 11.4 0 0 0-.59 2.14ZM29 0h2v3h-2ZM10 19h3v2h-3Zm37 0h3v2h-3ZM15.148 33.43l2.12-2.12 1.415 1.413-2.121 2.122Zm26.17-26.155 2.12-2.122 1.415 1.414-2.121 2.122Zm-26.168-.71 1.414-1.414 2.121 2.121-1.414 1.415Zm26.165 26.16 1.415-1.414 2.121 2.121-1.414 1.415Z"/></g><path fill="none" d="M609.051 9158h76v76h-76z"/></g></svg>