<svg xmlns="http://www.w3.org/2000/svg" width="172" height="160" viewBox="0 0 172 160"><g transform="translate(-1124.051 -1682)"><g transform="translate(1096.088 1693.759)"><g transform="translate(67.963 7.241)"><path d="M120.274,307.509H105.463v48.363h1.1l13.708-7.287Z" transform="translate(-96.206 -233.148)" fill="#8ad8f6"/><path d="M120.274,307.509H105.463v48.363h1.1l13.708-7.287,3.283-13.175Z" transform="translate(-96.206 -233.148)" fill="#8ad8f6"/><path d="M120.274,348.585v-6.793L111,346.72V307.509h-5.541v48.363h1.1Z" transform="translate(-96.206 -233.148)" fill="#54c9f3"/><path d="M225.463,307.509v33.2l7.406-3.937,7.406,3.937v-33.2Z" transform="translate(-186.583 -233.148)" fill="#8ad8f6"/><path d="M240.274,402.995l-7.406-3.937-7.406,3.937v6.666l7.406-3.937,7.406,3.937Z" transform="translate(-186.583 -302.097)" fill="#54c9f3"/><path d="M285.463,307.509v33.2l14.811,7.874V307.509Z" transform="translate(-231.772 -233.148)" fill="#fff"/><path d="M300.274,422.149l-14.811-7.874v6.846L300.274,429Z" transform="translate(-231.772 -313.558)" fill="#e3edf6"/><path d="M345.463,307.509v41.076l13.708,7.287h1.1V307.509Z" transform="translate(-276.961 -233.148)" fill="#8ad8f6"/><path d="M345.463,446.387v6.793l13.708,7.287h1.1v-6.793h-1.1Z" transform="translate(-276.961 -337.743)" fill="#54c9f3"/><path d="M180.274,307.509H165.463v41.076l14.811-7.874Z" transform="translate(-141.395 -233.148)" fill="#fff"/><path d="M165.463,422.31v6.807l14.811-7.874v-6.807Z" transform="translate(-141.395 -313.679)" fill="#e3edf6"/><circle cx="46.2" cy="46.2" r="46.2" transform="translate(0 0)" fill="#c3f839"/><path d="M118.08,131.932a46.282,46.282,0,0,1-34.587-77.04,46.283,46.283,0,1,0,65.342,65.341A46.109,46.109,0,0,1,118.08,131.932Z" transform="translate(-67.963 -42.89)" fill="#abe700"/><circle cx="35.053" cy="35.053" r="35.053" transform="translate(11.232 11.535)" fill="#fff"/><path d="M152.482,144.661a35.052,35.052,0,0,1-26.689-57.776A35.052,35.052,0,1,0,175.205,136.3,34.912,34.912,0,0,1,152.482,144.661Z" transform="translate(-102.231 -66.986)" fill="#e3edf6"/><path d="M274.017,142.66h-7.561a17.283,17.283,0,0,0-17.283,17.283V167.5h7.561a17.283,17.283,0,0,0,17.283-17.283Z" transform="translate(-204.44 -108.992)" fill="#c3f839"/><path d="M262.3,169.884h-7.561v-7.561a17.2,17.2,0,0,1,2.6-9.119,17.268,17.268,0,0,0-8.164,14.68v7.561h7.561a17.269,17.269,0,0,0,14.68-8.164A17.2,17.2,0,0,1,262.3,169.884Z" transform="translate(-204.44 -116.934)" fill="#abe700"/><path d="M161.11,155.24H166.8a16.05,16.05,0,0,1,16.05,16.05v5.689H177.16a16.05,16.05,0,0,1-16.05-16.05Z" transform="translate(-138.116 -118.467)" fill="#d8fc7e"/><path d="M178.475,171.59A11.976,11.976,0,0,1,166.5,159.614V155.24H161.11v5.689a16.049,16.049,0,0,0,16.05,16.05h5.689v-5.389h-4.374Z" transform="translate(-138.116 -118.467)" fill="#c3f839"/><line y1="2.618" x2="2.618" transform="translate(58.473 42.153)" fill="none" stroke="#fff" stroke-miterlimit="10" stroke-width="2"/></g><g transform="translate(67.963 7.241)"><circle cx="46.2" cy="46.2" r="46.2" transform="translate(0 0)" fill="none" stroke="#000" stroke-miterlimit="10" stroke-width="2"/><circle cx="35.053" cy="35.053" r="35.053" transform="translate(11.232 11.535)" fill="none" stroke="#000" stroke-miterlimit="10" stroke-width="2"/><path d="M178.763,93.762a27.744,27.744,0,0,1,10.677-6.207" transform="translate(-151.412 -67.49)" fill="none" stroke="#000" stroke-miterlimit="10" stroke-width="2" stroke-dasharray="15"/><path d="M274.017,142.66h-7.561a17.283,17.283,0,0,0-17.283,17.283V167.5h7.561a17.283,17.283,0,0,0,17.283-17.283V142.66Z" transform="translate(-204.441 -108.992)" fill="none" stroke="#000" stroke-miterlimit="10" stroke-width="2"/><path d="M161.11,155.24H166.8a16.05,16.05,0,0,1,16.05,16.05v5.689H177.16a16.05,16.05,0,0,1-16.05-16.05Z" transform="translate(-138.116 -118.467)" fill="none" stroke="#000" stroke-miterlimit="10" stroke-width="2"/><line y2="17.855" transform="translate(44.733 50.95)" fill="none" stroke="#000" stroke-miterlimit="10" stroke-width="2"/><line x1="11.122" y2="11.122" transform="translate(44.733 47.39)" fill="none" stroke="#000" stroke-miterlimit="10" stroke-width="2"/><line y1="20.363" transform="translate(83.313 74.362)" fill="none" stroke="#000" stroke-miterlimit="10" stroke-width="2"/><path d="M105.463,307.509v48.363h1.1l35.925-19.1,35.925,19.1h1.1V331.607" transform="translate(-96.206 -233.148)" fill="none" stroke="#000" stroke-miterlimit="10" stroke-width="2"/><line y2="15.282" transform="translate(38.88 92.282)" fill="none" stroke="#000" stroke-miterlimit="10" stroke-width="2"/><line y2="15.282" transform="translate(53.691 92.282)" fill="none" stroke="#000" stroke-miterlimit="10" stroke-width="2"/><line y2="28.118" transform="translate(68.502 87.319)" fill="none" stroke="#000" stroke-miterlimit="10" stroke-width="2"/><line y2="9.604" transform="translate(24.068 105.833)" fill="none" stroke="#000" stroke-miterlimit="10" stroke-width="2"/><line y2="14.811" transform="translate(24.068 87.319)" fill="none" stroke="#000" stroke-miterlimit="10" stroke-width="2"/></g></g><rect width="172" height="160" transform="translate(1124.051 1682)" fill="none"/></g></svg>