<svg xmlns="http://www.w3.org/2000/svg" xmlns:xlink="http://www.w3.org/1999/xlink" width="85" height="85" viewBox="0 0 85 85"><defs><clipPath id="a"><path d="M0-682.665H85v85H0Z" transform="translate(0 682.665)"/></clipPath></defs><g transform="translate(0 682.665)"><g transform="translate(0 -682.665)"><g clip-path="url(#a)"><g transform="translate(2.396 25.284)"><path d="M-490.517-366.309h-67.106a2.656,2.656,0,0,1-2.656-2.656v-49.441h69.761Z" transform="translate(560.279 418.406)" fill="#eaf6ff"/></g><g transform="translate(2.396 25.284)"><path d="M-59.028-347.634v-49.441h-8.395v49.441a2.656,2.656,0,0,0,2.656,2.656h8.4a2.656,2.656,0,0,1-2.656-2.656" transform="translate(67.423 397.075)" fill="#d8ecfe"/></g><g transform="translate(2.396 25.284)"><path d="M-490.517-366.309h-67.106a2.656,2.656,0,0,1-2.656-2.656v-49.441h69.761Z" transform="translate(560.279 418.406)" fill="none" stroke="#000" stroke-linecap="round" stroke-linejoin="round" stroke-miterlimit="10" stroke-width="1"/></g><g transform="translate(2.396 15.941)"><path d="M-471.842,0h-64.45a2.656,2.656,0,0,0-2.656,2.656V9.343h69.761V2.656A2.656,2.656,0,0,0-471.842,0" transform="translate(538.948)" fill="#4fc123"/></g><g transform="translate(2.396 15.941)"><path d="M-77.7,0h-8.4a2.656,2.656,0,0,0-2.656,2.656V9.343h8.395V2.656A2.656,2.656,0,0,1-77.7,0" transform="translate(88.753)" fill="#47a920"/></g><g transform="translate(2.396 15.941)"><path d="M-361.362,0H-410.1a2.656,2.656,0,0,0-2.656,2.656V9.343h69.761V2.656A2.656,2.656,0,0,0-345.649,0h-9.9" transform="translate(412.755)" fill="none" stroke="#000" stroke-linecap="round" stroke-linejoin="round" stroke-miterlimit="10" stroke-width="1"/></g><g transform="translate(9.833 28.759)"><path d="M0-72.831v20.716L20-41.757,40-52.115V-72.831L20-83.189Z" transform="translate(0 83.189)" fill="#ea9b58"/></g><g transform="translate(9.833 28.759)"><path d="M0-72.831v20.716L20-41.757,40-52.115V-72.831L20-83.189Z" transform="translate(0 83.189)" fill="none" stroke="#000" stroke-linecap="round" stroke-linejoin="round" stroke-miterlimit="10" stroke-width="1"/></g><g transform="translate(9.833 28.759)"><path d="M0-72.831v20.716L20-41.757V-83.189Z" transform="translate(0 83.189)" fill="#f6a96c"/></g><g transform="translate(9.833 28.759)"><path d="M-140.638-185.335v-26.358l-20,10.358v20.716l20,10.358v-9.263" transform="translate(160.64 211.693)" fill="none" stroke="#000" stroke-linecap="round" stroke-linejoin="round" stroke-miterlimit="10" stroke-width="1"/></g><g transform="translate(9.833 28.759)"><path d="M0-72.831,20-62.473,40-72.831,20-83.189Z" transform="translate(0 83.189)" fill="#fed2a4"/></g><g transform="translate(9.833 28.759)"><path d="M0-72.831,20-62.473,40-72.831,20-83.189Z" transform="translate(0 83.189)" fill="none" stroke="#000" stroke-linecap="round" stroke-linejoin="round" stroke-miterlimit="10" stroke-width="1"/></g><g transform="translate(17.63 1.245)"><path d="M-80.364-252.839a.885.885,0,0,0,1.549,0l10.061-18.191A12.188,12.188,0,0,0-79.589-288.8h0a12.188,12.188,0,0,0-10.836,17.767Z" transform="translate(91.793 288.798)" fill="#fe646f"/></g><g transform="translate(17.63 1.245)"><path d="M-59.561-124.927a12.2,12.2,0,0,1,7.284-17.251,12.306,12.306,0,0,0-3.551-.516h0a12.188,12.188,0,0,0-10.836,17.767L-56.6-106.736a.885.885,0,0,0,1.549,0l2.777-5.02Z" transform="translate(68.032 142.694)" fill="#fd4755"/></g><g transform="translate(17.63 1.245)"><path d="M-80.364-252.839a.885.885,0,0,0,1.549,0l10.061-18.191A12.188,12.188,0,0,0-79.589-288.8h0a12.188,12.188,0,0,0-10.836,17.767Z" transform="translate(91.793 288.798)" fill="none" stroke="#000" stroke-linecap="round" stroke-linejoin="round" stroke-miterlimit="10" stroke-width="1"/></g><g transform="translate(25.143 9.273)"><path d="M-65.977-32.988A4.692,4.692,0,0,1-70.668-28.3a4.692,4.692,0,0,1-4.692-4.692,4.692,4.692,0,0,1,4.692-4.692,4.692,4.692,0,0,1,4.692,4.692" transform="translate(75.36 37.68)" fill="#fff"/></g><g transform="translate(25.143 9.273)"><path d="M-27.494-32.988a4.691,4.691,0,0,1,2.736-4.265,4.671,4.671,0,0,0-1.955-.427A4.692,4.692,0,0,0-31.4-32.988,4.692,4.692,0,0,0-26.712-28.3a4.672,4.672,0,0,0,1.955-.427,4.691,4.691,0,0,1-2.736-4.264" transform="translate(31.404 37.68)" fill="#f3f0f3"/></g><g transform="translate(25.143 9.273)"><path d="M-65.977-32.988A4.692,4.692,0,0,1-70.668-28.3a4.692,4.692,0,0,1-4.692-4.692,4.692,4.692,0,0,1,4.692-4.692A4.692,4.692,0,0,1-65.977-32.988Z" transform="translate(75.36 37.68)" fill="none" stroke="#000" stroke-linecap="round" stroke-linejoin="round" stroke-miterlimit="10" stroke-width="1"/></g><g transform="translate(45.599 46.749)"><path d="M-260.2-130.1a18.5,18.5,0,0,1-18.5,18.5,18.5,18.5,0,0,1-18.5-18.5,18.5,18.5,0,0,1,18.5-18.5,18.5,18.5,0,0,1,18.5,18.5" transform="translate(297.203 148.601)" fill="#83a454"/></g><g transform="translate(45.599 46.749)"><path d="M-260.2-130.1a18.5,18.5,0,0,1-18.5,18.5,18.5,18.5,0,0,1-18.5-18.5,18.5,18.5,0,0,1,18.5-18.5A18.5,18.5,0,0,1-260.2-130.1Z" transform="translate(297.203 148.601)" fill="none" stroke="#000" stroke-linecap="round" stroke-linejoin="round" stroke-miterlimit="10" stroke-width="1"/></g><g transform="translate(50.646 51.797)"><path d="M-94.608-189.218a13.47,13.47,0,0,1-13.455-13.455,13.47,13.47,0,0,1,13.455-13.455,13.47,13.47,0,0,1,13.455,13.455,13.47,13.47,0,0,1-13.455,13.455" transform="translate(108.064 216.129)" fill="#fff"/></g><g transform="translate(50.646 51.797)"><path d="M-52.338-94.61A13.476,13.476,0,0,1-42.6-107.537a13.406,13.406,0,0,0-3.722-.528A13.471,13.471,0,0,0-59.781-94.61,13.471,13.471,0,0,0-46.326-81.154a13.407,13.407,0,0,0,3.722-.528A13.476,13.476,0,0,1-52.338-94.61" transform="translate(59.781 108.065)" fill="#f3f0f3"/></g><g transform="translate(50.646 51.797)"><path d="M-186.824-73.541A13.476,13.476,0,0,0-199.939-84a13.47,13.47,0,0,0-13.455,13.455,13.471,13.471,0,0,0,13.455,13.455A13.477,13.477,0,0,0-186.782-67.73" transform="translate(213.394 84)" fill="none" stroke="#000" stroke-linecap="round" stroke-linejoin="round" stroke-miterlimit="10" stroke-width="1"/></g><g transform="translate(64.101 56.434)"><path d="M-48.981-62.007h-6.966v-8.819" transform="translate(55.947 70.825)" fill="none" stroke="#000" stroke-linecap="round" stroke-linejoin="round" stroke-miterlimit="10" stroke-width="1"/></g><g transform="translate(50.379 31.876)"><path d="M0,0H15.4" fill="none" stroke="#000" stroke-linecap="round" stroke-linejoin="round" stroke-miterlimit="10" stroke-width="1"/></g><g transform="translate(56.222 36.657)"><path d="M0,0H9.561" fill="none" stroke="#000" stroke-linecap="round" stroke-linejoin="round" stroke-miterlimit="10" stroke-width="1"/></g><g transform="translate(56.222 41.438)"><path d="M0,0H9.561" fill="none" stroke="#000" stroke-linecap="round" stroke-linejoin="round" stroke-miterlimit="10" stroke-width="1"/></g><g transform="translate(59.763 20.368)"><path d="M0,0H6.02" fill="none" stroke="#000" stroke-linecap="round" stroke-linejoin="round" stroke-miterlimit="10" stroke-width="1"/></g></g></g></g></svg>