<svg xmlns="http://www.w3.org/2000/svg" width="85" height="85" viewBox="0 0 85 85"><defs><path id="a" fill="#fff" d="M7.684 4.35A3.34 3.34 0 1 1 4.35 1.004 3.336 3.336 0 0 1 7.684 4.35"/><path id="b" d="M4.35 8.701A4.35 4.35 0 1 1 8.687 4.35 4.36 4.36 0 0 1 4.35 8.701m0-6.693A2.343 2.343 0 1 0 6.68 4.35a2.354 2.354 0 0 0-2.33-2.342"/></defs><g transform="translate(-1.25 -1.25)"><g transform="translate(1.25 1.25)"><g transform="translate(0 17.402)"><path fill="#fff" d="M1.004 1.004v58.9a6.7 6.7 0 0 0 6.693 6.693h69.607a6.7 6.7 0 0 0 6.692-6.693v-58.9Z"/><path d="M77.303 67.598H7.697a7.707 7.707 0 0 1-7.7-7.7V.998a1.01 1.01 0 0 1 1-1h82.999a1.01 1.01 0 0 1 1 1v58.9a7.707 7.707 0 0 1-7.693 7.7M2.008 2.008v57.894a5.7 5.7 0 0 0 5.689 5.689h69.606a5.7 5.7 0 0 0 5.689-5.689V2.008Z"/></g><path fill="#007edb" d="M83.996 7.697a6.7 6.7 0 0 0-6.692-6.693H7.697a6.7 6.7 0 0 0-6.693 6.693v10.707h82.992Z"/><path d="M83.996 19.409H1.004a1.01 1.01 0 0 1-1-1V7.697a7.707 7.707 0 0 1 7.7-7.7h69.599a7.707 7.707 0 0 1 7.7 7.7v10.709a1.01 1.01 0 0 1-1.007 1.003M2.008 17.402h80.984v-9.7a5.7 5.7 0 0 0-5.689-5.689H7.697a5.7 5.7 0 0 0-5.689 5.684Z"/><g transform="translate(7.362 5.354)"><use href="#a"/><use href="#b"/></g><g transform="translate(18.754 5.354)"><use href="#a"/><use href="#b"/></g><g transform="translate(30.131 5.354)"><use href="#a"/><use href="#b"/></g><g transform="translate(46.864 5.354)"><path fill="#fff" d="M4.337 7.697a3.347 3.347 0 0 1 0-6.693H23.76a3.347 3.347 0 0 1 0 6.693Z"/><path d="M23.76 8.701H4.34a4.35 4.35 0 0 1 0-8.7h19.42a4.35 4.35 0 0 1 0 8.7M4.34 2.008a2.343 2.343 0 0 0 0 4.685h19.42a2.343 2.343 0 0 0 0-4.685Z"/></g><g transform="translate(13.841 25.433)"><path fill="#009834" d="M56.301 4.645v25.018a3.645 3.645 0 0 1-3.637 3.641H4.645a3.645 3.645 0 0 1-3.641-3.641V4.645a3.645 3.645 0 0 1 3.641-3.641h48.019a3.63 3.63 0 0 1 3.637 3.641"/><path d="M52.673 34.308H4.645A4.656 4.656 0 0 1 0 29.663V4.645A4.656 4.656 0 0 1 4.645 0H52.66a4.656 4.656 0 0 1 4.645 4.645v25.018a4.645 4.645 0 0 1-4.632 4.645M4.645 2.008A2.634 2.634 0 0 0 2.01 4.645v25.018A2.634 2.634 0 0 0 4.647 32.3H52.66a2.634 2.634 0 0 0 2.637-2.637V4.645a2.64 2.64 0 0 0-2.637-2.637Z"/></g></g><g transform="translate(36.227 33.716)"><path fill="#ff011d" d="M1.004 3.742v12.744a2.724 2.724 0 0 0 4.163 2.316l10.254-6.372a2.73 2.73 0 0 0 0-4.631L5.167 1.427a2.726 2.726 0 0 0-4.163 2.315"/><path d="M3.735 20.221a3.74 3.74 0 0 1-1.82-.482 3.68 3.68 0 0 1-1.914-3.266V3.743a3.729 3.729 0 0 1 5.7-3.172l10.254 6.372a3.73 3.73 0 0 1 0 6.345l-10.253 6.37a3.7 3.7 0 0 1-1.967.563m0-18.2a1.76 1.76 0 0 0-.843.214 1.7 1.7 0 0 0-.883 1.5v12.738a1.719 1.719 0 0 0 2.624 1.459l10.254-6.372a1.712 1.712 0 0 0 0-2.918L4.631 2.27a1.74 1.74 0 0 0-.9-.254Z"/></g><g transform="translate(14.556 68.728)"><path d="M1.004 8.607a1.01 1.01 0 0 1-1-1V1.419a1.004 1.004 0 1 1 2.008 0v6.184a1.01 1.01 0 0 1-1.008 1.004m6.372 0a1.01 1.01 0 0 1-1-1V1.419a1.004 1.004 0 0 1 2.008 0v6.184a1.01 1.01 0 0 1-1.008 1.004m50.009-3.092H13.319a1.004 1.004 0 1 1 0-2.008h44.066a1.004 1.004 0 0 1 0 2.008"/><g transform="translate(24.978)"><circle cx="3.507" cy="3.507" r="3.507" fill="#fff" transform="translate(1.004 1.004)"/><path d="M4.511 9.022a4.511 4.511 0 1 1 4.511-4.511 4.513 4.513 0 0 1-4.511 4.511m0-7.014a2.5 2.5 0 1 0 2.5 2.5 2.51 2.51 0 0 0-2.5-2.5"/></g></g></g></svg>