<svg xmlns="http://www.w3.org/2000/svg" width="118.634" height="81.229" viewBox="0 0 118.634 81.229"><defs><clipPath id="a"><path fill="none" d="M0 0h118.634v81.23H0z"/></clipPath></defs><g clip-path="url(#a)"><path fill="#e8e8e8" d="M118.634 90.578c0 5.9-26.557 10.682-59.317 10.682S0 96.478 0 90.578 26.557 79.9 59.317 79.9s59.317 4.783 59.317 10.682" style="mix-blend-mode:multiply;isolation:isolate" transform="translate(0 -20.45)"/><path fill="#d19364" d="M91.03 26.451q2.074-.033 4.147-.089a16 16 0 0 0 3.394-.165 13.3 13.3 0 0 0 2.047-.935c.439-.2.879-.409 1.3-.647l.081-.051c-8.9-.112-17.8-.1-26.7-.379a11.4 11.4 0 0 1 .441 2.35q7.644.035 15.288-.083"/><path fill="#e3b485" d="M75.442 39.291c1.037-.054 2.1-.005 3.126-.016l3.773-.037 3.773-.038c1.07-.01 2.719.293 3.538-.518a22.5 22.5 0 0 0 2.216-3.043l2.133-3.007q1.655-2.333 3.332-4.649-1.385.052-2.769.086c-2.288.056-4.576.086-6.864.106q-5.951.05-11.9-.03a4.04 4.04 0 0 1-1.054 2.923 5.4 5.4 0 0 1 .754 3.189c0 1.678-.028 3.356-.055 5.034"/><path fill="#fff" d="M24.675 42.321a9 9 0 0 1-1.884-.676c.162 2.2.05 4.458.054 6.646l.014 7.327c.01 4.995.216 10.044-.107 15.029a.9.9 0 0 1-.082.324h.028c.608.145 1.206.314 1.8.487-.38-9.6.109-19.6.174-29.138"/><path fill="#12433f" d="M31.953 43.205a30.4 30.4 0 0 1-5.767-.553c-.474-.092-.991-.2-1.511-.332-.065 9.542-.554 19.541-.174 29.138a35 35 0 0 0 3.8.964 30 30 0 0 0 3.983.4c.65-9.844.716-19.89.721-29.618z"/><path fill="#2a5647" d="M41.388 42.444a23 23 0 0 1-2.672.512 46 46 0 0 1-5.71.249c-.005 9.728-.071 19.774-.721 29.619q.865.035 1.73.022a30 30 0 0 0 5.853-.664 19 19 0 0 0 1.526-.406c-.969-9.867.449-19.361-.006-29.333"/><path fill="#4d7e56" d="M45.127 62.994q0-3.829.005-7.658 0-3.922.006-7.844c0-1.91-.129-3.91-.028-5.853-.008-.022-.024-.041-.031-.062a.7.7 0 0 1-.016-.244c-.286.093-.563.171-.785.247-.956.327-1.917.621-2.891.864.455 9.972-.964 19.466.006 29.334 1.263-.383 2.493-.849 3.77-1.188-.123-2.522-.037-5.074-.036-7.6"/><path fill="#fff" d="M27.099 37.614a16 16 0 0 1-2.254-.3 3.77 3.77 0 0 1-1.391 2.809 8.8 8.8 0 0 0 1.695.583c.054.014.11.021.164.034a3.48 3.48 0 0 0 1.786-3.124"/><path fill="#12433f" d="M30.037 37.693c-.5-.005-1.661.013-2.938-.078a3.48 3.48 0 0 1-1.785 3.124 24 24 0 0 0 3.308.565 41 41 0 0 0 4.413.179 25 25 0 0 0 .674-3.789c-1.225.014-2.449.01-3.672 0"/><path fill="#2a5647" d="M39.917 40.966a6.25 6.25 0 0 1-1.041-3.525c-1.716.173-3.442.234-5.167.254a25 25 0 0 1-.674 3.789q1.489-.009 2.972-.067a25.4 25.4 0 0 0 3.911-.452"/><path fill="#4d7e56" d="M44.195 39.754c.079-.028.17-.068.265-.111a4.33 4.33 0 0 1-1.635-2.818c-.515.139-1.052.217-1.5.292-.815.138-1.635.24-2.455.323a6.25 6.25 0 0 0 1.04 3.525 23 23 0 0 0 2.37-.579 58 58 0 0 0 1.908-.633"/><path fill="#e3b485" d="M47.303 39.823c-.031-1.892-.076-3.786-.064-5.678a5.26 5.26 0 0 1 .754-3.076 2.3 2.3 0 0 1-.348-.37q-.751.856-1.51 1.711l-1.277 1.437-.315.355a1.63 1.63 0 0 1-.16 1.7 1 1 0 0 1 .06.22 2.9 2.9 0 0 0 1.057 2.161c.475.363 1.025.6 1.2 1.231a1.14 1.14 0 0 1 .013.637q.024.18.043.362a5 5 0 0 1 .546.08z"/><path fill="#12433f" d="M44.407 1.69c-.8.027-1.612-.012-2.394-.029a80 80 0 0 1-1.383-.03c-.129 0-.257-.007-.386-.007-.363-.016-.734-.023-1.1-.045a.7.7 0 0 1-.257.113c-.461.1.272 1.6.325 1.9a3 3 0 0 1-.265 1.6c-.537 1.414.469 2.828.673 4.234a25.5 25.5 0 0 1 .053 4.431q-.07 2.346-.2 4.7c-.144 2.775-.393 5.482-2.1 7.781-1.315 1.778-3.214 3.312-3.637 5.581a30 30 0 0 1 4.28-.038 18 18 0 0 1 4.174.763 9 9 0 0 1 1.127.461c.234-.249.461-.507.695-.756q1.231-1.371 2.481-2.729c-5.522-6.976-1.9-18.98-2.083-27.921"/><path fill="#2a5647" d="M46.951 26.936c.007-.144.031-.28.045-.416a1 1 0 0 1-.144-.151 11.3 11.3 0 0 1-2.019-5.959c-.2-2.238-.249-4.5-.318-6.745-.03-1.157-.106-2.329-.022-3.478a12.5 12.5 0 0 1 .7-2.979 2.87 2.87 0 0 0 .14-1.772 7.5 7.5 0 0 1-.355-1.127 2.7 2.7 0 0 1 .158-1.293c.06-.174.627-1.232.174-1.323-.045-.016-.068-.038-.106-.053a12 12 0 0 1-.8.051c.185 8.945-3.437 20.945 2.086 27.92.181-.2.356-.4.537-.591a10.3 10.3 0 0 1-.076-2.08"/><path fill="#fff" d="M41.673 24.286c-.734 2.336-2.374 3.993-3.267 6.2a6.8 6.8 0 0 0-.393 1.384 30 30 0 0 0-4.28.038c.423-2.269 2.321-3.8 3.637-5.581 1.709-2.3 1.958-5.006 2.1-7.781q.126-2.347.2-4.7a25.5 25.5 0 0 0-.053-4.431c-.2-1.407-1.211-2.821-.673-4.235a3 3 0 0 0 .265-1.6c-.053-.295-.786-1.8-.325-1.9a.7.7 0 0 0 .257-.114c.371.023.741.031 1.1.045.129 0 .257.008.386.008a15.4 15.4 0 0 0 .9 3.584c.786 1.951.385 4.167.612 6.239.461 4.159.8 8.795-.469 12.832"/><path fill="#a4e519" d="m30.017 29.815-.006.01c.013-.016.06-.087.006-.01"/><path fill="#aeaeae" d="M29.678 33.901a12.8 12.8 0 0 0-3.495.586 12.4 12.4 0 0 0-1.993.822 2.5 2.5 0 0 1 .8.176c.4.1.8.178 1.211.236.548.079 1.1.122 1.655.153a11.8 11.8 0 0 1 2.2-1.318c-.128-.219-.261-.434-.385-.655m2.702-.336-.775.055a.8.8 0 0 1-.17.126l.129.252q.421-.123.847-.214-.012-.108-.03-.219"/><path fill="#fff" d="M34.089 33.546a4.1 4.1 0 0 1 .052 1.318.82.82 0 0 1-.789.6.83.83 0 0 1-.789-.6 8 8 0 0 1-.16-1.079q-.425.09-.847.214c.072.138.147.277.214.419a.77.77 0 0 1-1.329.776c-.132-.208-.251-.425-.375-.638a11.8 11.8 0 0 0-2.2 1.318c1.147.065 2.3.059 3.445.069 1.761.016 3.523.021 5.283-.063.065 0 .132-.009.2-.012q-.873-.014-1.744-.035a.856.856 0 0 1 0-1.711l1.679-.132a1.3 1.3 0 0 1 .368-.029l.875-.069c.166-.013.332-.031.5-.041a16.5 16.5 0 0 0-4.375-.306m5.4.532a.73.73 0 0 1 .234.45.78.78 0 0 1-.559.856 5.6 5.6 0 0 1-.932.136.9.9 0 0 1-.347.283 31 31 0 0 0 4.054-.542c.069-.014.183-.029.3-.047a1 1 0 0 1-.079-.35c-.888-.3-1.78-.57-2.673-.786"/><path fill="#aeaeae" d="M42.224 34.441a12 12 0 0 0-2.1-.593 24 24 0 0 0-6.051-.38l.012.079a16.6 16.6 0 0 1 4.375.305 3.5 3.5 0 0 1 .5 0 .88.88 0 0 1 .531.226 31 31 0 0 1 2.673.786 1.1 1.1 0 0 1 .055-.421"/><path fill="#fff" d="M15.015 24.897a2.6 2.6 0 0 0-1.826.67c.132 1.468.185 2.947.242 4.421q.574.119 1.155.187c-.078-1.765.4-3.458.429-5.279"/><path fill="#d2d2d2" d="M17.204 25.28a7.6 7.6 0 0 0-2.19-.382c-.032 1.821-.507 3.514-.429 5.278.3.036.6.065.906.071a12 12 0 0 0 1.315-.044c.021 0 .04-.006.06-.008a.7.7 0 0 1 .3-.208c-.013-.691.03-2.3.031-2.487v-2.221m-1.574 6.623a12 12 0 0 1-1.278-.086 16.5 16.5 0 0 0-2.93 4.739 37 37 0 0 0 4.658-.074c.336-.017.661-.045.988-.071a29 29 0 0 0-.973-4.516c-.153 0-.307.01-.461.009"/><path fill="#ebebeb" d="M17.677 31.728a4 4 0 0 1-.478.09c-.37.045-.742.065-1.115.074a29 29 0 0 1 .973 4.516 17.5 17.5 0 0 0 4.736-.952 7.73 7.73 0 0 0-4.116-3.729"/><path fill="#fff" d="M12.728 31.532a10.54 10.54 0 0 0-3.837 4.564 11.3 11.3 0 0 0 2.524.463 16.5 16.5 0 0 1 2.926-4.744 14 14 0 0 1-1.618-.283m-2.53 6.578a12 12 0 0 1-1.76-.41c.238 2.446.061 4.987.058 7.434l-.007 7.539c0 5.093.174 10.227-.052 15.315a20 20 0 0 0 2.508.891c-.323-10.2-1.074-20.661-.747-30.769"/><path fill="#8cc43d" d="m16.788 38.175-.628.031a28.8 28.8 0 0 1-5.967-.1c-.327 10.108.424 20.565.746 30.769.173.043.344.089.521.121a15.2 15.2 0 0 0 3.676-.066c.782-.057 1.567-.107 2.35-.173-.818-10.143.429-20.535-.7-30.584"/><path fill="#a2e247" d="M23.173 36.711a16 16 0 0 1-3.893 1.24 23 23 0 0 1-2.491.225c1.126 10.048-.119 20.44.7 30.584.379-.032.759-.059 1.135-.108a9.7 9.7 0 0 0 1.655-.352 6 6 0 0 0 .792-.328c-.129-4.111.007-8.251.015-12.354l.014-7.514a65 65 0 0 1 .153-7.515 1 1 0 0 1 .06-.205.787.787 0 0 1 .494-1.09 2.33 2.33 0 0 0 1.6-2.291.7.7 0 0 1 .029-.152 3 3 0 0 1-.26-.14"/><path fill="#d2d2d2" d="M24.033 73.138a3.33 3.33 0 0 0 1.742 1.589 15 15 0 0 0 2.351.54 14 14 0 0 1-.573-1.286 27 27 0 0 1-3.52-.843m15.964.754c-.108.022-.218.038-.326.059q-.534.683-1.081 1.334c.4-.065.8-.125 1.2-.211a7.4 7.4 0 0 0 3.135-1.046 6.2 6.2 0 0 0 1-1.155 29 29 0 0 1-3.932 1.014"/><path fill="#b07556" d="M48.527 47.293a3.55 3.55 0 0 1-1.093-2.3 23 23 0 0 1-.131-2.722 4 4 0 0 0-.431-.1c.06 1.837-.051 3.713-.049 5.51v.882a11 11 0 0 1 1.148.075 6.3 6.3 0 0 1 .556-1.344"/><path fill="#d19364" d="M46.823 48.561v6.775q0 3.922.006 7.844c0 1.181.02 2.369.028 3.558l.366-.07.274-.051a10.2 10.2 0 0 1 .836-3.635 8.97 8.97 0 0 1 .637-8.443 6.85 6.85 0 0 1-1-5.9 11 11 0 0 0-1.147-.075"/><path fill="#fff" d="M73.199 31.592c.832.8.734 2.027.7 3.093-.03 1.4-.068 2.805-.091 4.2s-.045 2.805-.075 4.2a14 14 0 0 1-.061 1.792 3.4 3.4 0 0 1-.144.612 2 2 0 0 1-.158.288h-.031a.5.5 0 0 0-.28.053.8.8 0 0 0-.234-.053c-3.713-.076-7.441.015-11.154.03-1.225.007-2.443.007-3.667.007-2.5.008-4.991.016-7.487.1a.73.73 0 0 0-.491.2.74.74 0 0 0-.635-.34h-.031a1.5 1.5 0 0 1-.151-.288 3 3 0 0 1-.151-.612 14 14 0 0 1-.061-1.792c-.022-1.4-.053-2.805-.075-4.2s-.061-2.806-.091-4.2c-.031-1.066-.129-2.292.7-3.093a.65.65 0 0 0 .083-.908.88.88 0 0 0-.567-.869c-.129-.053-.212-.234-.28-.461a.76.76 0 0 0-.121-.87c-.031-.446-.023-.87-.023-1.044a9 9 0 0 1 .333-2.5 9.55 9.55 0 0 1 2.443-4.249c2.034-2.034 6.4-3.222 6.413-6.579.356-.016.711-.045 1.051-.054q1.35-.022 2.7-.022.828 0 1.655.022.854.025 1.694.061c.023 3.35 4.379 4.537 6.413 6.571a9.54 9.54 0 0 1 2.446 4.25 9.2 9.2 0 0 1 .318 2.019.9.9 0 0 0 .015.772c0 .642-.03 1.928-.423 2.087a.88.88 0 0 0-.567.869.65.65 0 0 0 .083.908m-.052 32.738a10 10 0 0 1-.467-1.123c-.12-.59.364-1.193.533-1.746a7.32 7.32 0 0 0-1.176-6.553.84.84 0 0 1 .129-1 5.35 5.35 0 0 0 .381-6.434c-3.62.087-7.251.02-10.872.026-3.716.007-7.438.054-11.153-.045a.8.8 0 0 1-.285-.063 5.37 5.37 0 0 0 .336 6.516.84.84 0 0 1 .13 1 7.33 7.33 0 0 0-1.252 6.289c.161.6.673 1.285.624 1.9a4 4 0 0 1-.38.949 8.5 8.5 0 0 0-.347 1.165 8.3 8.3 0 0 0-.173 2.345 8.1 8.1 0 0 0 .485 2.3c.278.757.646 1.123.334 1.9a8.9 8.9 0 0 0-.3 4.734 2.4 2.4 0 0 0 .853 1.865 6.1 6.1 0 0 0 2.339.62 29.8 29.8 0 0 0 8.22.381 1 1 0 0 1 .209 0 52 52 0 0 0 7.9-.284c1.47-.22 3.338-.251 3.724-1.982a9.6 9.6 0 0 0 .058-4.722c-.26-.812-.573-1.059-.19-1.881a8.3 8.3 0 0 0 .715-2.48 8.26 8.26 0 0 0-.379-3.679"/><path fill="#ebebeb" d="M65.965 70.215c1.993 0 4.748.135 5.263-2.211 1.445-6.594-6.084-2.286-8.937-3.906-2.012-1.143.2-2.073 1.382-2.248 1.636-.241 5.106.607 6.4-.458 1.045-.862.657-3.228-.368-4.013-1.063-.814-3.428-.352-4.772-.35-1.012 0-4.754.374-4.349-1.449.292-1.315 2.831-.963 3.8-.961 3.1 0 5.495.561 5.1-3.285-.167-1.641-.367-1.629-1.812-1.67a51 51 0 0 1-5.693-.312c.074-1.288 1-1.481 2.118-1.679-2.429-.275-4.873-.669-7.312-.826-3.822-.246-5.164 1.987-4.495 5.619.2 1.1.862 1.974.891 2.869.054 1.641-.8 3.193-.679 4.955.086 1.208.9 1.753.95 2.765.07 1.388-1.036 2.28-.67 3.885.245 1.077.677 1.762.473 2.851-.176.935-.692 1.593-.469 2.662a9 9 0 0 0 4.459 5.662c2.342 1.277 4.862.477 7.4.317 2.5-.157 6.15-.722 5.968-3.774-.15-2.52-1.211-2.457-3.469-2.457-.881 0-5.879.625-5.572-.819.255-1.206 3.573-1.165 4.391-1.166"/><path fill="#d2d2d2" d="M72.47 77.164c-2.137-.965-6.274.431-8.548.425-1.217 0-5.068.485-6.065-.384-.933-.814-.224-3.179-.578-4.271-.978-.3-3.526-.042-4.235-.765-1.549-1.58 3.394-2.107 4.234-2.117a51 51 0 0 0-.141-5.487c-1.021-.057-4.064.054-4.234-1.436-.272-2.365 3.565-1.423 4.663-1.585a30 30 0 0 0-.145-5.344c-1.146.028-4 .172-4.522-.942-1.219-2.6 3.769-1.765 4.781-2.047a11.5 11.5 0 0 0 .046-2.711c-.179-1.217.133-.946-.985-1.269-1.182-.342-2.55.069-3.732-.462-.737-.331-1.958-1.4-.528-1.949l-2.694.283c-2.341 2.583.507 4.461-.323 7.208a14.7 14.7 0 0 0-1.094 4.248c-.013 1.479 1 2.754 1 4.127 0 .992-.67 1.812-.867 2.778a7.75 7.75 0 0 0 .184 3.319c.462 2.41-.132 4.686.1 7.106.589 6.044 12.839 4.26 16.567 4.141a14.1 14.1 0 0 0 6.222-1.3c1.054-.513 2.209-.968.892-1.562"/><path fill="#fff" d="M54.161 75.899c-.547-1.314-1.8-1.7-1.682-3.414a3.53 3.53 0 0 1 1.01-2.269c-1.491-2.232-.906-4.829-.526-7.172.243-1.494-1.133-2.319-1.121-3.959a22 22 0 0 1 1.028-4.465c.211-.9.478-.49.031-1.418-.237-.493-.81-.8-1.023-1.241a3.917 3.917 0 0 1 1.878-5l-2.411-1.418c-1.153 1.248-2.312 2.4-2.414 4.222-.092 1.674.8 2.615 1.148 4 .508 2.041-1.479 4.207-1.146 6.453.228 1.542.976 2.074.6 3.76a12.5 12.5 0 0 0-.59 3.5c.07 1.4 1.06 2.6 1.128 3.916.077 1.479-1.377 2.614-1 4.178.527 2.171 6.123 2.817 5.085.324"/><path fill="#d2d2d2" d="M63.225 14.055c-1.157 1.331-2.5 2.314-3.418 3.879-1.891 3.228-2.193 7.078-2.223 10.745-.022 2.964-.318 5.966-.242 8.923.06 2.276-.219 4.719.257 6.949.091.438.28.847.408 1.27-1.777.007-3.554.007-5.331.045-.718.015-1.437.03-2.155.053a.73.73 0 0 0-.492.2.74.74 0 0 0-.635-.341h-.03a1.5 1.5 0 0 1-.152-.287 3 3 0 0 1-.151-.612 14 14 0 0 1-.06-1.792c-.023-1.4-.053-2.805-.076-4.2s-.06-2.805-.091-4.2c-.03-1.067-.128-2.292.7-3.093a.65.65 0 0 0 .083-.908.88.88 0 0 0-.567-.87c-.129-.053-.212-.234-.28-.461a.76.76 0 0 0-.121-.869c-.03-.446-.022-.87-.022-1.044a9 9 0 0 1 .333-2.5 9.55 9.55 0 0 1 2.443-4.25c2.034-2.034 6.4-3.221 6.412-6.579.234-.007.469-.03.7-.038.121-.007.243-.015.356-.015q1.349-.022 2.7-.023.828 0 1.656.023"/><path fill="#fff" d="M58.438 16.195a4.23 4.23 0 0 1-1.21 2.624c-1.173 1.194-3.781 2.193-4.477 3.705a14.5 14.5 0 0 0-.522 3.493 6.8 6.8 0 0 0-.007 2.51c.234.764 1.179 1.271 1.376 2 .333 1.24-.876 2.065-1.119 3.275-.393 1.913.061 4.288.152 6.2.037.908-.356 4.023.045 5.868-.718.015-1.437.03-2.155.053a.74.74 0 0 0-.492.2.74.74 0 0 0-.635-.34h-.031a1.5 1.5 0 0 1-.151-.287 3 3 0 0 1-.152-.612 14 14 0 0 1-.06-1.792c-.022-1.4-.053-2.806-.075-4.2s-.061-2.806-.092-4.2c-.03-1.066-.128-2.291.7-3.093a.65.65 0 0 0 .083-.907.88.88 0 0 0-.567-.87c-.128-.053-.211-.234-.28-.461a.76.76 0 0 0-.121-.87c-.031-.446-.023-.869-.023-1.043a9 9 0 0 1 .333-2.5 9.55 9.55 0 0 1 2.443-4.25c2.034-2.034 6.4-3.222 6.413-6.579.234-.007.469-.031.7-.038.28.62.144 1.036-.076 2.125"/><path fill="#ebebeb" d="M70.584 29.318c.233-1.868.131-4.106-1.507-5.336a18.4 18.4 0 0 1-3.766-3.734c-1.314-1.729-3.661-6.332-2.907-8.447-.322.9-1.138 1.483-1.324 2.47-.15.8.138 1.426-.174 2.313a11.5 11.5 0 0 1-1.335 2.443c-3.249 4.893-2.649 11.534-2.561 17.142.025 1.618.167 3.219.294 4.83.076.961-.121 2.775.281 3.7.394.91 1.152 1.089 2.116 1.276 2.19.425 8.006 2.661 9.3.053.518-1.039.307-3.01.458-4.169.216-1.651.27-3.317.465-4.973a33 33 0 0 0 .566-5.029c-.048-.775-1.577-2.734.092-2.539"/><path fill="#d19364" d="M98.591 67.767c-3.932-.249-7.948-.053-11.887-.045-1.989 0-3.978.007-5.958.007-1.83.007-3.7-.053-5.536.083a10.2 10.2 0 0 0-.809-4.832 8.97 8.97 0 0 0-.643-8.44 6.8 6.8 0 0 0 .711-6.715 5 5 0 0 0-.265-.536 3.4 3.4 0 0 0 1.082-2.193 30 30 0 0 0 .144-4.114c1.1.038 2.231-.037 3.327-.045 1.384-.016 2.767-.023 4.151-.038s2.768-.023 4.152-.038c1.157-.015 2.4.113 3.373-.635a11.5 11.5 0 0 0 2.118-2.7q1.167-1.656 2.329-3.32c.983-1.391 1.951-2.79 2.919-4.189.257-.371.507-.741.763-1.112-.234 6.337-.045 12.719-.045 19.056 0 6.6-.068 13.2.076 19.8m5.054-3.382c-.364.265-.7.552-1.052.824-.4.31-.8.612-1.217.93q-.612.445-1.225.877c.128-6.352.075-12.7.075-19.049 0-3.78.068-7.569.068-11.358 0-2.269-.023-4.53-.091-6.79q1.724 2.314 3.448 4.612c-.264 4.4-.136 8.862-.106 13.279.015.6.015 1.187.015 1.777 0 4.969-.068 9.937.084 14.9"/><path fill="#e3b485" d="M109.645 33.554c-.632-.974-1.193-1.994-1.831-2.964-1.192-1.812-2.891-3.383-3.952-5.289a17.3 17.3 0 0 1-3.168 1.786 11 11 0 0 0-.476.234q3.871 5.043 7.7 10.117l1.213-.826c.225-.153.458-.3.676-.46s.353-.348.544-.5a1.15 1.15 0 0 1 .494-.225c-.394-.629-.8-1.252-1.2-1.874"/><path fill="#003023" d="M51.283 31.868a101.2 101.2 0 0 0 20.614-.438c1.045-.119 1.057-1.774 0-1.653a138 138 0 0 1-20.614.606c-.968-.033-.937 1.4 0 1.486m1.877 22.913a66.7 66.7 0 0 1 12.483-.046c1.026.083.994-1.471 0-1.583a55 55 0 0 0-12.483.123c-.949.109-.968 1.609 0 1.507m17.038.258.185-.078a.6.6 0 0 0 .217-.2.74.74 0 0 0 .167-.469.9.9 0 0 0-.106-.391.78.78 0 0 0-.463-.356 2.3 2.3 0 0 0-.562-.031h-.385l-.771.007a.8.8 0 0 0-.542.225.767.767 0 0 0 .542 1.31l.771.007h.385a2.3 2.3 0 0 0 .562-.031m-17.975 7.61c2.132.109 4.292-.022 6.427-.057s4.284-.08 6.426-.129a.827.827 0 0 0 0-1.653q-3.213.062-6.426.144c-2.135.056-4.3.018-6.427.217a.74.74 0 0 0 0 1.479m20.173-.966c-.327-.339-.766-.219-1.161-.131l-.506.114a.735.735 0 0 0-.545.632.6.6 0 0 0 .014.3.77.77 0 0 0 .349.455l.182.077a.8.8 0 0 0 .4 0l.51-.1.255-.048.123-.04a2 2 0 0 0 .214-.09.75.75 0 0 0 .269-.27l.079-.187a.74.74 0 0 0 0-.391.73.73 0 0 0-.189-.324m-6.742 7.518a69.5 69.5 0 0 0-13.8.654c-.97.13-1.014 1.663 0 1.562 2.289-.227 4.588-.4 6.887-.487s4.6-.024 6.909-.041a.845.845 0 0 0 0-1.688m6.527.756a.6.6 0 0 0-.209-.228.4.4 0 0 0-.179-.1l-.114-.045a2 2 0 0 0-.277-.036h-.167a2.2 2.2 0 0 0-.533.087 2.1 2.1 0 0 0-.9.543.85.85 0 0 0-.238.574.9.9 0 0 0 .238.575.82.82 0 0 0 .574.237.83.83 0 0 0 .575-.237l.045-.042a1 1 0 0 1 .125-.072 1 1 0 0 1 .144-.039h.063l.1.006.052.005.215-.029a.5.5 0 0 0 .205-.089.6.6 0 0 0 .224-.206.6.6 0 0 0 .143-.272l.029-.212a.8.8 0 0 0-.109-.4Zm-6.947-48.823a8.04 8.04 0 0 1 3.623 1.928 7.8 7.8 0 0 1 1.316 1.564c.412.65.641 1.416 1.1 2.029a.85.85 0 0 0 1.126.3.83.83 0 0 0 .3-1.126c-.474-.668-.728-1.469-1.185-2.153a9.7 9.7 0 0 0-5.853-4.079.8.8 0 1 0-.425 1.54"/><path fill="#003023" d="M112.915 35.717c-.584-1.019-1.236-1.995-1.876-2.978s-1.2-1.993-1.835-2.961c-.658-1-1.422-1.928-2.169-2.861-.7-.87-1.318-1.775-1.95-2.687a.849.849 0 0 0-.671-1.33c-9.946-.172-19.893-.127-29.836-.455-.113-.229-.217-.463-.345-.684a11.1 11.1 0 0 0-3.863-3.878c-1.536-.94-3.512-1.859-3.835-3.728.143 0 .286.011.429.015a.834.834 0 0 0 .423-1.55l-.022-2c-.007-.594-.008-1.19-.033-1.784a.755.755 0 0 0-.142-1.208 13.5 13.5 0 0 0-5.869-1.26 14.6 14.6 0 0 0-5.876 1.175.59.59 0 0 0-.361.562.6.6 0 0 0-.127.247 7.5 7.5 0 0 0-.064 2.437q.058.645.164 1.286a4.2 4.2 0 0 0 .334 1.234.65.65 0 0 0 .31.3.62.62 0 0 0 .483.417h.032c-.256 1.951-2.283 2.891-3.853 3.85a11.14 11.14 0 0 0-3.863 3.878 11.3 11.3 0 0 0-1.035 2.371 14.2 14.2 0 0 1-1.076-5.406c-.138-2.559-.278-5.136-.261-7.7a11.8 11.8 0 0 1 .654-3.403 4.35 4.35 0 0 0-.039-2.981c-.4-1.034.376-1.838.24-2.885A1.67 1.67 0 0 0 45.927.315a.9.9 0 0 0-.583-.281 16 16 0 0 0-1.7-.01c-.545 0-1.089.006-1.634.006S40.922.027 40.382.021a12 12 0 0 0-1.7.019.82.82 0 0 0-.636.374 1.98 1.98 0 0 0-.8 2.157c.176.811.516 1.243.205 2.063a3.8 3.8 0 0 0-.281 1.879 15 15 0 0 0 .62 2.286 8.8 8.8 0 0 1 .269 2.392c0 1.728-.076 3.46-.149 5.185-.129 3.055.007 6.383-1.875 8.967-1.1 1.512-2.551 2.828-3.373 4.491a5.7 5.7 0 0 0-.8-1.023 2.075 2.075 0 0 0-3-.184 2.78 2.78 0 0 0-.326 3.141c.062.142.14.278.211.417a14 14 0 0 0-2.41.433 8.3 8.3 0 0 0-3.407 1.5 9.1 9.1 0 0 0-4.1-3.745c.02-.241.012-.489.013-.728q0-.83.006-1.661l.011-3.322a.84.84 0 0 0-.6-.792c-2.07-.652-4.539-1.147-6.273.539a.74.74 0 0 0-.225.728.75.75 0 0 0-.079.313c-.019 1.616.06 3.237.126 4.853a10.5 10.5 0 0 0-4.777 6.077.8.8 0 0 0 .018.464.85.85 0 0 0-.141.374 64 64 0 0 0-.1 7.727l.007 7.728c0 5.14-.177 10.321.055 15.454a.76.76 0 0 0 .219.513.64.64 0 0 0 .337.536 12.8 12.8 0 0 0 3.855 1.446 17.2 17.2 0 0 0 3.993-.02c1.271-.081 2.55-.129 3.812-.31a10.5 10.5 0 0 0 2.074-.476c.015.277.025.555.043.832a.8.8 0 0 0 .155.42.68.68 0 0 0-.061 1c1.371 1.584 2.01 3.622 4.188 4.282a30.3 30.3 0 0 0 7.84 1 29.2 29.2 0 0 0 7.934-.827 5.8 5.8 0 0 0 3-1.423 32 32 0 0 0 2.233-3.078.69.69 0 0 0 .13-.583.8.8 0 0 0 .142-.411c.051-.865.068-1.735.076-2.606l.724-.153a10.2 10.2 0 0 0 .838 2.911 9.3 9.3 0 0 0-.455 5.013c.221 1.825.674 3.341 2.554 4.013a23.5 23.5 0 0 0 5.66.929 25 25 0 0 0 4.941-.051 45.8 45.8 0 0 0 10.458-.684 3.84 3.84 0 0 0 3.15-3.629 10.1 10.1 0 0 0-.382-5.585 10.2 10.2 0 0 0 .659-1.932c1.662 0 3.33-.144 4.991-.2 2.025-.064 4.051-.1 6.077-.094 2.078.007 4.155.052 6.231.121 2.147.07 4.3.26 6.453.254a.76.76 0 0 0 .781.022c.938-.557 1.824-1.213 2.7-1.858q.642-.47 1.272-.955a14 14 0 0 0 1.4-1.132c.007-.007.008-.015.014-.022a.72.72 0 0 0 .258-.552c.164-5.113.091-10.235.091-15.35 0-4.288.15-8.621.009-12.918.6.793 1.185 1.591 1.78 2.384a.82.82 0 0 0 1.1.289l1.8-1.228q.45-.302.9-.614a5 5 0 0 0 .388-.28c.039-.033.112-.083.174-.129h.038c.168-.007.337-.008.5-.02a1.13 1.13 0 0 0 .961-.44.79.79 0 0 0 0-.81m-10.945-11.173a16 16 0 0 1-1.653.871c-.522.24-1.041.51-1.575.718a3.7 3.7 0 0 1-1.249.16q-1.414.057-2.828.092c-4.486.118-8.972.133-13.458.156q-2.734.013-5.468 0a11.4 11.4 0 0 0-.448-2.376c8.891.282 17.785.267 26.679.379m-27.234 6.518a4.03 4.03 0 0 0 1.055-2.935q5.877.079 11.754.031c2.333-.02 4.665-.051 7-.107q1.411-.035 2.822-.087-1.733 2.405-3.452 4.82L91.772 35.8a16.3 16.3 0 0 1-2.212 3c-.837.719-2.539.407-3.574.417l-3.671.036-3.855.039c-1 .01-2.026-.038-3.032.014.028-1.682.057-3.365.056-5.048a5.37 5.37 0 0 0-.757-3.19M65.846 8.817c-.026.6-.028 1.2-.034 1.807l-.019 1.753c-1.405-.08-2.821-.086-4.223-.083-.9 0-1.8.026-2.7.063a18 18 0 0 0-2.111.112c-.046-.244-.1-.487-.149-.731a27 27 0 0 1-.1-.575l-.01-.064c0-.015 0-.03-.007-.056q-.018-.145-.033-.29-.055-.54-.069-1.082c-.005-.181 0-.362 0-.542v-.25c0-.011 0-.041-.007-.077A15.4 15.4 0 0 1 61.323 8a15.8 15.8 0 0 1 4.523.82M48.615 27.439a9.3 9.3 0 0 1 .334-2.5 9.57 9.57 0 0 1 2.447-4.257c2.037-2.033 6.4-3.222 6.408-6.582.36-.019.719-.045 1.068-.053a90 90 0 0 1 6.062.055c.008 3.358 4.372 4.548 6.408 6.58a9.6 9.6 0 0 1 2.447 4.257 9.4 9.4 0 0 1 .319 2.02.86.86 0 0 0 .015.772c0 .647-.036 1.937-.438 2.1a.875.875 0 0 0-.556.865.63.63 0 0 0 .08.894c.838.8.735 2.033.71 3.1-.033 1.4-.071 2.8-.094 4.206l-.071 4.207a14 14 0 0 1-.064 1.791 3 3 0 0 1-.147.614 1.5 1.5 0 0 1-.161.3h-.036a.53.53 0 0 0-.282.056 1 1 0 0 0-.234-.051c-3.714-.077-7.439.016-11.153.03s-7.439-.013-11.154.1a.72.72 0 0 0-.5.207.74.74 0 0 0-.632-.345h-.036a1.5 1.5 0 0 1-.161-.3 3 3 0 0 1-.147-.614 14 14 0 0 1-.064-1.791l-.071-4.207c-.024-1.4-.061-2.8-.094-4.206-.025-1.069-.129-2.3.71-3.1a.63.63 0 0 0 .08-.893.87.87 0 0 0-.556-.865c-.135-.054-.226-.237-.291-.475a.75.75 0 0 0-.125-.866c-.028-.443-.022-.866-.022-1.044M22.696 70.983h-.046a.9.9 0 0 0 .089-.335c.318-4.987.115-10.034.106-15.03l-.014-7.422c0-2.169.089-4.4-.071-6.582a12.9 12.9 0 0 0 3.545 1.046 30.5 30.5 0 0 0 5.641.53 54 54 0 0 0 6.873-.262 28.4 28.4 0 0 0 5.6-1.413c.187-.065.414-.133.653-.212a.7.7 0 0 0 .017.269c.007.022.023.042.032.064-.1 1.914.03 3.883.028 5.766q0 3.968-.005 7.935 0 3.875-.005 7.751c0 2.494-.086 5.016.035 7.509-1.789.479-3.487 1.207-5.312 1.6a30.3 30.3 0 0 1-5.85.664 31 31 0 0 1-5.714-.425c-1.923-.329-3.719-1-5.6-1.452m2.14-33.689a26.5 26.5 0 0 0 5.212.384 64.4 64.4 0 0 0 11.149-.554 16 16 0 0 0 1.644-.311 4.24 4.24 0 0 0 1.6 2.806l.039.028c-.124.054-.225.1-.266.112-.623.219-1.25.432-1.881.626a24 24 0 0 1-6.271 1.042 53 53 0 0 1-7.375-.1 23 23 0 0 1-3.621-.628 8.6 8.6 0 0 1-1.634-.571 3.76 3.76 0 0 0 1.4-2.831m21.913 3.229-.042-.356a1.1 1.1 0 0 0-.046-.744c-.253-.661-.9-.862-1.381-1.315a2.97 2.97 0 0 1-.848-1.987 1 1 0 0 0-.061-.224 1.6 1.6 0 0 0 .3-.67 1.57 1.57 0 0 0-.149-1.023l.327-.368 1.279-1.44 1.52-1.721a2.2 2.2 0 0 0 .364.388 5.24 5.24 0 0 0-.757 3.077c-.012 1.893.033 3.787.064 5.679v.787a5 5 0 0 0-.57-.086m-9.361-14.24c1.689-2.284 1.928-4.984 2.075-7.74q.129-2.437.2-4.877a22.3 22.3 0 0 0-.1-4.521c-.255-1.434-1.107-2.626-.576-4.089a2.75 2.75 0 0 0 .149-1.757c-.08-.294-.763-1.527-.258-1.625a.7.7 0 0 0 .291-.12c.359.028.719.041 1.08.051q.882.026 1.764.041a29 29 0 0 0 3.184-.022 1 1 0 0 0 .119.049c.441.086-.372 2.006-.354 2.417a4.4 4.4 0 0 0 .346 1.209 2.6 2.6 0 0 1 0 1.587 18.6 18.6 0 0 0-.772 2.969 28 28 0 0 0-.007 3.627c.065 2.334.123 4.683.332 7.01a11.2 11.2 0 0 0 2.008 5.87 1 1 0 0 0 .144.153c-.013.141-.039.279-.046.42a10.4 10.4 0 0 0 .077 2.088c-1.019 1.1-2.019 2.212-3.025 3.319l-.7.768a7 7 0 0 0-.972-.409 22.2 22.2 0 0 0-8.63-.784c.42-2.289 2.349-3.841 3.673-5.636m-7.389 3.538.007-.011c.055-.079 0 0-.007.011m-.121.228a.1.1 0 0 0 .005-.028 1.4 1.4 0 0 1 .114-.2l.081-.08.047-.028.053-.018c.083-.022.153.016.263.081a.6.6 0 0 1 .12.081 3 3 0 0 1 .229.222 5.2 5.2 0 0 1 .629.9 8 8 0 0 1 .515 1.029l.02.057q-.622.061-1.237.129l-.135-.01-.185-.339a5.4 5.4 0 0 1-.5-1.1 1.6 1.6 0 0 1-.064-.477.3.3 0 0 0 0-.051.2.2 0 0 0 .019-.051Zm-.196 3.839c.246.438.495.876.765 1.3a.757.757 0 1 0 1.307-.764c-.109-.23-.231-.455-.347-.681a.8.8 0 0 0 .18-.135q.395-.03.793-.057c.077.44.071.842.191 1.309a.82.82 0 0 0 .777.592.81.81 0 0 0 .777-.592 4.3 4.3 0 0 0-.068-1.4 24 24 0 0 1 6.071.379 10.7 10.7 0 0 1 2.113.592 1.03 1.03 0 0 0 .032.813c-.24.044-.492.066-.662.1a33 33 0 0 1-3.786.48.86.86 0 0 0 .4-.313 6 6 0 0 0 .937-.136.766.766 0 0 0 .55-.842.775.775 0 0 0-.754-.665 6.4 6.4 0 0 0-1 .043l-.878.07a1.3 1.3 0 0 0-.36.028l-1.684.133a.842.842 0 1 0 0 1.683c.7.018 1.392.029 2.088.042-.241.013-.482.031-.724.041-1.71.076-3.422.071-5.132.055a40 40 0 0 1-4.955-.209q-.6-.08-1.2-.217a3.5 3.5 0 0 0-.976-.193 14 14 0 0 1 2.031-.866 13 13 0 0 1 3.514-.59m-5.557 1.473c-.009.01-.02.019-.015.037 0-.01 0-.023.015-.037m-6.911-10.093c-.01 1.218-.035 3.833-.02 4.725a.7.7 0 0 0-.321.216c-.022 0-.044.007-.066.008a12 12 0 0 1-1.314.044 11 11 0 0 1-2.075-.26c-.057-1.48-.111-2.965-.242-4.439 1.079-1.029 2.69-.694 4.038-.293m-4.487 6.251a13.3 13.3 0 0 0 2.9.371 12 12 0 0 0 1.576-.084 4 4 0 0 0 .479-.092 7.74 7.74 0 0 1 4.133 3.751 19 19 0 0 1-5.742 1.03c-2.454.125-4.853.347-7.2-.39a10.54 10.54 0 0 1 3.853-4.586m7.556 36.793a9.6 9.6 0 0 1-1.658.353c-1.154.151-2.326.2-3.486.281a15.2 15.2 0 0 1-3.679.065A15.4 15.4 0 0 1 8.42 68c.222-5.091.046-10.228.051-15.323q0-3.771.007-7.543c0-2.451.182-5-.059-7.449 2.526.807 5.07.642 7.742.511a29 29 0 0 0 3.116-.254 16 16 0 0 0 3.9-1.242q.129.077.271.145a.7.7 0 0 0-.031.162 2.34 2.34 0 0 1-1.606 2.3.774.774 0 0 0-.485 1.074 1 1 0 0 0-.06.208 65 65 0 0 0-.151 7.423q-.01 3.8-.014 7.607c-.008 4.106-.142 8.248-.014 12.362a6 6 0 0 1-.8.333m19.675 6.738a29 29 0 0 1-7.155.6 27.8 27.8 0 0 1-6.891-.863 3.4 3.4 0 0 1-1.881-1.658 29 29 0 0 0 3.827.9 32 32 0 0 0 6.153.5 32.7 32.7 0 0 0 5.981-.652 29 29 0 0 0 3.918-1.01 9 9 0 0 1-.843 1.035c-.744.765-2.109.927-3.109 1.148m6.886-8.3c-.008-1.162-.027-2.324-.028-3.481q0-3.968-.005-7.935 0-3.875-.006-7.751c0-1.775.107-3.625.048-5.437a4 4 0 0 1 .458.109 23 23 0 0 0 .131 2.733 3.52 3.52 0 0 0 1.1 2.294 6.76 6.76 0 0 0 .446 7.253 8.96 8.96 0 0 0-.638 8.443 10.2 10.2 0 0 0-.838 3.645l-.3.057zm26.691 1.255a8.3 8.3 0 0 1-.717 2.487c-.4.861-.011 1.154.236 2.01a9.5 9.5 0 0 1-.167 4.859c-.468 1.53-2.44 1.542-3.77 1.736a52.6 52.6 0 0 1-7.809.269 1 1 0 0 0-.2 0 29.8 29.8 0 0 1-8.225-.382 6.1 6.1 0 0 1-2.342-.621 2.42 2.42 0 0 1-.862-1.875 8.9 8.9 0 0 1 .3-4.74c.309-.775-.059-1.14-.336-1.893a8.1 8.1 0 0 1-.485-2.3 8.4 8.4 0 0 1 .173-2.349 9 9 0 0 1 .348-1.168 4 4 0 0 0 .381-.946c.048-.615-.464-1.3-.624-1.9a7.34 7.34 0 0 1 1.25-6.294.82.82 0 0 0-.127-.987 5.38 5.38 0 0 1-.333-6.54.8.8 0 0 0 .291.065c3.716.1 7.437.051 11.154.044 3.623-.007 7.255.06 10.878-.027a5.37 5.37 0 0 1-.378 6.458.83.83 0 0 0-.127.987 7.4 7.4 0 0 1 1.491 4.29 7.3 7.3 0 0 1-.315 2.273c-.208.68-.689 1.225-.449 1.937a9.9 9.9 0 0 1 .764 4.607m12.348-.707a71 71 0 0 0-10.684.455 10.1 10.1 0 0 0-.82-4.768 8.96 8.96 0 0 0-.637-8.443 6.76 6.76 0 0 0 .445-7.254 3.4 3.4 0 0 0 1.085-2.19 30 30 0 0 0 .143-4.131c1.131.042 2.289-.036 3.408-.046l4.039-.036 4.222-.038a5.5 5.5 0 0 0 3.251-.568 10 10 0 0 0 2.1-2.6l2.327-3.321q1.916-2.744 3.816-5.498c-.236 6.353-.051 12.748-.051 19.1 0 6.6-.066 13.2.08 19.8-2.089-.247-4.22-.277-6.319-.351q-3.2-.115-6.4-.115m17.687-17.809c0 4.966-.065 9.937.081 14.9-.361.263-.708.551-1.057.824-.4.312-.8.621-1.221.932s-.823.6-1.238.89c.126-6.356.068-12.716.068-19.072 0-6.048.17-12.135-.017-18.187q1.73 2.327 3.471 4.647c-.292 5-.087 10.061-.087 15.065m6.786-13.824c-.192.152-.342.35-.547.5s-.452.307-.676.46l-1.222.833q-3.847-5.081-7.719-10.143c.124-.063.248-.126.368-.18a18 18 0 0 0 3.3-1.851c1.062 1.911 2.764 3.484 3.959 5.3.638.969 1.2 1.989 1.831 2.964q.614.94 1.209 1.89a1.1 1.1 0 0 0-.505.225"/><path fill="#003023" d="M14.808 27.081a.8.8 0 0 0 .206.354l.162.125a.8.8 0 0 0 .405.11.9.9 0 0 0 .567-.235.8.8 0 0 0 .206-.78l-.033-.132-.077-.184a.6.6 0 0 0-.2-.215l-.169-.1a.6.6 0 0 0-.3-.065l-.2.027-.183.077a.86.86 0 0 0-.353.459l-.033.132a.8.8 0 0 0 0 .426m25.92-22.859.214-.034.077-.009q.185-.02.368-.034a8 8 0 0 1 1.6.028h.037l.182.029a2.1 2.1 0 0 0 .574.049.739.739 0 0 0 .373-1.378 1.5 1.5 0 0 0-.528-.186 12 12 0 0 0-.576-.073 8 8 0 0 0-.863-.037 8.4 8.4 0 0 0-1.85.229.74.74 0 0 0-.512.9.753.753 0 0 0 .9.511m1.32 4.592a8 8 0 0 0 1.138-.118 2.9 2.9 0 0 0 1.1-.361.76.76 0 0 0 .34-.835.75.75 0 0 0-.713-.543 10 10 0 0 0-1.078.217q-.102.019-.205.036h-.03l-.106.012q-.224.022-.45.028a7 7 0 0 1-.934-.033l-.109-.003-.233-.04a7 7 0 0 1-.477-.1.722.722 0 1 0-.384 1.392 5.8 5.8 0 0 0 2.141.349"/><path fill="#b07556" d="M97.797 30.018c-.408 1.255-.635 2.684-.983 3.774a32 32 0 0 0-1.195 6.245c-.158 1.384-.507 2.722-.718 4.084a13 13 0 0 1-.461 3.289c-.552 1.187-1.18.975-2.67.968-2.752-.008-5.52.128-8.257-.136-2.019-.2-4.076-.477-6.1-.568a26 26 0 0 0-2.942.152 5 5 0 0 0-.264-.537 3.4 3.4 0 0 0 1.081-2.193 30 30 0 0 0 .144-4.114c1.1.038 2.231-.038 3.327-.045 1.384-.015 2.768-.023 4.152-.038s2.767-.022 4.151-.038c1.157-.015 2.4.114 3.373-.635a11.5 11.5 0 0 0 2.118-2.7q1.169-1.656 2.329-3.319a533 533 0 0 0 2.919-4.19m5.743 17.688a5.7 5.7 0 0 1-1.709.083c-.318-1.694-.59-3.449-.87-5.18-.31-1.929-.31-3.865-.642-5.815-.008-.06-.023-.128-.031-.189 0-2.269-.023-4.529-.091-6.79q1.724 2.314 3.448 4.612c-.264 4.4-.136 8.863-.106 13.279"/><path fill="#fff" d="M35.601 56.232a14 14 0 0 0-.609-1.818l1.791.863c.867.418 1.833-.651 1.074-1.391a15.2 15.2 0 0 1-2.647-3.106c.953.24 1.893.217 2.176-.865a2.74 2.74 0 0 0-.542-1.984c-.476-.854-.931-1.725-1.461-2.547a.869.869 0 0 0-1.5.876c.423.883.926 1.726 1.4 2.58l.042.074-1.448-.482a.9.9 0 0 0-1.1 1.1 7.8 7.8 0 0 0 1.012 2.348l-.024-.011c-.618-.3-1.59.209-1.293.994.414 1.092.8 2.2 1.223 3.295a1.53 1.53 0 0 0-.606 1.558.94.94 0 0 0 .088.641 5.7 5.7 0 0 0 .634.949 10.5 10.5 0 0 1 1.485 7.368c-.031.153-.167.354-.1.4a4.4 4.4 0 0 1-.989-.542 7.4 7.4 0 0 1-1.655-1.4c-.789-.885-1.662-2.433-.4-3.344a.841.841 0 0 0-.644-1.529c-2.22.528-2.574 3.275-1.682 5.048a8.1 8.1 0 0 0 2.415 2.749 5.45 5.45 0 0 0 3.155 1.35c2.482-.094 2.157-3.739 1.949-5.382a14 14 0 0 0-.6-2.672 1.29 1.29 0 0 0 1.211-.787c.908-1.688-.759-3.6-2.345-4.336m-.4 1.954q.046-.043.088-.089a4 4 0 0 1 .49.372 2.24 2.24 0 0 1 .659.978 2.3 2.3 0 0 1-.852-.612 11 11 0 0 0-.4-.647"/></g></svg>