<svg xmlns="http://www.w3.org/2000/svg" width="112.375" height="86.702" viewBox="0 0 112.375 86.702"><defs><clipPath id="a"><path fill="none" d="M0 0h112.375v86.702H0z"/></clipPath></defs><g clip-path="url(#a)"><path fill="#e8e8e8" d="M112.375 119.352c0 2.277-25.156 4.123-56.187 4.123S0 121.629 0 119.352s25.156-4.123 56.187-4.123 56.187 1.846 56.187 4.123" style="mix-blend-mode:multiply;isolation:isolate" transform="translate(0 -36.772)"/><path fill="#e8e8e8" d="M79.504 5.789a2.4 2.4 0 0 0-.021.951 6 6 0 0 0 .021-.951m.313 5.659a2.7 2.7 0 0 1-.506.788l.541-.27a1 1 0 0 0-.035-.518"/><path fill="#e8e8e8" d="M88.674 1.634c-.014 3.122-3.1 6.167-6.091 6.529-1.358.165-2.845-.176-3.1-1.428-.326 3.354-3.656 5.122-6.715 5.258 1.268 2.076 4.987 1.962 6.542.244l-.5.249a2.24 2.24 0 0 0 1.224-1.889c2.22 1.038 5.956-.392 7.572-2.081 1.775-1.855 1.239-4.561 1.064-6.88M25.517 81.048c4.134-.16 8.279-.129 12.415-.128h5.023c-.1-1.987-.031-3.991-.017-5.979l.018-2.554a153 153 0 0 1-17.406 2.841c.012 1.936.075 3.89-.033 5.82m34.205-13.551c.927.013 1.853.032 2.778.067a.67.67 0 0 1 .587.351.635.635 0 0 1 .87.577c.093 2.147.09 4.3.1 6.447.014 1.991.08 4-.018 5.988l7.127.008q2.075-.002 4.155-.013c-.082-1.985.029-4.009.033-5.985q.007-3.493.055-6.984a.66.66 0 0 1 .219-.5.69.69 0 0 1 .627-.737c1.857-.169 3.717-.238 5.578-.269l-.022-9.72a115.4 115.4 0 0 1-22.1 10.772"/><path fill="#fff" d="M81.807 52.45c-.01-4.762.024-9.528-.033-14.29-5.911 2.521-11.829 5.1-17.859 7.313a.777.777 0 0 1-1.363-.47l-.117-7.2q-4.234 1.8-8.482 3.56c-3.1 1.281-6.2 2.715-9.389 3.768a.778.778 0 0 1-1.348-.492l-.117-7.2q-4.234 1.8-8.481 3.56c-3.037 1.256-6.077 2.657-9.2 3.7.242 2.367.1 4.824.106 7.2q.02 7.6.024 15.2v8.127a153 153 0 0 0 17.405-2.841c.011-1.3.03-2.6.086-3.893a.6.6 0 0 1 .486-.592.55.55 0 0 1 .342-.233 22 22 0 0 1 4.614-.163c1.538-.007 3.077-.021 4.615-.021 2.206 0 4.415-.017 6.624.013a115.4 115.4 0 0 0 22.097-10.771q0-2.139-.01-4.277"/><path fill="#2a5647" d="m38.598 56.549-.008-.033a.7.7 0 0 0-.689-.687c-.982-.059-1.965-.035-2.948-.031a28 28 0 0 0-2.948.084.8.8 0 0 0-.187.053.606.606 0 0 0-.735.444 23 23 0 0 0-.144 3.637c0 1.2 0 2.4.065 3.6l.008.033a.7.7 0 0 0 .69.687c.981.059 1.964.035 2.948.031a28 28 0 0 0 2.948-.084.8.8 0 0 0 .187-.053.606.606 0 0 0 .735-.444 23 23 0 0 0 .144-3.636c0-1.2 0-2.4-.065-3.606m18.848.005-.008-.033a.7.7 0 0 0-.689-.687c-.982-.059-1.965-.035-2.948-.031a28 28 0 0 0-2.948.084.8.8 0 0 0-.188.057.606.606 0 0 0-.735.444 23 23 0 0 0-.144 3.637c0 1.2 0 2.4.066 3.6l.007.033a.7.7 0 0 0 .69.688c.981.059 1.964.035 2.948.031a28 28 0 0 0 2.948-.084.8.8 0 0 0 .187-.053.606.606 0 0 0 .735-.444 23 23 0 0 0 .144-3.636c0-1.2 0-2.4-.065-3.606m18.909 3.612c0-1.2 0-2.4-.065-3.606l-.008-.033a.7.7 0 0 0-.689-.687c-.982-.059-1.964-.036-2.948-.031a28 28 0 0 0-2.948.083.8.8 0 0 0-.187.054.606.606 0 0 0-.735.444 23 23 0 0 0-.144 3.637c0 1.2 0 2.4.065 3.605l.008.032a.7.7 0 0 0 .69.688c.981.059 1.964.036 2.948.031a28 28 0 0 0 2.948-.083 1 1 0 0 0 .187-.053.606.606 0 0 0 .735-.445 23 23 0 0 0 .144-3.635"/><path fill="#8cc43d" d="M13.159 54.996q-1.145.011-2.289-.023c.036 3.176.142 6.339.255 9.5.825.013 1.65.02 2.471.039 1.18.027 2.361.064 3.541.088.246 0 .487.005.724 0 .232-3.285.383-6.554.294-9.8a80 80 0 0 1-5 .2"/><path fill="#a2e247" d="M9.262 54.918a22 22 0 0 1-3.372-.287c0 .1.007.2.008.294.057 3.121.1 6.243.145 9.364a.7.7 0 0 1 .513-.108 34.5 34.5 0 0 0 4.568.3c-.114-3.165-.219-6.329-.255-9.5a86 86 0 0 1-1.608-.054m8.893-.128c.089 3.248-.062 6.518-.294 9.8a5.4 5.4 0 0 0 2.087-.434.9.9 0 0 1 .375-.076q0-.277.009-.554.068-4.476.142-8.954c-.77.091-1.544.158-2.319.215"/><path fill="#b5d6f0" d="M10.651 41.98c.789.005 1.578.011 2.367.009h2.304c.076 0 .16 0 .242-.007l.067.575v.038a16.5 16.5 0 0 0-2.457-.148 17 17 0 0 0-2.557.15c.01-.2.022-.406.027-.61"/><path fill="#8cc43d" d="M16.646 44.18a.72.72 0 0 1-.656-.178 14 14 0 0 0-2.808-.284 16 16 0 0 0-2.067.156c-.2 3.215-.264 6.4-.252 9.577q1.224.02 2.446.006c1.6-.018 3.192-.11 4.782-.227a46 46 0 0 0-1.31-9c-.046-.016-.089-.037-.135-.052"/><path fill="#a2e247" d="M11.114 43.874a5.4 5.4 0 0 0-4.377 2.784c-1.006 1.977-.968 4.388-.889 6.641 1.224-.082 2.489.09 3.714.127.434.013.867.018 1.3.025-.013-3.174.049-6.362.251-9.577m8.007 1.973a4.83 4.83 0 0 0-2.339-1.615 46 46 0 0 1 1.31 9q1.2-.088 2.41-.19c.055-2.41.133-5.217-1.381-7.192m-9.113 20.087a13 13 0 0 1-3.8-.5 1 1 0 0 1-.152-.084c.022 1.508.042 3.016.069 4.524a10.6 10.6 0 0 0 .534 3.88 3.5 3.5 0 0 0 2.984 2.026c.6.1 1.207.2 1.815.276-.048-3.374-.163-6.728-.285-10.078l-1.171-.04"/><path fill="#8cc43d" d="m13.871 66.076-2.693-.1c.121 3.35.237 6.7.285 10.078a15 15 0 0 0 1.719.136 19.5 19.5 0 0 0 3.839-.468c.192-3.19.481-6.374.724-9.545h-.148c-1.241 0-2.485-.069-3.725-.112"/><path fill="#a2e247" d="M17.744 66.18c-.243 3.171-.532 6.355-.724 9.545.1-.022.2-.039.3-.063a3.425 3.425 0 0 0 2.672-2.892 21.7 21.7 0 0 0 .266-4.238l.043-2.8a6.1 6.1 0 0 1-2.553.451"/><path fill="#d19364" d="M76.938 78.769q-.013-1.024-.039-2.043c1.647.1 3.3.117 4.963.11q-.002.928.007 1.857c-1.647-.018-3.294-.011-4.931.076m-.121-10.765c1.673-.1 3.349-.135 5.026-.142q0 1.662.007 3.322-2.5.017-5.007.058c-.01-1.079-.012-2.158-.026-3.238m.062 7.39c0-.151-.007-.3-.007-.456 0-.78-.014-1.56-.018-2.339q2.5.043 5 .058 0 1.155.005 2.311v.316c-1.663-.007-3.327.006-4.981.11m6.488-2.73q2.353.011 4.706.012c0 .668-.014 1.336-.016 2 0 .2-.007.409-.009.612q-1.281.008-2.559.011c-.7 0-1.409-.006-2.116-.012 0-.876-.005-1.752-.005-2.628m6.204 2.02c0-.667-.012-1.335-.016-2h4.547l-.009 2.234v.441c-1.5-.059-3.007-.071-4.511-.068 0-.2-.008-.406-.009-.607m4.319-6.74a1 1 0 0 0 .074.193 4.3 4.3 0 0 1 .131 1.777q0 .627.007 1.253h-4.56c-.008-1.09-.012-2.181-.026-3.272.588 0 1.175.007 1.763.005.842 0 1.737.059 2.611.042m-7.065-.054h.808a.54.54 0 0 0 .2.127.7.7 0 0 0 .275.1c-.013 1.018-.016 2.036-.025 3.054q-2.358 0-4.716.013v-3.312c1.155 0 2.309.013 3.462.018"/><path fill="#fff" d="M73.946 23.722q-.45-.022-.9-.04a39 39 0 0 1-1.6-.1c-.039 1.478-.082 2.954-.114 4.423-.029 1.338-.067 2.675-.1 4.012.7-.067 1.418-.042 2.115-.046h1.057q-.266-4.128-.462-8.243"/><path fill="#e8e8e8" d="M74.591 31.965c.221 0 .454-.013.685-.01-.043-1.655-.086-3.31-.118-4.966-.021-1.075-.05-2.153-.078-3.233-.377 0-.756-.018-1.134-.034q.2 4.112.462 8.243z"/><path fill="#e4f7c9" d="M75.043 22.188c-.059-2.438-.089-4.878 0-7.306-.193-.014-.384-.031-.573-.039q-.404-.015-.806-.026.054 3.642.208 7.33c.391.009.784.019 1.174.042"/><path fill="#a2e247" d="M73.66 14.817c-.127 0-.254-.01-.381-.012-.6-.014-1.2 0-1.8 0 .088 2.432.067 4.877.012 7.322q.78-.016 1.561 0l.82.018q-.159-3.688-.209-7.33m.849 18.7h-1.161c-.709 0-1.441.021-2.152-.05q-.1 3.782-.234 7.564 1.97-.818 3.942-1.633l-.4-5.88"/><path fill="#e4f7c9" d="M75.488 39.156q-.093-2.816-.173-5.631c-.259.006-.522-.009-.769-.009h-.034q.194 2.945.4 5.88l.581-.24"/><path fill="#a2e247" d="M58.208 77.702h-4.659c-3.022 0-6.073-.1-9.092.072q-.009-.956-.022-1.911c3.025.177 6.084.074 9.114.074h4.486c1.489 0 3.044.119 4.528-.031q-.012.914-.021 1.83c-1.422-.141-2.908-.029-4.334-.03m4.37-3.248a44 44 0 0 0-4.371-.033h-4.658c-3.035 0-6.1-.1-9.129.074q-.005-.956-.014-1.913c3.035.179 6.1.074 9.142.074h4.486a45 45 0 0 0 4.556-.033l-.013 1.834m.035-3.282a43 43 0 0 0-4.4-.035h-4.661c-3.041 0-6.11-.106-9.145.074h-.016q-.017-1.126-.057-2.248a28.6 28.6 0 0 0 4.152.08c1.538.007 3.076.021 4.615.021 3.132 0 6.272.04 9.4-.081a1 1 0 0 0 .167-.039q-.042 1.112-.057 2.224m-18.203 9.746q.043-.889.05-1.781c3.019.176 6.07.073 9.093.073h4.486c1.482 0 3.03.118 4.507-.03q.008.875.05 1.746h-2.617q-7.784-.008-15.57 0"/><path fill="#9b9b9b" d="M81.887 80.998a136 136 0 0 0-4.981-.079c.009-.224.027-.447.031-.671a77 77 0 0 0 4.944.076q-.001.337.005.674"/><path fill="#d19364" d="M83.393 78.71q-.012-.941-.017-1.882c.7-.005 1.409-.012 2.111-.011q1.266.001 2.534.01-.02.944-.032 1.89-1.176.009-2.351.01c-.747 0-1.5-.008-2.246-.018m6.244 0q-.01-.939-.032-1.876c1.5 0 2.989-.01 4.482-.068q0 .7-.006 1.394.001.3-.006.6a137 137 0 0 0-4.437-.046"/><path fill="#85e5aa" d="M93.102 37.352c-2.557 9.508-5.069 19.154-4.24 29.052.848 0 1.695-.009 2.542-.007.579 0 1.186-.031 1.792-.043 2.087-9.218.362-19.188-.094-29"/><path fill="#6bb788" d="M97.029 53.599a152 152 0 0 0-3.645-17.295l-.282 1.047c.457 9.815 2.182 19.784.095 29a10.5 10.5 0 0 1 2 .108.62.62 0 0 1 .491.556 1.06 1.06 0 0 1 .063 1.113 4.7 4.7 0 0 0-.132 1.913c0 .541-.009 1.082-.009 1.623v.169c1.99-1.892 1.906-5.584 1.985-8.087a62 62 0 0 0-.569-10.149"/><path fill="#85e5aa" d="M105.148 40.978c-.219.834-.438 1.668-.648 2.5a101 101 0 0 0-2.954 16.518 30.8 30.8 0 0 0 .209 7.834 9.7 9.7 0 0 0 1.033 3.017c4.527-7.157 2.529-19.471 2.359-29.874"/><path fill="#6bb788" d="M106.391 36.302q-.629 2.336-1.243 4.676c.17 10.4 2.168 22.717-2.359 29.875a3.74 3.74 0 0 0 2.379 1.962.69.69 0 0 1 .842-.315c3.052 1.166 4.159-3.31 4.377-5.405 1.087-10.41-1.439-20.744-4-30.793"/><path fill="#003023" d="M72.461 11.015c-.044-2.2 2.008-3.208 3.912-3.445a.772.772 0 0 0 .732-.961c-.489-1.811 1.04-3.494 2.5-4.317a6.2 6.2 0 0 1 4.953-.394c.784.219 1.35-.991.571-1.354a7.14 7.14 0 0 0-6.546.59c-1.725 1.07-3.2 2.977-3.078 5.053a6.2 6.2 0 0 0-2.943 1.281 4.5 4.5 0 0 0-1.58 3.545.738.738 0 0 0 1.475 0m8.402-1.463a1.63 1.63 0 0 0-1.267 1.3c-.142.515-.137 1.046-.581 1.416a1.08 1.08 0 0 1-1.256.136.695.695 0 0 0-.7 1.2 2.54 2.54 0 0 0 3.6-1.133 5 5 0 0 0 .3-1.073c.115-.5.225-.406.692-.3a6.4 6.4 0 0 0 2.723.058 6.7 6.7 0 0 0 4.193-2.922c.565-.844 2.242-3.989.527-4.459a.72.72 0 0 0-.79.322l-.049.065a.54.54 0 0 0 .082.783 7 7 0 0 1-.189.767 6 6 0 0 1-.358.926 6.3 6.3 0 0 1-1.147 1.661 4.94 4.94 0 0 1-3.775 1.514 9 9 0 0 0-2.016-.253M38.592 56.555c0-.012-.007-.02-.008-.033a.686.686 0 0 0-.679-.678c-.982-.059-1.964-.035-2.948-.031a29 29 0 0 0-2.948.082.8.8 0 0 0-.185.052.6.6 0 0 0-.726.436 23.6 23.6 0 0 0-.141 3.635c0 1.2 0 2.4.064 3.6 0 .012.007.02.008.033a.687.687 0 0 0 .678.676c.982.058 1.964.035 2.948.031a29 29 0 0 0 2.948-.082.8.8 0 0 0 .185-.053.6.6 0 0 0 .726-.436 23.6 23.6 0 0 0 .141-3.635c0-1.2 0-2.4-.064-3.6m-3.936 6.331c-.746 0-1.492-.007-2.238.012a77 77 0 0 0 .041-2.877c0-.923.026-1.855-.044-2.777.846.062 1.7.047 2.544.05.746 0 1.492.007 2.238-.012a77 77 0 0 0-.041 2.877c0 .923-.026 1.855.044 2.778-.846-.063-1.7-.047-2.544-.051m22.781-6.328c0-.012-.007-.02-.008-.032a.686.686 0 0 0-.678-.679c-.982-.059-1.964-.035-2.948-.031a29 29 0 0 0-2.948.082.8.8 0 0 0-.185.052.6.6 0 0 0-.726.436 23.6 23.6 0 0 0-.141 3.635c0 1.2 0 2.4.064 3.6 0 .012.007.02.008.033a.687.687 0 0 0 .678.676c.982.058 1.964.035 2.948.031a29 29 0 0 0 2.948-.082.8.8 0 0 0 .185-.053.6.6 0 0 0 .726-.436 23.6 23.6 0 0 0 .141-3.635c0-1.2 0-2.4-.064-3.6M53.5 62.886c-.746 0-1.492-.007-2.238.012q.049-1.438.041-2.877c0-.923.026-1.855-.044-2.777.846.062 1.7.047 2.544.05.746 0 1.492.007 2.238-.012A77 77 0 0 0 56 60.159c0 .923-.026 1.855.044 2.778-.846-.063-1.7-.047-2.544-.051m22.704.908a23.6 23.6 0 0 0 .141-3.635c0-1.2 0-2.4-.064-3.6 0-.012-.007-.02-.008-.032a.686.686 0 0 0-.678-.676c-.982-.059-1.964-.035-2.948-.031a29 29 0 0 0-2.948.082.8.8 0 0 0-.186.052.6.6 0 0 0-.726.436 23.6 23.6 0 0 0-.141 3.635c0 1.2 0 2.4.064 3.6 0 .012.007.02.008.033a.687.687 0 0 0 .678.676c.982.058 1.964.035 2.948.031a29 29 0 0 0 2.948-.082.8.8 0 0 0 .185-.053.6.6 0 0 0 .727-.436m-3.859-.908c-.746 0-1.492-.007-2.238.012a77 77 0 0 0 .041-2.877c0-.923.026-1.855-.044-2.777.846.062 1.7.047 2.544.05.746 0 1.492.007 2.238-.012q-.049 1.438-.041 2.877c0 .923-.026 1.855.044 2.778-.846-.063-1.7-.047-2.544-.051"/><path fill="#003023" d="M96.508 42.603c-.737-3.06-1.559-6.1-2.386-9.135a.775.775 0 0 0-1.507-.339c-1.514 5.718-3.155 11.411-4.246 17.23a52.9 52.9 0 0 0-.938 16.065h-.546q-1.766.006-3.532.018v-.581q-.028-11.278-.061-22.556c-.007-2.091 0-4.183-.035-6.273a.75.75 0 0 0-1.114-.639q-2.613 1.114-5.242 2.2-.184-5.8-.308-11.6c-.091-4.183-.011-8.4-.253-12.574a.6.6 0 0 0 .043-.135.69.69 0 0 0-.5-.763 8 8 0 0 0-1.323-.1q-.617-.022-1.234-.024a22 22 0 0 0-2.469.08.68.68 0 0 0-.66.66l.012.056a1 1 0 0 0-.025.1c-.268 4.554-.182 9.152-.28 13.713s-.227 9.1-.387 13.648q-2.741 1.147-5.462 2.338l-.123-7.317a.762.762 0 0 0-1.13-.648q-4.847 2.065-9.711 4.093c-2.778 1.157-5.636 2.213-8.371 3.482l-.123-7.285a.763.763 0 0 0-1.131-.649q-4.847 2.056-9.711 4.087c-3.137 1.306-6.384 2.469-9.431 3.969a.594.594 0 0 0-.209.865c-.217 2.078-.1 4.218-.116 6.3-.014 2.48-.012 4.96-.017 7.439q-.015 7.629-.007 15.258c0 1.874-.063 3.768-.034 5.651a.8.8 0 0 0-.23.078c.1-.052 0-.051-.069-.16a1.3 1.3 0 0 1-.132-.621c-.026-.571.021-1.149.04-1.719.038-1.158.078-2.316.11-3.474a6.05 6.05 0 0 0-.35-2.989 1.94 1.94 0 0 0-1.554-1.106c.023-1.188.018-2.378.035-3.562.057-3.824.121-7.648.165-11.473.033-2.92.273-6.395-1.494-8.916a6.14 6.14 0 0 0-3.248-2.346c-.02-.175-.046-.35-.067-.526a9 9 0 0 0-.144-1.125c-.253-1.006-1.338-.845-2.142-.84-1.646.009-3.291.016-4.936.046a.74.74 0 0 0-.729.729c0 .559 0 1.119.032 1.677a5.9 5.9 0 0 0-2.791 1.714c-2 2.25-2.067 5.459-2.045 8.309.029 3.8.1 7.607.159 11.411.028 1.889.045 3.779.084 5.668a11.8 11.8 0 0 0 .678 4.374 4.5 4.5 0 0 0 1.259 1.71c-.057.827.02 1.681.04 2.5.025 1 .06 1.992.1 2.988a.83.83 0 0 0 1.038.791c1.025-.239 1.153-1.411 1.172-2.278l.067-2.909a21 21 0 0 0 4.195.515 27 27 0 0 0 3.813-.45 8 8 0 0 0 .823-.176 15 15 0 0 0 .259 2.061 14.5 14.5 0 0 0 .713 2.525.79.79 0 0 0 .735.56.77.77 0 0 0 .735-.56 14.7 14.7 0 0 0 .275-3.012 14 14 0 0 0-.1-1.461 8.5 8.5 0 0 0-.255-1.435 4 4 0 0 0 .376-.453 7.8 7.8 0 0 0 1.13-4.062c.012-.183.016-.367.025-.55a.6.6 0 0 1 .291.272 2.83 2.83 0 0 1 .21 1.527c-.042 1.215-.106 2.429-.156 3.643a9.9 9.9 0 0 0 .072 3.4 1.78 1.78 0 0 0 1.873 1.3c.006.131.006.264.014.4a.726.726 0 0 0 .735.716.63.63 0 0 0 .613.472c7.362.289 14.755.13 22.121.129s14.742-.025 22.115-.025c2.06 0 4.125.02 6.19.024a.74.74 0 0 0 .654 0c1.918 0 3.835-.018 5.748-.093a4 4 0 0 0 1.214-1.232q-.002-.459-.01-.921a187 187 0 0 1 4.611-.007c.012.547.032 1.093.074 1.635a.731.731 0 0 0 1.462 0c.042-.539.061-1.083.073-1.627 1.492.006 2.984 0 4.475-.046a11 11 0 0 0 .1 1.339.694.694 0 0 0 1.33 0 13 13 0 0 0 .112-1.782.77.77 0 0 0 0-.6c0-.305-.007-.609-.008-.913l-.014-3.382v-1.118a.8.8 0 0 0 .2-.09c2.093-1.328 2.806-3.682 3.1-6.022a47.7 47.7 0 0 0 .238-8.271 90.5 90.5 0 0 0-2.637-16.809M6.031 64.314c-.047-3.141-.089-6.282-.146-9.423q.002-.136-.007-.272a22 22 0 0 0 3.383.288c1.3.06 2.6.09 3.9.078a68 68 0 0 0 7.327-.414q-.08 4.547-.144 9.094 0 .22-.007.441a.84.84 0 0 0-.381.073 6.3 6.3 0 0 1-2.817.438c-1.18-.023-2.361-.061-3.541-.088a56 56 0 0 1-7.042-.337.68.68 0 0 0-.522.123m4.609-22.347c.793.005 1.586.011 2.379.009h2.304c.08 0 .167 0 .254-.008l.069.588v.05a16.5 16.5 0 0 0-2.47-.149 17 17 0 0 0-2.569.154q.018-.318.028-.637m-3.852 4.566c1.3-2.4 3.9-2.79 6.395-2.833a14 14 0 0 1 2.813.282.71.71 0 0 0 .652.177 4.9 4.9 0 0 1 2.42 1.6c1.582 1.981 1.5 4.841 1.445 7.287-2.4.2-4.791.39-7.2.419a90 90 0 0 1-3.747-.031c-1.229-.038-2.5-.21-3.726-.129-.082-2.3-.127-4.781.951-6.769m13.184 26.36a3.45 3.45 0 0 1-2.893 2.82 21 21 0 0 1-3.9.478 25 25 0 0 1-3.416-.394 3.59 3.59 0 0 1-3.05-1.917 10.1 10.1 0 0 1-.6-4.021c-.028-1.514-.047-3.029-.069-4.543a.7.7 0 0 0 .167.093 13 13 0 0 0 3.792.5q1.932.068 3.864.133c1.241.043 2.484.109 3.725.112a6.3 6.3 0 0 0 2.713-.461q-.021 1.424-.044 2.847a20.4 20.4 0 0 1-.3 4.344m56.955 5.88q-.013-1.035-.038-2.067c1.655.1 3.321.116 4.987.108q-.002.942.007 1.883c-1.655-.018-3.31-.011-4.956.076m-.119-10.788c1.681-.1 3.365-.138 5.049-.143q0 1.673.007 3.345-2.516.017-5.032.057c-.009-1.086-.012-2.173-.025-3.259m.061 7.411c0-.155-.007-.312-.007-.466 0-.784-.014-1.567-.018-2.351q2.511.043 5.024.057 0 1.149.005 2.3v.353c-1.672-.007-3.344.005-5.005.109m6.487-2.753q2.365.011 4.729.013c0 .671-.014 1.343-.015 2.015 0 .207-.007.417-.01.625q-1.286.007-2.571.01-1.062 0-2.128-.012 0-1.326-.005-2.652m6.2 2.028c0-.672-.012-1.343-.016-2.015h4.571l-.009 2.246v.453c-1.51-.059-3.023-.071-4.536-.067 0-.206-.008-.414-.009-.619m4.361-6.748a1 1 0 0 0 .074.2 4.4 4.4 0 0 1 .129 1.785q0 .633.007 1.266h-4.585c-.008-1.1-.011-2.2-.025-3.3.581 0 1.162.006 1.744.005.858 0 1.768.06 2.656.041m-7.021-.054h.75a.5.5 0 0 0 .2.131.7.7 0 0 0 .279.095c-.013 1.025-.016 2.051-.024 3.077q-2.37 0-4.74.012v-3.336c1.178 0 2.355.013 3.532.018M71.327 28c.032-1.474.076-2.954.116-4.436q.802.072 1.606.106c.68.027 1.362.069 2.043.074q.045 1.627.079 3.245c.032 1.661.075 3.32.118 4.98-.234 0-.471.01-.7.01h-1.241c-.7 0-1.424-.021-2.126.047.035-1.341.072-2.683.1-4.025m3.139-13.168c.193.008.389.026.585.039-.085 2.435-.055 4.884 0 7.33-.667-.039-1.338-.042-2.006-.061a29 29 0 0 0-1.571 0c.056-2.453.079-4.906-.008-7.345.6 0 1.206-.012 1.809 0 .4.008.792.022 1.187.039m-3.278 18.62c.715.073 1.45.047 2.163.052h1.194c.252 0 .519.015.781.007q.079 2.827.174 5.653-2.274.939-4.546 1.884.132-3.8.234-7.6M57.953 77.714h-4.4c-3.026 0-6.082-.1-9.1.071q-.009-.968-.022-1.934c3.031.175 6.092.072 9.126.072h4.4a46 46 0 0 0 4.623-.032q-.012.927-.021 1.855c-1.507-.153-3.089-.03-4.6-.031m4.638-3.244a45 45 0 0 0-4.638-.033h-4.4c-3.039 0-6.105-.1-9.14.074l-.014-1.938h.009c3.036.177 6.1.074 9.145.074h4.4a45 45 0 0 0 4.651-.034l-.013 1.859m.032-3.275a45 45 0 0 0-4.67-.035h-4.4c-3.04 0-6.109-.1-9.145.073-.01 0-.017.006-.027.007q-.016-1.137-.057-2.273a28 28 0 0 0 4.081.079c1.567.007 3.133.021 4.7.021 3.131 0 6.27.039 9.4-.079a.7.7 0 0 0 .178-.042q-.041 1.124-.056 2.25m-18.238 9.735q.044-.9.05-1.806c3.023.174 6.078.072 9.105.072h4.4c1.513 0 3.1.122 4.6-.031q.007.888.049 1.772h-2.533q-7.839-.008-15.678 0m19.638.007c.1-1.995.031-4.006.018-6-.014-2.149-.012-4.3-.1-6.448a.623.623 0 0 0-.865-.562.66.66 0 0 0-.582-.354c-3.129-.119-6.267-.08-9.4-.08-1.567 0-3.133.014-4.7.021a21.8 21.8 0 0 0-4.53.161.54.54 0 0 0-.338.232.59.59 0 0 0-.483.582c-.091 2.147-.089 4.3-.1 6.448-.014 1.992-.078 4 .018 5.993h-5.013c-4.147 0-8.3-.032-12.447.127.118-2.137.028-4.3.029-6.443v-7.438q.005-7.629-.023-15.258c-.007-2.381.136-4.844-.1-7.219 3.122-1.05 6.165-2.45 9.2-3.707q4.258-1.762 8.5-3.567l.118 7.214a.765.765 0 0 0 1.326.483c3.189-1.056 6.292-2.488 9.392-3.771q4.259-1.761 8.5-3.566l.118 7.214a.764.764 0 0 0 1.341.462c6.036-2.223 11.962-4.8 17.88-7.323.057 4.748.022 9.5.033 14.248l.032 14.068c-1.865.032-3.73.1-5.59.269a.68.68 0 0 0-.616.731.65.65 0 0 0-.219.5q-.045 3.493-.054 6.985c0 1.98-.114 4.008-.033 6-1.4.006-2.807.015-4.206.014l-7.1-.008m17.867.069a139 139 0 0 0-5.006-.078c.01-.232.028-.463.032-.7 1.65.087 3.309.093 4.969.076q-.001.35.005.7m1.482-2.299q-.011-.954-.016-1.907c.709-.005 1.417-.012 2.123-.011.849 0 1.7 0 2.548.01q-.022.957-.032 1.915-1.183.009-2.365.01-1.123-.002-2.258-.017m6.242 0q-.01-.951-.032-1.9c1.5 0 3.006-.01 4.507-.067q0 .7-.005 1.406.002.302-.007.607a121 121 0 0 0-4.463-.046m7.991-15.09c-.074 2.543.03 6.322-2.013 8.235v-.2q.002-.812.008-1.623a4.8 4.8 0 0 1 .134-1.922 1.06 1.06 0 0 0-.059-1.089.61.61 0 0 0-.485-.561 23.4 23.4 0 0 0-3.824-.064q-1.26-.002-2.519.006c-.868-10.281 1.877-20.294 4.533-30.159a153 153 0 0 1 3.642 17.267 62.4 62.4 0 0 1 .583 10.112m12.167-19.918c-.8-3.438-1.721-6.846-2.651-10.252a.775.775 0 0 0-1.508-.336c-1.686 6.371-3.488 12.707-4.6 19.21-.944 5.5-1.932 11.575-.465 17.071.631 2.365 2.265 4.5 4.607 4.834.054 2.214.061 4.43-.005 6.643a.725.725 0 0 0 1.449 0q.086-3.334-.08-6.66h.008a4.8 4.8 0 0 0 4.485-3.063c1.2-2.626 1.187-5.834 1.2-8.668a80.7 80.7 0 0 0-2.439-18.777m.62 23.376c-.22 2.1-1.332 6.588-4.394 5.418a.68.68 0 0 0-.832.315c-2.082-.449-3.064-2.965-3.426-4.97a31 31 0 0 1-.2-8 102 102 0 0 1 2.947-16.4c.6-2.411 1.252-4.81 1.9-7.209 2.562 10.063 5.1 20.415 4.009 30.841"/></g></svg>