<svg xmlns="http://www.w3.org/2000/svg" width="113.983" height="83.671" viewBox="0 0 113.983 83.671"><defs><clipPath id="a"><path fill="none" d="M0 0h113.983v76.566H0z"/></clipPath><clipPath id="b"><path fill="none" d="M0 0h2.065v2.899H0z"/></clipPath><clipPath id="c"><path fill="none" d="M0 0h7.643v14.933H0z"/></clipPath><clipPath id="d"><path fill="none" d="M0 0h19.326v9.771H0z"/></clipPath></defs><path fill="#e8e8e8" d="M102.241 89.1c0 5.084-22.887 9.206-51.12 9.206S0 94.186 0 89.1s22.887-9.2 51.12-9.2 51.12 4.122 51.12 9.206" style="mix-blend-mode:multiply;isolation:isolate" transform="translate(5.871 -14.638)"/><g clip-path="url(#a)"><path fill="#d19364" d="M102.903 75.889H10.392a3.495 3.495 0 0 1 0-6.989h92.511a3.495 3.495 0 1 1 0 6.989"/><path fill="#c1785b" d="M102.903 73.802H10.392a3.5 3.5 0 0 1-3.337-2.454 3.5 3.5 0 0 0 3.337 4.535h92.511a3.5 3.5 0 0 0 3.337-4.535 3.5 3.5 0 0 1-3.337 2.454"/><path fill="#003023" d="M102.903 76.565H10.392a4.171 4.171 0 0 1 0-8.342h92.511c5.451.089 5.505 8.243 0 8.342m-92.511-6.992c-3.672.057-3.729 5.568 0 5.636h92.511a2.818 2.818 0 1 0 0-5.636Z"/><path fill="#e8e8e8" d="M50.423 52.638h12.45v13.266h-12.45z"/><path fill="#003023" d="M62.873 66.58h-12.45a.676.676 0 0 1-.676-.677V52.638a.676.676 0 0 1 .676-.677h12.45a.677.677 0 0 1 .677.677v13.265a.677.677 0 0 1-.677.677M51.1 65.227h11.1V53.314H51.1Z"/><path fill="#fff" d="M73.269 68.882H40.028c-3.216-.012-3.235-4.921 0-4.935h33.241c3.216.012 3.235 4.921 0 4.935"/><path fill="#fff" d="M73.268 66.8H40.027a2.47 2.47 0 0 1-2.238-1.427 2.467 2.467 0 0 0 2.238 3.508h33.241a2.47 2.47 0 0 0 2.237-3.508 2.47 2.47 0 0 1-2.237 1.427"/><path fill="#003023" d="M73.269 69.559H40.028c-4.122-.071-4.14-6.214 0-6.289h33.241c4.122.071 4.14 6.214 0 6.289m-33.241-4.936a1.792 1.792 0 0 0 0 3.582h33.241a1.791 1.791 0 1 0 0-3.582Z"/><path fill="#fff" d="M87.588 52.914H25.705a7.183 7.183 0 0 1-7.183-7.184V7.863A7.183 7.183 0 0 1 25.705.677h61.883a7.184 7.184 0 0 1 7.185 7.186V45.73a7.184 7.184 0 0 1-7.185 7.184"/><path fill="#fff" d="M91.456 50.831H21.841a3.317 3.317 0 0 1-3.318-3.318c-.191 2.551.174 5.261 3.318 5.4h69.615c3.117-.137 3.523-2.831 3.318-5.4a3.32 3.32 0 0 1-3.318 3.318"/><path fill="#003023" d="M91.455 53.59H21.84a4 4 0 0 1-3.994-3.99V3.994A4 4 0 0 1 21.84 0h69.615a4 4 0 0 1 3.995 3.994V49.6a4 4 0 0 1-3.995 3.99M21.84 1.353a2.644 2.644 0 0 0-2.641 2.641V49.6a2.643 2.643 0 0 0 2.641 2.641h69.615a2.644 2.644 0 0 0 2.642-2.641V3.994a2.645 2.645 0 0 0-2.642-2.641Z"/><path fill="#e8e8e8" d="M94.773 43.73H18.522V5.03A4.353 4.353 0 0 1 22.875.677H90.42a4.353 4.353 0 0 1 4.353 4.353Z"/><path fill="#003023" d="M94.774 44.406c-.694-.669-77.059 1.28-76.926-.675V3.511A3.515 3.515 0 0 1 21.357 0h70.582a3.515 3.515 0 0 1 3.511 3.511V43.73a.676.676 0 0 1-.676.676m-75.575-1.353h74.9V3.511a2.16 2.16 0 0 0-2.158-2.158H21.357a2.16 2.16 0 0 0-2.158 2.158Z"/><path fill="#9bdaf3" d="M84.234 40.059H29.061a7.485 7.485 0 0 1-7.484-7.485V11.611a7.485 7.485 0 0 1 7.484-7.485h55.173a7.485 7.485 0 0 1 7.487 7.485v20.963a7.485 7.485 0 0 1-7.485 7.485"/><path fill="#003023" d="M90.343 40.735h-67.39a2.055 2.055 0 0 1-2.052-2.053V5.501a2.055 2.055 0 0 1 2.052-2.052h67.39a2.055 2.055 0 0 1 2.053 2.052v33.181a2.055 2.055 0 0 1-2.053 2.053M22.953 4.802a.7.7 0 0 0-.7.7v33.18a.7.7 0 0 0 .7.7c.7-.663 68.243 1.288 68.088-.7V5.499c.155-1.986-67.4-.036-68.09-.7"/><path fill="#4fbdeb" d="M89.88 30.351c-.171 9.986-15.024 9.984-15.193 0 .171-9.986 15.024-9.984 15.193 0"/><path fill="#fff" d="M84.513 37.348c-.4-.163-.4-29.93 0-30.1.4.163.4 29.93 0 30.1m-9.164 0c-.4-.163-.4-29.93 0-30.1.4.163.4 29.93 0 30.1m-9.165 0c-.4-.163-.4-29.93 0-30.1.4.163.4 29.93 0 30.1m-9.164 0c-.4-.163-.4-29.93 0-30.1.4.163.4 29.93 0 30.1m-9.164 0c-.4-.163-.4-29.93 0-30.1.4.163.4 29.93 0 30.1m-9.164 0c-.4-.163-.4-29.93 0-30.1.4.163.4 29.93 0 30.1m-9.165 0c-.4-.163-.4-29.93 0-30.1.4.163.4 29.93 0 30.1"/><path fill="#fff" d="M85.681 36.742c-.21-.206-57.577.4-57.531-.208-.226-.228 58.776-.752 57.531.208m0-4.745c-.21-.206-57.577.4-57.531-.208-.226-.228 58.776-.752 57.531.208m0-4.744c-.21-.206-57.577.4-57.531-.208-.226-.228 58.776-.752 57.531.208m0-4.745c-.21-.206-57.577.4-57.531-.208-.226-.228 58.776-.752 57.531.208m0-4.748c-.21-.206-57.577.4-57.531-.208-.226-.228 58.776-.752 57.531.208m0-4.741c-.21-.206-57.577.4-57.531-.208-.226-.228 58.776-.752 57.531.208m0-4.746c-.21-.206-57.577.4-57.531-.208-.226-.228 58.776-.752 57.531.208"/><path fill="#003023" d="M53.909 22.66a.419.419 0 0 1-.275-.729l7.71-6.792a.415.415 0 0 1 .468-.056l10.952 5.745 11.714-9.735a.417.417 0 0 1 .532.641l-11.927 9.912a.42.42 0 0 1-.46.048l-10.945-5.741-7.495 6.6a.4.4 0 0 1-.275.1"/><path fill="#acd350" d="M74.286 21.325a1.469 1.469 0 0 1-2.937 0 1.469 1.469 0 0 1 2.937 0"/><path fill="#003023" d="M72.817 23.21a1.885 1.885 0 0 1 0-3.769 1.885 1.885 0 0 1 0 3.769m0-2.937a1.052 1.052 0 0 0 0 2.1 1.052 1.052 0 0 0 0-2.1"/><path fill="#acd350" d="M86.217 11.412a1.469 1.469 0 0 1-2.938 0 1.469 1.469 0 0 1 2.938 0"/><path fill="#003023" d="M84.749 13.297a1.885 1.885 0 0 1 0-3.769 1.885 1.885 0 0 1 0 3.769m0-2.937a1.052 1.052 0 0 0 0 2.1 1.052 1.052 0 0 0 0-2.1"/><path fill="#acd350" d="M63.096 15.354a1.469 1.469 0 0 1-2.938 0 1.469 1.469 0 0 1 2.938 0"/><path fill="#003023" d="M61.627 17.24a1.885 1.885 0 0 1 0-3.77 1.885 1.885 0 0 1 0 3.77m0-2.938a1.052 1.052 0 0 0 0 2.1 1.052 1.052 0 0 0 0-2.1"/><path fill="#acd350" d="M55.011 22.243a1.469 1.469 0 0 1-2.937 0 1.469 1.469 0 0 1 2.937 0"/><path fill="#003023" d="M53.541 24.129a1.885 1.885 0 0 1 0-3.77 1.885 1.885 0 0 1 0 3.77m0-2.938a1.052 1.052 0 0 0 0 2.1 1.052 1.052 0 0 0 0-2.1"/><path fill="#003023" d="M58.439 35.441c-.146.018-7.442-2.178-7.582-2.194a.42.42 0 0 1-.294-.329L47.8 16.766l-6.11 10.229a.42.42 0 0 1-.327.2c-.511.178-11.675-14.31-12.018-14.46-1.02-3.974 12.083 14.061 11.934 13.321l6.382-10.687a.419.419 0 0 1 .768.143L51.34 32.52l7.215 2.1a.418.418 0 0 1-.117.816"/><path fill="#8c8fec" d="M52.371 32.847a1.554 1.554 0 0 1-3.106 0 1.554 1.554 0 0 1 3.106 0"/><path fill="#003023" d="M50.819 34.813a1.97 1.97 0 0 1 0-3.939 1.97 1.97 0 0 1 0 3.939m0-3.106a1.137 1.137 0 0 0 0 2.274 1.137 1.137 0 0 0 0-2.274"/><path fill="#8c8fec" d="M60.168 35.053a1.554 1.554 0 0 1-3.106 0 1.554 1.554 0 0 1 3.106 0"/><path fill="#003023" d="M58.615 37.024a1.97 1.97 0 0 1 0-3.939 1.97 1.97 0 0 1 0 3.939m0-3.106a1.137 1.137 0 0 0 0 2.274 1.137 1.137 0 0 0 0-2.274"/><path fill="#8c8fec" d="M49.727 15.895a1.554 1.554 0 0 1-3.106 0 1.554 1.554 0 0 1 3.106 0"/><path fill="#003023" d="M48.174 17.865a1.97 1.97 0 0 1 0-3.939 1.97 1.97 0 0 1 0 3.939m0-3.106a1.137 1.137 0 0 0 0 2.274 1.137 1.137 0 0 0 0-2.274"/><path fill="#8c8fec" d="M31.066 12.474a1.554 1.554 0 0 1-3.106 0 1.554 1.554 0 0 1 3.106 0"/><path fill="#003023" d="M29.512 14.444a1.97 1.97 0 0 1 0-3.939 1.97 1.97 0 0 1 0 3.939m0-3.106a1.137 1.137 0 0 0 0 2.274 1.137 1.137 0 0 0 0-2.274"/><path fill="#8c8fec" d="M42.885 26.628a1.554 1.554 0 0 1-3.106 0 1.554 1.554 0 0 1 3.106 0"/><path fill="#003023" d="M41.332 28.594a1.97 1.97 0 0 1 0-3.939 1.97 1.97 0 0 1 0 3.939m0-3.106a1.137 1.137 0 0 0 0 2.274 1.137 1.137 0 0 0 0-2.274"/><path fill="#8c8fec" d="m.937 45.958 5.1 6.865a1.294 1.294 0 0 0 2.1-.029l4.806-6.865a1.294 1.294 0 0 0-1.06-2.036h-1.039V28.008a1.294 1.294 0 0 0-1.294-1.293H4.218a1.294 1.294 0 0 0-1.293 1.293v15.885h-.95a1.294 1.294 0 0 0-1.038 2.065"/><g clip-path="url(#b)" opacity=".2" style="isolation:isolate" transform="translate(8.678 46.624)"><path d="M.422 1.097c1.064-1.875 2.312-1.154 1.22.7C.579 3.672-.67 2.951.422 1.097"/></g><path fill="#8c8fec" d="M9.317 49.599c-.861 1.4-1.439 3.12-3.247 3.266a1.292 1.292 0 0 0 2.063-.073l4.806-6.865a1.294 1.294 0 0 0-.649-1.969c-.122.25.058.991-.081 1.24-.969 1.616-1.785 2.787-2.893 4.4"/><g clip-path="url(#c)" opacity=".2" style="isolation:isolate" transform="translate(2.924 26.667)"><path fill="#fff" d="M4.501 3.876A18.3 18.3 0 0 1 7.642.546c-.419-.948-5.563-.33-6.349-.5A1.294 1.294 0 0 0-.001 1.339v13.594A24.1 24.1 0 0 1 4.501 3.876"/></g><path fill="#003023" d="M7.074 54.021c-1.6.412-5.733-6.837-6.68-7.66a2 2 0 0 1 1.854-3.145V28.007a1.97 1.97 0 0 1 1.97-1.969h5.331a1.97 1.97 0 0 1 1.97 1.969v15.209a2.011 2.011 0 0 1 1.974 3.1c-.978.9-4.716 8.084-6.42 7.705m-5.1-9.452a.605.605 0 0 0-.495.985c7.195 9.023 3.911 9.572 10.908-.014a.605.605 0 0 0-.505-.971c-.558-.027-1.726.2-1.713-.677-.334-.3.766-17.131-.616-16.5H4.218a.617.617 0 0 0-.617.616v15.884c.019.845-1.083.668-1.625.677"/><path fill="#a2e247" d="m113.048 8.803-5.079-6.837a1.288 1.288 0 0 0-2.09.029l-4.788 6.838a1.288 1.288 0 0 0 1.055 2.027h1.033v15.82a1.29 1.29 0 0 0 1.289 1.288h5.31a1.29 1.29 0 0 0 1.289-1.288V10.86h.944a1.288 1.288 0 0 0 1.034-2.057"/><path fill="#e2efc2" d="M104.918 7.046c-1.059 1.866-2.3 1.149-1.216-.7 1.059-1.867 2.3-1.149 1.216.7"/><path fill="#bddc74" d="M104.702 5.175c.858-1.4 1.433-3.106 3.232-3.252a1.29 1.29 0 0 0-2.056.072l-4.787 6.838a1.29 1.29 0 0 0 .647 1.962c.121-.25-.058-.988.08-1.236.965-1.609 1.778-2.775 2.882-4.384"/><path fill="#8cc43d" d="M106.586 24.157a18.3 18.3 0 0 1-3.129 3.317c.417.944 5.54.328 6.324.493a1.29 1.29 0 0 0 1.288-1.285V13.143a24 24 0 0 1-4.483 11.014"/><path fill="#003023" d="M109.779 28.643h-5.31a1.967 1.967 0 0 1-1.965-1.965V11.536a2.005 2.005 0 0 1-1.966-3.092c.965-.9 4.7-8.022 6.367-7.675 1.638-.429 5.716 6.794 6.684 7.63a1.993 1.993 0 0 1-1.846 3.137v15.143a1.967 1.967 0 0 1-1.965 1.965m-2.843-26.522c-.276-.5-5.124 7.032-5.287 7.1a.6.6 0 0 0-.042.633c.354.777 2.251-.218 2.252 1.006.332.293-.76 17.064.612 16.431h5.31a.61.61 0 0 0 .612-.612V10.859a.677.677 0 0 1 .677-.677h.945a.6.6 0 0 0 .491-.976c-.168-.067-5.309-7.564-5.57-7.084"/><path fill="#fff" d="M97.413 68.628H84.604c-.017-8.614 12.829-8.61 12.809 0"/><path fill="#003023" d="M97.416 69.304H84.604a.7.7 0 0 1-.676-.826c.167-9.307 14-9.3 14.161 0a.7.7 0 0 1-.676.825m-12.109-1.352h11.412c-.584-6.806-10.826-6.8-11.408 0"/><path fill="#fff" d="m86.393 35.983 2.163-2.163 6.428 6.428-2.163 2.163z"/><path fill="#003023" d="M92.818 43.089a.68.68 0 0 1-.479-.2l-6.421-6.427a.68.68 0 0 1 0-.958l2.163-2.162a.676.676 0 0 1 .957 0l6.428 6.428a.68.68 0 0 1 .2.478c.139.416-2.164 2.339-2.361 2.642a.67.67 0 0 1-.478.2m-5.471-7.1 5.462 5.464 1.206-1.206-5.471-5.471Z"/><path fill="#85e5aa" d="M102.252 49.68a2.507 2.507 0 0 0 0-3.544l-8.26-8.26-3.544 3.544 8.26 8.26a2.507 2.507 0 0 0 3.544 0"/><path fill="#6bb788" d="m91.59 40.279 8.02 8.02a2.506 2.506 0 0 0 3.3.211 2.507 2.507 0 0 1-4.205 1.171l-8.261-8.26Z"/><path fill="#003023" d="M100.48 51.089a3.17 3.17 0 0 1-2.25-.93l-8.261-8.26a.68.68 0 0 1-.2-.479c-.306-.251 3.634-3.807 3.743-4.022a.676.676 0 0 1 .957 0l8.261 8.26a3.181 3.181 0 0 1-2.251 5.431m-9.075-9.669 7.782 7.782a1.83 1.83 0 1 0 2.588-2.588l-7.777-7.781Z"/><path fill="#cfb2ff" d="M82.86 40.005c-12.816-.229-12.814-19.275 0-19.5 12.816.229 12.814 19.276 0 19.5m0-16.277c-8.576.154-8.574 12.9 0 13.05 8.576-.154 8.574-12.9 0-13.05"/><g clip-path="url(#d)" opacity=".2" style="isolation:isolate" transform="translate(73.108 30.074)"><path d="M15.138 6.006C8.967 9.53 2.824 5.736.003.006c-.265 11.754 17.2 13.471 19.323 2.037a13.3 13.3 0 0 1-4.187 3.968"/></g><path fill="#003023" d="M82.86 40.682c-13.705-.246-13.7-20.613 0-20.857 13.705.246 13.7 20.613 0 20.857m0-19.5c-11.927.214-11.925 17.938 0 18.151 11.927-.214 11.925-17.938 0-18.151m0 16.277c-9.464-.17-9.463-14.234 0-14.4 9.465.17 9.463 14.235 0 14.4m0-13.05c-7.686.137-7.685 11.561 0 11.7 7.686-.137 7.685-11.561 0-11.7"/><path fill="#eaf7fd" d="M82.484 34.016c-1.869-.967-3.322-2.175-3.609-4.4-.1-.81-1.331-.87-1.312 0-.127 4.8 6.564 7.149 4.921 4.4m1.333-7.728a4.09 4.09 0 0 1 2.578 3.141c.075.578.951.622.938 0 .12-3.365-4.678-5.14-3.516-3.141"/><path fill="#003023" d="M66.418 29.453c.38.51.876 1.83 1.7 1.122.815-.486-.279-1.466-.543-1.943.4-.094 1.5-.308.871-.906l-2.882-1.877a.424.424 0 0 0-.655.375l.167 3.549c.175.878 1.031-.066 1.341-.32"/></g></svg>